<svg width="600" height="600" viewBox="0 0 600 600" fill="none" xmlns="http://www.w3.org/2000/svg">
<path d="M196.4 129.431C197.57 128.441 198.81 127.541 200.1 126.721C200.07 126.771 200.04 126.831 200.02 126.881C198.76 127.691 197.55 128.581 196.4 129.541V129.431Z" fill="url(#paint0_linear_218_2410)"/>
<path d="M196.4 129.431C197.57 128.441 198.81 127.541 200.1 126.721C200.07 126.771 200.04 126.831 200.02 126.881C198.76 127.691 197.55 128.581 196.4 129.541V129.431Z" fill="#324CDA"/>
<path d="M497.56 375.49C485.35 369.09 474.8 359.08 460.94 357.5C459.87 370.17 451.5 379.41 439.22 382.7C427.49 385.84 414.13 381.27 406.63 371.76C403.69 373 400.32 373.84 398.41 374.61C393.93 376.42 390.3 378.27 385.3 378.17C382.51 378.11 380.3 377.25 377.83 376.31C377.26 376.23 376.7 376.13 376.14 376.01C374.17 376.08 372.23 375.84 370.3 375.27C369.51 375.04 368.75 374.71 368 374.36C366.31 374.23 364.66 373.85 363.09 373.23C363.03 373.21 362.97 373.2 362.92 373.19C362.79 373.18 362.71 373.16 362.66 373.16C362.49 373.15 362.38 373.14 362.41 373.14C362.12 373.1 361.87 373.07 361.66 373.04C364.45 373.75 358.52 372.63 361.66 373.04C361.43 372.98 361.14 372.91 360.77 372.82C359.02 372.4 357.46 372.04 355.83 371.17C354.42 370.43 353.23 369.41 352.26 368.24C347.62 368.21 342.97 368.2 338.29 368.22C337.41 369.1 335.55 364.68 334.5 365.31C334.47 365.33 329.21 365.09 324.36 365.85C324.32 365.85 322.91 364.19 317.85 368.4C316.12 368.42 314.39 368.44 312.65 368.47C312.3 368.79 311.95 369.11 311.61 369.43C309.72 371.22 307.84 373.15 305.61 374.54C304.24 375.26 302.82 375.89 301.36 376.43C303.09 375.59 302.31 375.9 299.03 377.36C296.72 378.09 294.27 378.23 291.86 378.32C289.47 378.4 287.09 377.58 284.76 377.67C286.26 377.9 286.36 377.99 285.07 377.94C283.48 377.81 281.91 377.57 280.35 377.21C278.89 376.79 277.54 376.16 276.31 375.3C275.96 375.06 275.65 374.84 275.37 374.64C274.85 374.53 274.33 374.39 273.82 374.2C273.7 374.16 273.6 374.13 273.51 374.11C272.68 374.09 271.86 374.11 271.04 374.21C267.03 374.45 265.48 374.61 261.17 375.8C257.27 376.88 252.58 378.88 247.83 379.56C248 379.56 247.86 379.58 247.24 379.65C247.44 379.63 247.63 379.59 247.83 379.56C247.24 379.58 242.88 379.98 242.23 379.95C240.74 379.76 239.24 379.56 237.75 379.35C239.35 379.33 239.13 379.24 237.11 379.07C234.49 378.42 232.26 378.1 229.77 376.75C229.34 376.43 228.9 376.13 228.43 375.87C228.18 375.68 227.96 375.52 227.75 375.36C226.92 375.27 226.09 375.15 225.26 375C223.5 374.61 221.84 373.83 220.07 373.48C221.05 373.51 220.76 373.48 219.21 373.43C218.02 373.43 216.82 373.41 215.63 373.4C213.31 373.38 210.98 373.4 208.66 373.34C206.4 373.28 204.11 373.02 201.85 373.07C200.06 373.1 197.69 373.66 195.62 373.71C195.24 373.71 192.16 373.63 192.76 373.54C192.05 373.61 191.35 373.72 190.65 373.83C185.18 375.51 179.83 375.34 173.63 374.68C176.98 375.04 170.67 374.48 169.22 374.16C168.89 374.09 168.55 374 168.22 373.91C166.24 374.02 164.43 373.93 162.75 373.52C159.65 373.97 156.49 373.13 153.85 370.51C153.46 370.12 153.11 369.72 152.79 369.31C151.07 368.44 148.93 367.73 146.76 366.82C144.64 365.93 142.79 364.61 141.5 362.94C135.57 362.08 129.65 361.11 123.74 360.02C117.28 358.83 99.4204 362.63 94.6904 367.12C94.9004 367.69 95.0704 368.28 95.1704 368.89C95.3504 369.15 95.5304 369.4 95.7104 369.66C96.5304 371.06 97.0504 372.6 97.7404 374.06C99.8104 378.51 101.29 382.41 101.92 387.26C102.54 388.16 103.18 389.07 103.84 390C108.7 396.76 115.06 402.89 120.36 410.19C123.26 414.18 126.2 418.13 129.12 422.1C130.54 424.02 131.78 425.75 132.81 427.9C133.11 428.6 133.32 429.08 133.45 429.39C133.45 429.39 133.45 429.39 133.45 429.4C133.8 430.05 134.18 430.68 134.54 431.32C135.43 432.89 136.1 434.5 136.89 436.12C136.59 435.47 136.35 434.83 137.61 437.21C138.19 438.3 138.65 439.42 139.13 440.56C139.13 440.57 139.13 440.58 139.14 440.59C139.19 440.61 139.24 440.63 139.3 440.66C140.07 441.01 140.7 441.9 141.32 442.48C141.85 442.97 142.37 443.48 142.91 443.96C142.65 443.73 141.34 442.68 142.85 443.96C145.12 445.87 147.25 447.46 149.28 449.57C149.54 449.84 149.81 450.12 150.07 450.39C150.3 450.54 150.65 450.77 151.15 451.1C152.41 451.94 153.92 453 154.94 454.14C155.16 454.39 155.29 454.54 155.36 454.64C157.02 455.85 158.74 456.93 160.16 458.51C161.35 459.84 162.29 461.38 163.47 462.71C164.61 464 163.18 462.18 163.12 462.14C164.69 463.21 164.79 463.33 164.5 463.16C164.95 463.45 165.4 463.75 165.86 464.02C169.68 466.28 172.41 469.19 175.5 472.3C176.79 473.6 177.97 475.11 179.26 476.41C178.84 475.91 180 476.62 180.89 477.16C181.17 477.23 183.54 478.3 184.11 478.51C186.61 479.45 189.08 480.43 191.52 481.52C194.83 483 197.82 485.02 201.09 486.57C202.62 487.29 204.17 487.94 205.7 488.67C206.69 489.14 207.72 489.62 208.68 490.17C208.74 490.2 209.03 490.38 209.34 490.56C210.27 490.93 212.53 491.97 212.33 491.88C212.78 492.07 215.71 493.44 217.08 494.27C217.1 494.27 217.11 494.27 217.13 494.27C218.59 494.08 223.6 495.51 224.96 496.6C226.08 496.79 226.85 497.01 228.02 497.36C229.22 497.62 230.37 498.04 231.46 498.6C232.02 498.83 232.46 499.02 232.79 499.16C233.22 499.33 233.79 499.56 233.84 499.58C235.39 500.22 236.95 500.87 238.49 501.56C238.67 501.64 239.52 502.02 240.05 502.26C240.47 502.42 240.95 502.61 240.98 502.62C242.53 503.24 244.19 503.84 245.67 504.61C246.47 505.03 247.27 505.48 248.03 506.01C248.94 506.19 249.86 506.38 250.77 506.56C248.43 506.11 253.89 506.75 253.86 506.75C255.51 506.75 257.17 506.65 258.82 506.68C262.59 506.75 265.06 507.63 268.44 508.74C268.67 508.73 269.17 508.73 269.94 508.74C270.59 508.58 271.4 508.37 271.68 508.31C276.43 507.24 282.03 506.55 286.17 509.13C294.37 514.24 302.08 506.32 309.41 508.69C309.55 508.69 309.67 508.69 309.84 508.68C310.75 508.63 311.66 508.59 312.57 508.54C314.05 508.47 315.53 508.39 317.01 508.32C320.79 508.13 324.55 508.04 328.34 508.03C331.61 508.03 335.06 508.33 338.35 508.06C337.05 508.11 341.01 507.18 341.36 507.08C341.73 506.98 342.03 506.89 342.28 506.83C342.56 506.69 343.01 506.48 343.69 506.18C347.23 504.64 350.74 502.89 354.48 501.89C357.86 500.99 361.36 500.65 364.76 499.84C364.35 500.04 363.93 500.23 363.52 500.43C365.4 499.51 367.33 498.67 369.29 497.92C369.36 497.89 370.9 497.23 371.79 496.85C371.66 496.9 371.55 496.95 371.42 497C372.81 496.41 372.52 496.53 371.79 496.85C374.31 495.79 376.56 494.99 379.11 494.11C383.19 492.71 379.38 497.64 378.95 497.97C384.31 493.89 391.77 488.26 398.4 487.6C398.93 487.44 399.32 487.33 399.57 487.27C400.11 486.96 400.63 486.65 401.15 486.31C402.25 485.6 403.29 484.82 404.34 484.04C406.73 482.26 409.12 480.59 411.68 479.06C413.62 477.91 415.61 476.84 417.55 475.69C416.63 476.19 419.75 474.04 419.97 473.87C421.87 472.38 424.05 470.48 426.23 469.25C426.88 468.88 427.24 468.71 427.42 468.64C427.52 468.56 427.61 468.49 427.73 468.39C429.77 466.73 431.88 465.17 433.92 463.52C429.53 467.08 438.76 459.93 437.88 460.41C437.76 460.49 437.64 460.56 437.52 460.65C437.7 460.52 437.82 460.45 437.88 460.41C438.85 459.76 439.83 459.15 440.85 458.59C441.66 458.14 442.49 457.73 443.32 457.31C442.6 457.63 445.2 456.03 445.71 455.53C447.7 453.62 449.49 451.52 451.25 449.39C453.82 446.27 458.52 444.55 461.14 441.45C466.43 435.18 465.49 438.59 465.99 437.88C466.16 437.65 466.38 436.1 466.67 435.7C471.13 429.67 473.83 426.34 478.91 420.81C480.26 419.34 479.04 415.04 480.4 413.58C480.53 413.44 480.64 413.33 480.72 413.25C480.86 413.04 481.03 412.79 481.23 412.49C483.18 409.65 484.76 406.8 486.26 403.7C487.38 401.38 488.51 399.12 489.97 396.98C491.39 394.9 492.96 392.9 494.66 391.05C494.75 390.95 495.21 390.44 495.65 389.96C495.88 387.99 496.03 385.53 496.22 384.44C496.67 381.76 500.44 379.47 501.28 376.88C501.51 376.18 497.27 376.15 497.54 375.48L497.56 375.49Z" fill="url(#paint1_linear_218_2410)"/>
<path d="M207.22 84.7909C235.78 73.2509 267.12 66.8809 300 66.8809C433.08 66.8809 540.96 171.251 540.96 300.001C540.96 428.751 433.08 533.121 300 533.121C166.92 533.121 59.04 428.751 59.04 300.001C59.04 272.521 63.95 246.161 72.98 221.681" stroke="#211E1E" stroke-width="6" stroke-miterlimit="10" stroke-linecap="round"/>
<path d="M314.1 90.4805C328.29 91.6305 342.59 94.1705 356.84 98.1805C366.33 100.85 375.49 104.09 384.31 107.86C471.82 145.22 524.9 233.91 515.1 325.13C514.59 329.9 513.9 334.68 513.04 339.45C511.89 345.89 510.41 352.33 508.6 358.75C477.21 470.21 358.36 534.27 243.16 501.82C174.79 482.56 123.05 433.65 98.8697 373.76C94.6197 363.25 91.2097 352.4 88.7297 341.32C81.4897 309.14 81.9097 274.95 91.3997 241.26C92.4497 237.54 94.5297 230.91 97.9297 222.55C102.02 212.45 108 199.83 116.34 186.77" stroke="#211E1E" stroke-width="6" stroke-miterlimit="10" stroke-linecap="round"/>
<path d="M500.41 372.231C496.72 372.681 493.29 372.051 490.03 370.251C486.97 368.561 484.34 366.261 481.67 364.041C475.76 359.131 468.34 353.781 460.25 354.561C458.98 354.681 457.64 355.611 457.75 357.061C458.4 366.011 452.28 373.851 444.82 378.121C436.29 383.011 425.63 382.411 417.2 377.641C412.85 375.181 409.39 371.691 407.14 367.221C406.23 365.411 402.9 365.691 402.57 367.821C401.92 371.961 398.2 374.111 394.54 375.431C390.98 376.711 387.58 377.291 383.8 376.991C375.54 376.321 367.43 373.211 359.73 370.331C352.4 367.581 345.31 364.851 337.55 363.511C330.45 362.281 322.91 361.901 316.05 364.481C311.22 366.291 307.23 369.351 303 372.221C300.82 373.701 298.56 375.081 296.13 376.121C295.15 376.541 293.6 377.241 292.4 377.361C289.68 377.631 286.6 376.841 283.97 376.241C281.34 375.641 278.52 374.851 275.8 374.121C272.99 373.371 269.99 372.401 267.07 372.211C262.12 371.871 257.52 373.481 252.99 375.271C248.55 377.011 243.94 378.991 239.06 378.461C236.39 378.171 233.76 376.941 231.26 376.011C228.58 375.011 225.9 374.001 223.16 373.181C212.63 370.051 201.44 371.831 190.68 372.591C180.36 373.311 169.66 373.751 159.79 370.161C157.29 369.251 154.93 368.041 152.67 366.631C149.93 364.921 147.42 369.251 150.15 370.951C169.65 383.111 192.63 375.641 213.98 376.471C219.77 376.701 225.43 379.171 230.79 381.161C233.42 382.131 235.99 383.141 238.79 383.441C241.39 383.721 244.04 383.421 246.58 382.801C251.48 381.591 255.97 379.161 260.83 377.841C266.23 376.381 271.36 378.111 276.6 379.531C279.41 380.291 282.22 381.051 285.08 381.571C287.72 382.051 291.06 382.831 293.72 382.231C296.61 381.581 299.48 380.201 302.03 378.741C306.43 376.231 310.27 372.831 314.78 370.481C327.69 363.771 343.76 369.591 356.57 374.461C364.61 377.511 372.83 380.581 381.4 381.721C385.19 382.231 388.91 382.221 392.63 381.251C396.91 380.131 401.61 378.351 404.6 374.921C406.04 373.261 407.05 371.331 407.4 369.151C405.88 369.351 404.35 369.551 402.83 369.751C407.53 379.061 417.78 385.451 428.09 386.321C434.07 386.831 440.02 386.081 445.45 383.451C450.36 381.061 454.64 377.441 457.86 373.031C461.08 368.621 463.18 362.761 462.76 357.061C461.93 357.891 461.09 358.731 460.26 359.561C468.03 358.811 474.73 364.761 480.32 369.381C486.16 374.201 492.53 378.181 500.42 377.221C501.77 377.061 502.9 376.191 502.92 374.721C502.93 373.491 501.76 372.061 500.42 372.221L500.41 372.231Z" fill="#211E1E"/>
<path d="M344.83 251.21C360.96 253.78 373.44 258.13 373.44 263.35C373.44 271.4 347.92 277.93 316.45 277.93C284.98 277.93 259.46 271.4 259.46 263.35C259.46 257.58 270.38 252.6 289.38 250.23" stroke="#211E1E" stroke-width="5" stroke-miterlimit="10" stroke-linecap="round"/>
<path d="M291.019 260.42C292.219 252.6 294.889 244.64 299.879 238.37C304.409 232.67 311.419 228.24 318.959 229.46C320.289 229.67 321.649 229.12 322.039 227.71C322.369 226.52 321.629 224.85 320.289 224.63C313.189 223.49 306.429 225.73 300.899 230.22C295.549 234.55 291.909 240.7 289.409 247.03C287.879 250.91 286.839 254.97 286.199 259.09C285.999 260.42 286.539 261.78 287.949 262.17C289.129 262.5 290.819 261.77 291.029 260.42H291.019Z" fill="#211E1E"/>
<path d="M346.93 260.761C344.81 246.951 338.3 231.061 324.29 225.721C320.55 224.291 316.55 224.001 312.62 224.641C311.29 224.851 310.54 226.521 310.87 227.721C311.26 229.141 312.61 229.681 313.95 229.471C321.48 228.261 328.89 232.731 333.2 238.671C338.13 245.461 340.84 253.881 342.1 262.101C342.3 263.441 343.98 264.171 345.18 263.851C346.61 263.461 347.13 262.111 346.93 260.771V260.761Z" fill="#211E1E"/>
<path d="M317.549 224.071C317.489 223.931 317.429 223.801 317.369 223.661L317.619 224.261C316.899 222.541 316.409 220.741 316.149 218.891L316.239 219.551C316.209 219.311 316.169 219.071 316.189 218.831L316.099 219.491L316.139 219.361L315.889 219.961C315.729 220.201 315.539 220.391 315.299 220.551L314.699 220.801C315.219 220.581 315.839 220.551 316.389 220.481L315.729 220.571C316.849 220.421 318.019 220.271 319.149 220.321L318.489 220.231C318.569 220.231 318.649 220.261 318.729 220.291L318.129 220.041C317.949 219.931 317.799 219.791 317.689 219.621C317.549 219.421 317.529 219.411 317.629 219.571L317.379 218.971C317.449 219.141 317.499 219.311 317.529 219.491L317.439 218.831C317.469 219.081 317.469 219.311 317.439 219.561L317.529 218.901C317.369 220.021 316.809 221.081 316.379 222.121C315.919 223.231 315.459 224.331 314.999 225.441C314.769 226.001 314.959 226.871 315.249 227.371C315.549 227.891 316.149 228.381 316.739 228.521C317.379 228.671 318.099 228.631 318.669 228.271C319.239 227.911 319.549 227.411 319.819 226.781C320.469 225.221 321.109 223.671 321.759 222.111C322.129 221.211 322.409 220.341 322.459 219.361C322.529 217.971 321.929 216.581 320.759 215.801C319.829 215.191 318.609 215.331 317.559 215.411C316.569 215.481 315.579 215.611 314.599 215.751C313.429 215.931 312.219 216.281 311.599 217.411C310.979 218.541 311.239 219.881 311.469 221.141C311.809 223.041 312.439 224.851 313.219 226.621C313.459 227.161 314.169 227.621 314.709 227.771C315.309 227.931 316.109 227.861 316.639 227.521C317.169 227.181 317.639 226.661 317.789 226.031C317.949 225.331 317.819 224.751 317.539 224.101L317.549 224.071Z" fill="#211E1E"/>
<path d="M314.509 220.07C314.359 221.06 314.239 222.06 314.209 223.06C314.199 223.4 314.269 223.73 314.429 224.02C314.529 224.33 314.699 224.6 314.949 224.82L315.459 225.21C315.749 225.39 316.059 225.49 316.389 225.51C316.609 225.57 316.829 225.57 317.049 225.51C317.379 225.49 317.689 225.4 317.979 225.21L318.489 224.82C318.799 224.51 319.009 224.14 319.129 223.72C319.309 222.58 319.439 221.44 319.429 220.28C319.439 219.94 319.369 219.61 319.209 219.32C319.109 219.01 318.939 218.74 318.689 218.52C318.459 218.28 318.199 218.1 317.889 218C317.589 217.84 317.269 217.77 316.929 217.78C316.279 217.81 315.609 218.02 315.159 218.51C314.709 219 314.419 219.6 314.429 220.28C314.429 221.06 314.379 221.85 314.279 222.62L314.369 221.96C314.349 222.1 314.329 222.25 314.309 222.39C315.949 222.61 317.579 222.83 319.219 223.05C319.239 222.38 319.299 221.71 319.389 221.04L319.299 221.7C319.309 221.59 319.329 221.48 319.349 221.38C319.449 221.05 319.469 220.72 319.389 220.38C319.369 220.05 319.279 219.74 319.089 219.45C318.929 219.16 318.719 218.92 318.449 218.75C318.209 218.53 317.929 218.38 317.599 218.3L316.939 218.21C316.489 218.21 316.069 218.33 315.679 218.55L315.169 218.94C314.859 219.25 314.649 219.62 314.529 220.04L314.509 220.07Z" fill="#211E1E"/>
<path d="M283.669 260.23C285.389 264.15 289.549 266.63 293.299 268.33C297.469 270.23 301.889 271.35 306.409 272.03C315.889 273.44 325.629 273.76 334.839 270.72C339.809 269.08 344.499 266.67 348.719 263.58C349.809 262.78 350.349 261.41 349.619 260.16C348.989 259.09 347.289 258.46 346.199 259.26C339.579 264.11 331.769 267.31 323.549 267.95C318.909 268.31 314.239 268 309.619 267.45C305.679 266.99 301.739 266.21 297.999 264.88C294.319 263.56 289.659 261.5 287.989 257.7C287.449 256.46 285.639 256.18 284.569 256.8C283.299 257.55 283.129 258.98 283.669 260.22V260.23Z" fill="#211E1E"/>
<path d="M370.769 264.931C371.719 283.551 373.089 302.151 375.939 320.591C376.659 325.271 377.469 329.931 378.319 334.581C378.559 335.911 380.179 336.661 381.399 336.331C382.799 335.951 383.389 334.591 383.149 333.251C380.109 316.681 378.059 300.111 376.869 283.291C376.439 277.171 376.089 271.051 375.769 264.921C375.609 261.721 370.609 261.701 370.769 264.921V264.931Z" fill="#211E1E"/>
<path d="M256.76 263.841C256.32 272.151 255.94 280.461 255.06 288.741C254.11 297.631 252.48 306.501 250.3 315.241C248.72 321.591 246.87 327.871 244.87 334.101C244.21 336.171 246.72 338.051 248.54 336.921C251.98 334.781 254.99 332.051 258.39 329.871C261.36 327.971 264.35 327.421 267.92 328.151C272.89 329.171 277.6 331.141 282.56 332.221C287.52 333.301 292.41 333.181 297.38 332.281C306.68 330.601 315.77 326.431 325.4 327.781C335.03 329.131 343.53 334.511 352.67 337.651C362.11 340.891 373.28 341.881 382.3 336.881C385.12 335.321 382.6 331.001 379.78 332.561C372.24 336.741 362.85 335.691 354.95 333.141C345.76 330.171 337.44 324.851 327.82 323.131C322.8 322.231 317.86 322.461 312.87 323.441C308.14 324.361 303.53 325.831 298.83 326.891C294.3 327.911 289.63 328.481 285.02 327.621C280.03 326.691 275.31 324.741 270.39 323.581C265.78 322.501 261.29 322.531 257.07 324.851C253.14 327.011 249.86 330.241 246.05 332.611C247.27 333.551 248.5 334.491 249.72 335.431C253.04 325.071 255.95 314.561 257.92 303.851C259.47 295.421 260.4 286.891 260.98 278.341C261.31 273.511 261.54 268.671 261.79 263.841C261.96 260.621 256.96 260.631 256.79 263.841H256.76Z" fill="#211E1E"/>
<path d="M350.189 335.3C350.069 338.89 350.309 342.5 350.549 346.08C350.809 350.1 351.309 354.11 351.989 358.08C352.119 358.86 352.959 359.68 353.739 359.83C357.059 360.45 360.619 360.98 364.009 360.62C365.409 360.47 366.879 360.1 367.309 358.53C367.529 357.74 367.289 356.91 367.109 356.14C366.549 353.62 366.059 351.08 365.749 348.52C365.339 345.04 364.949 341.46 365.059 337.95C365.159 334.73 360.159 334.73 360.059 337.95C359.919 342.39 360.489 346.97 361.129 351.36C361.369 353.01 361.669 354.64 362.019 356.27C362.129 356.78 362.249 357.28 362.359 357.79C362.389 357.93 362.409 358.09 362.449 358.23C362.409 358.1 362.349 357.58 362.479 357.22L363.119 356.12C363.259 355.97 364.299 355.49 363.779 355.65C363.379 355.77 364.259 355.62 363.909 355.64C363.779 355.64 363.649 355.66 363.529 355.67C362.799 355.72 362.059 355.72 361.319 355.7C359.219 355.64 357.129 355.4 355.069 355.01C355.649 355.59 356.229 356.17 356.819 356.76C356.189 353.08 355.749 349.38 355.529 345.65C355.319 342.21 355.079 338.75 355.199 335.3C355.309 332.08 350.309 332.09 350.199 335.3H350.189Z" fill="#211E1E"/>
<path d="M272.03 330.282C272.3 337.782 271.89 345.292 270.62 352.692L272.37 350.942C270.31 351.322 268.24 351.572 266.15 351.632C265.46 351.652 264.76 351.652 264.07 351.612C263.92 351.612 263.77 351.592 263.62 351.582C263.31 351.552 263.36 351.552 263.75 351.602C263.66 351.592 263.57 351.572 263.49 351.542C263.05 351.392 263.33 351.562 264.32 352.052L264.96 353.152C265.05 353.442 265.05 354.002 265.04 353.712C265.04 353.362 265 354.192 264.98 354.132C264.94 354.022 265.06 353.682 265.08 353.562C265.19 352.942 265.31 352.322 265.43 351.712C265.8 349.752 266.13 347.782 266.42 345.802C267.27 339.952 267.79 334.062 267.6 328.142C267.5 324.932 262.5 324.922 262.6 328.142C262.85 335.872 261.89 343.542 260.47 351.132C260.07 353.262 259.51 355.702 262.35 356.402C263.73 356.742 265.29 356.672 266.69 356.612C269.04 356.512 271.39 356.202 273.7 355.762C274.47 355.622 275.31 354.802 275.45 354.012C276.8 346.162 277.33 338.232 277.04 330.272C276.92 327.062 271.92 327.052 272.04 330.272L272.03 330.282Z" fill="#211E1E"/>
<path d="M383.87 285.511C383.91 299.561 383.47 313.611 382.95 327.651C382.91 328.861 382.86 330.071 382.81 331.281C382.68 334.501 387.68 334.491 387.81 331.281C388.25 320.411 388.58 309.531 388.76 298.641C388.83 294.261 388.88 289.891 388.87 285.511C388.87 282.291 383.86 282.291 383.87 285.511Z" fill="#211E1E"/>
<path d="M439.83 340.11C440.03 321.85 440.61 303.6 441.22 285.35C441.55 275.38 441.91 265.41 442.28 255.45C442.46 250.74 442.63 246.03 442.82 241.32C443.02 236.2 443.51 230.97 442.82 225.87C442.15 220.93 439.94 215.9 435.43 213.34C430.95 210.79 425.86 212.23 422.58 215.98C419.2 219.86 417.4 225.02 416.17 229.94C414.83 235.27 414.24 240.77 413.84 246.24C412.63 263.08 412.21 279.99 411.87 296.87C411.66 307.55 411.52 318.23 411.48 328.91C411.48 329.08 411.48 329.25 411.48 329.42C411.48 332.64 416.47 332.64 416.48 329.42C416.5 321.01 416.6 312.6 416.74 304.18C417 287.84 417.4 271.5 418.28 255.18C418.78 245.86 419.12 236.32 422.1 227.39C423.29 223.84 425.18 218.7 429.03 217.25C432.71 215.87 435.98 219.81 437.03 222.9C438.67 227.71 438.13 232.94 437.94 237.93C437.77 242.43 437.59 246.93 437.42 251.42C437.06 261.05 436.71 270.68 436.38 280.31C435.76 298.44 435.17 316.58 434.89 334.72C434.86 336.51 434.84 338.31 434.82 340.1C434.79 343.32 439.79 343.32 439.82 340.1L439.83 340.11Z" fill="#211E1E"/>
<path d="M404.97 341.361C405.02 335.391 405.08 329.421 405.13 323.451C405.21 314.021 405.3 304.591 405.38 295.171C405.4 292.981 405.42 290.781 405.44 288.591C405.47 285.371 400.47 285.371 400.44 288.591C400.39 294.561 400.33 300.531 400.28 306.501C400.2 315.931 400.11 325.361 400.03 334.781C400.01 336.971 399.99 339.171 399.97 341.361C399.94 344.581 404.94 344.581 404.97 341.361Z" fill="#211E1E"/>
<path d="M435.92 281.371C431.59 278.201 426.49 276.461 421.33 275.751C416.17 275.031 410.93 275.291 405.76 275.861C399.29 276.571 392.57 277.881 387.38 282.181C386.52 282.891 385.64 283.931 385.89 285.071C386.08 285.941 386.86 286.471 387.6 286.851C389.92 288.051 392.45 288.671 394.97 289.161C408.21 291.721 421.8 290.831 435.19 289.471C435.81 289.411 436.5 289.311 436.92 288.801" fill="#211E1E"/>
<path d="M437.18 279.211C431.03 274.781 423.46 273.001 415.98 272.821C412.02 272.721 408.05 273.041 404.13 273.541C400.65 273.981 397.17 274.571 393.86 275.771C390.69 276.921 387.01 278.591 384.78 281.211C383.42 282.801 382.82 285.021 383.97 286.911C384.93 288.501 386.74 289.251 388.39 289.921C392.06 291.411 396.11 291.951 400.01 292.461C404.02 292.981 408.06 293.231 412.11 293.271C416.65 293.321 421.2 293.131 425.73 292.801C428 292.641 430.26 292.441 432.53 292.221C434.66 292.021 437.04 292.131 438.69 290.561C441.03 288.341 437.49 284.811 435.15 287.021C435.55 286.641 435.51 286.971 435.19 286.951C434.73 286.931 434.2 287.051 433.74 287.101C432.93 287.181 432.12 287.261 431.32 287.331C429.54 287.491 427.76 287.651 425.98 287.781C422.42 288.041 418.85 288.221 415.28 288.271C408.41 288.351 401.49 287.971 394.76 286.561C393.21 286.231 391.64 285.851 390.16 285.271C389.92 285.181 388.42 284.311 388.33 284.371C388.33 284.371 388.32 284.391 388.31 284.391C388.39 284.561 388.38 284.721 388.31 284.881C388.37 284.711 388.47 284.571 388.61 284.461C389.41 283.511 390.67 282.821 391.74 282.211C393.04 281.471 394.39 280.871 395.81 280.391C401.73 278.381 408.34 277.821 414.56 277.811C421.73 277.801 428.8 279.281 434.7 283.531C435.8 284.321 437.48 283.721 438.12 282.631C438.86 281.371 438.32 280.001 437.22 279.211H437.18Z" fill="#211E1E"/>
<path d="M436.73 225.79C430.85 233.28 429.13 243.3 427.55 252.45C425.78 262.66 424.88 273.02 424.88 283.39C424.88 286.61 429.88 286.61 429.88 283.39C429.88 273.63 430.65 263.88 432.29 254.26C433.07 249.69 433.98 245.12 435.2 240.64C436.28 236.67 437.7 232.61 440.27 229.34C441.1 228.28 441.31 226.84 440.27 225.8C439.4 224.93 437.57 224.73 436.73 225.8V225.79Z" fill="#211E1E"/>
<path d="M418.16 226.05C420.37 229.84 421.31 234.2 421.76 238.53C422.28 243.52 422.37 248.56 422.39 253.58C422.42 264.08 422.24 274.58 422.16 285.08C422.13 288.3 427.13 288.3 427.16 285.08C427.23 276.63 427.3 268.18 427.37 259.73C427.44 251.28 427.56 243.36 426.36 235.29C425.75 231.18 424.59 227.13 422.48 223.52C420.86 220.74 416.54 223.25 418.16 226.04V226.05Z" fill="#211E1E"/>
<path d="M239.44 285.239C239.4 299.289 239.84 313.339 240.36 327.379C240.4 328.589 240.45 329.799 240.5 331.009C240.63 334.219 245.63 334.229 245.5 331.009C245.06 320.139 244.73 309.259 244.55 298.369C244.48 293.989 244.43 289.619 244.44 285.239C244.44 282.019 239.45 282.019 239.44 285.239Z" fill="#211E1E"/>
<path d="M193.48 339.839C193.29 322.279 192.74 304.719 192.16 287.169C191.84 277.449 191.49 267.729 191.13 258.009C190.96 253.369 190.78 248.729 190.61 244.099C190.43 239.419 190.09 234.709 190.16 230.029C190.23 225.739 190.91 220.579 194.66 217.849C196.02 216.859 197.66 216.379 199.29 216.989C201.08 217.669 202.41 219.329 203.39 220.899C206.01 225.089 207.29 230.139 208.17 234.949C209.04 239.679 209.38 244.489 209.69 249.289C210.73 265.649 211.16 282.049 211.47 298.439C211.66 308.529 211.64 318.609 211.82 328.699C211.82 328.849 211.82 329.009 211.82 329.159C211.82 332.379 216.83 332.379 216.82 329.159C216.8 320.219 216.69 311.279 216.54 302.349C216.25 285.479 215.84 268.589 214.84 251.749C214.23 241.499 213.55 230.999 209.33 221.489C207.5 217.359 204.33 212.839 199.58 211.919C194.66 210.969 190.21 214.149 187.82 218.259C185.05 223.029 185.03 228.839 185.22 234.199C185.39 238.809 185.58 243.409 185.75 248.019C186.13 257.929 186.49 267.849 186.83 277.759C187.48 296.549 188.09 315.349 188.39 334.149C188.42 336.049 188.45 337.959 188.47 339.859C188.5 343.079 193.5 343.079 193.47 339.859L193.48 339.839Z" fill="#211E1E"/>
<path d="M228.34 341.089C228.29 335.119 228.23 329.149 228.18 323.179C228.1 313.749 228.01 304.319 227.93 294.899C227.91 292.709 227.89 290.509 227.87 288.319C227.84 285.099 222.84 285.099 222.87 288.319C222.92 294.289 222.98 300.259 223.03 306.229C223.11 315.659 223.2 325.089 223.28 334.509C223.3 336.699 223.32 338.899 223.34 341.089C223.37 344.309 228.37 344.309 228.34 341.089Z" fill="#211E1E"/>
<path d="M192.4 281.099C196.73 277.929 201.83 276.189 206.99 275.479C212.15 274.759 217.39 275.019 222.56 275.589C229.03 276.299 235.75 277.609 240.94 281.909C241.8 282.619 242.68 283.659 242.43 284.799C242.24 285.669 241.46 286.199 240.72 286.579C238.4 287.779 235.87 288.399 233.35 288.889C220.11 291.449 206.52 290.559 193.13 289.199C192.51 289.139 191.82 289.039 191.4 288.529" fill="#211E1E"/>
<path d="M193.66 283.26C198.85 279.52 205.03 277.86 211.36 277.59C217.64 277.32 224.3 277.85 230.38 279.47C233.23 280.23 235.93 281.35 238.35 283.05C238.83 283.38 239.36 283.75 239.74 284.19L239.84 284.29C240.05 284.69 240.09 284.73 239.98 284.42C239.94 284.41 240.08 284.14 240.02 284.1C239.95 284.05 238.65 284.81 238.52 284.87C237.71 285.21 236.87 285.47 236.02 285.71C229.41 287.55 222.32 287.98 215.49 288.02C211.6 288.04 207.7 287.89 203.82 287.63C201.87 287.5 199.93 287.34 197.99 287.17C197.02 287.08 196.05 286.99 195.08 286.9C194.6 286.85 194.11 286.81 193.63 286.76C193.13 286.72 192.98 286.7 193.18 286.71C192.77 286.58 192.77 286.61 193.18 286.78C190.85 284.56 187.31 288.09 189.64 290.32C191.09 291.7 192.95 291.7 194.83 291.89C196.85 292.09 198.87 292.27 200.9 292.43C204.95 292.75 209 292.98 213.06 293.03C221.04 293.13 229.38 292.71 237.13 290.62C240.31 289.76 245.24 288.21 244.95 284.08C244.8 281.92 243.16 280.47 241.55 279.25C240.18 278.21 238.7 277.34 237.13 276.63C230.46 273.59 222.75 272.8 215.5 272.59C206.98 272.34 198.17 273.9 191.13 278.97C190.04 279.76 189.51 281.15 190.23 282.39C190.86 283.47 192.55 284.08 193.65 283.29L193.66 283.26Z" fill="#211E1E"/>
<path d="M188.04 229.049C190.61 232.319 192.02 236.389 193.11 240.349C194.33 244.829 195.24 249.399 196.02 253.969C197.66 263.589 198.43 273.349 198.43 283.099C198.43 286.319 203.43 286.319 203.43 283.099C203.43 272.729 202.53 262.379 200.76 252.159C199.17 243.009 197.45 232.989 191.58 225.499C190.75 224.439 188.92 224.629 188.04 225.499C186.99 226.549 187.2 227.969 188.04 229.039V229.049Z" fill="#211E1E"/>
<path d="M205.83 223.259C201.99 229.859 201.38 237.719 201.07 245.189C200.73 253.579 200.96 261.999 201.03 270.399C201.07 275.209 201.11 280.009 201.15 284.819C201.18 288.039 206.18 288.039 206.15 284.819C206.06 274.319 205.89 263.819 205.92 253.319C205.93 248.299 206.02 243.259 206.55 238.269C207 233.939 207.95 229.579 210.15 225.789C211.77 222.999 207.45 220.479 205.83 223.269V223.259Z" fill="#211E1E"/>
<path d="M197.76 139.27C176.69 157.5 160.12 180.55 149.62 206.36C143.96 220.26 140.09 234.86 137.85 249.69C136.03 261.72 135.45 273.84 135.02 285.98C134.59 298.12 134.04 310.4 135.04 322.51C135.15 323.86 136.11 325.01 137.54 325.01C138.81 325.01 140.15 323.86 140.04 322.51C139.17 311.93 139.56 301.21 139.87 290.61C140.21 279.16 140.57 267.65 141.96 256.27C145.41 227.85 155.08 200.23 171.2 176.5C179.69 164 189.88 152.69 201.3 142.8C202.32 141.92 202.21 140.17 201.3 139.26C200.29 138.25 198.79 138.37 197.76 139.26V139.27Z" fill="#211E1E"/>
<path d="M107.58 329.83C106.74 301.07 110.89 272.27 118.94 244.67C126.38 219.17 137.69 194.69 153.58 173.33C162.54 161.29 173.02 150.36 184.71 140.95C185.76 140.1 185.59 138.3 184.71 137.41C183.67 136.37 182.23 136.56 181.17 137.41C159.92 154.5 143.04 176.57 130.76 200.85C118.11 225.85 110.04 253.16 105.76 280.81C103.25 297.02 102.08 313.43 102.56 329.83C102.65 333.04 107.65 333.05 107.56 329.83H107.58Z" fill="#211E1E"/>
<path d="M195.3 141.399C201.49 144.699 206.48 150.039 210.53 155.699C214.91 161.819 218.5 168.609 220.9 175.739C221.52 177.579 222.06 179.459 222.5 181.349C222.91 183.139 223.19 184.699 223.34 186.339C223.61 189.199 227.21 189.669 228.25 186.999C229.68 183.359 231.1 179.729 232.53 176.089C231.01 176.289 229.48 176.489 227.96 176.689C233.61 186.259 233.88 197.709 234.07 208.509C234.12 211.149 237.32 211.699 238.73 209.769C240.32 207.589 241.9 205.409 243.49 203.229H239.17C245.08 216.779 244.15 232.089 243.25 246.489C243.13 248.429 245.45 249.549 247.01 248.649C262.45 239.749 267.71 220.549 265.91 203.799C265.31 198.259 264.1 192.819 262.34 187.539C260.95 188.349 259.55 189.159 258.16 189.969C261.59 192.629 265.07 195.229 268.62 197.729C270.19 198.839 272.42 197.359 272.38 195.569C272.25 189.509 270.14 183.759 266.71 178.799C263.28 173.839 259.61 169.569 255.19 165.709C252.02 162.939 248.66 160.399 245.32 157.859C245.12 159.379 244.92 160.909 244.72 162.429C246.62 161.759 248.73 162.179 250.78 161.509C253.57 160.589 255.11 157.829 254.42 154.959C253.73 152.089 251.2 149.889 248.98 148.019C246.62 146.029 244.15 144.159 241.59 142.449C236.6 139.129 231.2 136.429 225.55 134.409C220.36 132.549 214.76 131.069 209.21 131.039C203.41 131.009 197.64 132.889 194.4 137.969C192.66 140.689 196.99 143.199 198.72 140.489C200.77 137.289 204.54 136.179 208.16 136.049C212.61 135.889 217.03 136.939 221.26 138.239C230.89 141.199 240 146.429 247.4 153.269C248.15 153.959 249.24 154.899 249.5 155.939C249.61 156.379 249.56 156.169 249.59 156.329C249.62 156.459 249.49 156.899 249.53 156.629C249.53 156.569 249.34 156.709 249.45 156.689C247.64 157.099 245.39 156.909 243.39 157.609C241.22 158.369 241.07 160.869 242.79 162.179C249.38 167.179 255.72 172.299 260.69 178.989C264.38 183.959 267.25 189.209 267.38 195.569C268.63 194.849 269.89 194.129 271.14 193.409C267.94 191.149 264.79 188.829 261.69 186.429C260.8 185.739 259.71 185.429 258.66 186.039C257.74 186.579 257.16 187.819 257.51 188.859C262.68 204.309 263.55 222.919 253.25 236.549C250.87 239.689 247.9 242.359 244.49 244.319L248.25 246.479C249.22 231.039 249.8 215.189 243.49 200.699C242.66 198.799 240.14 199.369 239.17 200.699C237.58 202.879 236 205.059 234.41 207.239L239.07 208.499C238.87 196.799 238.39 184.509 232.28 174.149C231.1 172.149 228.47 172.819 227.71 174.749C226.28 178.389 224.86 182.019 223.43 185.659C225.07 185.879 226.7 186.099 228.34 186.319C227.63 178.769 225.03 171.509 221.72 164.729C218.15 157.409 213.5 150.429 207.74 144.649C204.8 141.699 201.49 139.029 197.81 137.059C194.97 135.549 192.44 139.859 195.29 141.379L195.3 141.399Z" fill="#211E1E"/>
<path d="M200.219 137.7C212.829 128.82 230.399 129.17 244.569 133.67C248.479 134.91 252.219 136.55 255.739 138.67C257.839 139.94 260.519 137.38 259.159 135.25C256.449 131.02 253.749 126.8 251.039 122.57C250.319 123.82 249.599 125.08 248.879 126.33C261.739 126.81 272.949 135.21 282.979 142.43C284.709 143.68 287.369 141.59 286.649 139.61C285.429 136.25 284.219 132.88 282.999 129.52C281.969 130.55 280.949 131.57 279.919 132.6C297.149 135.79 311.099 147.87 324.039 158.9C325.639 160.26 328.309 159.42 328.309 157.13C328.319 134.76 314.009 114.61 294.979 103.84C289.729 100.87 284.099 98.5402 278.309 96.8302C278.509 98.3502 278.709 99.8802 278.909 101.4C283.159 99.5102 287.359 97.5202 291.499 95.4102C293.309 94.4902 292.919 92.1002 291.499 91.0902C285.879 87.0802 279.099 85.3002 272.239 85.6602C265.729 86.0002 259.419 87.1402 253.289 89.3902C248.939 90.9802 244.729 92.9102 240.529 94.8402L244.199 97.6602C244.299 96.9902 244.519 96.3402 244.749 95.7102C244.889 95.3202 245.049 94.9302 245.209 94.5402C245.009 95.0302 245.309 94.3202 245.319 94.2902C245.419 94.0702 245.519 93.8402 245.619 93.6202C246.549 91.5602 247.569 89.5502 248.619 87.5502C249.959 84.9902 251.339 82.4502 252.779 79.9402C253.759 78.2202 252.079 75.4002 249.959 76.2702C244.199 78.6302 238.289 81.0402 232.889 84.1602C227.619 87.2002 222.829 91.1402 218.389 95.2902C213.639 99.7302 209.239 104.56 205.219 109.67C201.679 114.18 198.289 118.9 195.709 124.04C193.979 127.48 191.479 132.64 193.119 136.56C193.639 137.8 194.769 138.7 196.199 138.31C197.369 137.99 198.469 136.49 197.949 135.23C197.839 134.98 197.789 134.72 197.709 134.46C197.549 133.99 197.709 134.63 197.709 134.57C197.709 134.4 197.679 134.22 197.679 134.04C197.679 133.73 197.699 133.42 197.719 133.12C197.749 132.46 197.639 133.38 197.729 133.02C197.779 132.81 197.809 132.59 197.849 132.37C198.029 131.53 198.289 130.7 198.579 129.89C198.739 129.44 198.919 128.98 199.109 128.54C198.929 128.98 199.189 128.37 199.249 128.23C199.369 127.95 199.499 127.68 199.629 127.4C201.899 122.65 204.909 118.24 208.099 114.07C211.819 109.21 215.989 104.57 220.399 100.29C224.599 96.2202 228.969 92.4702 233.909 89.3902C237.139 87.3702 240.629 85.8002 244.089 84.2302C245.859 83.4302 247.639 82.6402 249.429 81.8802C249.619 81.8002 250.309 81.5002 250.179 81.5602C249.989 81.6402 250.539 81.4102 250.669 81.3502C250.879 81.2602 251.089 81.1802 251.299 81.0902C250.359 79.8702 249.419 78.6402 248.479 77.4202C246.999 80.0102 245.569 82.6302 244.189 85.2702C243.149 87.2602 242.139 89.2702 241.219 91.3202C240.509 92.9002 239.659 94.6002 239.399 96.3302C239.069 98.5502 240.979 100.11 243.069 99.1502C251.479 95.3002 259.819 91.7402 269.119 90.9202C271.869 90.6802 274.599 90.4702 277.359 90.7802C281.609 91.2602 285.539 92.9402 288.999 95.4102V91.0902C284.849 93.2002 280.659 95.1902 276.409 97.0802C274.339 98.0002 275.109 101.09 277.009 101.65C296.349 107.34 313.479 121 320.349 140.36C322.269 145.76 323.339 151.39 323.339 157.12C324.759 156.53 326.189 155.94 327.609 155.35C314.049 143.8 299.349 131.11 281.279 127.77C279.579 127.45 277.499 128.9 278.199 130.85C279.419 134.21 280.629 137.58 281.849 140.94C283.069 140 284.299 139.06 285.519 138.12C274.659 130.3 262.769 121.86 248.889 121.34C247.029 121.27 245.719 123.53 246.729 125.1C249.439 129.33 252.139 133.55 254.849 137.78L258.269 134.36C251.349 130.18 243.409 127.62 235.429 126.46C226.989 125.23 218.239 125.35 209.979 127.68C205.629 128.91 201.409 130.78 197.699 133.39C196.599 134.17 196.079 135.58 196.799 136.81C197.439 137.9 199.109 138.49 200.219 137.71V137.7Z" fill="#211E1E"/>
<path d="M196.61 134.189C184.94 117.479 163.69 109.699 143.96 108.789C138.93 108.559 133.89 108.829 128.93 109.689C126.82 110.059 126.5 113.319 128.33 114.259C132.55 116.429 136.77 118.599 140.99 120.779L142.25 116.119C131.52 116.559 120.99 119.459 111.58 124.639C101.73 130.059 93.8197 137.899 87.1297 146.859C83.2097 152.109 79.7097 157.639 76.2097 163.169C74.6797 165.579 78.1497 168.209 80.1397 166.199C86.1297 160.139 93.3798 155.429 101.44 152.619C100.5 151.399 99.5598 150.169 98.6198 148.949C88.6198 165.139 80.7797 182.939 79.7497 202.189C79.4497 207.799 79.7998 213.399 80.7198 218.939C81.0598 220.959 84.4598 221.469 85.2898 219.539C91.8998 204.109 100.34 188.989 111.66 176.499C115.24 172.549 119.14 168.829 123.42 165.649L120 162.229C116.54 169.679 118.7 178.259 120.85 185.769C121.15 186.829 122.16 187.609 123.26 187.609C124.45 187.609 125.25 186.809 125.67 185.769C130.42 174.089 135.23 161.729 143.96 152.369C146.4 149.759 149.1 147.469 152.14 145.589L148.72 142.169C147.56 144.079 147.46 146.169 147.98 148.299C148.37 149.899 149.2 151.569 148.88 153.249C148.4 155.779 151.1 157.289 153.06 155.679C165.28 145.619 180.93 140.339 196.72 140.599C199.94 140.649 199.94 135.649 196.72 135.599C179.54 135.319 162.78 141.239 149.52 152.149C150.91 152.959 152.31 153.769 153.7 154.579C154.1 152.489 153.83 150.539 153.23 148.509C153.04 147.869 152.72 146.879 152.66 146.429C152.56 145.679 152.64 145.329 153.03 144.689C154.32 142.569 151.74 139.949 149.61 141.269C137.72 148.629 130.72 161.279 125.29 173.749C123.75 177.289 122.3 180.859 120.84 184.439H125.66C124.74 181.219 123.84 177.949 123.42 174.609C123 171.269 122.91 167.769 124.31 164.749C124.78 163.729 124.76 162.559 123.92 161.719C123.2 160.999 121.77 160.679 120.89 161.329C105.54 172.739 94.4897 189.259 85.9997 206.169C84.2097 209.729 82.5297 213.349 80.9597 217.009C82.4797 217.209 84.0097 217.409 85.5297 217.609C82.5097 199.429 87.2798 180.999 95.4298 164.769C97.7098 160.219 100.25 155.809 102.92 151.479C104.02 149.699 102.18 147.079 100.1 147.809C91.2297 150.909 83.1997 155.989 76.5997 162.679L80.5297 165.709C86.4097 156.419 92.3297 146.989 100.24 139.259C107.4 132.259 116.2 126.989 125.76 123.999C131.12 122.329 136.64 121.359 142.25 121.129C144.59 121.029 145.83 117.659 143.51 116.469C139.29 114.299 135.07 112.129 130.85 109.949L130.25 114.519C138.2 113.139 147.32 113.569 155.52 115.229C164.76 117.089 173.75 120.519 181.47 125.989C185.62 128.929 189.37 132.559 192.28 136.729C193.05 137.839 194.47 138.349 195.7 137.629C196.79 136.989 197.37 135.319 196.6 134.209L196.61 134.189Z" fill="#211E1E"/>
<path d="M114.92 70.7994C120.35 66.0594 127.91 63.5994 135.03 63.2194C143.12 62.7894 150.79 65.6994 157.67 69.7594C161.98 72.2994 165.96 75.3194 169.72 78.6094C171.21 79.9194 174.16 79.1594 173.99 76.8394C173.53 70.8294 172.01 65.0794 169.5 59.6094L168.6 63.0294C169.12 62.6894 168.67 63.0494 168.55 62.9594C168.58 62.9794 168.83 63.0194 168.91 63.0694C169.24 63.2894 169.58 63.4694 169.89 63.7294C170.83 64.5094 171.62 65.5194 172.41 66.4594C173.96 68.2994 175.38 70.2494 176.7 72.2594C179.39 76.3794 181.64 80.7794 183.34 85.3994C184.04 87.2994 186.81 88.0194 187.91 85.9994C188.83 84.2994 189.75 82.5994 190.67 80.8994C189.36 81.0694 188.05 81.2394 186.74 81.4094C189.54 83.7994 190.4 87.5494 191.2 90.9894C192.25 95.4994 193.04 100.069 193.53 104.679C194.48 113.739 194.41 122.949 193.13 131.979C192.94 133.319 193.46 134.669 194.88 135.059C196.05 135.379 197.76 134.659 197.96 133.309C199.35 123.499 199.55 113.589 198.44 103.739C197.88 98.7694 197.04 93.8294 195.87 88.9694C194.91 84.9394 193.54 80.6594 190.29 77.8794C189.12 76.8794 187.18 76.8794 186.36 78.3894C185.44 80.0894 184.52 81.7894 183.6 83.4894C185.12 83.6894 186.65 83.8894 188.17 84.0894C186.07 78.3994 183.31 72.9694 179.83 67.9894C178.14 65.5694 176.31 63.1894 174.29 61.0394C172.25 58.8694 168.98 56.8794 166.09 58.7394C164.87 59.5194 164.61 60.8794 165.19 62.1594C167.31 66.7794 168.62 71.7994 169 76.8594C170.42 76.2694 171.85 75.6794 173.27 75.0894C166.09 68.7894 158.04 63.2994 148.92 60.2394C140.68 57.4694 131.87 57.6094 123.64 60.4094C119.16 61.9294 114.97 64.1594 111.4 67.2794C110.38 68.1694 110.49 69.9094 111.4 70.8194C112.41 71.8294 113.92 71.7094 114.94 70.8194L114.92 70.7994Z" fill="#211E1E"/>
<path d="M112.32 71.8888C126.51 74.2188 140.06 80.7888 151.67 89.1488C154.8 91.3988 157.78 93.8588 160.59 96.5088L162.36 92.2388C155.54 91.4688 148.59 92.9888 142.72 96.5488C140.77 97.7288 141.34 100.389 143.32 101.119C158.32 106.649 173.67 112.629 184.8 124.599C187.68 127.689 190.13 131.099 192.15 134.819C193.68 137.649 198 135.129 196.47 132.299C188.46 117.509 174 108.209 158.9 101.829C154.21 99.8488 149.44 98.0688 144.66 96.3088L145.26 100.879C150.45 97.7288 156.37 96.5688 162.38 97.2588C164.58 97.5088 165.62 94.3788 164.15 92.9888C153.25 82.6988 139.7 74.8088 125.51 70.0588C121.65 68.7688 117.7 67.7488 113.68 67.0888C112.35 66.8688 110.99 67.4388 110.6 68.8388C110.27 70.0388 111.01 71.6888 112.35 71.9188L112.32 71.8888Z" fill="#211E1E"/>
<path d="M153.48 367.131C148.21 364.201 142.39 362.011 136.62 360.311C128.04 357.791 119 356.641 110.17 358.451C108.15 358.861 106.19 359.451 104.25 360.131C101.69 361.031 99.1604 362.031 96.4004 361.831C95.0504 361.731 93.9004 363.051 93.9004 364.331C93.9004 365.761 95.0504 366.731 96.4004 366.831C101.01 367.161 105.18 364.841 109.53 363.721C112.86 362.861 116.07 362.501 119.53 362.531C128.37 362.601 137.23 365.231 145.29 368.721C147.21 369.551 149.13 370.421 150.96 371.441C153.77 373.011 156.3 368.691 153.48 367.121V367.131Z" fill="#211E1E"/>
<path d="M435.09 422.249C426.14 425.549 417.68 430.309 408.4 432.669C404.21 433.739 399.76 434.259 395.47 433.469C391.18 432.679 387.31 430.769 383.48 428.819C375.87 424.949 368.02 421.039 359.28 423.229C351.21 425.249 344.66 430.979 338.1 435.779C334.68 438.279 331.15 440.689 327.26 442.399C323.37 444.109 318.95 445.149 314.64 445.339C305.63 445.729 297.44 442.589 290.19 437.419C283.44 432.599 276.81 426.459 268.17 425.659C260.14 424.919 252.95 429.819 246.05 433.129C242.82 434.679 239.33 436.069 235.7 436.059C232.4 436.059 229.37 434.779 226.69 432.919C220.24 428.449 215.92 421.049 212.19 414.339C211.18 412.519 210.2 410.679 209.24 408.839C208.62 407.639 206.94 407.289 205.82 407.939C204.54 408.689 204.39 410.119 204.92 411.359C207.32 416.909 205.47 423.559 202.26 428.369C200.77 430.609 198.82 432.619 196.46 433.939C193.17 435.779 189.35 436.449 185.63 436.639C181.14 436.869 176.64 436.509 172.14 436.599C168.93 436.659 168.92 441.659 172.14 441.599C181.05 441.429 190.34 442.789 198.57 438.489C204.8 435.239 209.17 428.269 210.49 421.509C211.34 417.179 210.99 412.899 209.24 408.839L204.92 411.359C211.66 424.279 222.02 443.849 239.59 440.669C247.38 439.259 253.69 433.949 261.13 431.559C264.79 430.389 268.34 430.279 271.99 431.579C275.86 432.959 279.29 435.529 282.56 437.949C286.09 440.569 289.57 443.319 293.46 445.389C297.59 447.589 302.07 449.149 306.7 449.849C315.89 451.239 325.26 449.499 333.35 444.919C340.75 440.719 346.91 434.649 354.38 430.569C357.63 428.799 361.19 427.489 364.94 427.529C369.11 427.569 373.08 429.229 376.77 431.019C380.79 432.979 384.7 435.169 388.89 436.769C393.16 438.399 397.74 439.089 402.31 438.739C412.09 437.989 421.04 433.519 429.91 429.699C432.07 428.769 434.25 427.879 436.45 427.069C437.72 426.599 438.58 425.379 438.2 423.989C437.87 422.769 436.4 421.769 435.12 422.239L435.09 422.249Z" fill="#1D1D1B"/>
<defs>
<linearGradient id="paint0_linear_218_2410" x1="198.26" y1="128.641" x2="198.24" y2="126.941" gradientUnits="userSpaceOnUse">
<stop stop-color="#182DA8"/>
<stop offset="0.31" stop-color="#2239BC"/>
<stop offset="0.67" stop-color="#324CDA"/>
</linearGradient>
<linearGradient id="paint1_linear_218_2410" x1="298" y1="266.28" x2="298" y2="485.85" gradientUnits="userSpaceOnUse">
<stop stop-color="#BCD9EF"/>
<stop offset="0.22" stop-color="#B9D5EE"/>
<stop offset="0.39" stop-color="#AFCCED"/>
<stop offset="0.54" stop-color="#A0BCEA"/>
<stop offset="0.67" stop-color="#89A5E7"/>
<stop offset="0.8" stop-color="#6D88E2"/>
<stop offset="0.93" stop-color="#4A64DC"/>
<stop offset="1" stop-color="#324BD9"/>
</linearGradient>
</defs>
</svg>
