<svg width="600" height="600" viewBox="0 0 600 600" fill="none" xmlns="http://www.w3.org/2000/svg">
<path d="M570.461 254.739C570.421 254.609 570.29 254.399 570.31 254.359C569.42 253.809 567.28 253.999 566.43 254.059C561.77 254.409 557.05 256.489 552.85 258.389C543.31 262.709 533.19 266.279 523.1 269.079C512.42 272.039 501.11 272.149 490.31 274.719C478.52 277.519 466.82 279.419 454.73 280.239C430.35 281.889 406.43 288.139 381.9 287.639C381.39 287.639 380.88 287.639 380.37 287.619C379.75 287.589 379.18 287.459 378.68 287.259C373.81 287.769 368.96 288.449 364.09 288.889C363.3 290.039 362.03 290.889 360.28 291.019C345.97 292.119 331.9 294.919 317.71 296.899C304.16 298.789 290.54 299.869 276.99 301.889C264.72 303.719 252.43 305.099 240.13 306.629C228.27 308.109 217.13 310.839 205.74 314.399C200.03 316.179 194.28 317.859 188.37 318.829C182.52 319.799 176.63 320.229 170.82 321.449C158.72 323.999 147.11 328.259 135.22 331.569C123.47 334.839 111.78 338.059 100.36 342.359C88.7705 346.729 77.4305 351.729 65.8805 356.219C60.7805 358.199 50.8205 363.409 44.9805 366.319C47.9305 371.819 50.9305 377.049 53.3805 382.699C55.0105 386.459 61.9605 397.449 63.2405 398.839C74.1605 392.329 89.7605 392.969 100.39 399.509C102.03 400.519 104.26 402.289 106.15 403.949C106.6 404.159 107.07 404.369 107.58 404.609C110.78 406.189 113.97 408.459 116.58 411.179C117.33 410.959 118.14 410.799 119.01 410.719C122.66 410.379 125.42 407.799 128.6 405.679C131.96 403.449 136.05 401.189 138.61 398.219C139.72 396.929 141.11 395.809 142.65 395.009C143.42 393.459 143.66 391.729 144.75 390.239C149.2 384.149 157.48 386.609 158.35 393.919C158.89 398.419 161.47 402.469 161.45 407.089C161.45 407.509 161.41 407.929 161.34 408.329C164.58 410.429 168.07 412.149 170.92 414.809C172.84 416.609 174.13 419.319 176.41 420.709C178.35 421.889 181.11 422.299 183.27 422.929C184.68 423.339 186.21 423.649 187.55 424.279C187.72 424.329 187.89 424.369 188.06 424.419C188.11 424.399 188.16 424.369 188.23 424.349C190.65 422.939 193.26 421.489 195.99 420.789C199.14 419.989 199.46 420.789 201.9 418.779C203.11 417.789 204.26 417.009 205.52 416.489C206.18 415.769 206.73 415.029 207.11 414.249C207.25 412.279 208.2 410.439 210.15 409.359C210.28 409.289 210.41 409.219 210.53 409.149C213.9 407.279 217.76 408.819 219.39 411.739C219.57 411.819 219.75 411.879 219.92 411.969C220.41 412.249 220.91 412.499 221.42 412.749C221.45 412.759 221.46 412.769 221.48 412.779C221.53 412.799 221.58 412.809 221.65 412.839C222.04 412.969 222.43 413.119 222.83 413.249C223.03 413.319 223.22 413.379 223.42 413.439C224.24 413.479 224.75 413.969 225.42 414.319C225.71 414.259 226.89 415.549 227.18 415.489C232.43 414.479 237.07 416.999 242.32 416.029C244.93 415.549 249.03 412.239 251.58 411.529C253.11 411.099 253.6 409.839 255.11 409.339C255.82 409.099 255.69 407.769 255.83 407.769C257.33 406.929 259.06 405.709 259.83 405.339C264.57 403.039 268.76 401.469 274.01 401.159C279.02 400.859 283.83 402.209 288.3 404.399C288.92 404.699 289.52 405.039 290.1 405.409C296.42 403.529 303.78 403.079 310.16 405.029C317.29 407.209 322.47 411.659 327.77 416.549C328.6 416.509 329.45 416.499 330.28 416.499C332.1 415.959 337.43 418.029 339.22 417.369C345.26 415.169 346.89 410.419 353.56 410.289C357.39 410.219 361.48 410.799 365.19 411.799C366.63 412.189 373.51 414.869 372.15 414.509C372.32 414.569 372.46 414.619 372.55 414.649C377.33 416.419 382.13 418.179 387.09 419.359C387.94 419.569 388.8 419.749 389.67 419.909C389.79 419.929 389.87 419.949 389.96 419.959C390.6 419.959 391.21 419.929 391.46 419.929C391.61 419.929 392.1 419.919 392.66 419.899C392.87 419.289 393.92 418.229 394.54 419.149C394.76 418.989 394.94 418.879 395.07 418.809C395.7 418.359 396.29 417.919 396.46 417.809C398.21 416.659 399.94 415.529 401.81 414.579C410.06 410.359 419.02 408.939 428.14 410.759C430.33 411.199 432.39 411.889 434.55 412.459C434.89 412.549 435.67 412.819 436.41 413.009C436.7 412.949 437 412.889 437.2 412.859C438.46 412.779 439.01 412.749 438.85 412.789C439.73 412.669 440.84 412.519 442.19 412.339C443.27 412.219 444.42 412.039 445.52 412.029C447.65 412.029 449.88 412.289 452.04 412.729C469.94 396.969 492.54 373.569 514.6 347.779C527.55 325.859 543.65 306.139 555.96 283.799C558.5 279.189 561.59 274.899 564.24 270.349C565.95 267.399 567.66 264.379 568.92 261.209C569.55 259.629 571.051 256.499 570.451 254.719L570.461 254.739Z" fill="url(#paint0_linear_218_2247)"/>
<path d="M287.49 203.409C253.62 208.019 220.4 216.719 188.52 229.009C172.71 235.099 156.76 241.829 142.14 250.439C135.04 254.619 116.37 262.529 109.04 266.269C108.72 267.019 111.53 268.719 110.8 269.409C108.43 271.679 114.52 269.859 112.19 272.119C115.29 275.769 119.82 278.179 124.28 278.389C178.86 240.629 244.29 218.739 312.13 216.139C312.67 210.939 317.71 206.229 318.25 201.029C309.47 201.769 296.2 202.209 287.48 203.399L287.49 203.409Z" fill="#BCD9EF"/>
<path d="M567.78 252.691C556.92 276.621 544.17 299.671 529.41 321.431C515.7 341.641 500.31 360.621 483.92 378.711C474.41 389.201 464.58 399.401 454.58 409.431C452.31 411.711 455.84 415.251 458.12 412.971C475.83 395.201 493.02 376.881 508.83 357.391C524.61 337.931 538.97 317.351 551.45 295.611C558.98 282.491 565.84 268.991 572.09 255.221C572.65 253.991 572.44 252.531 571.19 251.801C570.12 251.171 568.33 251.461 567.77 252.701L567.78 252.691Z" fill="#211E1E"/>
<path d="M568.92 251.65C536.58 262.27 503.55 270.64 470 276.37C434.79 282.39 399.2 285.33 363.65 288.44C328.05 291.55 292.66 295.82 257.38 301.55C222.76 307.17 188.32 314.11 154.5 323.43C120.95 332.68 88.0104 344.34 56.5404 359.26C52.5204 361.17 48.5204 363.13 44.5504 365.14C41.6804 366.59 44.2104 370.91 47.0704 369.46C78.3304 353.63 111.21 341.23 144.82 331.39C178.47 321.53 212.82 314.19 247.37 308.27C281.92 302.35 317.68 297.6 353.11 294.39C388.74 291.16 424.44 288.53 459.82 283.07C492.73 278 525.21 270.52 557.02 260.7C561.44 259.34 565.85 257.93 570.25 256.48C573.29 255.48 571.99 250.65 568.92 251.66V251.65Z" fill="#211E1E"/>
<path d="M43.9003 368.91C48.7303 379.84 54.4603 390.34 61.0303 400.32C62.7903 403 67.1203 400.5 65.3503 397.8C58.7903 387.82 53.0503 377.31 48.2203 366.39C47.6703 365.15 45.8703 364.87 44.8003 365.49C43.5303 366.23 43.3503 367.67 43.9003 368.91Z" fill="#211E1E"/>
<path d="M136.01 305.61C159.66 294.02 184.31 284.6 209.4 276.65C234.54 268.68 260.12 262.15 285.82 256.29C292.43 254.78 299.04 253.29 305.66 251.8C312.42 250.29 319.21 249.3 326.15 249.73C329.36 249.93 329.35 244.93 326.15 244.73C313.79 243.96 301.66 247.6 289.72 250.28C276.74 253.19 263.79 256.26 250.91 259.59C225.11 266.25 199.54 273.94 174.64 283.46C160.67 288.8 146.91 294.71 133.47 301.29C132.26 301.88 131.93 303.61 132.57 304.71C133.29 305.95 134.77 306.2 135.99 305.61H136.01Z" fill="#211E1E"/>
<path d="M131.67 303.759C130.86 308.049 130.34 312.399 130.43 316.769C130.53 322.009 131.42 327.209 132.82 332.249C133.68 335.349 138.5 334.029 137.64 330.919C135.27 322.389 134.85 313.789 136.5 305.089C136.75 303.759 136.13 302.389 134.75 302.009C133.53 301.669 131.93 302.419 131.67 303.759Z" fill="#211E1E"/>
<path d="M480.38 299.101C455.41 304.701 430.18 308.991 404.73 311.681C383.72 313.901 362.63 315.051 341.54 316.221C320.13 317.411 298.76 318.901 277.44 321.191C253.51 323.771 229.66 327.101 205.99 331.501C178.65 336.591 151.54 343.081 125.03 351.551C121.65 352.631 118.29 353.741 114.93 354.891C111.9 355.921 113.2 360.751 116.26 359.711C142.85 350.651 170.12 343.671 197.66 338.191C221.78 333.391 246.11 329.751 270.54 326.961C291.93 324.521 313.38 322.831 334.87 321.601C355.8 320.401 376.75 319.391 397.63 317.391C422.35 315.031 446.91 311.291 471.21 306.191C474.71 305.461 478.2 304.701 481.69 303.911C484.83 303.211 483.5 298.381 480.36 299.091L480.38 299.101Z" fill="#211E1E"/>
<path d="M162.53 288.259C144.99 295.419 127.97 303.589 111.6 313.129C108.61 314.869 105.64 316.639 102.65 318.369C99.87 319.979 102.38 324.309 105.17 322.689C110.74 319.459 116.26 316.149 121.89 313.009C129.62 308.709 137.52 304.709 145.56 300.999C151.6 298.209 157.7 295.579 163.86 293.069C165.11 292.559 165.99 291.409 165.61 289.989C165.28 288.809 163.79 287.729 162.53 288.239V288.259Z" fill="#211E1E"/>
<path d="M106.58 321.511C108.89 320.201 111.29 319.091 113.92 318.621C113.98 318.611 114.73 318.511 114.14 318.581C114.35 318.561 114.56 318.531 114.77 318.521C115.22 318.481 115.68 318.471 116.13 318.471C116.84 318.471 117.55 318.511 118.27 318.561C119.36 318.631 120.59 318.761 121.47 319.491C122.2 320.101 122.61 321.171 122.86 322.171C123.61 325.141 123.17 328.481 124.35 331.481C124.84 332.741 126.02 333.611 127.43 333.231C128.63 332.901 129.67 331.421 129.18 330.151C127.89 326.881 128.58 323.241 127.42 319.931C126.79 318.121 125.8 316.521 124.25 315.371C122.72 314.241 120.9 313.801 119.03 313.621C116.99 313.431 114.96 313.431 112.94 313.761C109.79 314.271 106.82 315.651 104.07 317.211C101.27 318.801 103.79 323.121 106.59 321.531L106.58 321.511Z" fill="#211E1E"/>
<path d="M185.45 280.58C183.36 292.63 185.55 305.16 186.88 317.17C187.03 318.51 187.92 319.67 189.38 319.67C190.62 319.67 192.03 318.52 191.88 317.17C191.17 310.75 190.36 304.33 189.92 297.89C189.56 292.6 189.36 287.16 190.27 281.91C190.5 280.58 189.91 279.22 188.52 278.83C187.32 278.5 185.68 279.24 185.44 280.58H185.45Z" fill="#211E1E"/>
<path d="M308.87 233.319C293.77 235.499 278.72 238.139 263.9 241.799C253.29 244.419 242.84 247.639 232.51 251.189C222.4 254.669 212.37 258.339 202.2 261.659C185.83 266.999 169.71 273.039 154 280.109C138.19 287.219 122.81 295.339 108.22 304.709C106.44 305.849 104.67 307.019 102.91 308.199C100.25 309.979 102.75 314.319 105.43 312.519C119.76 302.919 134.89 294.539 150.49 287.209C166.08 279.889 182.14 273.609 198.47 268.159C209.15 264.589 219.78 260.919 230.42 257.219C240.51 253.699 250.68 250.409 261.03 247.709C275.02 244.059 289.25 241.359 303.54 239.159C305.76 238.819 307.98 238.489 310.2 238.169C311.54 237.979 312.27 236.279 311.95 235.089C311.56 233.649 310.22 233.149 308.87 233.339V233.319Z" fill="#211E1E"/>
<path d="M104.15 312.939C107.37 312.939 107.37 307.939 104.15 307.939C100.93 307.939 100.93 312.939 104.15 312.939Z" fill="#211E1E"/>
<path d="M101.93 311.42C102.03 311.8 102.12 312.18 102.18 312.57C102.2 312.67 102.21 312.77 102.23 312.87C102.27 313.14 102.26 313.07 102.2 312.66C102.18 312.85 102.25 313.09 102.26 313.28C102.32 314.08 102.33 314.88 102.29 315.67C102.27 316.08 102.15 316.54 102.17 316.95C102.22 316.58 102.23 316.49 102.2 316.68C102.19 316.76 102.18 316.84 102.16 316.92C102.13 317.13 102.09 317.33 102.05 317.54C101.89 318.33 101.66 319.1 101.37 319.85C101.15 320.41 101.33 321.28 101.62 321.78C101.91 322.28 102.52 322.79 103.11 322.93C103.75 323.08 104.47 323.04 105.04 322.68C105.61 322.32 105.93 321.82 106.19 321.19C106.88 319.45 107.18 317.55 107.29 315.69C107.39 313.83 107.22 311.91 106.74 310.1C106.41 308.84 104.94 307.94 103.66 308.35C102.38 308.76 101.56 310.07 101.91 311.43L101.93 311.42Z" fill="#211E1E"/>
<path d="M319.92 199.149C313.57 205.549 308.81 213.579 307.19 222.509C306.4 226.849 306 231.789 307.07 236.149C307.44 237.669 308.93 238.299 310.15 239.079C312.5 240.579 314.82 242.119 317.11 243.709C321.33 246.639 325.45 249.709 329.41 252.979C336.25 258.619 342.65 264.789 348.37 271.569C353.73 277.919 358.39 284.819 362.35 292.119C363.88 294.949 368.2 292.429 366.67 289.599C357.39 272.489 344.13 258.039 328.81 246.139C323.02 241.639 317 237.469 310.79 233.569L311.94 235.059C311.9 234.909 311.86 234.749 311.84 234.589C311.81 234.399 311.77 234.209 311.74 234.019C311.72 233.919 311.71 233.809 311.69 233.709C311.62 233.349 311.76 234.389 311.7 233.779C311.53 232.109 311.44 230.439 311.49 228.759C311.57 226.149 311.82 224.349 312.42 221.839C313.12 218.879 314.17 216.009 315.58 213.309C317.63 209.359 320.32 205.849 323.45 202.689C325.72 200.399 322.19 196.869 319.91 199.149H319.92Z" fill="#211E1E"/>
<path d="M136.58 288.189C131.5 285.349 126.71 281.939 122.3 278.149C117.89 274.359 113.61 270.239 111.2 265.009C110.63 263.779 108.86 263.479 107.78 264.109C106.52 264.849 106.32 266.299 106.88 267.529C109.45 273.109 114.17 277.729 118.76 281.679C123.49 285.749 128.61 289.459 134.05 292.499C136.86 294.069 139.38 289.759 136.57 288.179L136.58 288.189Z" fill="#211E1E"/>
<path d="M110.3 268.44C121.07 261.39 132.72 255.67 144.42 250.35C158.31 244.04 172.5 238.39 186.83 233.15C200.61 228.11 214.54 223.28 228.67 219.33C243.17 215.28 257.93 212.13 272.76 209.53C287.29 206.98 301.92 204.96 316.63 203.79C318.31 203.66 320 203.53 321.69 203.43C323.04 203.34 324.19 202.34 324.19 200.93C324.19 199.64 323.04 198.34 321.69 198.43C306.95 199.38 292.27 201.27 277.69 203.66C262.51 206.14 247.41 209.21 232.53 213.12C218.43 216.82 204.58 221.5 190.85 226.41C176.11 231.68 161.52 237.38 147.2 243.68C134.94 249.08 122.75 254.87 111.32 261.89C110.13 262.62 108.95 263.37 107.78 264.14C105.1 265.9 107.6 270.23 110.3 268.46V268.44Z" fill="#211E1E"/>
<path d="M123.18 280.331C148.23 266.341 174.05 253.601 200.9 243.431C223.94 234.701 247.71 227.921 271.98 223.611C284.97 221.311 298.08 219.731 311.24 218.781C312.59 218.681 313.74 217.701 313.74 216.281C313.74 215.001 312.59 213.681 311.24 213.781C287.18 215.521 263.29 219.391 239.97 225.571C214.47 232.331 189.74 241.771 165.81 252.851C150.46 259.961 135.43 267.761 120.66 276.011C117.85 277.581 120.37 281.901 123.18 280.331Z" fill="#211E1E"/>
<path d="M61.6999 403.84C67.9199 398.01 76.5199 395.06 85.0199 396.3C89.2399 396.92 93.2399 398.54 96.7299 400.98C100.43 403.56 103.53 406.91 107.15 409.59C113.11 414 120 415.1 126.6 411.49C132.27 408.39 136.58 403.2 141.02 398.64C145.46 394.08 150.62 388.7 157.4 389.06L154.9 386.56C154.45 399.71 160.42 413.25 171.27 420.93C181.44 428.13 194.86 427.25 204.8 420.08C210.71 415.81 215.03 409.98 217.66 403.2C216.02 402.98 214.39 402.76 212.75 402.54C213.83 410.84 219.4 416.83 227.46 418.95C235.99 421.19 244.29 419.1 251.94 415.18C261.33 410.38 272.2 402.25 283.32 405.65C285.86 406.43 288.24 407.67 290.78 408.44C293.6 409.3 296.38 409.37 299.26 408.84C303.62 408.04 309.05 404.77 313.49 406.64C315.74 407.58 317.26 409.82 318.69 411.68C320.32 413.8 321.96 415.84 324.18 417.39C327.6 419.77 331.79 420.42 335.86 419.93C344.76 418.87 352.99 413.38 362.08 413.76C367 413.96 371.22 416.85 375.48 419.01C380.2 421.4 385.21 423.05 390.47 421.47C395.57 419.94 399.85 416.52 404.92 414.88C409.42 413.43 414.1 412.84 418.81 412.72C439.92 412.16 464 420.46 481.68 404.71C484.09 402.57 480.54 399.04 478.14 401.17C463.56 414.15 442.36 408.42 424.84 407.76C415.43 407.41 405.9 408.3 397.39 412.62C392.53 415.08 388.16 418.26 382.49 416.58C377.88 415.21 373.9 412.25 369.47 410.43C360.68 406.82 352.05 410.17 343.55 412.93C339.78 414.16 335.61 415.54 331.58 415.02C327.04 414.42 324.47 411.03 321.83 407.64C318.68 403.59 314.9 400.74 309.52 401.22C304.76 401.65 300.31 404.31 295.51 404.23C292.65 404.18 289.97 402.85 287.35 401.82C284.73 400.79 282.14 400.07 279.35 399.89C274.24 399.55 269.22 401.08 264.58 403.08C254.94 407.23 246.11 414.76 235.2 414.88C227.28 414.97 218.88 411.22 217.74 402.54C217.38 399.75 213.89 399.14 212.83 401.88C209.07 411.59 200.11 419.79 189.5 420.9C178.58 422.04 169.41 414.87 164.38 405.68C161.18 399.83 159.66 393.22 159.89 386.56C159.94 385.16 158.7 384.13 157.39 384.06C143.68 383.33 136.25 398.65 126.52 405.62C124.39 407.14 122.01 408.47 119.36 408.76C115.29 409.2 111.69 406.95 108.66 404.5C105.09 401.61 101.86 398.26 97.9399 395.82C94.2399 393.52 90.0499 392.02 85.7399 391.41C75.6399 389.97 65.5599 393.37 58.1499 400.32C55.7999 402.52 59.3399 406.06 61.6899 403.86L61.6999 403.84Z" fill="#211E1E"/>
<path d="M445.03 408.159C436.95 407.139 431.32 406.669 428.18 399.159C425.04 391.649 423.88 384.229 424.55 376.119C424.52 385.369 424 384.609 423.23 389.359C422.43 394.259 421.39 399.599 417.58 402.779C413.36 406.299 407.16 408.959 401.8 407.729C406.24 407.929 413.23 409.309 416.56 412.249C422.78 417.739 423.07 433.169 422.19 438.589C423.08 433.429 422.32 419.519 430.2 412.759C435.22 408.449 438.07 407.599 445.19 407.599L445.03 408.169V408.159Z" fill="#BCD9EF"/>
<path d="M445.03 405.659C442.11 405.289 439.12 404.999 436.32 404.029C434.21 403.289 432.47 401.909 431.25 399.749C429.36 396.439 428.33 392.419 427.62 388.699C426.82 384.549 426.73 380.309 427.06 376.109H422.06C422.06 377.779 422.04 379.459 421.96 381.129C421.94 381.649 421.91 382.159 421.87 382.679C421.85 382.889 421.83 383.109 421.81 383.319C421.8 383.429 421.72 384.109 421.77 383.739C421.82 383.369 421.74 383.969 421.72 384.079C421.69 384.239 421.67 384.389 421.64 384.549C421.58 384.879 421.51 385.199 421.44 385.529C421.28 386.309 421.11 387.079 420.97 387.859C420.43 390.839 420.05 393.919 418.87 396.739C417.69 399.559 415.55 401.459 412.92 402.999C409.83 404.799 406.06 406.079 402.47 405.309L401.81 410.219C404.82 410.369 407.83 410.919 410.68 411.889C412.01 412.339 413.34 412.919 414.48 413.749C415.28 414.339 415.92 415.119 416.39 415.869C419.14 420.159 419.83 425.859 420.02 430.949C420.07 432.349 420.07 433.759 420.02 435.159C419.99 435.729 419.96 436.309 419.91 436.879C419.89 437.119 419.86 437.349 419.84 437.589C419.78 438.219 419.91 437.199 419.8 437.909C419.59 439.239 420.14 440.599 421.55 440.989C422.75 441.319 424.4 440.579 424.63 439.239C425.45 434.329 425.34 429.509 426.47 424.739C427.13 421.969 428.09 419.319 429.73 416.969C431.37 414.619 433.71 412.859 436.11 411.599C438.75 410.209 442.04 410.079 445.21 410.069L442.8 406.909L442.64 407.479C441.79 410.589 446.61 411.909 447.46 408.809L447.62 408.239C448.05 406.679 446.84 405.069 445.21 405.079C441.89 405.089 438.45 405.219 435.34 406.489C432.26 407.739 429.3 409.859 427.08 412.329C422.64 417.259 421.22 423.959 420.52 430.369C420.36 431.869 420.24 433.369 420.12 434.869C420.07 435.479 420.02 436.099 419.96 436.709C419.93 437.009 419.9 437.319 419.86 437.619C419.82 437.919 419.89 437.429 419.89 437.419C419.86 437.589 419.84 437.759 419.81 437.929L424.63 439.259C425.49 433.739 425.16 427.909 424.08 422.439C423.48 419.419 422.55 416.359 420.95 413.709C419.22 410.839 416.76 408.989 413.69 407.709C409.96 406.159 405.85 405.429 401.83 405.229C399.04 405.089 398.4 409.549 401.17 410.139C405.21 410.999 409.19 410.239 412.93 408.609C416.41 407.099 419.82 404.789 421.96 401.599C423.95 398.619 424.82 394.989 425.43 391.509C425.77 389.559 426.19 387.619 426.53 385.659C427.07 382.519 427.08 379.309 427.09 376.119C427.1 372.929 422.34 372.949 422.09 376.119C421.71 380.919 421.96 385.739 422.91 390.469C423.75 394.629 425.01 399.209 427.29 402.829C431.24 409.109 438.33 409.819 445.06 410.669C446.4 410.839 447.56 409.399 447.56 408.169C447.56 406.679 446.41 405.839 445.06 405.669L445.03 405.659Z" fill="#1D1D1B"/>
<path d="M154.03 187.161C145.95 186.141 140.32 185.671 137.18 178.161C134.04 170.651 132.88 163.231 133.55 155.121C133.52 164.371 133 163.611 132.23 168.361C131.43 173.261 130.39 178.601 126.58 181.781C122.36 185.301 116.16 187.961 110.8 186.731C115.24 186.931 122.23 188.311 125.56 191.251C131.78 196.741 132.07 212.171 131.19 217.591C132.08 212.431 131.32 198.521 139.2 191.761C144.22 187.451 147.07 186.601 154.19 186.601L154.03 187.171V187.161Z" fill="#BCD9EF"/>
<path d="M154.03 184.66C151.11 184.29 148.12 184 145.32 183.03C143.21 182.29 141.47 180.91 140.25 178.75C138.36 175.44 137.33 171.42 136.62 167.7C135.82 163.55 135.73 159.31 136.06 155.11H131.06C131.06 156.78 131.04 158.46 130.96 160.13C130.94 160.65 130.91 161.16 130.87 161.68C130.85 161.89 130.83 162.11 130.81 162.32C130.8 162.43 130.72 163.11 130.77 162.74C130.82 162.37 130.74 162.97 130.72 163.08C130.69 163.24 130.67 163.39 130.64 163.55C130.58 163.88 130.51 164.2 130.44 164.53C130.28 165.31 130.11 166.08 129.97 166.86C129.43 169.84 129.05 172.92 127.87 175.74C126.68 178.6 124.55 180.46 121.92 182C118.83 183.8 115.06 185.08 111.47 184.31C111.25 185.95 111.03 187.58 110.81 189.22C113.82 189.37 116.83 189.92 119.68 190.89C121.01 191.34 122.34 191.92 123.48 192.75C124.28 193.34 124.92 194.12 125.39 194.87C128.14 199.16 128.83 204.86 129.02 209.95C129.07 211.35 129.07 212.76 129.02 214.16C128.99 214.73 128.96 215.31 128.91 215.88C128.89 216.12 128.86 216.35 128.84 216.59C128.78 217.22 128.91 216.2 128.8 216.91C128.59 218.24 129.14 219.6 130.55 219.99C131.75 220.32 133.4 219.58 133.63 218.24C134.45 213.33 134.34 208.51 135.47 203.74C136.13 200.97 137.09 198.32 138.73 195.97C140.29 193.74 142.71 191.86 145.11 190.6C147.75 189.21 151.04 189.08 154.21 189.07L151.8 185.91L151.64 186.48C150.79 189.59 155.61 190.91 156.46 187.81L156.62 187.24C157.05 185.68 155.84 184.07 154.21 184.08C150.89 184.09 147.45 184.22 144.34 185.49C141.26 186.74 138.3 188.86 136.08 191.33C131.64 196.26 130.22 202.96 129.52 209.37C129.36 210.87 129.24 212.37 129.12 213.87C129.07 214.48 129.02 215.1 128.96 215.71C128.93 216.01 128.9 216.32 128.86 216.62C128.82 216.92 128.89 216.43 128.89 216.42C128.86 216.59 128.84 216.76 128.81 216.93C130.42 217.37 132.02 217.82 133.63 218.26C134.49 212.74 134.16 206.91 133.08 201.44C132.48 198.42 131.55 195.36 129.95 192.71C128.22 189.84 125.76 187.99 122.69 186.71C118.96 185.16 114.85 184.43 110.83 184.23C108.04 184.09 107.4 188.55 110.17 189.14C114.21 190 118.19 189.24 121.93 187.61C125.41 186.1 128.82 183.79 130.96 180.6C132.95 177.62 133.82 173.99 134.43 170.51C134.77 168.56 135.19 166.62 135.53 164.66C136.07 161.52 136.08 158.31 136.09 155.12C136.1 151.86 131.34 151.95 131.09 155.12C130.71 159.92 130.96 164.74 131.91 169.47C132.75 173.63 134.01 178.21 136.29 181.83C140.24 188.11 147.33 188.82 154.06 189.67C155.4 189.84 156.56 188.4 156.56 187.17C156.56 185.68 155.41 184.84 154.06 184.67L154.03 184.66Z" fill="#1D1D1B"/>
<path d="M130.96 439.27C132.42 444.09 135.28 448.29 139.6 450.96C143.54 453.39 148.33 454.33 152.92 454.14C164.66 453.65 173.57 445.81 183.52 440.55C188.64 437.84 194.46 435.68 200.32 436.83C206.37 438.01 211.6 441.62 216.67 444.93C222.24 448.57 227.87 451.97 234.32 453.81C240.92 455.69 247.89 455.98 254.64 454.77C261.15 453.61 267.09 450.71 272.89 447.67C278.35 444.81 283.84 441.65 289.91 440.26C295.53 438.97 300.65 440.16 305.52 443.1C310.18 445.92 314.3 449.57 319.1 452.15C323.84 454.7 329.15 455.88 334.38 454.13C339.61 452.38 343.76 448.78 348.06 445.55C352.36 442.32 356.77 439.35 362.25 439.5C367.98 439.66 373.33 442.63 378.29 445.2C383.78 448.05 389.39 451.05 395.58 451.96C402.69 453 409.78 451.66 416.68 449.92C427.67 447.15 440.33 442.89 451.11 448.76C453.64 450.14 455.76 451.99 457.6 454.21C459.66 456.69 463.18 453.13 461.14 450.67C453.35 441.31 441.1 439.75 429.72 441.66C416.46 443.88 403.5 450.44 390.07 445.32C379.38 441.24 368.91 431.95 356.7 435.15C351.48 436.52 347.17 439.99 342.97 443.2C339.18 446.1 334.83 449.69 329.85 450C324.69 450.32 320.1 447.15 316.07 444.32C311.55 441.14 307.13 437.64 301.84 435.84C289.68 431.72 277.9 439.58 267.5 444.84C261.64 447.8 255.55 450.09 248.93 450.46C242.17 450.84 235.35 449.52 229.25 446.6C218.43 441.42 208.91 431.01 196.06 431.55C183.17 432.09 173.65 441.96 162.42 446.92C154.99 450.21 144.77 450.5 138.97 443.98C137.44 442.26 136.44 440.14 135.77 437.95C134.84 434.88 130.01 436.19 130.95 439.28L130.96 439.27Z" fill="#1D1D1B"/>
<path d="M92.0397 458.36C98.5797 445.45 109.48 435.11 122.61 429.04C126.29 427.34 130.15 426.05 134.09 425.1L131.01 422.02C128.73 429.41 129.64 437.52 133.41 444.26C134.98 447.07 139.3 444.55 137.73 441.74C134.59 436.13 133.94 429.49 135.84 423.36C136.42 421.48 134.55 419.85 132.76 420.28C117.81 423.87 104.19 432.73 94.7497 444.85C92.0697 448.29 89.6997 451.94 87.7197 455.84C86.2697 458.7 90.5797 461.24 92.0397 458.36Z" fill="#1D1D1B"/>
<path d="M137.45 474.07C146.54 477.43 155.12 482.29 164.58 484.6C169.2 485.73 173.92 486.15 178.63 485.47C183.14 484.82 187.34 482.93 191.39 480.91C195.22 479 198.97 476.85 203.07 475.56C206.82 474.38 210.56 474.2 214.35 475.35C222.25 477.75 228.65 483.89 235.27 488.54C242.79 493.82 251.24 497.28 260.54 497.37C269.83 497.46 278.55 494.19 286.06 488.86C289.66 486.3 293.07 483.48 296.83 481.16C300.09 479.15 303.66 477.51 307.57 477.59C311.21 477.67 314.69 479.13 317.91 480.7C321.62 482.51 325.21 484.54 329.04 486.09C332.59 487.52 336.45 488.4 340.28 487.92C343.99 487.46 347.45 485.96 350.44 483.73C357.2 478.7 361.87 471.3 365.92 464.05C366.97 462.17 367.98 460.27 368.97 458.37L364.65 455.85C361.61 462.89 362.92 470.89 366.91 477.3C368.77 480.29 371.22 482.98 374.22 484.87C377.93 487.21 382.36 488.18 386.67 488.55C391.68 488.98 396.72 488.52 401.75 488.61C404.97 488.67 404.97 483.67 401.75 483.61C394.17 483.47 385.82 484.89 378.69 481.6C373.34 479.13 369.75 473.71 368.41 468.09C367.65 464.93 367.65 461.4 368.96 458.37C369.5 457.13 369.33 455.69 368.06 454.95C366.94 454.29 365.27 454.65 364.64 455.85C360.85 463.12 356.86 470.65 351.08 476.56C348.75 478.94 346.02 481.15 342.84 482.25C339.5 483.4 336.15 483.2 332.81 482.16C325.46 479.86 319.24 474.69 311.63 473.1C307.59 472.25 303.52 472.58 299.68 474.13C295.72 475.72 292.23 478.13 288.82 480.66C285.35 483.23 281.93 485.93 278.12 488C274.27 490.08 270.03 491.5 265.69 492.09C256.93 493.3 248.25 490.98 240.85 486.29C233.88 481.87 227.81 475.99 220.32 472.39C216.65 470.63 212.67 469.43 208.56 469.56C204.19 469.7 200.07 471.19 196.14 473C192.21 474.81 188.47 477.04 184.47 478.67C180.4 480.33 176.22 481.09 171.82 480.78C162.53 480.13 153.87 475.53 145.44 471.95C143.24 471.01 141.03 470.1 138.79 469.27C137.52 468.8 136.05 469.79 135.71 471.02C135.33 472.42 136.18 473.63 137.46 474.1L137.45 474.07Z" fill="#1D1D1B"/>
<path d="M48.48 367.061C47.62 365.371 46.68 363.701 45.95 361.951C45.66 361.261 45.4 360.551 45.24 359.821C45.12 359.311 45.1 358.791 45.23 358.561C44.95 359.071 45.26 358.681 45.59 358.461C46.1 358.131 46.62 357.821 47.15 357.521C48.31 356.861 49.5 356.241 50.71 355.651C55.55 353.261 60.56 351.121 65.67 349.381C67.3 348.821 68.65 348.471 70.11 349.621C71.7 350.871 72.51 352.941 73.33 354.731C73.89 355.961 75.67 356.261 76.75 355.631C78.01 354.891 78.21 353.441 77.65 352.211C75.83 348.211 73.06 343.901 68.14 343.791C66.31 343.751 64.55 344.471 62.86 345.081C61.44 345.601 60.04 346.141 58.64 346.711C55.21 348.091 51.82 349.561 48.5 351.181C47.11 351.861 45.74 352.561 44.4 353.341C43.06 354.121 41.67 354.871 40.89 356.181C39.77 358.061 40.11 360.401 40.8 362.361C41.68 364.871 42.98 367.221 44.19 369.581C45.66 372.441 49.97 369.921 48.51 367.061H48.48Z" fill="#1D1D1B"/>
<defs>
<linearGradient id="paint0_linear_218_2247" x1="329.66" y1="457.209" x2="309.75" y2="323.929" gradientUnits="userSpaceOnUse">
<stop stop-color="#324BD9"/>
<stop offset="1" stop-color="#BCD9EF"/>
</linearGradient>
</defs>
</svg>
