<?xml version="1.0" encoding="UTF-8"?>
<svg id="_1_day" data-name="1 day" xmlns="http://www.w3.org/2000/svg" xmlns:xlink="http://www.w3.org/1999/xlink" viewBox="0 0 600 600">
  <defs>
    <style>
      .cls-1 {
        fill: none;
        stroke: #1d1d1b;
        stroke-linecap: round;
        stroke-miterlimit: 10;
        stroke-width: 6px;
      }

      .cls-2 {
        fill: #fff;
      }

      .cls-3 {
        fill: #1d1d1b;
      }

      .cls-4 {
        fill: url(#linear-gradient);
      }
    </style>
    <linearGradient id="linear-gradient" x1="186.95" y1="183.87" x2="401.84" y2="416.35" gradientUnits="userSpaceOnUse">
      <stop offset="0" stop-color="#182da8"/>
      <stop offset="1" stop-color="#324cda"/>
    </linearGradient>
  </defs>
  <g>
    <g>
      <g>
        <path class="cls-3" d="M132.87,402.69c2.6-1.07,4.27,2.97,1.67,4.04s-4.27-2.97-1.67-4.04h0Z"/>
        <path class="cls-3" d="M137.37,404.12c10.41,7.64,22.53,12.88,35.23,15.21,3.67.67,7.37,1.1,11.09,1.3,1.34.07,2.33,1.82,1.72,3.01-5.73,11.06-15.48,19.12-26.05,25.37-2.68,1.59-5.41,3.09-8.19,4.51-1.47.76-3.08,1.44-4.63.45-1.45-.93-2.14-2.87-2.9-4.35-3.24-6.31-5.91-12.91-7.99-19.68-2.36-7.69-3.99-15.6-4.83-23.6-.29-2.79,4.05-3.34,4.34-.53,1.36,12.98,4.82,25.65,10.27,37.51.69,1.5,1.41,2.99,2.16,4.46.34.67.7,1.35,1.05,2.01.05.09.3.57.31.55.25-.57-1.6.21-.23-.45,2.5-1.2,4.95-2.57,7.34-3.97,4.83-2.81,9.49-5.96,13.71-9.63,4.66-4.05,8.75-8.83,11.6-14.33l1.72,3.01c-13.43-.73-26.72-4.54-38.49-11.06-3.42-1.9-6.73-3.99-9.89-6.31-2.27-1.67.38-5.14,2.65-3.48h0Z"/>
        <path class="cls-3" d="M175.86,428.79c-11.89-.51-24.31-2.37-34.09-9.69-1.75-1.31-2.17-3.79-1.11-5.64s3.41-2.72,5.44-1.87c2.5,1.05,5.02,2.02,7.58,2.89,1.25.43,2.5.83,3.77,1.22.69.21,1.39.42,2.09.62.25.07.51.14.76.21-.85-.24.39.1.45.12,1.28.34,2.56.65,3.85.94,1.4.32,3,.47,4.31,1.07,2.94,1.33,3.96,5.25,1.61,7.62-1.88,1.9-5.42,1.84-7.01-.46-1.21-1.74-1.1-3.59-.02-5.33l.06-.1c.78-1.26,2.67-1.93,4.08-1.68,3.59.64,7.18,1.29,10.77,1.93,2.34.42,4.05,2.51,3.73,4.93-.47,3.59-3.14,5.61-5.64,7.87-.03.03-.32.26-.32.3.01.06.6-.7.31-.29-.22.31-.46.6-.69.9-.49.66.26-.55-.12.18-.18.35-.36.69-.54,1.04-.93,1.84-1.9,3.51-3.41,4.94-1.86,1.76-4.65,2.22-6.93,1.03-1.73-.91-3.36-2.08-4.94-3.23-2.97-2.17-5.69-4.62-8.28-7.22-1.32-1.33-2.58-2.71-3.77-4.15-1.55-1.87-3.06-4.22-2.45-6.77.53-2.18,2.44-4.24,4.93-3.73,4.08.84,8.15,1.76,12.2,2.76,2.02.5,4.04,1.02,6.05,1.56s4.46.91,6.35,1.91c2.88,1.53,4.78,4.72,3.22,7.93-.94,1.94-2.88,3.46-4.37,4.99-1.85,1.9-3.77,4.71-6.53,5.16-2.66.43-4.8-1.72-6.66-3.28-3.69-3.1-7.14-6.49-10.32-10.1-2.51-2.85.41-7.67,4.06-7.01,3.8.68,7.58,1.41,11.36,2.2,4.21.88,9.73,1.72,10.25,7.03.54,5.5-5.77,8.23-10.32,7.9-3.8-.28-7.04-2.51-9.93-4.81-1.39-1.11-2-2.91-1.53-4.62.41-1.52,1.93-3.21,3.65-3.2,4.98.03,9.95.05,14.93.08,1.19,0,2.19.11,3.18.86.86.66,1.6,1.85,1.69,2.95.2,2.62-1.43,4.25-3.81,4.87-6.79,1.77-14.3.05-19.9-4.08-1.84-1.36-2.32-4.33-.83-6.13s4.16-2.28,6.13-.83c.27.2.54.39.81.58.1.07,1.19.73.65.42s.43.21.54.27c.3.15.6.29.9.42.66.29,1.34.51,2.03.75.85.29-.76-.14.2.05.33.06.65.14.98.2.65.12,1.31.21,1.98.26.1,0,.92.13,1,.06-.58,0-.63,0-.14,0h.33c1.44-.06,2.87-.28,4.26-.65.35,2.89.71,5.79,1.06,8.68-4.98-.03-9.95-.05-14.93-.08.71-2.61,1.41-5.21,2.12-7.82.95.76,1.92,1.47,2.92,2.16.67.46-.33-.13.12.08.27.12.53.27.81.39s.57.2.84.33c.45.2-.69-.07.1.02.28.03.59.06.86.11.52.1-.89.13.08,0,.14-.02,1.11-.07.45-.02-.57.04.25-.1.4-.16.75-.26-.31.34.01,0,.2-.21.63-.73.05,0s-.45,1.6-.13,2.38c.04.37.2.66.47.87.28.25.26.25-.06,0,.29.2.57.26.09.11-.16-.06-.31-.12-.47-.17-.31-.1-.21-.07.29.08-.43-.33-1.56-.34-2.09-.45-1.33-.28-2.66-.56-3.99-.83-2.87-.58-5.75-1.13-8.63-1.64,1.35-2.34,2.7-4.67,4.06-7.01.94,1.06,1.89,2.1,2.87,3.12.23.24.47.48.71.72.9.92-.34-.32.2.2s1.06,1.03,1.61,1.53c.99.92,1.99,1.81,3.02,2.68.56.48,1.14.95,1.71,1.41.26.21.52.42.79.63l.32.25c.38.28.29.22-.26-.18l-2.21-.3c-1.71,1.16-2.25,1.43-1.62.81l.44-.46c.25-.25.49-.51.74-.76.49-.51.99-1.02,1.48-1.52,1.03-1.07,2.09-2.11,3.11-3.2l.2-.21c.23-.3.25-.3.06.02-.57.95-.51,2.03.21,3.24l.34.38c.67.54.09.09-.25-.03-.3-.1-.61-.18-.92-.27-.33-.09-.67-.19-1-.28-.09-.02-1.12-.31-.67-.18s-.58-.16-.67-.18c-.4-.11-.81-.22-1.21-.32-5.64-1.49-11.33-2.82-17.04-4,1.64-1.24,3.29-2.49,4.93-3.73-.09.47-.11.38-.05-.27-.02-.39-.16-.74-.42-1.03.04.24.39.56.55.76.56.71,1.15,1.4,1.74,2.07s1.21,1.34,1.83,2c.11.12,1.25,1.26.55.58.28.27.55.54.84.81,2.62,2.48,5.46,4.74,8.47,6.73.32.21.65.42.97.63.45.28.44.28-.06-.02-.91-.27-1.77-.13-2.57.4.72-.46-.35.57.12-.1.24-.34.6-.68.75-1.07-.36.95-.03.01.08-.19.21-.4.4-.8.61-1.19.48-.92.97-1.84,1.58-2.68.97-1.35,2.29-2.41,3.55-3.49.22-.19.43-.39.65-.57.64-.56-.53.77.07-.1.09-.1.17-.21.25-.32.26-.39.21-.29-.15.29.08-.16.14-.32.2-.49-.16.65-.2.74-.13.28l3.73,4.93c-3.59-.64-7.18-1.29-10.77-1.93l4.08-1.68-.06.1c0-1.78-.02-3.55-.02-5.33l.06.09-1.77-1.36-.79-.24-2.27.29.13-.06-2.37,2.36.05-.13v3.35c-.03-.08-.06-.16-.08-.23l1.39,1.81c1.48.47,1.8.61.95.42-.26-.05-.52-.11-.78-.16-.52-.11-1.03-.22-1.55-.34-.9-.21-1.8-.42-2.7-.65-2.22-.56-4.42-1.17-6.61-1.84-3.85-1.18-7.64-2.55-11.35-4.11,1.44-2.5,2.89-5.01,4.33-7.51.55.41,1.11.81,1.68,1.19.28.19.57.37.86.55.34.21.84.53.2.14,1.15.71,2.42,1.28,3.65,1.81s2.53,1.02,3.83,1.43c.65.21,1.31.41,1.97.59-1.02-.29.11.02.25.06.33.08.67.16,1.01.24,5.42,1.25,10.99,1.73,16.54,1.97,2.29.1,4.13,2.76,3.73,4.93-.46,2.51-2.48,3.83-4.93,3.73h0Z"/>
        <path class="cls-3" d="M164.19,443.89c-2.38,3.02-5.31,5.48-8.68,7.33-1.5.82-3.25,1.74-4.96,2.02-1.89.31-3.41-.78-4.3-2.36-.92-1.64-1.46-3.53-2.04-5.31-.62-1.91-1.16-3.85-1.69-5.79-1.02-3.82-1.94-7.66-3.09-11.45-1.29-4.26-2.88-8.49-5.25-12.28-1.48-2.37,1.55-4.8,3.45-2.68,7.38,8.21,14.76,16.41,22.13,24.62.87.97,1.74,1.95,2.5,3.01.81,1.13,1.68,2.39,1.28,3.85s-1.87,2.01-3.13,2.61-2.62,1.25-3.94,1.87c-1.18.56-2.36,1.13-3.54,1.68s-2.42.95-3.7.42c-2.25-.94-2.77-3.7-3.44-5.76-1.9-5.85-3.81-11.71-5.71-17.56-.63-1.94,1.55-4.03,3.35-2.57,3.75,3.05,7.56,6.03,11.25,9.16,1.74,1.47,3.44,3.04,4.9,4.8,1.31,1.57,2.58,3.82,1.14,5.75-1.32,1.77-4.26,1.95-6.28,1.9s-3.91-.51-5.63-1.39c-3.85-1.97-6.58-5.74-7.2-10.03-.32-2.21.36-4.81,3.01-4.97,2.05-.12,4.37,1.52,6.02,2.56,1.82,1.14,3.48,2.5,5.01,4.02,1.38,1.37,3.03,2.95,3.57,4.89.67,2.4-1,4.57-3.54,4.36-2.04-.17-4.14-1.2-5.74-2.43s-3.02-2.92-3.79-4.79c-.42-1.01-.51-2.29.18-3.21.9-1.21,2.3-1.3,3.63-.9,2.18.66,4.27,1.92,5.92,3.49s3.29,4.43.84,6.24c-2.02,1.49-5.08.31-6.82-1.09-1.75-1.41-2.9-3.42-3.19-5.65-.14-1.11.73-2.38,1.9-2.44,3.02-.14,6.83,1.17,8.2,4.13.8,1.72.07,3.65-1.68,4.4-.78.33-1.72.36-2.53.19-.56-.12-1.3-.56-1.83-.48.35-1.3.71-2.61,1.06-3.91,1.86,1.71,3.79,3.96,2.88,6.68-.74,2.19-3.05,3.55-5.27,2.67-1.09-.43-1.64-1.79-1.18-2.86.24-.56.48-1.12.72-1.67l.69,2.58-1.49-.9c-1.01-.61-1.07-2.2-.41-3.06.78-1.03,2.05-1.02,3.06-.41l1.49.9c.81.49,1.04,1.76.69,2.58-.24.56-.48,1.12-.72,1.67l-1.18-2.86c-.12-.05-.62.13-.65.12.31.13.09-.41.12-.1-.08-.75-.89-1.39-1.4-1.86-1.39-1.27-.93-3.6,1.06-3.91.93-.14,2.06,0,2.91.43-.05-.03.28.07.34.13-.36.43-.56.96-.58,1.59-.12-.16-.25-.32-.39-.46-.87-.84-2.16-1.31-3.37-1.26l1.9-2.44c.12.92.5,1.75,1.16,2.42.36.36.79.66,1.25.87.18.08.38.17.57.22.51.14.39-.04.25.09l-.68.89c.27-.5-.09.6.06.55,0,0-.38-.46-.43-.52-.49-.51-1.06-.94-1.64-1.35-.92-.65-2.23-1.48-3.38-1.53l1.13-.14-.27.1.91-.7.04-.05.15-1.11c.04,1.42,2.08,3.09,3.25,3.8.67.41,1.44.73,2.21.91l.16.04c.77.04.53.38-.74,1.02-.01,0-.05.14-.03.15-.15-.07-.49-.75-.68-.99-1.29-1.6-2.77-3-4.4-4.24-.82-.62-1.67-1.2-2.56-1.71-.41-.24-.84-.46-1.27-.67-.22-.11-.43-.21-.65-.31-.7-.32-1.08-.13-.18-.79,1.34-.97.4-.51.58-.16-.01-.02.09.72.08.71.06.39.13.78.25,1.16.29.94.71,1.85,1.28,2.65,1.13,1.59,2.67,2.75,4.53,3.36.81.27,1.68.41,2.54.44.42.02.83-.01,1.25-.06s.95-.27,1.37-.25l.17-.06c.48-.21.37.1-.34.91.06.02-.05-.17-.1-.21-.22-.16-.53-.7-.76-.97-.72-.86-1.49-1.67-2.32-2.43-4.12-3.81-8.67-7.19-13.03-10.72l3.35-2.57c1.84,5.65,3.68,11.3,5.51,16.95.4,1.23.72,2.52,1.24,3.7.04.09.11.46.17.33-.03-.01-.06-.02-.09-.03-.2-.05-.42-.06-.63,0,0-.02,1.62-.74,1.74-.8,1.31-.62,2.62-1.25,3.94-1.87.72-.34,1.44-.69,2.16-1.03.33-.16.66-.31.98-.47l.39-.19c.46-.22.53-.25.18-.09l-.43,1.02.02-.31.14,1.13c-.4-1.29-1.71-2.52-2.59-3.51-1.04-1.18-2.1-2.34-3.15-3.5-2.17-2.41-4.34-4.83-6.51-7.24-4.34-4.83-8.68-9.66-13.02-14.49,1.15-.89,2.3-1.79,3.45-2.68,3.9,6.23,5.92,13.21,7.76,20.27.9,3.44,1.76,6.89,2.86,10.27.5,1.56.97,3.4,1.75,4.8.03.05.28.44.31.42.03-.02-.3-.17-.31-.17-.16-.1-.36.2-.12-.02.21-.19.77-.27,1.03-.38.47-.19.94-.39,1.4-.6,3.29-1.53,6.16-3.86,8.4-6.71,1.74-2.21,5.22.44,3.48,2.65h0Z"/>
        <path class="cls-3" d="M141.21,414.84c-1.12-.99-2.32-1.88-3.59-2.67l2.65-3.48c.5.36,1,.72,1.49,1.09.73.55,1.45,1.12,1.78,2,.36.96.05,1.89-.68,2.56-1.15,1.04-2.86.5-4.14.04-.74-.27-1.46-.59-2.22-.8l.54.15c-.42-.11-.85-.19-1.29-.2h.57c-.09,0-.18,0-.26.01l1.9-1.87v.09c0-.19,0-.38,0-.57,0,.06.01.12.03.18l-.15-.57c.03.09.06.17.11.25l-.29-.51c.09.13.18.25.3.37l-.4-.4c.57.55,1.18,1.05,1.44,1.84.15.47.2.91.07,1.4-.12.44-.37.89-.75,1.16-.32.23-.69.38-1.07.44-.58.1-1.12-.14-1.59-.43-.65-.41-1.23-.96-1.7-1.56-.71-.9-.57-2.39.39-3.07s2.31-.57,3.07.39c.13.16.26.32.41.46l-.4-.4c.27.27.57.5.89.7l-3.35,2.57c-.03-.1-.07-.18-.12-.27l.29.51c-.08-.11-.16-.21-.26-.31l.4.4c-.34-.34-.74-.64-1.01-1.03-.17-.24-.33-.52-.44-.79-.2-.54-.2-.88-.18-1.44l.15-.54c.1-.27.26-.5.48-.69.32-.33.8-.62,1.27-.64,1.16-.06,2.2.16,3.29.54.77.27,1.52.61,2.32.83l-.54-.15c.26.07.53.14.8.16h-.57c.07,0,.13,0,.19-.02l-.57.15c.06-.01.12-.03.17-.07l-.51.29.07-.06-.68,2.56c-.02-.07-.05-.13-.08-.19l.29.51c-.08-.12-.16-.22-.27-.33l.4.4c-.68-.62-1.48-1.14-2.22-1.67-.93-.67-1.15-2.17-.41-3.06.37-.44.88-.8,1.47-.85s1.08.12,1.59.43c1.27.79,2.47,1.68,3.59,2.67.44.39.77.87.85,1.47.06.52-.09,1.18-.43,1.59-.37.44-.88.8-1.47.85-.54.04-1.17-.06-1.59-.43h0Z"/>
        <path class="cls-3" d="M134.39,411.5c-.93-.84-1.66-1.77-2.19-2.92-.4-.89-.59-1.85-1.07-2.71l.29.51c-.06-.1-.13-.2-.19-.3-.41-.58-.55-1.22-.36-1.91.17-.63.62-1.22,1.26-1.45.54-.19,1.07-.33,1.64-.32.76,0,1.4.28,2,.74.67.51,1.32,1.06,1.95,1.61-1.02,1.03-2.03,2.05-3.05,3.08-.17-.2-.35-.4-.53-.58l.4.4c-.38-.38-.8-.76-1.27-1.03l.48.28c-.09-.05-.17-.08-.27-.12l.54.15c-.09-.02-.17-.04-.27-.04h.57c-.06,0-.12.01-.18.03l.57-.15c-.06.01-.11.03-.16.06l.51-.29c-.05.03-.1.06-.14.1l.4-.4s-.08.09-.1.14l.28-.48c-.14.31-.25.61-.44.9-.33.5-.85.8-1.42.95-.64.17-1.26.1-1.83-.23-.69-.4-1.03-.97-1.18-1.75-.31-1.63,1.57-2.91,3.01-2.28l.05.02h-1.67s.04-.02.05-.03l-.91.7.04-.05-.43,1.02c.12-.91.63-1.64,1.48-2.02.65-.29,1.53-.23,2.15.11.39.21.74.43,1.06.74.34.34.67.68.98,1.04.93,1.08,1.81,2.2,2.69,3.31.71.9.57,2.39-.39,3.07s-2.31.57-3.07-.39c-1.05-1.34-2.08-2.73-3.27-3.96l.4.4c-.17-.16-.34-.31-.53-.43l.48.28c-.08-.05-.16-.09-.25-.12l.54.15c-.05-.02-.11-.02-.16-.03h.57s-.05,0-.08.01l.57-.15-.07.02.51-.29-.05.04.68-.89-.03.06.15-.54c-.08.62-.35,1.28-.88,1.66-.67.47-1.51.63-2.28.29l3.01-2.28v.06c-.14-.36-.28-.72-.43-1.07l.03.05-.4-.4.05.03-.48-.28.06.02-.54-.15h.07c-.19,0-.38,0-.57,0h.07c-.19.04-.38.09-.57.14l.07-.02-.51.29s.08-.05.11-.08l-.4.4.05-.07-.28.48c.14-.31.25-.61.44-.9.27-.41.7-.74,1.15-.94.78-.35,1.74-.32,2.51.05,1.07.52,1.98,1.42,2.73,2.32.7.83.54,2.13-.19,2.87s-2.05.94-2.86.21c-.7-.62-1.41-1.29-2.2-1.79l.48.28c-.09-.05-.17-.08-.27-.11l.54.15c-.06-.01-.12-.02-.17-.02h.57c-.15,0-.3.03-.44.07l.57-.15c-.12.03-.23.07-.35.11l.89-3.36c.48.69.82,1.43,1.08,2.22.21.63.43,1.25.76,1.83l-.29-.51c.27.45.59.86.96,1.24l-.4-.4c.08.08.16.15.25.23.44.4.77.86.85,1.47.06.52-.09,1.18-.43,1.59-.71.85-2.16,1.23-3.06.41h0Z"/>
      </g>
      <path class="cls-1" d="M137.14,411.22c53.87,78.29,158.26,107.72,246.45,65.07,85.19-41.2,127.05-136,104.64-224.28"/>
    </g>
    <g>
      <g>
        <path class="cls-3" d="M457.82,189.2c-2.57,1.13-4.34-2.87-1.76-4,2.57-1.13,4.34,2.87,1.76,4h0Z"/>
        <path class="cls-3" d="M453.28,187.88c-10.59-7.39-22.83-12.34-35.59-14.36-3.68-.58-7.4-.92-11.12-1.04-1.34-.04-2.38-1.76-1.79-2.96,5.46-11.2,15.02-19.49,25.43-25.99,2.64-1.65,5.34-3.22,8.08-4.71,1.45-.79,3.04-1.51,4.62-.56,1.48.89,2.21,2.82,3,4.28,3.39,6.23,6.22,12.76,8.46,19.49,2.55,7.63,4.37,15.5,5.4,23.48.36,2.78-3.96,3.44-4.33.64-1.67-12.94-5.43-25.53-11.16-37.25-.73-1.48-1.48-2.95-2.27-4.41-.36-.67-.73-1.33-1.1-1.99-.05-.09-.31-.56-.32-.54-.24.57,1.59-.25.24.44-2.47,1.26-4.88,2.69-7.25,4.14-4.76,2.92-9.35,6.19-13.48,9.96-4.56,4.16-8.53,9.04-11.25,14.6l-1.79-2.96c13.44.4,26.82,3.9,38.74,10.13,3.47,1.81,6.82,3.83,10.04,6.07,2.31,1.61-.26,5.15-2.57,3.54h0Z"/>
        <path class="cls-3" d="M414.21,164.14c11.9.23,24.36,1.78,34.31,8.87,1.78,1.27,2.26,3.74,1.24,5.61s-3.35,2.8-5.39,2c-2.52-.99-5.07-1.89-7.65-2.71-1.26-.4-2.52-.77-3.8-1.13-.7-.2-1.4-.38-2.1-.57-.26-.07-.51-.13-.77-.2.86.22-.39-.09-.45-.11-1.28-.31-2.57-.59-3.87-.85-1.41-.29-3.01-.4-4.34-.96-2.98-1.26-4.08-5.16-1.79-7.58,1.83-1.94,5.37-1.97,7.02.29,1.25,1.71,1.18,3.56.15,5.33l-.06.11c-.74,1.28-2.62,2-4.04,1.78-3.6-.56-7.21-1.11-10.81-1.67-2.35-.36-4.11-2.41-3.85-4.84.39-3.6,3-5.69,5.45-8,.03-.03.32-.27.31-.31-.01-.06-.58.71-.3.3.21-.31.45-.61.67-.92.47-.67-.25.56.11-.18.17-.35.34-.7.51-1.05.89-1.86,1.82-3.56,3.29-5.02,1.81-1.8,4.6-2.34,6.91-1.19,1.75.87,3.41,2,5.01,3.11,3.02,2.1,5.8,4.48,8.45,7.02,1.35,1.3,2.64,2.65,3.87,4.06,1.6,1.83,3.16,4.14,2.61,6.71-.47,2.19-2.33,4.3-4.84,3.85-4.1-.75-8.19-1.57-12.26-2.47-2.03-.45-4.06-.92-6.09-1.42s-4.48-.8-6.39-1.76c-2.92-1.46-4.89-4.6-3.41-7.85.9-1.97,2.8-3.53,4.25-5.09,1.8-1.95,3.66-4.8,6.4-5.32s4.84,1.6,6.73,3.11c3.76,3.01,7.29,6.32,10.56,9.85,2.58,2.78-.22,7.67-3.89,7.11-3.81-.59-7.62-1.23-11.41-1.93-4.23-.78-9.77-1.48-10.42-6.78s5.57-8.36,10.12-8.14c3.8.18,7.1,2.34,10.04,4.57,1.41,1.07,2.07,2.86,1.64,4.58-.38,1.53-1.85,3.25-3.57,3.29-4.98.09-9.95.19-14.93.28-1.19.02-2.19-.06-3.2-.79-.88-.64-1.65-1.81-1.76-2.91-.27-2.61,1.33-4.28,3.69-4.96,6.74-1.94,14.29-.4,19.99,3.6,1.87,1.32,2.43,4.27.98,6.11s-4.11,2.38-6.11.98c-.27-.19-.55-.38-.83-.56-.1-.06-1.21-.7-.66-.4s-.43-.2-.55-.26c-.3-.14-.61-.27-.91-.4-.67-.27-1.35-.48-2.04-.7-.86-.27.76.12-.21-.05-.33-.06-.65-.13-.98-.18-.66-.1-1.32-.18-1.98-.22-.1,0-.92-.1-1-.03.58-.02.63-.02.14,0l-.33.02c-1.44.09-2.86.34-4.24.74-.42-2.88-.85-5.77-1.27-8.65,4.98-.09,9.95-.19,14.93-.28l-1.93,7.87c-.97-.74-1.96-1.42-2.97-2.09-.68-.45.33.12-.12-.08-.28-.12-.54-.26-.82-.37s-.57-.19-.85-.31c-.45-.19.69.05-.1-.02-.28-.02-.59-.04-.87-.09-.52-.09.89-.15-.08,0-.14.02-1.11.09-.45.03.57-.06-.25.11-.4.17-.74.28.31-.34-.01,0-.2.21-.61.75-.05,0s.41-1.61.08-2.38c-.05-.37-.21-.65-.49-.86-.28-.24-.26-.25.06,0-.3-.19-.58-.25-.1-.11.16.06.32.11.48.16.31.09.21.06-.29-.08.44.32,1.57.3,2.11.4,1.33.25,2.67.49,4.01.73,2.88.51,5.77.99,8.67,1.44l-3.89,7.11c-.96-1.04-1.94-2.05-2.95-3.05-.24-.24-.48-.47-.72-.7-.92-.9.35.31-.2-.19s-1.09-1-1.64-1.49c-1.01-.89-2.03-1.76-3.08-2.61-.58-.46-1.16-.92-1.75-1.37-.27-.2-.53-.41-.8-.61l-.32-.24c-.39-.27-.3-.21.27.17l2.22.25c1.68-1.2,2.22-1.48,1.6-.85-.14.16-.29.31-.43.47-.24.26-.48.52-.72.78-.48.52-.96,1.04-1.44,1.56-1.01,1.09-2.04,2.16-3.03,3.27l-.2.22c-.23.31-.25.3-.06-.02.55-.97.46-2.04-.28-3.23l-.34-.37c-.68-.52-.1-.08.25.03.3.1.61.17.92.24.34.09.67.17,1.01.26.09.02,1.13.28.67.17s.58.14.67.16c.41.1.81.2,1.22.29,5.68,1.36,11.39,2.55,17.13,3.6-1.61,1.28-3.23,2.56-4.84,3.85.08-.47.1-.38.05.27.03.39.17.74.44,1.02-.04-.24-.41-.55-.57-.74-.57-.7-1.18-1.37-1.79-2.03s-1.24-1.31-1.88-1.95c-.12-.12-1.28-1.23-.57-.57-.28-.26-.57-.53-.86-.79-2.68-2.42-5.57-4.61-8.63-6.53-.33-.21-.66-.4-.99-.61-.46-.27-.44-.27.06.02.92.24,1.77.09,2.56-.47-.71.48.34-.58-.12.11-.23.34-.59.7-.72,1.09.34-.96.03-.01-.08.2-.2.4-.38.81-.58,1.21-.46.93-.93,1.87-1.51,2.72-.94,1.37-2.24,2.47-3.46,3.57-.21.19-.42.4-.64.59-.63.57.52-.79-.07.1-.09.11-.17.21-.24.33-.25.39-.2.3.14-.29-.07.16-.14.33-.19.49.15-.65.19-.75.12-.28l-3.85-4.84c3.6.56,7.21,1.11,10.81,1.67l-4.04,1.78.06-.11.15,5.33-.06-.08,1.81,1.31.8.22,2.26-.34-.13.06c.77-.81,1.54-1.61,2.31-2.42l-.05.14-.07-3.34.08.23-1.44-1.78c-1.49-.44-1.81-.57-.96-.39.26.05.52.1.78.14.52.1,1.04.2,1.55.3.91.18,1.81.38,2.71.58,2.23.51,4.45,1.06,6.65,1.68,3.88,1.08,7.7,2.37,11.45,3.84-1.38,2.54-2.77,5.08-4.15,7.62-.56-.4-1.13-.78-1.71-1.15-.29-.18-.58-.36-.88-.53-.35-.21-.85-.51-.21-.13-1.17-.68-2.45-1.22-3.7-1.72s-2.56-.95-3.86-1.34c-.66-.2-1.32-.37-1.98-.54,1.03.26-.11-.02-.25-.05-.34-.08-.67-.15-1.01-.22-5.45-1.12-11.03-1.47-16.58-1.57-2.29-.04-4.19-2.66-3.85-4.84.4-2.52,2.39-3.89,4.84-3.85h0Z"/>
        <path class="cls-3" d="M425.51,148.76c2.31-3.08,5.18-5.6,8.51-7.53,1.48-.86,3.21-1.82,4.91-2.14,1.88-.36,3.43.7,4.36,2.26.96,1.61,1.55,3.5,2.16,5.26.66,1.9,1.26,3.82,1.82,5.75,1.12,3.79,2.13,7.61,3.37,11.37,1.4,4.23,3.08,8.42,5.54,12.15,1.54,2.34-1.44,4.83-3.39,2.76-7.57-8.03-15.15-16.05-22.71-24.08-.89-.95-1.79-1.9-2.57-2.95-.83-1.11-1.74-2.35-1.37-3.82s1.82-2.05,3.07-2.68,2.59-1.31,3.89-1.96c1.17-.59,2.33-1.18,3.5-1.77s2.39-1.01,3.68-.51c2.27.88,2.86,3.63,3.58,5.68,2.04,5.81,4.09,11.61,6.13,17.42.68,1.92-1.45,4.07-3.28,2.65-3.82-2.95-7.7-5.85-11.47-8.88-1.78-1.43-3.51-2.96-5.01-4.68-1.34-1.54-2.67-3.76-1.28-5.72,1.28-1.8,4.21-2.05,6.24-2.05s3.92.41,5.67,1.26c3.89,1.88,6.71,5.58,7.44,9.86.37,2.2-.25,4.82-2.89,5.04-2.04.17-4.4-1.41-6.08-2.41-1.85-1.1-3.54-2.42-5.1-3.9-1.42-1.34-3.1-2.88-3.68-4.8-.72-2.38.89-4.59,3.44-4.44,2.04.12,4.16,1.1,5.79,2.29s3.09,2.85,3.91,4.7c.44,1,.56,2.27-.1,3.22-.87,1.23-2.27,1.35-3.6.98-2.2-.61-4.31-1.82-6-3.35s-3.4-4.35-.99-6.22c1.98-1.53,5.07-.43,6.84.93s2.98,3.35,3.32,5.58c.17,1.1-.67,2.4-1.85,2.48-3.02.21-6.86-1.01-8.3-3.93-.84-1.7-.16-3.65,1.58-4.44.77-.35,1.71-.4,2.53-.25.56.11,1.31.53,1.84.43l-.97,3.93c-1.9-1.67-3.89-3.87-3.04-6.61.69-2.21,2.97-3.62,5.21-2.8,1.1.4,1.68,1.75,1.25,2.83-.23.56-.45,1.13-.68,1.69l-.75-2.56,1.51.86c1.03.58,1.13,2.17.49,3.05-.76,1.04-2.02,1.07-3.05.49l-1.51-.86c-.82-.47-1.09-1.73-.75-2.56.23-.56.45-1.13.68-1.69l1.25,2.83c.12.05.61-.14.64-.13-.31-.12-.08.41-.12.1.09.75.92,1.36,1.45,1.82,1.42,1.24,1.02,3.58-.97,3.93-.92.17-2.06.04-2.91-.36.05.02-.28-.06-.35-.12.35-.44.54-.98.54-1.6.12.16.26.31.4.45.89.82,2.19,1.26,3.4,1.17l-1.85,2.48c-.14-.92-.54-1.74-1.22-2.39-.36-.35-.8-.64-1.27-.84-.18-.08-.39-.16-.58-.2-.51-.13-.39.05-.25-.09l.66-.9c-.26.5.07-.6-.07-.55,0,0,.39.46.44.51.5.49,1.09.92,1.67,1.31.94.62,2.26,1.42,3.41,1.45l-1.13.17.27-.11-.89.72-.04.05-.13,1.11c-.07-1.41-2.15-3.04-3.34-3.72-.68-.39-1.46-.69-2.23-.85l-.16-.03c-.78-.02-.54-.37.71-1.03.01,0,.04-.14.03-.15.15.07.51.74.7.97,1.33,1.57,2.84,2.94,4.51,4.13.83.6,1.7,1.16,2.6,1.65.42.23.85.44,1.28.64.22.1.44.2.66.3.71.31,1.09.11.19.78-1.32,1-.39.52-.58.17.01.02-.1-.72-.1-.7-.07-.39-.15-.77-.28-1.15-.31-.94-.76-1.83-1.35-2.62-1.17-1.57-2.74-2.68-4.61-3.25-.82-.25-1.69-.37-2.55-.38-.42,0-.83.03-1.25.09s-.94.29-1.37.28l-.17.06c-.48.22-.37-.09.32-.92-.06-.02.06.17.11.2.23.16.55.68.79.95.74.85,1.53,1.64,2.38,2.38,4.21,3.71,8.84,6.98,13.28,10.4-1.09.88-2.19,1.77-3.28,2.65-1.97-5.6-3.95-11.21-5.92-16.81-.43-1.22-.78-2.5-1.32-3.67-.04-.09-.12-.46-.18-.33.03,0,.06.02.09.02.21.05.42.05.63,0,0,.02-1.6.78-1.72.84-1.3.65-2.59,1.31-3.89,1.96-.71.36-1.43.72-2.14,1.08-.32.16-.65.33-.97.49l-.39.2c-.46.23-.52.26-.18.09l.4-1.03-.02.31-.17-1.13c.43,1.28,1.77,2.47,2.67,3.45,1.07,1.15,2.15,2.29,3.23,3.43,2.23,2.36,4.45,4.72,6.68,7.09,4.45,4.72,8.91,9.45,13.36,14.17-1.13.92-2.26,1.84-3.39,2.76-4.05-6.14-6.23-13.06-8.24-20.08-.98-3.42-1.93-6.84-3.1-10.2-.54-1.54-1.05-3.37-1.86-4.76-.03-.04-.29-.43-.32-.41-.03.02.3.16.31.17.16.1.36-.21.12.02-.2.19-.76.29-1.02.4-.47.2-.93.41-1.39.63-3.26,1.61-6.06,4.01-8.24,6.91-1.69,2.25-5.23-.31-3.54-2.57h0Z"/>
        <path class="cls-3" d="M449.19,177.25c1.14.96,2.36,1.83,3.65,2.58l-2.57,3.54c-.51-.35-1.01-.7-1.52-1.06-.74-.53-1.47-1.09-1.83-1.96-.39-.96-.1-1.89.62-2.58,1.12-1.07,2.85-.57,4.14-.14.75.25,1.48.55,2.24.75l-.54-.13c.43.1.85.17,1.29.17h-.57c.09,0,.18,0,.26,0l-1.85,1.91v-.09c0,.19,0,.38.01.57,0-.06-.01-.12-.03-.18l.16.56c-.03-.09-.07-.16-.11-.25l.31.5c-.09-.13-.19-.25-.3-.36l.41.39c-.58-.54-1.21-1.02-1.48-1.8-.17-.47-.23-.91-.1-1.4.11-.44.35-.89.72-1.17.32-.23.68-.39,1.06-.47.58-.11,1.12.11,1.6.39.66.39,1.25.93,1.74,1.52.73.88.63,2.38-.31,3.08s-2.29.63-3.08-.31c-.13-.16-.27-.31-.42-.45l.41.39c-.28-.26-.58-.48-.91-.68l3.28-2.65c.03.1.07.18.13.27l-.31-.5c.08.11.17.21.26.3l-.41-.39c.35.33.75.62,1.04,1.01.18.24.35.51.46.78.22.53.22.87.22,1.44l-.13.54c-.1.27-.25.51-.46.7-.32.33-.78.64-1.26.67-1.15.08-2.2-.11-3.3-.46-.78-.25-1.54-.57-2.33-.78l.54.13c-.26-.06-.53-.13-.81-.14h.57c-.07-.01-.13,0-.19,0l.56-.16c-.06.01-.12.04-.17.07l.5-.31-.07.06.62-2.58c.02.07.05.13.09.19l-.31-.5c.08.12.17.22.27.32l-.41-.39c.7.6,1.5,1.1,2.26,1.62.95.64,1.21,2.15.49,3.05-.36.45-.86.82-1.45.88s-1.08-.09-1.6-.39c-1.29-.76-2.51-1.62-3.65-2.58-.45-.38-.79-.85-.88-1.45-.08-.52.06-1.18.39-1.6.36-.45.86-.82,1.45-.88.54-.06,1.17.03,1.6.39h0Z"/>
        <path class="cls-3" d="M456.08,180.43c.95.82,1.71,1.73,2.26,2.87.42.88.63,1.84,1.14,2.68l-.31-.5c.06.1.13.2.2.29.42.57.58,1.21.41,1.9-.16.64-.59,1.24-1.22,1.48-.54.21-1.06.35-1.63.36-.76.01-1.41-.25-2.02-.69-.68-.49-1.34-1.02-1.99-1.57l2.98-3.15c.18.2.36.39.55.57l-.41-.39c.39.37.82.74,1.29,1l-.49-.27c.09.04.18.08.27.11l-.54-.13c.1.02.18.03.27.03h-.57c.06,0,.12,0,.18-.02l-.56.16c.06-.01.11-.04.16-.06l-.5.31c.05-.03.1-.06.14-.11l-.39.41s.07-.09.1-.15l-.27.49c.13-.31.24-.61.42-.91.32-.51.83-.82,1.39-.99.64-.18,1.25-.13,1.84.19.7.38,1.06.94,1.22,1.73.34,1.62-1.5,2.95-2.95,2.35l-.05-.02,1.67-.04-.05.02.89-.72-.03.05.4-1.03c-.1.91-.59,1.65-1.43,2.05-.64.31-1.52.26-2.15-.05-.4-.2-.75-.41-1.08-.71-.35-.33-.68-.66-1-1.02-.96-1.06-1.86-2.15-2.77-3.25-.73-.88-.63-2.38.31-3.08s2.3-.63,3.08.31c1.08,1.31,2.15,2.68,3.36,3.88l-.41-.39c.17.16.34.3.54.42l-.49-.27c.08.04.16.08.25.12l-.54-.13c.05.02.11.02.16.02h-.57s.05,0,.08,0l-.56.16.07-.03-.5.31.05-.04-.66.9.03-.06-.13.54c.06-.62.32-1.29.84-1.68.66-.49,1.5-.66,2.27-.35l-2.95,2.35v-.06c.14.35.3.71.46,1.06l-.03-.05.41.39-.05-.03.49.27-.06-.02.54.13h-.07c.19,0,.38,0,.57-.01h-.07c.19-.04.38-.1.56-.15l-.07.02.5-.31s-.08.05-.11.09l.39-.41-.05.08.27-.49c-.14.31-.24.61-.42.91-.26.42-.68.76-1.12.97-.77.36-1.73.36-2.51,0-1.08-.49-2.01-1.37-2.79-2.25-.72-.82-.59-2.11.12-2.87s2.02-.99,2.86-.28c.71.6,1.44,1.25,2.24,1.74l-.49-.27c.09.05.17.08.27.1l-.54-.13c.06.01.12.02.18.02h-.57c.15,0,.3-.02.44-.06l-.56.16c.12-.04.23-.08.34-.12l-.81,3.38c-.5-.68-.85-1.41-1.14-2.2-.23-.63-.46-1.24-.8-1.81l.31.5c-.28-.45-.61-.85-.99-1.21l.41.39c-.08-.08-.17-.15-.25-.22-.45-.39-.79-.84-.88-1.45-.08-.52.06-1.18.39-1.6.69-.87,2.13-1.28,3.05-.49h0Z"/>
      </g>
      <path class="cls-1" d="M454.33,181.56c-55.19-72.84-155.81-99.16-241.24-57.85-85.19,41.2-127.05,136-104.64,224.28"/>
    </g>
  </g>
  <g>
    <path class="cls-4" d="M464.12,357.72c-3.28,5.92-13.04,6.98-16.5,12.39-3.89,6.07-8.79,10.05-12.89,15.68-6.68,9.18-8.33,17.3-8.7,37.54-.17,9.42-8.99.67-15.95,5.85-7.3,5.42-8.26,21.05-16.34,20.1-2.26-.27-7.01.84-8.92-.1-5.74-2.8-7.54-9.59-12.73-11.83-3.6-1.55-7.86,1.88-12.38.51-3.67-1.12-5.23-6.58-8.81-8.09-8.6-3.63-21.45-8.08-29.59-12.45-4.88-2.62-4.9-5.64-10.15-7.24-12.05-3.66-20.28,2.66-32.54-.65-7.19-1.94-6.54-17.34-13.94-26.19-8.3-9.94-20.78-16.45-38.87-16.19-3.47.05-3.05-7.31-6.22-7.99-7.15-.06-16.67,1.05-18.75-1.34-5.54-6.36-.31-14.64-5.36-21.4-4.36-5.84-12.12-4.12-13.46-6.54-1.6-2.89,1.56-2.88-.28-5.62-2.83-4.22-4.27,4.81-7.78,1.13-1.92-2.01,5.69-5.89,3.83-7.51-1.38-1.21-9.04,1.8-8.28-.13-4.19.56-2.48-4.99-5.21-5.35-3-.4-8.43,5.31-13.04,5.92-7.55.36-19.35-.52-19.44-7.11-.09-6.62,13.97-10.42,11.92-16.78-2.78-8.67-13.69-4.05-16.71-7.44-2.02-2.27,5.15-7.4,7.05-10.53-.81-7.14-6.88-3.48-8.97-4.55,1.85-3.85,5.67-8.78,8.45-11.73,4.63-4.91,13.45-1.37,15.46-8.4,4.18-14.65-6.72-1.72,16.65-30.32,9.09-11.12,15.34-23.6,36.49-30.82,2.88-.98,5.34-12.41,13.12-15.49,13.37-5.29,15.27,1.62,30.72.96,11.32-.48,18.49,3.88,32.62,3.66,14.15-.22,30.93-8.12,46.17-8.16s29.46,6.95,37.42,13.87c15.42,13.4,20.44,28.3,27.73,54.04,2.36,8.32,13.56,9.76,17.55,16.55,4.27,7.28-.22,15.85,7.79,20.42,5.44,6.44,21.54,15.67,28.45,26.16,6.3,9.56,15.12,23.13,15.86,33.3,1.13,15.48,13.87,7.8,5.1,21.62l.51,1.22"/>
    <g>
      <path d="M330.23,167.85c-7.4-1.22-14.77-.37-22.01,1.43-6.84,1.71-13.48,4.16-20.34,5.81-6.36,1.53-12.7,2.07-19.07.29-4.1-1.14-8.12-2.63-12.35-3.27s-8.61-.22-12.96.06c-2.14.14-4.33.23-6.47-.03s-4.01-.92-5.97-1.53c-3.71-1.15-7.34-1.77-11.21-1.22-6.74.95-13.1,5.14-16.43,11.11-1.59,2.86-2.14,6.47-4.8,8.61-2.48,2-5.85,2.73-8.78,3.8-3.25,1.19-6.16,2.75-8.75,5.07-2.4,2.15-4.36,4.78-6.1,7.47-3.47,5.35-6.1,11.36-10.4,16.13-4.68,5.2-10.87,9.01-14.55,15.1-2.12,3.52-2.67,7.44-3.73,11.32-.72,2.63-2.23,6.2-5.33,6.6-1.28.17-2.64.04-3.89.46s-2.33,1.31-3.24,2.34c-1.21,1.36-2.44,2.54-3.88,3.64-1.64,1.25-3.24,2.48-4.45,4.17-2,2.79-3.02,7.96.15,10.39,1.35,1.04,3.44.23,4.81.71.05.02.59.25.31.07.22.14.08.6.05.15.04.63,0-.35-.02.1,0,.14-.24.45.06-.12-.04.08-.08.18-.13.25-.09.1-.51.68-.1.2-.33.39-.69.74-1.07,1.08s-.77.65-1.17.96c-.32.25.3-.23-.03.02-.09.07-.19.14-.28.22-.36.28-.73.56-1.09.84-1.77,1.39-3.52,3.12-3.57,5.52-.09,3.86,3.99,5.4,7.2,5.53,1.64.06,3.29-.09,4.93.13.74.1,1.49.29,2.19.53.1.03.72.3.39.14.3.14.58.3.86.47.16.1.55.41.19.11.19.15.36.32.53.49s.47.55.15.12c.14.19.27.39.4.59.09.15.16.3.24.44.05.09.09.2.14.29.01.02-.21-.54-.11-.27.12.31.23.62.33.94.3.95.5,1.77.18,2.52-.46,1.08-1.62,2.05-2.67,2.76-2.99,2.02-6.33,3.59-8.18,6.89-2.12,3.78-.64,7.8,2.96,9.96,3.15,1.9,7,3.5,10.63,4.12,4.08.69,7.78,0,11.05-2.59,1.2-.95,2.27-2.08,3.47-3.02.46-.36,1.17-.83,1.6-.98.5-.18.58-.21,1.21.05-.28-.12.34.25.11.07.28.21.52.48.76.73.49.53.92,1.11,1.39,1.66,1.06,1.26,2.35,2.34,3.96,2.78,1.47.4,3,.28,4.5.19.6-.04,1.22-.09,1.83-.03-.06,0-.37,0-.09-.01.23,0,.31.23.22.04-.08-.17-.4-.41-.51-.63.23.43-.06.15.04-.05-.04.08-.29.54-.43.77-.44.73-.89,1.45-1.18,2.27-.66,1.85-.17,3.93,1.27,5.27s3.34,1.77,5.19,1.46c2.03-.35,3.64-1.61,5.21-2.86l-4.4-1.16c.52,1.83.64,3.62.45,5.51-.18,1.79,1.82,2.89,3.33,2.54,3.93-.92,8.21,2.16,10.83,4.8s4.35,6.05,3.5,9.82c-.92,4.07-2.43,9.1,1.94,11.8,1.95,1.21,4.27,1.02,6.45.87.48-.03,1.02.03,1.48-.05.38-.07-.67-.12-.14,0-.15-.04-.48-.31-.05.01.16.12.34.24.51.36-.67-.44-.1-.08.06.05.3.23.61.48.92.7.41.29.83.54,1.28.75,1.44.67,3.01.93,4.59.76,1.02-.11,2.01-.31,2.98-.64.61-.2,1.19-.47,1.78-.7.13-.05.86-.25.87-.28-.06.19-.8-.61-.79-.62-.04,0,0,.32-.01.36-.09.43-.03.99,0,1.43.1,1.17.43,2.31,1.03,3.32,2.49,4.2,7.55,5.24,12.06,4.95,2.45-.16,4.87-.5,7.32-.29,1.81.15,3.6.65,5.29,1.29,8.42,3.19,14.64,11.1,19.93,18.02.86,1.13,2.27,1.73,3.6.94,1.11-.65,1.81-2.47.94-3.6-5.28-6.91-11-14.02-18.68-18.39-3.79-2.15-8.02-3.49-12.39-3.6-2.57-.06-5.11.42-7.68.43-1.83,0-3.71-.28-5.12-1.54-1.55-1.38-.75-2.79-1.23-4.73-.72-2.94-3.87-3.76-6.44-2.84-1.81.65-3.27,1.32-4.92,1.25-.44-.02.58.15-.08-.01-.13-.03-.27-.07-.4-.1-.13-.03-.25-.08-.38-.12.08.03.51.26.11.04-.43-.23-.82-.5-1.23-.78.01,0,.39.3-.08-.06-.29-.23-.58-.46-.88-.67-.48-.33-.99-.59-1.55-.77-1.72-.55-3.6.09-5.36-.01-.46-.03-1.08-.14-1.32-.36-.41-.39-.35-1.26-.24-2.03.27-2,1.03-3.98,1.25-6.02.56-5.17-2.38-10.11-6.09-13.47-4.02-3.65-9.55-6.64-15.11-5.35l3.33,2.54c.23-2.32,0-4.66-.64-6.91-.58-2.06-2.9-2.37-4.4-1.16-.72.57-1.71,1.44-2.65,1.43-.13,0-.42-.13-.41-.13.2-.12-.33.01.02.02.4.01-.33.3.1.15.22-.08.67-1.13.8-1.35.34-.58.67-1.2.86-1.85.38-1.36.18-2.84-.61-4.01-1.44-2.15-4.08-2.13-6.38-1.98-.86.06-2.1.1-2.52,0-.62-.15-1.21-.79-1.87-1.58-1.66-1.99-3.35-3.79-6.09-4.02s-4.93,1.41-6.85,3.06c-1.77,1.53-3.37,3.37-5.78,3.81-2.64.49-5.43-.45-7.86-1.41-1.24-.49-2.45-1.06-3.63-1.66-.81-.42-1.93-.9-2.28-1.81-.59-1.53,1.97-3.6,3.31-4.5,2.16-1.44,4.52-2.54,6.28-4.51,1.92-2.16,2.85-4.84,2.16-7.7s-2.34-5.69-5.11-7.16c-2.35-1.24-5.04-1.65-7.67-1.69-1.17-.02-2.38.11-3.55-.05-.22-.03-.8-.15-.92-.2-2.37-1.11-.14-.11-.26-.12-.27-.26-.31-.31-.13-.13.13.34.15.38.07.12-.16-.4.03.1.02.21.03-.48,0,.66.04-.09,0,.02-.22.63-.05.17.22-.61-.13.07.12-.22.55-.62,1.18-1.15,1.83-1.67.1-.08.5-.39.12-.09.19-.14.38-.29.56-.43.49-.38.98-.75,1.46-1.14.8-.66,1.52-1.38,2.13-2.22,1.37-1.88,1.62-4.41.29-6.4-1.72-2.57-5.11-2.96-7.94-2.69l1.86.77c-.69-.86.13-2.72.84-3.66,1.25-1.67,3.24-2.81,4.84-4.11,1.42-1.15,2.42-2.79,3.86-3.88-.53.4.52-.11-.17.11.26-.08.52-.14.79-.19-.52.09.44-.02.63-.03.71-.05,1.41-.08,2.12-.19,4.43-.69,7.39-4.64,8.82-8.61,1.54-4.29,1.7-8.83,4.33-12.71,2.24-3.3,5.45-5.89,8.4-8.52,3.1-2.77,5.91-5.7,8.27-9.13,4.2-6.12,7.01-13.42,12.48-18.6,2.67-2.53,5.87-3.82,9.31-5,3.95-1.36,7.96-2.88,10.56-6.33,1.4-1.85,2.09-4.03,3-6.13.73-1.67,1.7-3.22,2.93-4.55,2.46-2.67,5.68-4.51,9.21-5.33,4.15-.96,7.86.14,11.84,1.35,2.58.79,5.2,1.3,7.91,1.38,2.48.08,4.95-.15,7.42-.33s5.11-.35,7.66-.12c2.41.22,4.77.86,7.09,1.53,4.39,1.27,8.67,2.77,13.27,3.11,8.11.61,16.14-1.79,23.8-4.12,7.98-2.43,16.08-5.1,24.51-5.13,2,0,4,.12,5.98.44,1.4.23,2.83-.37,3.24-1.84.35-1.26-.43-3.01-1.84-3.24h0Z"/>
      <path d="M263.12,388.15c3.5,3.88,4.95,8.62,6.78,13.39,1.69,4.41,4.18,10.07,8.74,12.19,2.89,1.35,5.65.59,8.51-.41,2.22-.78,4.54-1.35,6.88-1.58,4.75-.47,9.51.11,14.01,1.68,2.24.78,4.36,1.84,6.36,3.12,2.1,1.34,3.82,3.09,5.83,4.55,2.48,1.81,5.02,1.82,7.96,1.7.44-.02.87.01,1.31,0,.65-.03-.13-.05-.33-.11-.37-.11-.11-.05.01.02.28.16-.42-.37-.17-.14.37.34.72.7,1.1,1.04,1.37,1.2,2.96,2.03,4.77,2.33.62.11,1.26.18,1.89.22-.04,0,.9,0,.91.02.4.66-.73-.29-.79-.26-.12.06-.04-.19.04.14.06.22.23.47.33.68.19.42.36.86.59,1.27,1.12,2.05,3.3,3.21,5.49,3.79,1.96.52,4.14.52,6.02,1.31,1.77.74,2.44,2.57,3.24,4.17.94,1.88,2.14,3.78,4.09,4.73,2.54,1.24,5.13.63,7.61-.41,1.08-.45,2.16-.94,3.32-1.16.05,0,.52-.06.15-.02.18-.02.37-.03.55-.03s.36,0,.54.01c.47.02-.04-.03.23.03,2.82.54,5.01,2.85,7.27,5.12,2.45,2.48,4.94,5.2,8.09,6.8s6.97,1.92,10.33.37c2.87-1.32,4.98-3.83,6.73-6.38s3.3-5.56,5.01-8.3c.84-1.36,1.62-2.5,2.47-3.48.45-.52.93-1.01,1.44-1.47.13-.11.77-.61.44-.37.33-.24.67-.46,1.03-.66,1.03-.58,2.18-.85,3.57-.81,2.63.07,5.17.81,7.8.21,5.61-1.3,6.3-7.08,5.63-11.85-.33-2.35-.86-4.63-.92-7.01-.07-2.8.29-5.56.95-8.27,1.38-5.66,3.85-10.96,6.45-16.15,1.08-2.15,2.09-4.95,4.06-6.45s4.46-2,6.24-3.87c1.67-1.75,2.49-4.06,4.05-5.87,1.46-1.7,3.37-2.87,5.32-3.92,4.1-2.21,8.6-3.87,11.72-7.5s5.17-8.63,2.97-13.17c-.98-2.03-2.74-3.41-4.54-4.67-.66-.46-1.37-.9-1.98-1.39-.33-.26-.66-.55-.94-.86,0,0-.42-.6-.35-.44-.23-.5.07-1.27.41-2.04.58-1.32,1.05-2.61.93-4.07-.23-3-2.29-5.68-3.77-8.2-3.11-5.3-6.21-10.6-9.33-15.89-2.75-4.66-5.56-9.3-8.82-13.62-3.18-4.21-6.72-8.03-10.87-11.29-3.48-2.73-7.2-5.17-10.64-7.96-3.2-2.59-6.33-5.55-8.02-9.38-.92-2.07-1.17-4.29-1.47-6.52-.38-2.75-1.15-5.21-2.91-7.4-2.87-3.58-7.3-5.12-10.71-8.03s-5.3-6.79-6.6-10.93c-1.42-4.5-2.2-9.17-3.23-13.77s-2.42-8.88-4.3-13.12c-7.52-16.9-22.29-30.34-39.6-36.69-4.16-1.53-8.48-2.6-12.87-3.21-1.41-.2-2.83.34-3.24,1.84-.34,1.23.42,3.04,1.84,3.24,17.5,2.44,33.52,12.61,43.52,27.15,5.09,7.4,8.16,15.48,10.01,24.23s3.5,18.65,10.6,24.86c3.24,2.84,7.71,4.39,10.5,7.72,1.49,1.78,1.72,4.07,2.01,6.29.33,2.53.9,4.85,1.99,7.17,3.74,7.93,11.97,12.61,18.69,17.69,8.2,6.21,13.79,14.62,18.98,23.37,3.01,5.07,5.98,10.17,8.96,15.26.74,1.27,1.49,2.53,2.23,3.8.61,1.03,1.73,2.39,1.81,3.64.07.96-.59,1.92-.93,2.78-.5,1.26-.66,2.6-.39,3.93.86,4.22,5.37,5.14,7.81,8.07s-.48,7.13-2.73,9.21c-3.24,2.99-7.85,4.25-11.53,6.61-2.11,1.35-3.96,2.96-5.43,4.99-1.24,1.71-1.99,3.99-3.83,5.18-2.14,1.38-4.48,2.04-6.23,4.02s-2.88,4.45-4.05,6.81c-2.6,5.2-5.1,10.55-6.62,16.19s-1.71,10.93-.71,16.52c.33,1.83.78,3.85.44,5.71s-1.81,2.36-3.62,2.27c-2.44-.12-4.76-.67-7.21-.28-1.47.24-2.92.8-4.19,1.59-2.74,1.71-4.75,4.34-6.47,7.02s-3.14,5.46-4.85,8.1c-.89,1.38-1.34,2.03-2.42,3.15-.23.24-.47.47-.71.7-.07.07-.8.66-.41.36-.56.42-1.19.81-1.84,1.08.49-.2-.37.1-.49.13-.31.09-.63.16-.95.21.48-.07-.28,0-.43,0s-1.13-.04-.84,0c-1.63-.2-2.67-.79-4.05-1.77-2.47-1.73-4.81-4.56-7.17-6.77-2.55-2.39-5.48-4.52-9.07-4.82-2.21-.19-4.22.53-6.23,1.36-1.53.64-3.4,1.58-4.55.18s-1.68-3.37-2.73-4.9c-1.35-1.98-3.15-3.27-5.45-3.96-2.01-.61-4.18-.62-6.15-1.33-.37-.13-.7-.29-1.03-.5-.53-.33-.21-.05-.45-.39-.51-.75-.72-1.68-1.2-2.45-.52-.85-1.23-1.55-2.16-1.93-1.05-.43-2.17-.23-3.27-.43-.91-.16-1.1-.28-1.76-.66-.42-.25-.11-.06-.01.02-.11-.08-.22-.18-.32-.27-.23-.21-.45-.43-.68-.64-1.25-1.17-2.44-1.71-4.19-1.72-1.33,0-2.75.34-4.07.09-1.04-.2-1.9-.93-2.68-1.6-3.8-3.28-7.83-5.88-12.58-7.57s-9.65-2.35-14.54-2.03c-2.46.16-4.92.55-7.3,1.21-1.98.55-4.78,2.34-6.82,1.45-1.84-.81-3.11-3.05-4.06-4.71-1.16-2.04-1.98-4.21-2.77-6.42-1.77-4.94-3.76-9.54-7.32-13.49-2.28-2.52-5.99,1.21-3.72,3.72h0Z"/>
    </g>
  </g>
  <g>
    <path class="cls-2" d="M262.35,225.19c3.53.15,5.38,1.38,5.38,3.69,0,.46,0,.92-.15,1.38-5.22,21.66-7.83,43.02-7.83,64.37,0,13.06,1.07,26.42,3.38,39.79.77,4.46-1.69,7.22-7.37,7.99-.77.15-1.38.15-2.15.15-3.99,0-6.14-2-6.45-6.14-.77-13.37-.92-27.35-.46-42.25.61-15.52,1.69-30.27,3.07-44.4-5.68,3.23-10.6,6.91-14.44,11.22-1.69,2-3.69,2.61-5.68,1.54-4.3-2-6.61-6.14-6.91-12.29-.15-2.61.77-4.76,2.76-6.3,2.77-2.15,7.38-4.61,13.67-7.37,6.3-2.92,10.91-5.38,13.67-7.53,2-2.61,5.22-3.99,9.53-3.84Z"/>
    <path class="cls-2" d="M356.22,229.49c0,6.3-1.38,17.05-3.99,32.11-2.61,14.9-3.99,26.27-3.99,34.11,0,13.37,1.08,26.42,3.23,39.48.77,4.46-1.69,7.07-7.22,7.84-.77.15-1.38.15-2.15.15-3.84,0-5.99-2.15-6.76-6.61-.15-.61-.15-4.46-.15-11.68-6.91,10.14-15.82,16.75-26.73,19.66-2,.61-3.84.92-5.22.92-8.14,0-14.9-5.99-19.97-17.82-2.3-5.38-3.38-11.21-3.38-17.67,0-4.15.46-8.3,1.23-12.6,2-10.75,5.38-20.28,10.29-28.58,5.99-9.99,13.37-16.59,22.12-19.66,2-.77,3.84-1.07,5.53-1.07,5.99,0,12.14,3.53,18.44,10.75.15-3.23.61-7.53,1.07-12.9.77-8.14,1.08-12.44,1.08-12.75,1.38-4.46,4.46-6.76,9.37-7.22,4.76-.31,7.22.92,7.22,3.53ZM320.88,269.12c-2.77,0-5.53.92-8.45,2.92-11.68,7.53-19.66,21.51-21.36,35.64-.77,6.91,1.38,12.29,6.45,15.98,2,1.38,4.15,2,6.45,2,2.46,0,5.38-.92,8.76-2.61,12.9-7.22,21.66-21.2,21.66-35.8.15-7.53-1.84-12.75-5.99-15.52-2.46-1.69-4.92-2.61-7.53-2.61Z"/>
  </g>
  <path d="M314.17,420.68c-7.68-4.95-16.85-.91-24.88.74-2.39.49-4.8.77-7.24.87-2.13.09-4.5.23-6.58-.29-1.78-.45-2.79-1.77-3.64-3.31-1.07-1.92-1.91-3.97-2.88-5.95-4.03-8.23-8.57-16.51-14.25-23.73-4.93-6.27-11.72-11.47-20.09-10.84-2.29.17-4.59.57-6.84-.07-1.68-.47-3.24-1.39-4.56-2.54-3.17-2.74-5.41-6.35-7.44-9.97-.72-1.28-2.2-1.42-3.42-.9-2.3.99-6.6,2.78-8.06-.35-.65-1.39-2.94-1.67-3.93-.51-.82.96-1.71,1.04-3,.6-1.39-.47-2.34-1.49-2.95-2.82-.79-1.72-1-3.7-1.18-5.57-.22-2.31-.42-4.62-.91-6.9-.92-4.28-2.87-8.58-6.35-11.38-3.62-2.91-7.79-3.83-12.29-2.72-.84.21-1.81.56-2.69.38-.55-.11-.73-.43-.99-1.04-.54-1.23-.73-3.03-1.24-4.44-1.48-4.06-5.14-6.12-9.33-6.4-4.45-.3-8.44,1.93-12.56,3.2-3.22.99-6.57,1.08-9.83.27-7.21-1.77-13.42-7.32-15.17-14.65-.74-3.13-5.57-1.8-4.82,1.33,1.78,7.46,7.46,13.65,14.44,16.67,3.54,1.53,7.4,2.39,11.28,2.16,4.53-.27,8.38-2.31,12.67-3.5,2.82-.79,7.2-.97,8.5,2.25.71,1.74.85,3.63,1.63,5.36.84,1.86,2.45,3.3,4.48,3.68,2.42.46,4.53-.68,6.89-.83,1.95-.13,3.82.6,5.38,1.73,3.58,2.58,4.97,7.18,5.56,11.35.68,4.83.35,10.5,4.09,14.23,3.07,3.06,8.84,4.2,11.93.55l-3.93-.51c1.11,2.37,3.58,3.78,6.1,4.12,3.11.43,6-.77,8.8-1.98l-3.42-.9c3.57,6.36,8.56,13.81,16.34,15.1,4.3.71,8.55-.82,12.78.64,3.41,1.18,6.25,3.71,8.63,6.35,2.75,3.05,4.97,6.52,7.12,10,2.56,4.14,4.95,8.39,7.16,12.74,1.08,2.11,2.09,4.26,3.1,6.4.88,1.86,1.9,3.77,3.43,5.19,3.53,3.29,9.01,2.98,13.5,2.67,5.27-.36,10.22-1.8,15.33-2.99,4.26-.99,8.93-1.73,12.81.77,2.71,1.75,5.22-2.58,2.52-4.32h0Z"/>
  <path d="M459.58,307.74c-3.31-8.55-7.21-17.11-12.52-24.63-2.17-3.08-4.59-6.05-7.66-8.28-1.58-1.15-3.41-1.96-5.1-2.93s-3.28-1.9-4.87-2.95c-2.14-1.41-3.73-2.57-5.48-4.68-.22-.26.27.38.08.1-.06-.09-.13-.18-.19-.27-.12-.18-.24-.36-.36-.54-.25-.4-.47-.81-.68-1.24-.04-.08-.32-.74-.16-.34s-.12-.32-.16-.43c-.15-.43-.29-.86-.41-1.3-.62-2.14-1.02-4.34-1.56-6.51-.78-3.12-1.57-6.67-3.3-9.41-1.84-2.92-4.69-4.35-7.78-5.62-.77-.32-.96-.39-1.58-.67-.77-.35-1.52-.73-2.24-1.16-1.48-.89-2.76-2.03-3.84-3.41-1.18-1.51-1.86-2.89-2.35-4.43-.56-1.76-.96-3.57-1.31-5.38-.68-3.52-1.12-7.07-1.63-10.61-1.22-8.38-3.41-16.68-7.26-24.26-3.28-6.45-7.87-12.18-13.32-16.93-13.61-11.87-32.25-17.35-50.18-15.75-2.44.22-4.87.57-7.28,1.04-1.33.26-2.08,1.84-1.75,3.08.38,1.38,1.75,2.01,3.08,1.75,16.91-3.32,36.26.49,49.93,11.21,5.42,4.25,10.09,9.26,13.58,15.17,4.06,6.89,6.38,14.61,7.8,22.45,1.3,7.19,1.43,14.95,4.34,21.73,1.53,3.56,4.36,6.68,7.67,8.67,1.4.84,2.91,1.47,4.42,2.09,1.2.49,2.14.83,3.44,1.65.62.39.61.37,1.2.98.53.54.76.88,1.17,1.69.71,1.38,1.13,3.03,1.57,4.54.71,2.39,1.24,4.83,1.81,7.25.98,4.18,2.61,7.77,5.9,10.64,2.45,2.14,5.24,3.88,8.04,5.52,1.78,1.03,3.64,1.93,5.39,3.01,1.22.75,2.18,1.65,3.3,2.83,2.72,2.88,4.89,6.26,6.88,9.67,2.29,3.93,4.31,8.02,6.15,12.19.84,1.91,1.64,3.85,2.39,5.8.49,1.26,1.68,2.13,3.08,1.75,1.2-.33,2.24-1.81,1.75-3.08h0Z"/>
  <path d="M114.19,194.12c-11.78,15.86-19.91,34.11-24.38,53.33-5.09,21.92-5.9,44.68-3.76,67.03,1.26,13.23,3.5,26.35,6.4,39.32.7,3.14,5.52,1.81,4.82-1.33-5.04-22.57-8.07-45.69-7.18-68.85.77-20.07,4.4-40.3,12.26-58.86,4.23-9.98,9.7-19.42,16.16-28.12.81-1.08.18-2.79-.9-3.42-1.27-.75-2.61-.19-3.42.9h0Z"/>
  <path d="M502.19,252.48c.25.48.49.96.72,1.45.12.27.24.54.36.81.17.38-.23-.59-.02-.05.07.17.14.34.2.51.52,1.32.98,2.65,1.39,4.01,1.05,3.41,1.86,6.9,2.53,10.41.4,2.1.75,4.21,1.05,6.32.03.23.07.47.1.7,0,.07.08.56.04.26-.04-.27.02.12.02.14.08.61.15,1.21.23,1.82.14,1.17.27,2.33.38,3.5.51,5.15.78,10.33.87,15.51.19,11.98-.64,24-2.52,35.84-2.17,13.67-5.67,27.14-10.55,40.1-5.35,14.21-12.45,27.76-21.12,40.23-1.14,1.64-2.31,3.26-3.5,4.86-.81,1.08-.18,2.79.9,3.42,1.27.74,2.61.19,3.42-.9,9.4-12.65,17.07-26.47,23.05-41.04,5.39-13.15,9.33-26.88,11.86-40.87,2.24-12.41,3.44-25.03,3.49-37.65.04-10.22-.66-20.47-2.34-30.56-1.12-6.76-2.62-13.64-5.51-19.9-.23-.49-.47-.98-.72-1.45-1.52-2.84-5.83-.32-4.32,2.52h0Z"/>
</svg>