<svg width="600" height="600" viewBox="0 0 600 600" fill="none" xmlns="http://www.w3.org/2000/svg">
<path d="M117.03 147.159C108.95 146.139 103.32 145.669 100.18 138.159C97.0398 130.649 95.8798 123.229 96.5498 115.119C96.5198 124.369 95.9998 123.609 95.2298 128.359C94.4298 133.259 93.3898 138.599 89.5798 141.779C85.3598 145.299 79.1598 147.959 73.7998 146.729C78.2398 146.929 85.2298 148.309 88.5598 151.249C94.7798 156.739 95.0698 172.169 94.1898 177.589C95.0798 172.429 94.3198 158.519 102.2 151.759C107.22 147.449 110.07 146.599 117.19 146.599L117.03 147.169V147.159Z" fill="#3556D8"/>
<path d="M117.03 144.659C114.11 144.289 111.12 143.999 108.32 143.029C106.21 142.289 104.47 140.909 103.25 138.749C101.36 135.439 100.33 131.419 99.62 127.699C98.82 123.549 98.73 119.309 99.06 115.109H94.06C94.06 116.779 94.04 118.459 93.96 120.129C93.94 120.649 93.91 121.159 93.87 121.679C93.85 121.889 93.83 122.109 93.81 122.319C93.8 122.429 93.72 123.109 93.77 122.739C93.82 122.369 93.74 122.969 93.72 123.079C93.69 123.239 93.67 123.389 93.64 123.549C93.58 123.879 93.51 124.199 93.44 124.529C93.28 125.309 93.11 126.079 92.97 126.859C92.43 129.839 92.05 132.919 90.87 135.739C89.69 138.559 87.55 140.459 84.92 141.999C81.83 143.799 78.06 145.079 74.47 144.309L73.81 149.219C76.82 149.369 79.83 149.919 82.68 150.889C84.01 151.339 85.34 151.919 86.48 152.749C87.28 153.339 87.92 154.119 88.39 154.869C91.14 159.159 91.83 164.859 92.02 169.949C92.07 171.349 92.07 172.759 92.02 174.159C91.99 174.729 91.96 175.309 91.91 175.879C91.89 176.119 91.86 176.349 91.84 176.589C91.78 177.219 91.91 176.199 91.8 176.909C91.59 178.239 92.14 179.599 93.55 179.989C94.75 180.319 96.4 179.579 96.63 178.239C97.45 173.329 97.34 168.509 98.47 163.739C99.13 160.969 100.09 158.319 101.73 155.969C103.37 153.619 105.71 151.859 108.11 150.599C110.75 149.209 114.04 149.079 117.21 149.069L114.8 145.909L114.64 146.479C113.79 149.589 118.61 150.909 119.46 147.809L119.62 147.239C120.05 145.679 118.84 144.069 117.21 144.079C113.89 144.089 110.45 144.219 107.34 145.489C104.26 146.739 101.3 148.859 99.08 151.329C94.64 156.259 93.22 162.959 92.52 169.369C92.36 170.869 92.24 172.369 92.12 173.869C92.07 174.479 92.02 175.099 91.96 175.709C91.93 176.009 91.9 176.319 91.86 176.619C91.82 176.919 91.89 176.429 91.89 176.419C91.86 176.589 91.84 176.759 91.81 176.929L96.63 178.259C97.49 172.739 97.16 166.909 96.08 161.439C95.48 158.419 94.55 155.359 92.95 152.709C91.22 149.839 88.76 147.989 85.69 146.709C81.96 145.159 77.85 144.429 73.83 144.229C71.04 144.089 70.4 148.549 73.17 149.139C77.21 149.999 81.19 149.239 84.93 147.609C88.41 146.099 91.82 143.789 93.96 140.599C95.95 137.619 96.82 133.989 97.43 130.509C97.77 128.559 98.19 126.619 98.53 124.659C99.07 121.519 99.08 118.309 99.09 115.119C99.1 111.929 94.34 111.949 94.09 115.119C93.71 119.919 93.96 124.739 94.91 129.469C95.75 133.629 97.01 138.209 99.29 141.829C103.24 148.109 110.33 148.819 117.06 149.669C118.4 149.839 119.56 148.399 119.56 147.169C119.56 145.679 118.41 144.839 117.06 144.669L117.03 144.659Z" fill="#1D1D1B"/>
<path d="M117.03 147.159C108.95 146.139 103.32 145.669 100.18 138.159C97.0398 130.649 95.8798 123.229 96.5498 115.119C96.5198 124.369 95.9998 123.609 95.2298 128.359C94.4298 133.259 93.3898 138.599 89.5798 141.779C85.3598 145.299 79.1598 147.959 73.7998 146.729C78.2398 146.929 85.2298 148.309 88.5598 151.249C94.7798 156.739 95.0698 172.169 94.1898 177.589C95.0798 172.429 94.3198 158.519 102.2 151.759C107.22 147.449 110.07 146.599 117.19 146.599L117.03 147.169V147.159Z" fill="#3556D8"/>
<path d="M117.03 144.659C114.11 144.289 111.12 143.999 108.32 143.029C106.21 142.289 104.47 140.909 103.25 138.749C101.36 135.439 100.33 131.419 99.62 127.699C98.82 123.549 98.73 119.309 99.06 115.109H94.06C94.06 116.779 94.04 118.459 93.96 120.129C93.94 120.649 93.91 121.159 93.87 121.679C93.85 121.889 93.83 122.109 93.81 122.319C93.8 122.429 93.72 123.109 93.77 122.739C93.82 122.369 93.74 122.969 93.72 123.079C93.69 123.239 93.67 123.389 93.64 123.549C93.58 123.879 93.51 124.199 93.44 124.529C93.28 125.309 93.11 126.079 92.97 126.859C92.43 129.839 92.05 132.919 90.87 135.739C89.69 138.559 87.55 140.459 84.92 141.999C81.83 143.799 78.06 145.079 74.47 144.309L73.81 149.219C76.82 149.369 79.83 149.919 82.68 150.889C84.01 151.339 85.34 151.919 86.48 152.749C87.28 153.339 87.92 154.119 88.39 154.869C91.14 159.159 91.83 164.859 92.02 169.949C92.07 171.349 92.07 172.759 92.02 174.159C91.99 174.729 91.96 175.309 91.91 175.879C91.89 176.119 91.86 176.349 91.84 176.589C91.78 177.219 91.91 176.199 91.8 176.909C91.59 178.239 92.14 179.599 93.55 179.989C94.75 180.319 96.4 179.579 96.63 178.239C97.45 173.329 97.34 168.509 98.47 163.739C99.13 160.969 100.09 158.319 101.73 155.969C103.37 153.619 105.71 151.859 108.11 150.599C110.75 149.209 114.04 149.079 117.21 149.069L114.8 145.909L114.64 146.479C113.79 149.589 118.61 150.909 119.46 147.809L119.62 147.239C120.05 145.679 118.84 144.069 117.21 144.079C113.89 144.089 110.45 144.219 107.34 145.489C104.26 146.739 101.3 148.859 99.08 151.329C94.64 156.259 93.22 162.959 92.52 169.369C92.36 170.869 92.24 172.369 92.12 173.869C92.07 174.479 92.02 175.099 91.96 175.709C91.93 176.009 91.9 176.319 91.86 176.619C91.82 176.919 91.89 176.429 91.89 176.419C91.86 176.589 91.84 176.759 91.81 176.929L96.63 178.259C97.49 172.739 97.16 166.909 96.08 161.439C95.48 158.419 94.55 155.359 92.95 152.709C91.22 149.839 88.76 147.989 85.69 146.709C81.96 145.159 77.85 144.429 73.83 144.229C71.04 144.089 70.4 148.549 73.17 149.139C77.21 149.999 81.19 149.239 84.93 147.609C88.41 146.099 91.82 143.789 93.96 140.599C95.95 137.619 96.82 133.989 97.43 130.509C97.77 128.559 98.19 126.619 98.53 124.659C99.07 121.519 99.08 118.309 99.09 115.119C99.1 111.929 94.34 111.949 94.09 115.119C93.71 119.919 93.96 124.739 94.91 129.469C95.75 133.629 97.01 138.209 99.29 141.829C103.24 148.109 110.33 148.819 117.06 149.669C118.4 149.839 119.56 148.399 119.56 147.169C119.56 145.679 118.41 144.839 117.06 144.669L117.03 144.659Z" fill="#1D1D1B"/>
<path d="M295.42 164.171C301.28 164.481 307.57 163.551 312.8 160.811C315.82 159.221 318.7 157.291 321.43 155.231C320.21 154.731 318.98 154.231 317.76 153.741C319.19 160.171 324.94 165.131 331.59 165.041C335.42 164.991 339.08 163.611 342.45 161.901C341.2 161.181 339.94 160.461 338.69 159.741C338.44 166.501 343.47 172.611 349.88 174.381C357.35 176.451 364.77 172.331 370.36 167.741C368.97 166.931 367.57 166.121 366.18 165.311C365.21 167.951 364.8 170.831 365.71 173.561C366.62 176.291 368.53 178.441 370.92 179.991C376.95 183.901 384.24 183.131 390.73 180.911C390.99 180.821 392.89 180.261 392.89 180.181L392.51 180.091C392.18 179.731 392.14 179.731 392.38 180.091C392.38 180.141 392.52 180.691 392.53 180.761C392.59 181.081 392.63 181.391 392.66 181.711L393.2 186.471L393.79 191.691C393.95 193.081 394.03 194.521 394.54 195.841C395.65 198.681 398.09 200.931 401.1 201.601C404.76 202.411 407.62 200.861 410.56 198.861C413.21 197.061 410.71 192.731 408.04 194.541C406.99 195.251 405.83 196.181 404.66 196.601C403.75 196.921 402.97 196.921 402.15 196.701C400.38 196.231 399.34 194.901 398.94 192.981C399.09 193.711 398.94 192.911 398.92 192.711L398.69 190.721C398.5 189.021 398.3 187.311 398.11 185.611C397.79 182.801 397.96 178.351 395.77 176.331C394.33 174.991 392.48 175.021 390.71 175.621C389.09 176.171 387.5 176.731 385.84 177.141C382.78 177.891 379.65 178.121 376.62 177.161C374.49 176.481 372.27 175.261 371.09 173.341C370.51 172.401 370.21 171.371 370.2 170.241C370.2 169.931 370.22 169.621 370.24 169.321C370.28 168.791 370.16 169.641 370.27 169.081C370.44 168.241 370.71 167.431 371 166.631C371.38 165.601 370.75 164.331 369.85 163.811C368.83 163.211 367.69 163.491 366.82 164.201C362.75 167.551 357.02 171.001 351.53 169.641C347.04 168.531 343.51 164.431 343.68 159.731C343.75 157.731 341.53 156.751 339.92 157.571C337.51 158.791 334.61 159.871 332.23 160.011C331.73 160.041 331.23 160.041 330.73 160.011C330.46 160.001 330.18 159.981 329.91 159.941C330.38 160.001 329.74 159.901 329.58 159.861C329.17 159.771 328.76 159.661 328.36 159.521C328.17 159.451 327.66 159.241 328.12 159.441C327.91 159.351 327.71 159.251 327.51 159.141C327.15 158.951 326.81 158.731 326.47 158.511C326.26 158.371 326.07 158.201 326.39 158.471C326.23 158.341 326.07 158.211 325.92 158.071C325.64 157.821 325.38 157.561 325.13 157.281C325.02 157.161 324.91 157.031 324.8 156.901C324.39 156.431 324.89 157.061 324.69 156.771C324.32 156.231 323.96 155.691 323.64 155.111C323.51 154.871 323.39 154.631 323.27 154.391C323.21 154.261 323.15 154.121 323.09 153.991C323.05 153.911 323.31 154.571 323.14 154.111C322.93 153.541 322.71 152.981 322.58 152.391C322.26 150.951 320.18 149.941 318.91 150.901C316.35 152.841 313.65 154.641 310.84 156.181C306.37 158.621 300.71 159.431 295.43 159.161C292.21 158.991 292.22 163.991 295.43 164.161L295.42 164.171Z" fill="#1D1D1B"/>
<path d="M388.79 123.481C389.31 123.331 389.83 123.221 390.36 123.111C390.47 123.091 390.59 123.071 390.7 123.051C390.25 123.121 390.66 123.051 390.74 123.051C391.07 123.021 391.4 122.991 391.73 122.961C393.15 122.871 394.58 122.911 396 123.031C398.95 123.291 402.16 124.061 405.11 125.131C408.02 126.191 410.9 127.661 413.31 129.611C416.27 131.991 418.54 135.181 420.35 138.491C427.3 151.221 424.15 166.011 418.78 178.631C417.49 181.661 416.09 184.661 414.61 187.611C412.86 191.101 409.97 193.091 406.89 195.401C405.81 196.211 405.26 197.561 405.99 198.821C406.61 199.881 408.32 200.531 409.41 199.721C412.5 197.401 415.73 195.291 417.87 191.991C419.61 189.321 420.85 186.191 422.16 183.291C425.17 176.591 427.76 169.611 428.82 162.311C430.01 154.101 429.29 145.871 425.82 138.271C422.4 130.781 416.78 124.731 409.21 121.421C405.41 119.761 401.45 118.681 397.33 118.161C394.08 117.761 390.62 117.701 387.45 118.631C384.37 119.531 385.68 124.361 388.78 123.451L388.79 123.481Z" fill="#1D1D1B"/>
<path d="M386.3 361.83C375.63 373.73 366.36 386.89 358.83 400.99C356.68 405.01 354.68 409.12 352.81 413.28C352.26 414.51 352.45 415.97 353.71 416.7C354.78 417.32 356.58 417.04 357.13 415.8C363.51 401.56 371.56 388.02 381.17 375.71C383.94 372.16 386.83 368.72 389.84 365.36C391.98 362.97 388.46 359.42 386.3 361.82V361.83Z" fill="#1D1D1B"/>
<path d="M357.83 416.971C380.75 413.701 404.94 417.771 426.09 426.951C432.09 429.551 437.89 432.601 443.42 436.081C446.15 437.801 448.66 433.471 445.94 431.761C425.39 418.821 400.97 411.581 376.71 410.951C369.94 410.771 363.19 411.191 356.49 412.151C355.15 412.341 354.42 414.041 354.74 415.231C355.14 416.671 356.47 417.171 357.82 416.981L357.83 416.971Z" fill="#1D1D1B"/>
<path d="M197.63 397.939C207.21 396.579 217.04 397.029 226.42 399.419C233.53 401.229 240.02 403.989 246.39 407.589C248.92 409.019 251.39 410.569 253.85 412.119C256.58 413.839 259.09 409.509 256.37 407.799C251.27 404.589 246.12 401.519 240.59 399.089C232.37 395.479 223.7 393.179 214.74 392.439C208.57 391.929 202.41 392.249 196.29 393.119C194.95 393.309 194.22 395.009 194.54 396.199C194.94 397.639 196.27 398.139 197.62 397.949L197.63 397.939Z" fill="#1D1D1B"/>
<path d="M446.54 436.171C454.53 425.861 461.07 414.501 466.87 402.841C469.74 397.071 472.42 391.211 474.9 385.271C477.59 378.861 479.94 372.271 481.23 365.431C483.7 352.401 482.21 338.491 473.84 327.781C466.1 317.891 454.13 312.281 442.12 309.591C434.44 307.871 426.549 307.151 418.709 306.701C410.349 306.231 401.969 306.171 393.609 306.521C390.399 306.651 390.389 311.651 393.609 311.521C400.739 311.221 407.889 311.211 415.019 311.521C421.809 311.811 428.63 312.261 435.34 313.361C447 315.271 458.75 319.281 467.25 327.841C471.28 331.901 474.2 336.831 475.79 342.331C477.5 348.261 477.74 354.541 476.97 360.651C475.38 373.331 469.75 385.381 464.27 396.791C458.27 409.281 451.51 421.651 443 432.631C442.17 433.701 441.96 435.131 443 436.171C443.86 437.031 445.7 437.241 446.54 436.171Z" fill="#1D1D1B"/>
<path d="M358.3 413.43C350 425.37 341.61 437.36 335.3 450.5C334.72 451.72 334.97 453.2 336.2 453.92C337.29 454.56 339.03 454.25 339.62 453.02C345.93 439.88 354.32 427.89 362.62 415.95C363.39 414.84 362.82 413.17 361.72 412.53C360.48 411.8 359.07 412.32 358.3 413.43Z" fill="#1D1D1B"/>
<path d="M333.18 306.3C317.93 306.17 303.13 309.91 288.42 313.51C285.3 314.28 286.62 319.1 289.75 318.33C304.04 314.83 318.37 311.17 333.18 311.3C336.4 311.33 336.4 306.33 333.18 306.3Z" fill="#1D1D1B"/>
<path d="M401.13 222.07C399.69 227.3 398.18 232.56 396.05 237.55C394.21 241.86 391.83 245.9 389.12 249.72C388.34 250.82 388.92 252.5 390.02 253.14C391.27 253.87 392.66 253.35 393.44 252.24C396.22 248.32 398.62 244.19 400.51 239.77C402.77 234.47 404.44 228.949 405.97 223.399C406.82 220.289 402 218.97 401.15 222.07H401.13Z" fill="#1D1D1B"/>
<path d="M334.33 200.55C332.06 210.35 329.79 220.16 327.51 229.96C327.27 230.98 327.65 232.28 328.66 232.78C334.16 235.53 340.44 236.2 346.38 234.54C349.47 233.68 348.16 228.85 345.05 229.72C340.44 231.01 335.48 230.61 331.18 228.46L332.33 231.28C334.6 221.48 336.87 211.67 339.15 201.87C339.88 198.74 335.06 197.4 334.33 200.54V200.55Z" fill="#1D1D1B"/>
<path d="M344.72 252.54C351.57 252.86 357.97 249.75 361.95 244.2C362.22 243.83 362.48 243.44 362.7 243.04C363.31 241.88 363.03 240.27 361.8 239.62C360.65 239.01 359.03 239.28 358.38 240.52C358.23 240.8 358.06 241.07 357.88 241.33C357.78 241.47 357.69 241.61 357.59 241.75C357.54 241.82 357.48 241.89 357.43 241.97C357.24 242.24 357.86 241.44 357.55 241.81C357.24 242.18 356.92 242.57 356.59 242.92C356.21 243.33 355.81 243.72 355.39 244.09C355.15 244.3 354.9 244.5 354.65 244.7C354.54 244.79 355.07 244.4 354.66 244.68C354.51 244.79 354.36 244.9 354.21 245C353.61 245.41 352.97 245.79 352.32 246.12C352.16 246.2 352 246.28 351.84 246.35C351.61 246.46 351.37 246.55 351.77 246.39C351.39 246.54 351.01 246.69 350.62 246.82C349.68 247.13 348.72 247.35 347.74 247.49C348.24 247.42 347.6 247.49 347.42 247.51C347.12 247.54 346.82 247.55 346.51 247.57C345.91 247.59 345.32 247.58 344.72 247.56C343.41 247.5 342.16 248.75 342.22 250.06C342.28 251.47 343.32 252.49 344.72 252.56V252.54Z" fill="#1D1D1B"/>
<path d="M356.11 196.38C361.75 195.36 368.16 196.87 372.73 200.52C373.78 201.36 375.24 201.55 376.27 200.52C377.14 199.65 377.33 197.83 376.27 196.98C370.19 192.13 362.44 190.17 354.78 191.56C353.45 191.8 352.7 193.42 353.03 194.64C353.41 196.04 354.77 196.63 356.11 196.39V196.38Z" fill="#1D1D1B"/>
<path d="M330.4 180.909C322.96 177.979 314.57 178.659 307.08 181.029C304.02 181.999 305.33 186.829 308.41 185.849C315.15 183.719 322.38 183.089 329.08 185.729C330.34 186.229 331.82 185.189 332.16 183.979C332.55 182.559 331.67 181.399 330.41 180.899L330.4 180.909Z" fill="#1D1D1B"/>
<path d="M408.89 202.89C410.15 201.34 411.6 199.55 413.09 198.4C414.42 197.37 415.74 196.9 417.25 196.82C421.08 196.63 424.86 198.25 426.74 201.72C429 205.89 427.2 210.54 425.12 214.36C423.38 217.54 421.17 220.11 417.73 221.61C415.64 222.52 413.91 222.95 411.9 222.8C409.45 222.62 406.98 221.31 404.92 219.86C403.81 219.08 402.14 219.66 401.5 220.76C400.77 222.01 401.29 223.4 402.4 224.18C404.85 225.9 407.63 227.22 410.61 227.65C413.12 228.01 415.51 227.67 417.91 226.86C422.73 225.24 426.44 222.05 428.99 217.68C431.93 212.64 434.08 206.64 431.83 200.91C429.77 195.66 424.8 192.32 419.25 191.87C416.62 191.66 413.96 192.07 411.65 193.39C409.12 194.83 407.17 197.13 405.36 199.37C404.51 200.42 404.33 201.88 405.36 202.91C406.24 203.79 408.04 203.97 408.9 202.91L408.89 202.89Z" fill="#1D1D1B"/>
<path d="M289.57 178.29C290.54 182.43 290.75 186.58 290.61 190.82C290.49 194.47 290.23 198.12 290.71 201.76C290.89 203.1 291.73 204.26 293.21 204.26C294.42 204.26 295.89 203.11 295.71 201.76C295.22 198 295.5 194.24 295.62 190.47C295.76 185.92 295.43 181.41 294.39 176.97C293.66 173.84 288.83 175.16 289.57 178.3V178.29Z" fill="#1D1D1B"/>
<path d="M291.99 224.38C294.17 238.89 298.87 252.89 308.32 264.34C316.72 274.52 328.63 280.85 341.86 281.61C350.65 282.12 359.53 280.26 367.24 275.97C370.05 274.4 367.53 270.08 364.72 271.65C353.38 277.97 338.62 278.48 326.89 272.84C315.56 267.4 307.53 256.86 302.7 245.49C299.66 238.34 297.97 230.69 296.82 223.04C296.62 221.7 294.93 220.97 293.74 221.29C292.31 221.68 291.79 223.02 291.99 224.37V224.38Z" fill="#1D1D1B"/>
<path d="M388.63 250.84C385.76 266.42 385.26 282.56 387.46 298.26C388.07 302.59 388.92 306.87 390.09 311.09C390.95 314.19 395.77 312.87 394.91 309.76C390.84 295.07 390.38 279.39 391.78 264.28C392.16 260.22 392.71 256.18 393.45 252.18C393.69 250.85 393.08 249.48 391.7 249.1C390.48 248.77 388.87 249.51 388.62 250.85L388.63 250.84Z" fill="#1D1D1B"/>
<path d="M336.23 281.271C337.76 290.691 336.86 300.151 333.17 308.981C332.65 310.231 333.73 311.731 334.92 312.061C336.36 312.461 337.47 311.561 338 310.311C342.05 300.631 342.74 290.231 341.06 279.941C340.84 278.611 339.19 277.861 337.98 278.191C336.56 278.581 336.02 279.931 336.23 281.271Z" fill="#1D1D1B"/>
<path d="M331.79 309.271C333.22 312.801 336.51 314.931 339.85 316.501C343.47 318.211 347.31 319.451 351.17 320.501C361.17 323.211 371.68 322.351 381.39 318.921C386.85 316.991 392.05 314.381 396.98 311.331C399.71 309.641 397.2 305.311 394.46 307.011C386.71 311.811 378.11 315.681 368.98 316.811C360.56 317.851 352.34 316.161 344.5 313.091C342.72 312.391 340.97 311.571 339.36 310.531C338.65 310.071 338.2 309.751 337.58 309.141C337.48 309.041 336.86 308.321 337.05 308.581C336.93 308.411 336.48 307.581 336.63 307.941C336.12 306.691 334.97 305.811 333.55 306.191C332.36 306.521 331.29 308.011 331.8 309.271H331.79Z" fill="#1D1D1B"/>
<path d="M422.11 203.21C418.93 202.75 415.78 203.17 412.92 204.69C410.53 205.96 408.51 208.01 407.22 210.39C406.6 211.54 406.9 213.16 408.12 213.81C409.34 214.46 410.88 214.14 411.54 212.91C411.8 212.44 412.09 212 412.39 211.55C412.58 211.26 412.12 211.87 412.34 211.61C412.42 211.51 412.5 211.42 412.58 211.32C412.74 211.13 412.91 210.94 413.09 210.76C413.29 210.56 413.49 210.36 413.7 210.17C413.79 210.09 413.89 210.01 413.99 209.92C414.24 209.7 413.99 209.84 413.93 209.96C414.02 209.8 414.39 209.63 414.55 209.53C414.79 209.37 415.03 209.23 415.28 209.09C415.51 208.96 415.75 208.86 415.98 208.73C416.3 208.55 415.62 208.86 415.97 208.73C416.1 208.68 416.23 208.63 416.37 208.58C416.94 208.38 417.52 208.22 418.11 208.1C418.23 208.08 418.41 208.01 418.53 208.03C418.33 208 418.2 208.06 418.5 208.03C418.78 208.01 419.06 207.98 419.35 207.97C419.67 207.97 419.99 207.97 420.3 207.97C420.44 207.97 420.58 207.99 420.72 208C420.84 208.01 421.35 208.08 420.79 208C421.48 208.1 422.09 208.12 422.72 207.75C423.24 207.45 423.73 206.85 423.87 206.26C424.14 205.08 423.51 203.38 422.12 203.18L422.11 203.21Z" fill="#1D1D1B"/>
<path d="M367.341 211.122C367.703 206.486 365.907 202.565 363.33 202.364C360.753 202.163 358.371 205.758 358.009 210.395C357.648 215.031 359.443 218.952 362.02 219.153C364.597 219.354 366.979 215.759 367.341 211.122Z" fill="#1D1D1B"/>
<path d="M323.371 207.888C323.733 203.252 321.937 199.331 319.36 199.13C316.783 198.929 314.401 202.524 314.04 207.16C313.678 211.796 315.474 215.718 318.051 215.919C320.627 216.12 323.01 212.524 323.371 207.888Z" fill="#1D1D1B"/>
<path d="M431.18 442.721C428.75 463.891 423.99 484.771 422.72 506.081C422.37 511.961 422.3 517.851 422.66 523.721C422.85 526.921 427.85 526.941 427.66 523.721C426.37 502.491 430.48 481.401 433.72 460.521C434.64 454.601 435.5 448.671 436.18 442.721C436.33 441.381 434.92 440.221 433.68 440.221C432.2 440.221 431.33 441.371 431.18 442.721Z" fill="#1D1D1B"/>
<path d="M258.4 433.211C256.33 454.201 256.61 475.421 253.37 496.301C252.47 502.101 251.3 507.861 249.71 513.511C248.84 516.611 253.66 517.941 254.53 514.841C260.33 494.151 260.81 472.411 262.06 451.101C262.41 445.131 262.81 439.161 263.4 433.211C263.53 431.861 262.16 430.711 260.9 430.711C259.44 430.711 258.53 431.861 258.4 433.211Z" fill="#1D1D1B"/>
<path d="M388.74 118.41C378.97 112 368.77 106.13 358.21 101.11C353.23 98.7501 348.14 96.5201 342.87 94.9001C336.08 92.8101 329.01 91.4401 321.94 90.7901C309.86 89.6701 296.94 90.8401 286.17 96.8101C277.46 101.64 270.42 109.44 267.37 119C263.33 131.63 266.27 146.8 276.03 156.02C278.37 158.23 281.91 154.7 279.57 152.48C275.38 148.52 272.72 143.65 271.52 138.03C270.45 133.05 270.33 127.83 271.49 122.86C273.56 114.03 279.46 106.74 287.09 102.06C296.58 96.2501 308.09 94.9201 319.11 95.5801C331.08 96.2901 342.73 99.4701 353.59 104.46C364.91 109.66 375.81 115.9 386.21 122.73C388.91 124.5 391.42 120.17 388.73 118.41H388.74Z" fill="#1D1D1B"/>
<path d="M173.73 310.7C173.81 311.01 173.87 311.33 173.91 311.65L173.82 310.99C173.94 311.94 173.93 312.9 173.81 313.85L173.9 313.19C173.81 313.83 173.67 314.45 173.42 315.05L173.67 314.45C173.67 314.45 173.63 314.54 173.61 314.59C173.33 315.22 173.17 315.82 173.36 316.52C173.52 317.1 173.97 317.73 174.51 318.01C175.09 318.32 175.79 318.47 176.44 318.26C177.02 318.07 177.67 317.69 177.93 317.11C178.19 316.53 178.44 315.9 178.59 315.26C178.75 314.56 178.84 313.84 178.89 313.13C178.97 311.89 178.86 310.6 178.56 309.39C178.41 308.79 177.94 308.21 177.41 307.9C176.88 307.59 176.08 307.45 175.48 307.65C174.16 308.08 173.4 309.36 173.73 310.73V310.7Z" fill="#1D1D1B"/>
<path d="M278.77 207.611C247.26 198.141 212.67 199.271 181.85 210.781C169.54 204.121 155.6 200.491 141.6 200.301C155.26 213.321 163.37 231.971 163.58 250.841C163.79 269.711 153.78 288.181 140.41 301.501C163.88 292.511 191.41 292.441 216.31 287.121C223.61 285.561 229.77 280.461 224.3 270.031C220.83 263.421 217.29 260.621 210.33 257.921C203.37 255.221 207.67 244.361 218.16 244.651C228.64 244.941 232.22 250.231 237.52 253.091C254.16 262.041 263.22 277.811 279.56 287.291C281.17 259.811 285.55 223.541 278.78 207.611H278.77Z" fill="url(#paint0_linear_218_2326)"/>
<path d="M144.04 202.51C136.19 196.49 123.43 198.59 117.92 206.8C100.83 232.27 101.92 268.58 120.51 292.98C124.22 297.84 132.13 298.72 136.81 294.79C124.46 286.57 117.64 273.24 114.89 258.67C112.14 244.1 113.52 228.47 122.03 216.32C125.98 210.68 133.57 207.88 140.24 209.59C143.31 210.38 146.59 207.03 145.74 203.98C144.89 200.93 140.35 199.76 144.05 202.52L144.04 202.51Z" fill="#1F36B6"/>
<path d="M234.95 346.001C241.77 371.381 248.84 396.701 255.87 422.031C259.36 434.621 262.84 447.221 266.27 459.831C269.48 471.631 272.21 483.711 276.72 495.111C281.01 505.961 287.16 515.931 296.56 523.061C305.81 530.071 317.42 533.881 329.02 533.821C354.86 533.691 375.95 516.711 392.42 498.431C408.69 480.371 423.48 460.961 437.33 441.001C439.17 438.351 440.99 435.701 442.8 433.041C444.61 430.381 440.29 427.871 438.48 430.521C425.03 450.271 410.83 469.391 395.3 487.561C379.83 505.651 361.91 523.981 337.38 528.121C326.28 529.991 314.76 528.101 304.94 522.591C295.18 517.111 288.27 508.481 283.55 498.441C278.65 488.011 276 476.641 273 465.561C269.59 452.951 266.13 440.351 262.64 427.761C255.85 403.251 248.99 378.761 242.33 354.211C241.47 351.041 240.61 347.861 239.76 344.691C238.91 341.521 234.1 342.901 234.94 346.021L234.95 346.001Z" fill="#1D1D1B"/>
<path d="M174.45 249.69C174.45 266.31 168.67 283.06 158.96 294.79C159.1 294.73 159.23 294.64 159.37 294.59C159.97 294.28 160.61 294.13 161.3 294.16C161.71 294.16 162.12 294.16 162.53 294.12C162.76 294.12 162.98 294.14 163.2 294.16C163.98 294.25 164.66 294.5 165.22 294.86C174.19 282.51 179.45 266.01 179.45 249.68C179.45 242.57 178.68 235.73 177.17 229.34C176.85 228 175.51 227.16 174.16 227.48C172.82 227.8 171.98 229.14 172.3 230.49C173.72 236.5 174.44 242.96 174.44 249.68L174.45 249.69Z" fill="#1D1D1B"/>
<path d="M161.65 203.35C165.17 207.43 168.08 212.05 170.38 217.1" stroke="#1D1D1B" stroke-width="5" stroke-miterlimit="10" stroke-linecap="round"/>
<path d="M282.21 227.44C286.69 228.93 291.65 227.55 295.62 225.33C296.76 224.69 297.24 223.03 296.52 221.91C295.77 220.75 294.32 220.33 293.1 221.01C292.56 221.31 292 221.6 291.44 221.86C291.22 221.96 291.06 222.06 291.37 221.9C291.25 221.96 291.12 222 291 222.05C290.73 222.16 290.45 222.26 290.17 222.35C289.68 222.51 289.18 222.66 288.67 222.77C288.42 222.83 288.16 222.88 287.91 222.93C287.8 222.95 287.69 222.96 287.58 222.98C287.25 223.04 288.23 222.91 287.68 222.97C286.84 223.05 286.01 223.08 285.17 223.01C285.06 223 284.95 222.98 284.84 222.97C284.53 222.95 285.41 223.07 285.12 223.01C284.94 222.97 284.75 222.95 284.56 222.91C284.22 222.84 283.88 222.74 283.54 222.63C282.3 222.22 280.75 223.11 280.46 224.38C280.15 225.76 280.88 227.01 282.21 227.46V227.44Z" fill="#1D1D1B"/>
<path d="M295.38 200.76C293.7 198.15 291.92 195.52 289.36 193.69C287.03 192.02 284.05 191.43 281.22 191.49C273.99 191.65 267.81 197.08 267.33 204.36C267.24 205.71 268.54 206.86 269.83 206.86C271.26 206.86 272.24 205.71 272.33 204.36C272.65 199.57 277.26 196.37 281.89 196.49C283.01 196.52 283.64 196.58 284.75 196.92C285.43 197.13 286.17 197.5 286.78 197.96C288.41 199.19 289.85 201.4 291.05 203.27C292.78 205.97 297.11 203.46 295.37 200.75L295.38 200.76Z" fill="#1D1D1B"/>
<path d="M276.52 208.739C277.17 208.709 277.81 208.729 278.45 208.769C278.94 208.799 278.23 208.719 278.53 208.769C278.67 208.799 278.81 208.819 278.95 208.839C279.27 208.899 279.58 208.969 279.89 209.059C280.2 209.149 280.51 209.239 280.81 209.349C280.98 209.409 281.15 209.479 281.31 209.539C281.09 209.459 281.09 209.439 281.31 209.539C281.91 209.829 282.5 210.149 283.05 210.529C283.16 210.599 283.26 210.679 283.37 210.749C283.67 210.949 282.93 210.369 283.4 210.769C283.62 210.959 283.84 211.139 284.05 211.339C284.47 211.739 284.85 212.169 285.23 212.609C285.46 212.879 285 212.269 285.19 212.559C285.28 212.689 285.38 212.819 285.47 212.949C285.63 213.189 285.78 213.439 285.93 213.689C286.08 213.939 286.21 214.199 286.34 214.459C286.37 214.529 286.51 214.739 286.5 214.809C286.39 214.539 286.37 214.489 286.43 214.659C286.47 214.749 286.5 214.839 286.53 214.929C286.99 216.149 288.24 217.119 289.61 216.679C290.8 216.299 291.85 214.909 291.36 213.599C290.23 210.619 288.35 208.149 285.74 206.319C283.1 204.459 279.72 203.559 276.51 203.729C275.21 203.799 273.95 204.829 274.01 206.229C274.07 207.529 275.11 208.799 276.51 208.729L276.52 208.739Z" fill="#1D1D1B"/>
<path d="M132.45 299.451C148.19 299.451 160.95 277.405 160.95 250.211C160.95 223.016 148.19 200.971 132.45 200.971C116.71 200.971 103.95 223.016 103.95 250.211C103.95 277.405 116.71 299.451 132.45 299.451Z" stroke="#1D1D1B" stroke-width="6" stroke-miterlimit="10"/>
<path d="M136.01 296.72C149.265 296.72 160.01 276.466 160.01 251.48C160.01 226.495 149.265 206.24 136.01 206.24C122.755 206.24 112.01 226.495 112.01 251.48C112.01 276.466 122.755 296.72 136.01 296.72Z" fill="#1D1D1B"/>
<path d="M163.76 208.06C170.34 209.39 176.89 210.84 183.48 212.1C189.8 213.3 196.17 214.19 202.56 214.95C208.45 215.66 214.34 216.28 220.24 216.88C221.59 217.02 222.74 215.63 222.74 214.38C222.74 212.91 221.59 212.02 220.24 211.88C214.94 211.34 209.63 210.78 204.34 210.16C200.59 209.72 197.37 209.32 193.89 208.81C188.35 207.99 182.86 206.92 177.38 205.78C173.28 204.93 169.19 204.07 165.08 203.24C163.76 202.97 162.38 203.62 162 204.99C161.66 206.22 162.42 207.8 163.75 208.07L163.76 208.06Z" fill="#1D1D1B"/>
<path d="M160.22 295.37C159.64 294.48 158.54 294.09 157.46 294.31C147.91 296.28 138.02 296.74 128.29 296.41C125.07 296.3 125.08 301.3 128.29 301.41C137.74 301.73 147.33 301.25 156.65 299.53C156.89 297.62 158.08 295.85 160.22 295.37Z" fill="#1D1D1B"/>
<path d="M216.19 216.411C222.64 217.171 229.55 217.811 234.81 222.021C237.7 224.331 239.95 227.351 241.3 230.801C242.74 234.491 243.15 238.271 243.31 242.191C243.49 246.491 243.6 250.851 243 255.121C242.81 256.461 243.33 257.811 244.75 258.201C245.92 258.521 247.63 257.801 247.83 256.451C248.43 252.231 248.52 248.031 248.38 243.771C248.23 239.251 247.97 234.731 246.47 230.411C243.7 222.401 237.56 216.261 229.46 213.701C225.17 212.341 220.63 211.931 216.18 211.401C214.84 211.241 213.68 212.661 213.68 213.901C213.68 215.381 214.83 216.241 216.18 216.401L216.19 216.411Z" fill="#1D1D1B"/>
<path d="M281.61 209.38C276.35 206.08 269.11 204.97 263.48 208.06C261.17 209.33 259.23 211.5 258.66 214.12C258.14 216.49 257.99 219 257.78 221.41C256.74 233.02 256.61 244.73 256.72 256.38C256.77 261.16 256.82 265.96 257.18 270.73C257.28 272.08 258.26 273.23 259.68 273.23C260.95 273.23 262.28 272.08 262.18 270.73C261.48 261.57 261.61 252.3 261.77 243.12C261.87 237.49 262.05 231.86 262.41 226.24C262.57 223.79 262.76 221.34 263.02 218.9C263.08 218.38 263.14 217.86 263.2 217.33C263.23 217.08 263.26 216.83 263.3 216.58C263.23 217.1 263.34 216.32 263.34 216.28C263.42 215.78 263.49 215.3 263.64 214.82C263.87 214.1 263.43 215.15 263.78 214.49C263.82 214.41 264.3 213.66 264.08 213.95C265.45 212.13 267.88 211.37 270.23 211.25C273.4 211.09 276.41 212 279.09 213.68C281.82 215.4 284.33 211.07 281.61 209.36V209.38Z" fill="#1D1D1B"/>
<path d="M275.75 291.861C280.08 290.061 283.42 286.371 284.49 281.741C285.02 279.441 284.84 277.091 284.81 274.761C284.78 272.431 284.76 269.921 284.74 267.501C284.68 257.691 284.74 247.881 284.8 238.061C284.84 231.821 284.88 225.591 284.9 219.351C284.91 216.131 279.91 216.131 279.9 219.351C279.84 238.501 279.54 257.641 279.84 276.791C279.87 279.021 279.8 281.001 278.69 282.991C277.74 284.701 276.25 286.271 274.42 287.031C273.17 287.551 272.28 288.691 272.67 290.111C272.99 291.291 274.49 292.381 275.75 291.861Z" fill="#1D1D1B"/>
<path d="M258.93 201.379C243.13 201.049 227.32 200.719 211.52 200.389C208.3 200.319 208.3 205.319 211.52 205.389C227.32 205.719 243.13 206.049 258.93 206.379C262.15 206.449 262.15 201.449 258.93 201.379Z" fill="#1D1D1B"/>
<path d="M256.63 206.35C262.4 206.66 268.88 205.67 274.19 208.5C276.14 209.54 277.94 211.04 278.84 213.11C279.82 215.36 280.03 218.08 279.88 220.5C279.69 223.71 284.69 223.7 284.88 220.5C285.07 217.3 284.62 213.97 283.37 211.07C282.12 208.17 279.92 206.08 277.34 204.54C271.05 200.8 263.62 201.73 256.63 201.36C253.41 201.19 253.42 206.19 256.63 206.36V206.35Z" fill="#1D1D1B"/>
<path d="M211.94 200.381C206.79 200.301 201.6 200.101 196.53 201.181C194.93 201.521 193.31 201.811 191.86 202.591C189.89 203.651 188.65 205.601 188.25 207.771C188.01 209.101 188.61 210.471 190 210.851C191.21 211.181 192.83 210.441 193.08 209.101C193.14 208.771 193.29 208.131 193.35 207.981C193.32 208.061 193.89 207.191 193.6 207.531C193.72 207.391 193.86 207.261 194 207.131C194.27 206.891 193.55 207.381 194.11 207.071C194.23 207.001 194.36 206.931 194.49 206.861C194.89 206.621 194.32 206.901 194.58 206.811C195.96 206.331 197.44 206.061 198.88 205.801C203.17 205.041 207.62 205.311 211.95 205.381C215.17 205.431 215.17 200.431 211.95 200.381H211.94Z" fill="#1D1D1B"/>
<path d="M123.58 205.4C126.35 203.53 129.21 201.57 132.43 200.59C136.05 199.49 139.56 200.37 143.16 201.06C146.56 201.71 149.96 202.33 153.35 203.03C154.71 203.31 156.08 203.62 157.41 204.03C157.94 204.19 158.67 204.44 159 204.6C159.24 204.71 159.46 204.84 159.69 204.98C159.84 205.08 159.83 205.06 159.65 204.92C159.76 205.01 159.85 205.1 159.94 205.2C162.18 207.52 165.72 203.98 163.48 201.66C161.46 199.58 158.06 198.93 155.34 198.35C151.58 197.53 147.78 196.87 144 196.15C139.73 195.33 135.57 194.47 131.29 195.71C127.55 196.79 124.24 198.93 121.04 201.09C118.38 202.88 120.88 207.21 123.56 205.41L123.58 205.4Z" fill="#1D1D1B"/>
<path d="M159.76 295.18C159.28 295.11 158.75 295.2 158.21 295.53C155.73 297.01 152.89 297.55 150.08 298.11C146.76 298.78 143.43 299.45 140.11 300.11C137.24 300.68 134.64 300.79 131.86 299.75C129.1 298.71 126.63 296.9 124.23 295.22C123.13 294.44 121.45 295.02 120.81 296.12C120.08 297.37 120.6 298.76 121.71 299.54C124.44 301.46 127.2 303.29 130.33 304.5C133.67 305.79 137.05 305.75 140.53 305.12C144.09 304.47 147.62 303.7 151.17 302.99C153.8 302.46 156.43 301.89 158.87 300.81C158.13 298.97 158.43 296.67 159.76 295.19V295.18Z" fill="#1D1D1B"/>
<path d="M276.59 286.92C270.49 277.31 261.96 269.47 252.94 262.64C248.5 259.27 243.86 256.16 239.09 253.29C233.92 250.18 228.67 247.13 223.23 244.51C219.92 242.91 215.48 240.49 211.65 241.3C208.64 241.94 205.51 244.64 204.73 247.65C203.95 250.66 205.31 253.66 207.01 256.04C209.07 258.92 211.63 261.37 214.26 263.72C216.89 266.07 219.85 268.39 222.43 270.95C222.88 271.39 223.3 271.86 223.72 272.33C223.84 272.46 224.11 272.89 223.69 272.28C223.78 272.42 223.88 272.55 223.98 272.69C224.28 273.12 224.57 273.55 224.85 274C226.04 275.95 226.45 277.89 224.83 279.86C223.97 280.9 223.81 282.38 224.83 283.4C225.71 284.28 227.5 284.45 228.37 283.4C230.29 281.07 231.31 278.47 230.78 275.43C230.43 273.43 229.34 271.61 228.17 269.98C226.63 267.82 224.59 266.09 222.6 264.36C220.01 262.12 217.38 259.92 214.93 257.53C213.79 256.41 212.69 255.25 211.69 254.01C211.41 253.67 212.02 254.47 211.59 253.89C211.5 253.77 211.41 253.65 211.33 253.53C211.12 253.24 210.92 252.94 210.73 252.64C210.54 252.34 210.37 252.06 210.21 251.76C210.11 251.57 209.74 250.74 209.97 251.31C209.75 250.76 209.59 250.2 209.49 249.61C209.6 250.21 209.53 249.66 209.52 249.37C209.52 249.24 209.54 249.1 209.54 248.97C209.54 249.33 209.43 249.36 209.56 249C209.59 248.91 209.63 248.79 209.65 248.69C209.78 248.16 209.38 249.17 209.65 248.68C209.78 248.45 209.91 248.23 210.05 248.01C210.24 247.71 209.64 248.43 210.05 248.01C210.14 247.92 210.22 247.82 210.31 247.73C210.43 247.61 210.56 247.5 210.68 247.39C211.12 246.98 210.54 247.45 210.95 247.18C211.25 246.98 211.56 246.79 211.88 246.61C212.03 246.53 212.98 246.01 212.49 246.27C212.59 246.22 212.73 246.19 212.84 246.17C213.16 246.11 212.19 246.13 212.73 246.19C212.84 246.2 212.97 246.19 213.08 246.19C213.15 246.19 213.88 246.25 213.53 246.21C213.12 246.16 213.84 246.27 213.84 246.27C213.99 246.3 214.15 246.33 214.3 246.37C214.72 246.47 215.13 246.59 215.54 246.71C216.41 246.98 217.26 247.3 218.1 247.65C223.35 249.85 228.31 252.81 233.23 255.66C237.85 258.34 242.37 261.18 246.73 264.27C256.45 271.16 265.86 279.34 272.3 289.48C274.02 292.19 278.35 289.68 276.62 286.96L276.59 286.92Z" fill="#1D1D1B"/>
<path d="M161.96 306.461C161.5 309.031 161.48 311.671 162.63 314.071C163.69 316.301 165.72 317.541 167.88 318.551C172.75 320.821 178.09 321.611 183.42 321.891C193.82 322.431 204.29 321.191 214.48 319.101C216.79 318.631 219.09 318.131 221.37 317.501C224.47 316.651 223.15 311.821 220.04 312.681C214.73 314.141 209.26 315.131 203.81 315.891C198.84 316.591 193.81 316.991 188.79 317.011C184.01 317.031 179.14 316.851 174.5 315.631C172.33 315.061 169.61 314.211 167.92 312.891C166.51 311.781 166.48 309.481 166.79 307.791C167.03 306.461 166.43 305.101 165.04 304.711C163.83 304.381 162.21 305.121 161.96 306.461Z" fill="#1D1D1B"/>
<path d="M169.03 317.41C168.61 319.92 168.89 322.44 170.45 324.54C171.89 326.48 174.02 327.33 176.23 328.1C180.85 329.71 185.83 330.38 190.69 330.7C200.45 331.35 210.4 330.13 219.94 328.09C222.03 327.64 224.14 327.16 226.19 326.56C229.27 325.65 227.96 320.82 224.86 321.74C219.98 323.19 214.9 324.11 209.87 324.83C200.83 326.11 191.36 326.5 182.38 324.6C180.29 324.16 178.17 323.61 176.19 322.77C174.5 322.05 173.53 320.7 173.85 318.75C174.07 317.42 173.5 316.06 172.1 315.67C170.9 315.34 169.25 316.08 169.02 317.42L169.03 317.41Z" fill="#1D1D1B"/>
<path d="M177.259 326.53C176.519 329.05 177.039 331.72 178.599 333.81C180.049 335.75 182.109 336.66 184.349 337.41C189.089 338.99 194.239 339.35 199.199 339.46C208.919 339.67 218.589 338.48 228.019 336.15C230.079 335.64 232.149 335.1 234.159 334.43L231.079 332.68C232.489 337.57 233.899 342.46 235.309 347.35C236.199 350.44 241.029 349.12 240.129 346.02C238.719 341.13 237.309 336.24 235.899 331.35C235.539 330.1 234.119 329.17 232.819 329.6C228.139 331.16 223.249 332.21 218.409 333.05C213.819 333.84 209.179 334.34 204.529 334.45C199.879 334.56 195.299 334.53 190.789 333.8C187.819 333.32 180.719 332.42 182.069 327.85C182.979 324.76 178.159 323.44 177.249 326.52L177.259 326.53Z" fill="#1D1D1B"/>
<path d="M225.08 279.571C223.98 280.861 223.14 281.521 221.92 282.301C220.47 283.241 218.9 284.031 217.31 284.701C212.51 286.711 207.35 287.911 202.25 288.851C197.03 289.811 191.76 290.371 186.45 290.441C182.59 290.491 178.75 290.231 174.9 290.001C171.73 289.811 168.58 289.711 165.43 290.151C161.9 290.641 158.38 291.611 156.18 294.601C154.89 296.351 154.04 298.651 154.2 300.841C154.42 303.761 156.4 305.921 158.95 307.181C163.84 309.591 169.44 310.841 174.81 311.581C187.44 313.331 200.41 312.031 212.65 308.601C215.74 307.731 214.43 302.911 211.32 303.781C201.14 306.631 190.5 307.941 179.94 307.141C174.77 306.751 169.63 305.781 164.71 304.111C163.06 303.551 160.01 302.851 159.27 301.051C158.84 300.021 159.65 298.141 160.48 297.161C160.72 296.881 160.98 296.601 161.28 296.391C160.98 296.611 161.4 296.341 161.48 296.301C161.87 296.101 160.91 296.511 161.64 296.231C162.3 295.981 162.98 295.761 163.66 295.571C164.34 295.381 164.98 295.241 165.65 295.121C165.78 295.101 166.86 294.951 166.31 295.011C166.68 294.971 167.05 294.931 167.42 294.901C170.33 294.661 173.27 294.871 176.18 295.061C185.17 295.631 193.99 295.361 202.88 293.781C208.34 292.811 213.81 291.521 218.94 289.381C222.47 287.911 226.1 286.051 228.62 283.091C229.49 282.061 229.63 280.561 228.62 279.551C227.72 278.651 225.96 278.521 225.08 279.551V279.571Z" fill="#1D1D1B"/>
<path d="M160.61 297.731C163.34 298.371 165.88 299.691 168.49 300.661C169.08 300.881 169.68 301.091 170.28 301.261C170.57 301.341 170.89 301.461 171.19 301.491C171.37 301.541 171.3 301.511 170.98 301.381C170.85 301.291 170.75 301.191 170.66 301.061C170.56 300.951 170.49 300.831 170.46 300.681C170.5 300.801 170.53 300.911 170.55 301.031C170.6 301.251 170.64 301.471 170.68 301.691C170.7 301.811 170.77 302.471 170.72 301.911C170.76 302.361 170.8 302.801 170.81 303.251C170.82 303.701 170.81 304.151 170.78 304.601C170.77 304.751 170.76 304.901 170.74 305.051C170.71 305.311 170.71 305.351 170.74 305.161C170.77 304.981 170.76 305.011 170.72 305.271C170.7 305.421 170.67 305.571 170.64 305.711C170.4 306.991 170.99 308.471 172.39 308.791C173.62 309.071 175.21 308.421 175.47 307.041C175.91 304.651 175.93 302.291 175.43 299.911C175.12 298.411 174.25 297.231 172.77 296.731C172.11 296.511 171.41 296.371 170.75 296.151C167.79 295.151 164.99 293.611 161.95 292.891C160.68 292.591 159.18 293.291 158.87 294.641C158.58 295.921 159.25 297.401 160.62 297.721L160.61 297.731Z" fill="#1D1D1B"/>
<path d="M181.37 319.209C181.23 319.879 181.19 320.519 181.25 321.189C181.3 321.699 181.34 322.199 181.27 322.709L181.36 322.049C181.3 322.459 181.19 322.849 181.04 323.229L181.29 322.629C181.13 323.019 180.93 323.379 180.7 323.739C180.36 324.279 180.28 325.059 180.45 325.669C180.62 326.279 181.06 326.879 181.6 327.159C182.83 327.809 184.27 327.449 185.02 326.259C185.77 325.069 186.29 323.649 186.31 322.199C186.32 321.499 186.15 320.809 186.23 320.109L186.14 320.769C186.15 320.689 186.17 320.609 186.18 320.529C186.32 319.869 186.27 319.189 185.93 318.599C185.63 318.079 185.03 317.589 184.44 317.449C183.8 317.299 183.08 317.339 182.51 317.699C181.98 318.039 181.5 318.559 181.36 319.189L181.37 319.209Z" fill="#1D1D1B"/>
<path d="M187.62 328.209C187.48 328.879 187.44 329.519 187.5 330.189C187.55 330.699 187.59 331.199 187.52 331.709L187.61 331.049C187.55 331.459 187.44 331.849 187.29 332.229L187.54 331.629C187.38 332.019 187.18 332.379 186.95 332.739C186.61 333.279 186.53 334.059 186.7 334.669C186.87 335.279 187.31 335.879 187.85 336.159C189.08 336.809 190.52 336.449 191.27 335.259C192.02 334.069 192.54 332.649 192.56 331.199C192.57 330.499 192.4 329.809 192.48 329.109L192.39 329.769C192.4 329.689 192.42 329.609 192.43 329.529C192.57 328.869 192.52 328.189 192.18 327.599C191.88 327.079 191.28 326.589 190.69 326.449C190.05 326.299 189.33 326.339 188.76 326.699C188.23 327.039 187.75 327.559 187.61 328.189L187.62 328.209Z" fill="#1D1D1B"/>
<path d="M272.17 150.379C271.12 156.889 270.64 163.339 273.72 169.419C274.64 171.229 275.86 172.899 277.22 174.399C277.92 175.169 278.67 175.889 279.46 176.569C279.81 176.869 280.19 177.139 280.53 177.449C280.66 177.569 281.14 178.169 280.83 177.729C281.6 178.819 281.92 179.689 282.28 180.629C282.85 182.089 283.39 183.569 284.04 184.989C285.49 188.159 287.95 191.019 291.57 191.579C292.9 191.789 294.26 191.239 294.65 189.829C294.98 188.649 294.25 186.959 292.9 186.749C291.55 186.539 291 186.269 290.23 185.469C289.72 184.949 289.78 184.999 289.4 184.399C289.02 183.799 288.71 183.199 288.42 182.569C287.99 181.639 287.58 180.509 287.11 179.279C286.64 178.049 286.17 176.819 285.49 175.699C284.69 174.379 283.64 173.589 282.52 172.579C281.14 171.339 279.89 169.959 278.9 168.379C277.31 165.829 276.47 162.869 276.32 160.089C276.24 158.519 276.32 156.949 276.47 155.379C276.56 154.499 276.57 154.499 276.67 153.769C276.77 153.039 276.89 152.379 277 151.689C277.21 150.359 276.66 148.999 275.25 148.609C274.06 148.279 272.39 149.019 272.17 150.359V150.379Z" fill="#1D1D1B"/>
<path d="M185.39 221.47C192.94 236.91 193.04 254.72 188.69 271.09C187.5 275.57 185.99 279.96 184.21 284.24C183.69 285.49 184.77 286.99 185.96 287.32C187.4 287.72 188.52 286.83 189.04 285.57C195.77 269.33 198.76 251.07 194.93 233.73C193.8 228.61 192.01 223.66 189.71 218.95C189.12 217.74 187.39 217.41 186.29 218.05C185.05 218.77 184.8 220.25 185.39 221.47Z" fill="#1D1D1B"/>
<path d="M132.39 210.429C125.62 214.549 121.15 221.409 118.73 228.839C115.84 237.719 115.99 247.269 116.15 256.499C116.21 259.709 121.21 259.719 121.15 256.499C120.9 242.069 120.86 223.299 134.91 214.749C137.65 213.079 135.14 208.749 132.39 210.429Z" fill="#A7C4EC"/>
<path d="M255.8 425.55C247.87 433.62 239.98 441.75 231.81 449.58C230.3 451.03 228.77 452.47 227.21 453.87C226.58 454.44 225.94 455.01 225.29 455.56C225.01 455.8 224.72 456.04 224.44 456.28C224.31 456.39 223.34 457.14 223.88 456.73C219.29 460.21 214.41 463.34 209.32 466.01C199.53 471.14 188.64 474.53 177.51 474.37C166.36 474.21 154.64 470.56 146.94 462.16C142.95 457.8 141.17 452.08 139.44 446.54C137.71 441 136.3 434.89 135.33 428.94C133.43 417.36 132.96 405.59 132.5 393.88C132.11 383.7 131.39 373.54 131.28 363.35C131.18 354.25 131.33 345.16 131.58 336.06C132.09 317.28 132.93 298.46 134.71 279.76C134.87 278.03 135.05 276.3 135.24 274.57C135.39 273.23 133.98 272.07 132.74 272.07C131.26 272.07 130.39 273.22 130.24 274.57C128.19 292.97 127.37 311.53 126.76 330.02C126.44 339.66 126.23 349.3 126.25 358.95C126.27 368.6 126.89 378.34 127.27 388.05C127.75 400.19 128.07 412.37 129.65 424.43C130.46 430.59 131.55 436.7 133.13 442.7C133.93 445.75 134.85 448.76 135.9 451.73C136.95 454.7 137.99 457.9 139.61 460.63C145.73 470.96 157.5 476.68 168.99 478.57C180.71 480.49 192.64 478.58 203.58 474.14C213.23 470.21 222.56 464.72 230.35 457.76C238.29 450.67 245.69 442.95 253.16 435.36C255.22 433.26 257.28 431.17 259.35 429.07C261.61 426.77 258.08 423.24 255.81 425.53L255.8 425.55Z" fill="#1D1D1B"/>
<path d="M235.76 346.169C228.11 352.449 220.89 359.239 214.4 366.719C208.98 372.959 204.09 379.629 199.24 386.319C196.37 390.279 195.29 392.859 192.33 396.749C191.51 397.819 190.37 400.909 191.44 401.529C192.73 402.279 194.04 401.709 194.86 400.629C199.9 394.019 204.65 387.199 209.64 380.559C214.66 373.889 220.06 367.529 225.99 361.649C230.23 357.449 234.69 353.489 239.3 349.699C240.34 348.839 240.19 347.049 239.3 346.159C238.27 345.129 236.81 345.299 235.76 346.159V346.169Z" fill="#1D1D1B"/>
<path d="M190.92 337.26C191.61 355.99 192.58 374.78 190.95 393.5C190.49 398.77 189.82 404.02 188.88 409.23C188.65 410.5 189.23 411.8 190.63 412.16C191.83 412.47 193.48 411.77 193.71 410.5C197.08 391.68 197.14 372.6 196.52 353.57C196.34 348.13 196.12 342.7 195.92 337.26C195.81 334.2 190.81 334.19 190.92 337.26Z" fill="#1D1D1B"/>
<path d="M341.63 467.11C340.45 454.19 337.65 441.45 334.29 428.94C330.45 414.63 325.79 400.55 320.72 386.64C315.61 372.62 310.06 358.77 304.21 345.05C299.15 333.18 293.84 321.4 288.27 309.76C284.45 301.77 280.54 293.81 276.26 286.06C275.92 285.44 275.57 284.83 275.22 284.21C273.63 281.42 269.3 283.93 270.9 286.73C274.95 293.83 278.58 301.18 282.14 308.53C287.53 319.64 292.66 330.88 297.58 342.21C303.38 355.57 308.87 369.08 313.96 382.73C319.14 396.61 323.93 410.65 327.98 424.9C329.85 431.49 331.56 438.13 333.02 444.83C334.32 450.79 335.49 457.23 336.18 462.91C336.35 464.31 336.5 465.72 336.63 467.12C336.76 468.52 337.69 469.62 339.13 469.62C340.39 469.62 341.75 468.47 341.63 467.12V467.11Z" fill="#1D1D1B"/>
<path d="M419.96 310.149C420.11 309.829 420.2 309.489 420.2 309.109C420.2 307.779 419.06 306.579 417.7 306.609C417.23 306.619 416.75 306.609 416.28 306.609C416.22 306.589 416.17 306.559 416.11 306.539C415.55 306.389 415.04 306.429 414.58 306.619C411.08 306.589 407.59 306.419 404.09 306.309C402.42 306.259 400.18 305.899 398.86 306.949C398.71 307.049 398.56 307.159 398.44 307.309C390.8 315.999 381.18 323.419 370.36 327.679C360.7 331.489 349.47 332.969 339.77 328.419C327.88 322.839 318.76 312.429 310.53 302.499C301.89 292.079 294.59 280.729 289.75 268.039C284.14 253.339 281.15 237.799 278.62 222.319C278.4 220.989 276.75 220.239 275.54 220.569C275.51 220.569 275.49 220.589 275.46 220.599C275.13 220.149 274.65 219.799 274.09 219.569C272.95 219.109 271.81 218.649 270.67 218.189C269.62 217.769 268.59 217.219 267.43 217.289C264.14 217.479 264.45 220.969 264.66 223.299C265.09 228.059 265.68 232.809 266.42 237.539C267.86 246.779 269.9 255.919 272.53 264.899C277.67 282.409 285.04 299.349 294.69 314.849C299.52 322.609 304.85 330.259 311.36 336.719C317.86 343.179 325.66 348.079 334.5 350.619C352.38 355.749 371.04 350.929 386.92 342.129C394.21 338.089 401.04 333.179 407.72 328.209C410.77 325.939 413.68 323.489 416.13 320.559C417.56 318.849 418.87 317.029 419.99 315.099C421 313.359 421.45 311.659 419.97 310.129L419.96 310.149Z" fill="#1F36B6"/>
<path d="M277.95 217.761C275.93 217.391 273.82 217.471 271.78 217.441C270.63 217.421 269.48 217.401 268.33 217.371C267.89 217.361 267.45 217.341 267.01 217.311C266.83 217.301 266.64 217.281 266.46 217.271C265.88 217.221 267.18 217.391 266.67 217.301L266.01 222.211C267.95 222.221 269.86 222.531 271.79 222.741C273.87 222.971 275.9 222.991 277.96 222.591C279.18 222.361 279.9 220.991 279.75 219.851C279.58 218.591 278.55 217.741 277.29 217.681C273.98 217.521 270.66 217.371 267.35 217.211C266.04 217.151 264.79 218.401 264.85 219.711C264.91 221.121 265.95 222.141 267.35 222.211C270.66 222.371 273.98 222.521 277.29 222.681L276.63 217.771C276.55 217.781 275.79 217.891 276.12 217.861C276.45 217.831 275.68 217.891 275.61 217.901C275.19 217.931 274.76 217.931 274.34 217.921C273.42 217.901 272.49 217.821 271.57 217.711C269.72 217.501 267.87 217.221 266.01 217.211C264.76 217.211 263.72 218.171 263.55 219.381C263.4 220.521 264.11 221.901 265.34 222.121C267.36 222.491 269.47 222.411 271.51 222.441C272.66 222.461 273.81 222.481 274.96 222.511C275.4 222.521 275.84 222.541 276.28 222.571C276.46 222.581 276.65 222.601 276.83 222.611C277.41 222.661 276.11 222.491 276.62 222.581C277.9 222.811 279.38 222.231 279.7 220.831C279.98 219.611 279.33 218.011 277.95 217.751V217.761Z" fill="#1D1D1B"/>
<path d="M262.51 223.029C264.24 243.909 270.98 263.969 277.97 283.589C284.25 301.239 291.65 318.889 303.86 333.339C309.96 340.569 317.36 347.129 326.06 351.029C335.08 355.079 345.07 356.249 354.87 355.359C372.78 353.739 390.51 346.499 404.55 335.279C411.3 329.879 417.19 323.359 421.67 315.949C422.95 313.819 424.14 311.489 423.61 308.939C423.19 306.919 421.74 305.299 419.97 304.299C418.02 303.199 415.86 302.799 413.67 302.529C411.12 302.209 408.54 302.109 405.97 302.239C403.4 302.369 400.71 302.729 398.13 303.279C394.98 303.949 396.32 308.769 399.46 308.099C404.14 307.099 409.06 306.859 413.81 307.549C415.26 307.759 416.98 308.109 418.11 309.049C419.3 310.049 418.52 311.459 417.76 312.769C413.74 319.669 408.35 325.689 402.22 330.779C396.09 335.869 389.02 340.029 381.68 343.239C373.91 346.639 365.51 349.119 357.08 350.129C348.04 351.219 338.78 350.689 330.22 347.389C321.66 344.089 314.92 338.249 309.06 331.699C297.43 318.699 290.2 302.439 284.25 286.229C277.58 268.049 271.06 249.369 268.32 230.139C267.98 227.779 267.73 225.409 267.54 223.029C267.43 221.679 266.47 220.529 265.04 220.529C263.77 220.529 262.43 221.679 262.54 223.029H262.51Z" fill="#1D1D1B"/>
<path d="M407.58 314.46L403.49 319C403.07 319.47 402.73 320.11 402.76 320.77C402.79 321.33 402.95 321.84 403.3 322.28C403.62 322.69 404.08 323.06 404.6 323.18L405.26 323.27C405.71 323.27 406.13 323.15 406.52 322.93C408.8 321.9 410.7 320.15 412.1 318.09C412.45 317.58 412.51 316.75 412.35 316.16C412.19 315.57 411.74 314.95 411.2 314.67C410.62 314.36 409.92 314.21 409.27 314.42C408.62 314.63 408.16 315.01 407.78 315.57C407.65 315.76 407.52 315.94 407.38 316.12L407.77 315.61C407.18 316.37 406.5 317.05 405.75 317.64L406.26 317.25C405.56 317.79 404.8 318.25 404 318.61C405.01 319.92 406.02 321.23 407.03 322.54L411.12 318C411.56 317.51 411.85 316.91 411.85 316.23C411.85 315.62 411.58 314.88 411.12 314.46C410.66 314.04 410.02 313.7 409.35 313.73C408.68 313.76 408.03 313.97 407.58 314.46Z" fill="#1F36B6"/>
<path d="M412.91 315.47C414.01 315.59 415.1 314.84 415.67 313.94C415.87 313.63 416.01 313.27 416.13 312.93C416.16 312.83 416.31 312.45 416.14 312.84C416.05 313.03 416.04 313.07 416.1 312.95C416.36 312.49 416 312.75 415.02 313.73C414.08 312.51 413.14 311.28 412.2 310.06C411.05 312.19 410 314.43 408.67 316.46C408.54 316.66 408.39 316.99 408.2 317.14C408.34 317.03 408.41 316.89 408.23 317.1C408.15 317.2 408.06 317.3 407.98 317.39C407.62 317.8 407.23 318.19 406.83 318.56C406 319.33 405.11 320.03 404.22 320.73C403.75 321.1 403.49 321.93 403.49 322.5C403.49 323.11 403.76 323.85 404.22 324.27C405.32 325.28 406.65 325.13 407.76 324.27C409.69 322.76 411.5 321.21 412.88 319.15C414.26 317.09 415.34 314.77 416.52 312.58C417 311.68 416.95 310.62 416.32 309.8C415.76 309.08 414.61 308.54 413.69 308.9C412.84 309.24 412.21 309.66 411.75 310.48C411.58 310.79 411.46 311.13 411.35 311.46C411.27 311.69 411.3 311.63 411.44 311.28C411.77 310.79 412.26 310.52 412.91 310.46C411.61 310.31 410.35 311.72 410.41 312.96C410.48 314.44 411.51 315.3 412.91 315.46V315.47Z" fill="#1F36B6"/>
<path d="M330.71 304.859C316.13 296.609 304.26 284.129 296.7 269.179C295.25 266.309 290.93 268.839 292.38 271.699C293.61 274.129 294.95 276.489 296.4 278.779C296.28 279.209 296.26 279.679 296.35 280.149C297.84 287.789 303.4 293.519 308.29 299.199C309.45 300.549 310.61 301.919 311.66 303.359C312.78 304.899 313.6 306.659 314.74 308.179C316.39 310.379 319.16 309.859 321.58 309.779C324.21 309.689 326.83 309.599 329.46 309.509C331.87 309.429 332.95 306.109 330.72 304.849L330.71 304.859Z" fill="#1F36B6"/>
<path d="M275.66 223.76C277.5 238.27 281.72 252.27 287.09 265.85C291.94 278.12 297.35 290.37 304.77 301.34C311.89 311.86 320.96 321.2 332.37 327.03C343.31 332.63 356.11 335.11 368.17 331.97C382.24 328.3 393.03 317.71 402.68 307.41C404.88 305.06 401.35 301.52 399.14 303.87C391.08 312.47 382.31 321.51 371.06 325.79C360.23 329.9 348.23 328.75 337.77 324.08C314.86 313.86 302.59 290.52 293.5 268.42C287.6 254.09 282.63 239.18 280.67 223.75C280.5 222.41 279.64 221.25 278.17 221.25C276.95 221.25 275.5 222.4 275.67 223.75L275.66 223.76Z" fill="#1D1D1B"/>
<path d="M284.68 255.289C293.02 272.799 304.98 288.609 319.53 301.429C323.67 305.079 328.03 308.489 332.55 311.649C333.66 312.419 335.33 311.849 335.97 310.749C336.7 309.499 336.18 308.109 335.07 307.329C319.69 296.579 306.54 282.659 296.63 266.729C293.82 262.219 291.28 257.559 289 252.759C288.42 251.539 286.67 251.219 285.58 251.859C284.33 252.589 284.1 254.059 284.68 255.279V255.289Z" fill="#1D1D1B"/>
<path d="M332.76 306.83C327.21 306.67 321.67 306.85 316.14 307.36C314.74 307.49 313.37 308.42 313.44 309.86C313.5 311.1 314.64 312.5 316.14 312.36C321.66 311.85 327.21 311.67 332.76 311.83C334.17 311.87 335.53 310.65 335.46 309.33C335.39 307.94 334.27 306.87 332.76 306.83Z" fill="#1D1D1B"/>
<path d="M218.9 204.572C219.08 204.412 219.26 204.262 219.44 204.112C219.62 203.962 220.31 203.452 219.54 204.022C219.95 203.722 220.36 203.422 220.8 203.152C221.01 203.022 221.21 202.902 221.43 202.792C221.66 202.672 222.57 202.312 221.66 202.652C222.11 202.482 222.56 202.332 223.04 202.262L222.38 202.352C222.7 202.312 223.03 202.302 223.35 202.332L222.69 202.242C222.92 202.272 223.13 202.362 223.36 202.412C222.68 202.272 222.88 202.192 223.15 202.352C223.25 202.412 223.59 202.672 223.19 202.362C222.79 202.052 223.14 202.342 223.22 202.422C223.41 202.622 223.51 202.952 223.16 202.312C223.31 202.582 223.49 202.842 223.62 203.122C223.87 203.662 224.57 204.122 225.11 204.272C225.71 204.432 226.51 204.362 227.04 204.022C228.27 203.232 228.53 201.872 227.94 200.602C227.29 199.202 226.14 198.112 224.69 197.592C223.55 197.182 222.23 197.252 221.08 197.582C218.93 198.182 217.03 199.582 215.38 201.042C214.4 201.912 214.42 203.702 215.38 204.582C216.43 205.542 217.87 205.512 218.92 204.582L218.9 204.572Z" fill="#1D1D1B"/>
<path d="M197.801 204.071C198.961 202.611 200.081 201.121 201.311 199.711C202.001 198.921 202.721 198.151 203.491 197.431C203.891 197.051 204.301 196.681 204.731 196.331C204.821 196.251 205.281 195.911 204.971 196.141C205.221 195.961 205.481 195.771 205.741 195.601C206.161 195.321 206.591 195.071 207.031 194.831C207.271 194.711 207.511 194.591 207.751 194.481C207.351 194.661 207.971 194.401 208.111 194.361C208.581 194.201 209.051 194.091 209.541 193.991C210.031 193.891 209.661 193.971 209.551 193.991C209.661 193.981 209.781 193.971 209.891 193.961C210.201 193.951 210.511 193.931 210.821 193.951C210.931 193.951 211.511 194.001 211.321 193.981C211.021 193.941 211.531 194.021 211.591 194.031C211.711 194.061 211.831 194.081 211.951 194.111C212.191 194.171 212.421 194.231 212.651 194.311C212.171 194.151 212.791 194.411 212.941 194.511C212.431 194.151 213.081 194.761 212.881 194.501C212.671 194.221 212.961 194.711 213.021 194.771C213.211 194.981 212.971 194.391 212.971 194.671C212.971 194.751 213.031 194.861 213.051 194.931C213.071 195.011 213.081 195.131 213.111 195.201C213.221 195.471 213.091 194.641 213.111 195.201C213.131 195.711 213.131 196.211 213.101 196.721C213.101 196.821 213.081 196.931 213.071 197.031C213.111 196.681 213.101 196.831 213.051 197.091C213.011 197.331 212.961 197.571 212.911 197.811C212.701 198.801 212.411 199.761 212.101 200.721C211.681 202.001 212.591 203.451 213.851 203.801C215.201 204.171 216.511 203.341 216.931 202.051C217.611 199.961 218.251 197.711 218.141 195.501C218.001 192.571 216.451 190.131 213.521 189.341C207.931 187.831 202.801 190.911 199.031 194.801C197.301 196.591 195.801 198.581 194.261 200.521C193.421 201.581 193.231 203.021 194.261 204.061C195.131 204.931 196.951 205.121 197.801 204.061V204.071Z" fill="#1D1D1B"/>
<path d="M177.32 208.351C178.92 206.011 180.62 203.771 182.62 201.761C183.57 200.811 184.53 199.951 185.53 199.271C186.07 198.911 186.62 198.581 187.2 198.291C187.36 198.211 187.52 198.141 187.69 198.061C187.5 198.151 187.55 198.131 187.83 198.021C188.12 197.921 188.4 197.831 188.7 197.761C189.58 197.541 190.43 197.511 191.41 197.781C192.03 197.951 192.22 198.041 192.86 198.411C192.99 198.491 193.12 198.561 193.24 198.651C192.98 198.441 192.95 198.431 193.15 198.611C192.95 198.341 192.93 198.321 193.08 198.551C193.18 198.761 193.2 198.781 193.12 198.601C192.98 198.281 193.21 199.001 193.24 199.071C193.29 199.361 193.29 199.351 193.24 199.041C193.25 199.151 193.26 199.261 193.26 199.371C193.26 199.631 193.27 199.901 193.26 200.161C193.26 200.241 193.17 201.021 193.22 200.731C193.27 200.441 193.12 201.201 193.1 201.271C193.04 201.511 192.98 201.741 192.91 201.981C192.86 202.151 192.55 202.751 192.86 202.171C192.76 202.351 192.67 202.531 192.56 202.711C191.83 203.851 192.33 205.471 193.46 206.131C194.67 206.841 196.15 206.371 196.88 205.231C197.97 203.531 198.4 201.131 198.25 199.141C198.16 197.921 197.89 196.711 197.19 195.701C196.31 194.431 194.9 193.741 193.5 193.191C188.19 191.131 182.86 194.441 179.2 198.081C176.86 200.411 174.87 203.081 173.01 205.791C172.25 206.901 172.8 208.561 173.91 209.211C175.15 209.931 176.57 209.431 177.33 208.311L177.32 208.351Z" fill="#1D1D1B"/>
<path d="M163.37 204.53C165.09 202.83 166.79 200.98 168.77 199.57C168.24 199.95 168.76 199.59 168.85 199.52C168.97 199.43 169.1 199.34 169.22 199.25C169.49 199.06 169.76 198.87 170.04 198.7C170.57 198.36 171.12 198.04 171.69 197.77C171.8 197.72 172.12 197.46 171.84 197.69C171.58 197.91 171.86 197.69 171.99 197.64C172.23 197.55 172.48 197.47 172.73 197.4C172.96 197.34 173.24 197.33 173.47 197.24C172.95 197.44 173.06 197.28 173.33 197.27C173.44 197.27 173.55 197.27 173.66 197.27C173.76 197.27 173.87 197.3 173.96 197.29C173.27 197.36 173.38 197.17 173.62 197.25C173.68 197.27 173.76 197.29 173.83 197.31C174.2 197.38 173.2 197.01 173.53 197.18C174.03 197.45 173.21 196.89 173.39 197.05C173.43 197.08 173.46 197.12 173.49 197.15C173.73 197.41 173.07 196.51 173.31 196.94C173.55 197.37 173.13 196.27 173.24 196.76C173.27 196.89 173.29 197.03 173.33 197.16C173.08 196.37 173.28 196.69 173.29 197.02C173.29 197.21 173.29 197.4 173.27 197.59C173.27 197.69 173.24 197.79 173.24 197.89C173.24 197.17 173.32 197.35 173.28 197.59C173.24 197.79 173.21 197.99 173.17 198.18C173.08 198.6 172.96 199.01 172.84 199.42C172.59 200.25 172.28 201.06 171.95 201.86C171.9 201.97 171.86 202.09 171.81 202.2C172.11 201.46 171.95 201.88 171.87 202.05C171.78 202.27 171.68 202.48 171.59 202.7C171.41 203.1 171.23 203.5 171.05 203.89C170.69 204.67 170.33 205.45 170 206.25C169.5 207.46 170.54 209.05 171.75 209.33C173.21 209.66 174.29 208.88 174.83 207.58C174.96 207.27 174.53 208.27 174.67 207.96C174.7 207.9 174.72 207.84 174.75 207.77C174.81 207.63 174.88 207.49 174.94 207.35C175.1 207.01 175.26 206.67 175.41 206.33C175.85 205.37 176.28 204.4 176.69 203.43C177.47 201.56 178.13 199.63 178.29 197.6C178.46 195.34 177.34 193.03 175.01 192.45C172.25 191.76 169.3 193.17 167.07 194.68C164.41 196.49 162.11 198.74 159.84 201C158.91 201.92 158.85 203.62 159.84 204.54C160.84 205.46 162.38 205.52 163.38 204.54L163.37 204.53Z" fill="#1D1D1B"/>
<defs>
<linearGradient id="paint0_linear_218_2326" x1="159.26" y1="249.881" x2="283.86" y2="256.011" gradientUnits="userSpaceOnUse">
<stop stop-color="#324BD9"/>
<stop offset="0.24" stop-color="#617CE0"/>
<stop offset="0.47" stop-color="#88A4E6"/>
<stop offset="0.68" stop-color="#A4C1EB"/>
<stop offset="0.87" stop-color="#B5D2EE"/>
<stop offset="1" stop-color="#BCD9EF"/>
</linearGradient>
</defs>
</svg>
