<svg width="40" height="40" viewBox="0 0 40 40" fill="none" xmlns="http://www.w3.org/2000/svg">
<path d="M35.7142 0H12.8571C10.491 0 8.57141 1.91578 8.57141 4.27711V8.55423H4.2857C1.91963 8.55423 0 10.47 0 12.8313V29.9398C0 32.3011 1.91963 34.2169 4.2857 34.2169H9.81072C10.3125 34.2187 10.7768 34.4807 11.0375 34.9084L13.2625 38.6152H13.2607C13.775 39.4795 14.7089 40.007 15.7143 39.9999C16.7196 40.0035 17.6518 39.4778 18.1643 38.6152L20.3911 34.9084C20.6518 34.4807 21.1161 34.2187 21.6179 34.2169H27.1429C29.509 34.2169 31.4286 32.3011 31.4286 29.9398V25.6627H35.7143C38.0804 25.6627 40 23.7469 40 21.3856V4.27711C40 1.91578 38.0803 0 35.7142 0ZM28.5714 29.9398C28.5714 30.3176 28.4214 30.6812 28.1535 30.9485C27.8857 31.2158 27.5214 31.3655 27.1428 31.3655H21.6178C20.1142 31.3708 18.7214 32.1568 17.9428 33.4417L15.7142 37.1503L13.4874 33.4435C12.7089 32.1568 11.3142 31.3708 9.81065 31.3655H4.28563C3.49633 31.3655 2.85706 30.7275 2.85706 29.9398V12.8313C2.85706 12.0436 3.49633 11.4056 4.28563 11.4056H27.1427C27.5213 11.4056 27.8856 11.5553 28.1534 11.8226C28.4213 12.09 28.5713 12.4535 28.5713 12.8313L28.5714 29.9398ZM37.1428 21.3856C37.1428 21.7634 36.9928 22.1269 36.7249 22.3942C36.4571 22.6616 36.0928 22.8113 35.7142 22.8113H31.4285V12.8313C31.4285 10.47 29.5089 8.55421 27.1428 8.55421H11.4286V4.2771C11.4286 3.48938 12.0678 2.85139 12.8571 2.85139H35.7142C36.0928 2.85139 36.4571 3.00109 36.7249 3.26841C36.9928 3.53573 37.1428 3.89928 37.1428 4.27708V21.3856ZM25.7142 18.5342C25.7142 18.912 25.5642 19.2755 25.2964 19.5428C25.0285 19.8101 24.6642 19.9598 24.2857 19.9598H7.14286C6.35356 19.9598 5.71429 19.3219 5.71429 18.5341C5.71429 17.7464 6.35356 17.1084 7.14286 17.1084H24.2857C24.6642 17.1084 25.0285 17.2581 25.2964 17.5255C25.5642 17.7928 25.7142 18.1564 25.7142 18.5342ZM25.7142 24.237C25.7142 24.6148 25.5642 24.9783 25.2964 25.2456C25.0285 25.513 24.6642 25.6627 24.2857 25.6627H7.14286C6.35356 25.6627 5.71429 25.0247 5.71429 24.237C5.71429 23.4492 6.35356 22.8113 7.14286 22.8113H24.2857C24.6642 22.8113 25.0285 22.961 25.2964 23.2283C25.5642 23.4956 25.7142 23.8592 25.7142 24.237Z" fill="#182DA8"/>
</svg>
