<svg width="289" height="23" viewBox="0 0 289 23" fill="none" xmlns="http://www.w3.org/2000/svg">
<g clip-path="url(#clip0_15_1641)">
<path d="M229.472 2.67539L229.905 3.48286L229.922 2.67539V1.88477L235.31 1.91846L240.696 1.969L241.753 4.20555C242.324 5.41643 242.844 6.39205 242.879 6.34157C242.931 6.29062 243.416 5.29874 243.953 4.10503L244.94 1.969L258.121 1.91846L271.303 1.88477L272.55 3.23018L273.814 4.57559L276.621 1.88477L282.735 1.91846L288.866 1.969L284.502 6.6611L280.154 11.37L280.743 11.9591C281.055 12.2955 283.03 14.3808 285.09 16.6006L288.866 20.6368L276.43 20.7379L275.096 19.342L273.763 17.946L272.325 19.3251L270.887 20.7211H246.724L246.707 19.8294V18.9551L246.291 19.8294L245.875 20.7211H239.709L239.328 19.8294L238.946 18.9551V19.8294L238.929 20.7211H227.186L226.58 19.3251L225.956 17.946L224.501 17.8955L223.029 17.845L222.44 19.2409L221.833 20.6368L216.499 20.6874C211.477 20.721 211.181 20.7041 211.268 20.4353C211.32 20.2671 213.103 16.3819 215.234 11.8075C217.382 7.23311 219.287 3.12965 219.495 2.67539L219.859 1.88477H229.056L229.472 2.67539ZM247.209 4.65982L245.147 9.18345C244.022 11.6546 243.07 13.7228 243.034 13.7582C243 13.7918 241.96 11.7735 240.713 9.25084L238.461 4.65982L235.76 4.60928L233.04 4.55874L233.022 11C233.022 15.9104 232.97 17.3738 232.815 17.1554C232.71 17.004 231.377 14.1282 229.836 10.7647L227.064 4.65982L224.605 4.60928C222.388 4.57565 222.128 4.59236 221.989 4.8614C221.694 5.39957 216.065 17.8283 216.065 17.946C216.067 17.9962 216.846 18.0128 217.814 17.996L219.564 17.946L220.187 16.4658L220.794 15.0025H228.138L228.796 16.5164L229.454 18.0297H236.331L236.366 12.7154L236.418 7.40118L238.912 12.7154L241.406 18.0297H244.264L246.741 12.7154L249.236 7.40118L249.287 12.7154L249.322 18.0297H252.613V4.55874L247.209 4.65982ZM255.904 18.0297L262.625 18.0129H269.329L271.494 15.7594C272.689 14.5153 273.71 13.5234 273.78 13.5398C273.832 13.5566 274.837 14.5822 275.998 15.7931L278.093 18.0297H282.268L279.964 15.6247C278.699 14.313 277.245 12.8162 276.743 12.2948L275.824 11.37L279.029 7.97279L282.251 4.57559H278.284L276.05 6.84584L273.798 9.13348L271.65 6.84584L269.502 4.57559H255.904V18.0297ZM268.844 8.30916C269.415 8.89779 270.282 9.80594 270.802 10.3273L271.719 11.3026L269.744 13.3039L267.769 15.3052L263.492 15.322L259.196 15.3389V12.4802H266.644V9.95723H259.196V7.2664H267.822L268.844 8.30916ZM224.553 6.87954C224.622 6.94681 224.847 7.43464 225.072 7.93909C225.297 8.44365 225.799 9.63764 226.215 10.5794L226.96 12.3117H224.553C223.22 12.3117 222.129 12.2446 222.128 12.1606C222.128 11.8075 224.448 6.76178 224.553 6.87954Z" fill="white" fill-opacity="0.8"/>
<path d="M22.8539 2.21897L14.9733 20.4532H9.8318L5.95376 5.90143C5.71832 5.00516 5.51362 4.6768 4.79757 4.29918C3.62913 3.68412 1.69857 3.10736 0 2.7492L0.11537 2.21897H8.39154C9.44651 2.21897 10.3949 2.90001 10.6344 4.07815L12.6825 14.6294L17.7444 2.21897H22.8539ZM42.9994 14.4999C43.02 9.68734 36.1374 9.42221 36.1847 7.27234C36.1994 6.61805 36.8418 5.92241 38.2478 5.74488C38.9448 5.6564 40.865 5.58891 43.0429 6.56089L43.8972 2.69417C42.7269 2.2822 41.2212 1.88574 39.3476 1.88574C34.5401 1.88574 31.1567 4.36425 31.1282 7.91324C31.0971 10.5383 33.5431 12.0032 35.3859 12.8755C37.2817 13.7687 37.9177 14.3427 37.9105 15.1417C37.8971 16.3649 36.3985 16.9049 34.9981 16.9261C32.5534 16.9626 31.1348 16.2846 30.0039 15.7748L29.1224 19.7694C30.2588 20.2751 32.3565 20.7162 34.5313 20.7384C39.6411 20.7384 42.9837 18.2907 42.9994 14.4999ZM55.6944 20.4535H60.1931L56.2661 2.21897H52.1139C51.1806 2.21897 50.393 2.74617 50.0444 3.55673L42.7457 20.4532H47.8531L48.8671 17.7293H55.1074L55.6944 20.4535ZM50.2671 13.9925L52.8272 7.14619L54.3007 13.9925H50.2671ZM29.8037 2.21897L25.7816 20.4532H20.918L24.9415 2.21897H29.8037Z" fill="white" fill-opacity="0.8"/>
<path d="M124.649 13.1424C126.424 13.141 128.139 12.524 129.485 11.4027C130.832 10.2815 131.722 8.72971 131.994 7.02753C132.568 3.47932 129.713 0.381877 125.667 0.381877H119.146C119.024 0.380345 118.905 0.421803 118.812 0.498605C118.718 0.575408 118.657 0.68237 118.638 0.799773L115.732 18.7101C115.722 18.7755 115.726 18.8424 115.744 18.9061C115.763 18.9698 115.796 19.0289 115.84 19.0792C115.884 19.1296 115.939 19.17 116.001 19.1978C116.063 19.2256 116.13 19.24 116.198 19.2401H119.649C119.771 19.2413 119.89 19.1997 119.983 19.1229C120.076 19.0462 120.137 18.9394 120.156 18.8223L121.01 13.561C121.029 13.4436 121.09 13.3365 121.183 13.2597C121.276 13.1827 121.395 13.1411 121.517 13.1424H124.649ZM127.537 6.86608C127.324 8.17765 126.28 9.14417 124.282 9.14417H121.726L122.5 4.37227H125.01C127.077 4.37655 127.749 5.56024 127.537 6.86964V6.86608ZM146.944 6.02313H143.668C143.546 6.02175 143.427 6.06326 143.334 6.14002C143.241 6.21684 143.179 6.32368 143.161 6.44104L143.055 7.10113C143.055 7.10113 140.511 4.40441 136.01 6.22604C133.428 7.26967 132.188 9.42632 131.662 11.005C131.662 11.005 129.986 15.8041 133.773 18.4465C133.773 18.4465 137.284 20.9868 141.237 18.2894L141.169 18.7101C141.158 18.7755 141.163 18.8425 141.181 18.9062C141.199 18.97 141.232 19.0291 141.276 19.0795C141.321 19.1298 141.376 19.1703 141.438 19.198C141.5 19.2258 141.567 19.2401 141.635 19.2401H144.91C145.032 19.2417 145.151 19.2002 145.245 19.1234C145.338 19.0466 145.399 18.9396 145.418 18.8223L147.41 6.55322C147.42 6.48778 147.416 6.42091 147.398 6.3572C147.379 6.29349 147.346 6.23444 147.303 6.18407C147.258 6.13375 147.203 6.09328 147.141 6.0655C147.079 6.03773 147.012 6.0233 146.944 6.02313ZM142.127 12.8038C141.999 13.6587 141.556 14.4393 140.88 15.0011C140.204 15.5628 139.342 15.8674 138.452 15.8584C138.103 15.8622 137.757 15.8128 137.424 15.7119C136.012 15.2719 135.205 13.9532 135.438 12.5245C135.566 11.6673 136.011 10.8846 136.69 10.3225C137.368 9.76034 138.234 9.45708 139.127 9.46922C139.475 9.46565 139.822 9.51562 140.155 9.61636C141.562 10.055 142.363 11.3737 142.131 12.8038H142.127Z" fill="white" fill-opacity="0.8"/>
<path d="M171.818 13.1424C173.593 13.1419 175.309 12.5254 176.657 11.4041C178.005 10.2828 178.896 8.73057 179.169 7.02753C179.742 3.47931 176.888 0.381862 172.84 0.381862H166.321C166.2 0.380653 166.081 0.422243 165.988 0.499003C165.895 0.575765 165.834 0.682542 165.815 0.799762L162.9 18.7151C162.883 18.8138 162.9 18.915 162.949 19.0032C162.997 19.0914 163.074 19.1616 163.168 19.203C163.23 19.231 163.298 19.2457 163.366 19.2459H166.818C166.94 19.247 167.058 19.2053 167.151 19.1285C167.245 19.0515 167.306 18.9446 167.325 18.8272L168.18 13.566C168.198 13.4486 168.26 13.3414 168.353 13.2644C168.446 13.1875 168.565 13.1459 168.687 13.1474L171.818 13.1424ZM174.705 6.86608C174.492 8.17765 173.448 9.14417 171.449 9.14417H168.894L169.669 4.37225H172.179C174.245 4.37654 174.918 5.56023 174.705 6.86964V6.86608ZM194.112 6.02313H190.84C190.717 6.02192 190.599 6.06349 190.506 6.14025C190.413 6.21702 190.351 6.32379 190.333 6.44104L190.225 7.10108C190.225 7.10108 187.683 4.4044 183.181 6.22598C180.599 7.26967 179.36 9.42632 178.832 11.005C178.832 11.005 177.158 15.8041 180.944 18.4465C180.944 18.4465 184.454 20.9868 188.409 18.2893L188.34 18.7101C188.323 18.8088 188.341 18.91 188.389 18.9982C188.438 19.0864 188.515 19.1566 188.609 19.198C188.67 19.2266 188.738 19.2409 188.807 19.2409H192.082C192.204 19.2427 192.323 19.2011 192.416 19.1242C192.509 19.0472 192.57 18.9399 192.589 18.8222L194.581 6.55316C194.591 6.48755 194.587 6.42062 194.568 6.35685C194.549 6.29303 194.517 6.23386 194.472 6.18315C194.429 6.13232 194.373 6.09161 194.311 6.06395C194.249 6.03629 194.18 6.02238 194.112 6.02313ZM189.296 12.8038C189.169 13.6593 188.726 14.4408 188.05 15.0028C187.374 15.5648 186.51 15.8689 185.62 15.8584C185.271 15.8624 184.924 15.813 184.591 15.7119C183.178 15.2719 182.371 13.9532 182.603 12.5245C182.731 11.6695 183.174 10.8886 183.85 10.3268C184.526 9.76488 185.389 9.46019 186.278 9.46916C186.628 9.46559 186.976 9.51493 187.308 9.61636C188.73 10.055 189.533 11.3737 189.299 12.8038H189.296Z" fill="white" fill-opacity="0.8"/>
<path d="M158.966 6.32515L155.018 12.7965L153.014 6.37299C152.982 6.27105 152.918 6.18175 152.83 6.11838C152.742 6.05508 152.635 6.02109 152.526 6.02155H148.963C148.901 6.0204 148.841 6.03374 148.786 6.06042C148.731 6.0871 148.683 6.12632 148.648 6.17473C148.612 6.22315 148.589 6.27927 148.58 6.33832C148.571 6.39737 148.577 6.45758 148.598 6.51375L152.189 17.3334L148.942 22.4325C148.905 22.4886 148.885 22.5533 148.882 22.6197C148.881 22.6861 148.897 22.7519 148.93 22.8099C148.964 22.868 149.013 22.9163 149.072 22.9497C149.131 22.9831 149.199 23.0003 149.267 22.9996H153.105C153.215 23.0002 153.323 22.9729 153.419 22.9206C153.514 22.8682 153.594 22.7925 153.65 22.701L163.68 6.59086C163.716 6.53468 163.736 6.47 163.737 6.40376C163.739 6.33752 163.722 6.27214 163.688 6.21441C163.655 6.15674 163.606 6.1089 163.547 6.07595C163.488 6.04306 163.42 6.02621 163.352 6.02725H159.515C159.405 6.02598 159.296 6.05283 159.2 6.1051C159.103 6.15737 159.023 6.23327 158.966 6.32515Z" fill="white" fill-opacity="0.8"/>
<path d="M197.796 0.794874L194.881 18.7102C194.865 18.8089 194.882 18.9102 194.93 18.9984C194.979 19.0865 195.056 19.1567 195.149 19.1981C195.212 19.2267 195.279 19.241 195.348 19.241H198.797C198.92 19.2424 199.038 19.2009 199.131 19.1239C199.225 19.0469 199.286 18.9398 199.304 18.8223L202.22 0.907028C202.231 0.841587 202.227 0.774629 202.209 0.710838C202.19 0.647042 202.157 0.587955 202.113 0.537709C202.068 0.487432 202.013 0.447048 201.951 0.419311C201.889 0.391573 201.822 0.377134 201.754 0.376979H198.303C198.181 0.37577 198.063 0.41736 197.97 0.494119C197.876 0.570879 197.815 0.677661 197.796 0.794874Z" fill="white" fill-opacity="0.8"/>
<path d="M95.3374 22.2462C101.664 22.2462 106.793 17.2662 106.793 11.1231C106.793 4.97998 101.664 0 95.3374 0C89.0104 0 83.8813 4.97998 83.8813 11.1231C83.8813 17.2662 89.0104 22.2462 95.3374 22.2462Z" fill="white" fill-opacity="0.8"/>
<path d="M80.5806 22.6231C86.9076 22.6231 92.0366 17.6432 92.0366 11.5C92.0366 5.35693 86.9076 0.376953 80.5806 0.376953C74.2536 0.376953 69.1245 5.35693 69.1245 11.5C69.1245 17.6432 74.2536 22.6231 80.5806 22.6231Z" fill="white" fill-opacity="0.5"/>
</g>
<defs>
<clipPath id="clip0_15_1641">
<rect width="289" height="23" fill="white"/>
</clipPath>
</defs>
</svg>
