<svg width="70" height="40" viewBox="0 0 70 40" fill="none" xmlns="http://www.w3.org/2000/svg">
<path d="M65.5663 19.7996L64.0169 26.2401C63.2659 29.3694 60.8616 31.7869 57.8081 32.48L28.7769 33.6001C28.7769 33.6001 29.1388 31.9736 28.8108 30.0601L57.0368 26.6998L28.216 28.0999C27.5759 26.7045 26.4065 25.3884 24.3301 24.637L65.5685 19.7996H65.5663Z" fill="#E8E8E6"/>
<path d="M66.9999 13.4663L65.9708 16.6096L13.8618 24.5086L10.3604 30.0414L4 30.4451L9.08921 24.4993C10.5594 22.5531 12.5815 21.16 14.8479 20.4926L20.7899 14.1127L15.6939 14.0894L18.3719 10.6777C18.3719 10.6777 30.0206 9.31961 37.8421 8.11084C40.6649 9.19593 41.0721 9.81899 41.0721 9.81899C41.0721 9.81899 24.617 12.1992 23.6579 13.485C22.7622 14.6891 21.0726 18.5697 21.672 19.4612L39.8439 17.0576C39.0432 14.2877 34.3747 12.5982 34.3747 12.5982L42.0017 11.3941L51.1171 15.5665L66.9999 13.4663Z" fill="#E8E8E6"/>
</svg>
