<svg width="70" height="40" viewBox="0 0 70 40" fill="none" xmlns="http://www.w3.org/2000/svg">
<mask id="mask0_74_1627" style="mask-type:luminance" maskUnits="userSpaceOnUse" x="17" y="2" width="36" height="36">
<path d="M53 2H17V38H53V2Z" fill="white"/>
</mask>
<g mask="url(#mask0_74_1627)">
<path d="M29.8323 5.47355C27.9479 5.93761 26.6331 7.5337 26.5136 9.52355L26.4714 10.2196L23.4409 10.2407L20.4105 10.2618L19.8831 10.4517C18.8355 10.8384 17.9355 11.6259 17.4644 12.5751C16.9722 13.5525 17.0003 13.004 17.0003 22.4048C17.0003 28.2548 17.0214 31.004 17.0776 31.2642C17.1198 31.4681 17.2815 31.904 17.4362 32.2204C17.9565 33.3173 19.0112 34.1821 20.1995 34.4845C20.7409 34.6251 20.987 34.6251 35.0003 34.6251C49.0136 34.6251 49.2596 34.6251 49.8011 34.4845C50.9893 34.1821 52.044 33.3173 52.5643 32.2204C52.719 31.904 52.8807 31.4681 52.9229 31.2642C52.9792 31.004 53.0003 28.2548 53.0003 22.4048C53.0003 13.011 53.0284 13.5525 52.5362 12.5751C51.9596 11.422 50.7925 10.536 49.5268 10.304C49.2667 10.2548 48.0362 10.2267 46.3206 10.2267H43.5292L43.487 9.53761C43.4026 8.19464 42.8823 7.15401 41.8698 6.3173C41.4339 5.9587 40.6182 5.56495 40.0768 5.45245C39.5284 5.33995 30.3104 5.35401 29.8323 5.47355ZM36.1956 13.911C41.3284 14.6845 44.4573 20.0915 42.5659 24.915C41.7573 26.961 39.9362 28.7751 37.9464 29.5204C36.8073 29.9493 36.3925 30.0126 35.0003 30.0196C33.8612 30.0196 33.6292 29.9985 33.1089 29.8579C31.4776 29.415 30.3175 28.747 29.1925 27.6079C26.9776 25.372 26.2815 22.011 27.4136 19.0509C28.7847 15.4931 32.455 13.3485 36.1956 13.911Z" fill="white"/>
<path d="M33.9247 17.722C32.5396 18.0525 31.281 19.2478 30.8451 20.633C30.6482 21.2728 30.599 22.222 30.7396 22.8759C31.063 24.4158 32.2724 25.6884 33.8404 26.1595C34.4169 26.3353 35.5841 26.3353 36.1607 26.1595C39.1701 25.2595 40.3232 21.7509 38.4247 19.2619C37.8622 18.5236 36.8427 17.8767 35.9287 17.6869C35.4294 17.5814 34.424 17.5955 33.9247 17.722Z" fill="white"/>
</g>
</svg>
