<svg width="32" height="32" viewBox="0 0 32 32" fill="none" xmlns="http://www.w3.org/2000/svg">
<path d="M16 6.62139C10.6439 6.62139 6.28613 10.8291 6.28613 16.0007C6.28613 21.1723 10.6439 25.38 16 25.38C21.3561 25.38 25.7139 21.1723 25.7139 16.0007C25.7139 10.8291 21.3561 6.62139 16 6.62139ZM16 23.1728C11.9032 23.1728 8.57211 19.9551 8.57211 16.0007C8.57211 12.045 11.9046 8.82864 16 8.82864C20.0954 8.82864 23.4279 12.0463 23.4279 16.0007C23.4279 19.9551 20.0954 23.1728 16 23.1728ZM25.7139 0H6.28613C2.82036 0 0.00141825 2.72203 0.00141825 6.06826L0 25.9317C0 29.2782 2.81912 32 6.28472 32H25.7124C29.1782 32 31.9972 29.278 31.9972 25.9317L32 6.06967C32 2.72325 29.1795 0 25.7139 0ZM29.7144 25.9317C29.7144 28.0609 27.9191 29.7945 25.7139 29.7945H6.28613C4.08104 29.7945 2.28558 28.0611 2.28558 25.9317V6.06967C2.28558 3.94052 4.07944 2.2069 6.28613 2.2069H25.7139C27.919 2.2069 29.7144 3.93897 29.7144 6.06967V25.9317ZM26.9279 4.90032C27.247 5.20977 27.4313 5.63425 27.4313 6.06963C27.4313 6.50505 27.2484 6.9295 26.9279 7.23894C26.6074 7.54839 26.1678 7.72501 25.7169 7.72501C25.602 7.72501 25.4886 7.71406 25.3794 7.69215C25.2702 7.67024 25.1624 7.63738 25.0589 7.59768C24.9568 7.55386 24.8533 7.50457 24.7625 7.44295C24.6703 7.3827 24.5796 7.31561 24.5058 7.23894C24.1854 6.92949 24.0024 6.50501 24.0024 6.06962C24.0024 5.95872 24.0138 5.85465 24.0365 5.74375C24.0535 5.63832 24.0875 5.53425 24.1329 5.4343C24.1726 5.33572 24.2251 5.24124 24.2875 5.14676C24.3499 5.05913 24.4236 4.97013 24.5044 4.89893C25.1383 4.28278 26.2869 4.2828 26.9279 4.90032Z" fill="#E8E8E6"/>
</svg>
