<svg width="51" height="46" viewBox="0 0 51 46" fill="none" xmlns="http://www.w3.org/2000/svg">
<g clip-path="url(#clip0_18_4062)">
<path d="M12.9591 9.90359C8.96571 6.8808 1.7941 4.42535 0.879595 9.90813C0.3697 12.9657 -0.0544598 19.2443 0.00570477 25.6257C0.1501 41.2813 0.42084 43.1089 1.83922 44.2149C2.20773 44.5023 2.63038 44.7217 3.07711 44.8715C10.3179 47.2997 17.3256 35.85 19.4915 31.0813C22.6697 24.0811 19.7848 15.0687 12.9606 9.90359H12.9591Z" fill="white"/>
<path d="M44.9986 5.60686C39.316 -0.105884 32.6363 0.134669 23.1513 0.00455845C16.9288 0.00758427 8.44559 -0.0181352 4.17842 0.0272521C0.300811 0.00153264 0.54899 0.692932 3.56775 1.88813C4.01296 2.06514 4.45668 2.25123 4.88836 2.46001C8.07257 3.99864 11.5651 6.10461 14.4996 8.42087C19.0782 11.9081 23.225 16.99 27.7479 19.5287C32.0361 21.9917 38.0511 23.2307 42.5063 21.5469C49.2793 19.3411 49.7185 10.1441 44.9986 5.60535V5.60686Z" fill="white"/>
<path d="M34.0927 25.6045C27.5513 27.7815 21.1122 32.2219 17.9039 38.1873C13.1479 47.7141 29.9398 46.2405 35.8329 45.3313C43.0166 44.2011 48.9307 40.8395 50.7116 34.2719C52.8384 24.4199 42.812 22.3547 34.0927 25.6045Z" fill="white"/>
</g>
<defs>
<clipPath id="clip0_18_4062">
<rect width="51" height="46" fill="white"/>
</clipPath>
</defs>
</svg>
