<svg width="70" height="40" viewBox="0 0 70 40" fill="none" xmlns="http://www.w3.org/2000/svg">
<path d="M45.2586 19.572C45.8461 24.9794 46.4572 30.4302 47.0597 35.9461L40.6507 37.456C40.2819 25.1662 39.911 13.0241 39.5508 0.832066L43.0822 0C44.9713 4.57528 46.9289 9.07234 48.6807 13.6433C49.6563 16.1742 48.3655 18.2272 45.2586 19.5698V19.572Z" fill="#E8E8E6"/>
<path d="M32.121 22.3679C34.0143 27.5537 35.9227 32.8002 37.8803 38.1598L30.0691 40.0021C29.4858 34.4057 28.9155 28.8572 28.3559 23.3564C22.603 22.2006 20.4546 19.6089 20.2337 13.704C20.1244 10.9688 20.0836 8.21845 20 5.43983L23.45 4.62732C23.658 7.83827 23.8509 10.9906 24.0504 14.2775L26.2717 13.754L24.1468 4.49914L27.6204 3.68011L29.7453 12.9349L32.061 12.3896C30.8538 9.4394 29.6531 6.52391 28.418 3.50631L31.9731 2.66772C33.4204 6.12417 35.1851 9.56757 36.3086 13.2239C37.4043 16.8128 35.7511 19.9239 32.121 22.3679Z" fill="#E8E8E6"/>
</svg>
