<svg width="157" height="34" viewBox="0 0 157 34" fill="none" xmlns="http://www.w3.org/2000/svg">
<g clip-path="url(#clip0_15_1098)">
<path d="M9.59233 7.3219C6.63592 5.08812 1.32885 3.27204 0.65078 7.3219C0.274071 9.58291 -0.0393502 14.223 0.00284112 18.9418C0.111333 30.5132 0.310235 31.8632 1.35899 32.6804C1.63323 32.8923 1.94364 33.0557 2.27515 33.1647C7.63646 34.9596 12.823 26.4967 14.4262 22.9735C16.7799 17.8007 14.6432 11.1387 9.59233 7.31887V7.3219Z" fill="#E8E8E6"/>
<path d="M33.3095 4.14373C29.1024 -0.0786482 24.157 0.0999328 17.1382 0.00307535C12.5333 0.00307535 6.25281 -0.0150854 3.09449 0.0212361C0.222464 4.85551e-05 0.406298 0.511577 2.63943 1.3954C2.96792 1.52555 3.2964 1.66479 3.61585 1.81613C5.97254 2.9542 8.55827 4.50997 10.7311 6.22314C14.1215 8.80197 17.1894 12.5582 20.5376 14.4348C23.711 16.2539 28.1652 17.1711 31.4621 15.927C36.4769 14.2956 36.7993 7.50045 33.3065 4.14373H33.3095Z" fill="#E8E8E6"/>
<path d="M25.236 18.9265C20.393 20.5368 15.6254 23.8178 13.2507 28.2279C9.73069 35.2682 22.1591 34.1816 26.5228 33.5096C31.842 32.6742 36.2178 30.1892 37.5378 25.3343C39.1109 18.0518 31.6913 16.5263 25.236 18.9265Z" fill="#E8E8E6"/>
<path d="M70.2873 15.7152C74.5577 12.2979 72.7766 3.95605 65.0948 3.95605H46.2744V27.4168C46.2744 28.6033 47.2056 29.5688 48.3569 29.5688H66.1616C75.5883 29.5688 77.5472 18.5089 70.2873 15.7152ZM50.6864 8.29345H65.0948C68.901 8.29345 68.5816 14.4318 65.1309 14.4318H50.6864V8.29345ZM66.1616 25.2314H50.6864V18.2879H65.9838C71.4265 18.3273 71.107 25.2314 66.1616 25.2314Z" fill="#E8E8E6"/>
<path d="M76.7188 6.10811V29.6778H79.0483C80.1995 29.6778 81.1308 28.7152 81.1308 27.5257V3.95605H78.8012C77.65 3.95605 76.7188 4.91858 76.7188 6.10811Z" fill="#E8E8E6"/>
<path d="M106.773 24.175V9.10156L104.308 9.12275C103.232 9.13183 102.365 10.0096 102.365 11.0932V22.6344C102.365 22.8947 102.283 23.1489 102.132 23.3578C101.126 24.744 99.3358 25.8186 96.4426 25.8186C92.3169 25.8186 88.4745 24.4232 88.4745 20.3794V9.10156H86.0244C84.9425 9.10156 84.0625 9.98236 84.0625 11.072V20.3824C84.0625 27.5862 89.8246 30.047 96.1925 30.047C101.258 30.047 104.341 27.4561 105.086 26.7508C105.894 25.982 106.777 25.2404 106.777 24.178L106.773 24.175Z" fill="#E8E8E6"/>
<path d="M152.584 9.10151V20.3794C152.584 24.4232 148.742 25.8185 144.616 25.8185C141.726 25.8185 139.936 24.747 138.929 23.3607C138.776 23.1489 138.694 22.8916 138.694 22.6283V11.0901C138.694 10.0096 137.826 9.12875 136.75 9.11967L134.285 9.09849V24.1719C134.285 25.2343 135.165 25.9759 135.976 26.7447C136.717 27.45 139.803 30.0409 144.869 30.0409C151.237 30.0409 156.999 27.5801 156.999 20.3763V11.0659C156.999 9.97928 156.122 9.09546 155.037 9.09546H152.587V9.10151H152.584Z" fill="#E8E8E6"/>
<path d="M131.956 24.1781V9.09863L129.488 9.12285C128.412 9.13193 127.544 10.0127 127.544 11.0933V22.5739C127.544 22.8706 127.442 23.1551 127.249 23.3791C126.369 24.4021 124.588 25.8277 120.498 25.8277C117.047 25.8277 114.772 24.4808 113.82 23.4093C113.621 23.1853 113.518 22.8917 113.518 22.5921V11.0933C113.518 10.0127 112.651 9.13495 111.575 9.12285L109.106 9.09863V24.1781C109.106 24.9712 109.851 26.1062 110.743 26.7297C113.241 28.4822 115.489 29.6808 118.777 29.9442C119.965 30.0501 120.465 30.0471 121.773 29.9684C121.773 29.9684 127.191 29.7686 130.317 26.7297C131.1 25.967 131.956 24.9409 131.956 24.1781Z" fill="#E8E8E6"/>
</g>
<defs>
<clipPath id="clip0_15_1098">
<rect width="157" height="34" fill="white"/>
</clipPath>
</defs>
</svg>
