<svg width="67" height="60" viewBox="0 0 67 60" fill="none" xmlns="http://www.w3.org/2000/svg">
<path d="M12.9988 39.0645C14.0947 39.2005 14.8689 40.2016 14.7326 41.2952C14.5963 42.3887 13.5931 43.1613 12.4971 43.0253C11.0414 42.8403 9.7219 42.4975 8.52239 42.0024C7.2847 41.491 6.18878 40.8327 5.22371 40.0275C4.30772 39.2658 3.50622 38.4008 2.82468 37.4595C1.0036 34.9568 0.0221727 31.8992 0.000363311 28.8525C-0.0214461 25.7731 0.938167 22.71 3.01006 20.2291C3.6807 19.4239 4.47129 18.684 5.37638 18.0311C6.42868 17.2694 7.63365 16.6274 8.99674 16.0997C9.93454 15.7352 10.9378 15.4305 11.9955 15.1856C13.195 10.4305 15.7522 6.76901 19.04 4.22825C22.1151 1.8507 25.8172 0.46334 29.6284 0.0988188C33.4233 -0.265702 37.3271 0.37629 40.833 2.05744C44.6606 3.89093 47.9974 6.94311 50.162 11.2358C51.0344 11.0997 51.9067 11.029 52.7737 11.0399C56.4376 11.0617 59.9707 12.3728 62.7514 15.3652C63.3348 15.9909 63.8855 16.6981 64.3981 17.487C66.1428 20.1638 67.037 23.7383 66.9988 27.2366C66.9607 30.6696 66.0338 34.0863 64.1363 36.6054C62.8987 38.243 61.312 39.5814 59.4092 40.6423C57.5772 41.6651 55.4398 42.4431 53.0408 42.9981C51.9613 43.2429 50.8871 42.5737 50.6418 41.4965C50.3964 40.4192 51.0671 39.3474 52.1466 39.1026C54.1694 38.6347 55.9469 37.9927 57.4463 37.1549C58.8803 36.3551 60.0525 35.3812 60.9304 34.2115C62.2935 32.3998 62.9641 29.8372 62.9914 27.2094C63.0241 24.451 62.348 21.6817 61.034 19.6687C60.6577 19.092 60.2434 18.5643 59.8072 18.0964C57.8389 15.98 55.3417 15.0551 52.7464 15.0388C50.8599 15.0279 48.9188 15.4794 47.0705 16.2955C46.6616 16.4968 46.2526 16.7145 45.8437 16.9538C44.6169 17.672 43.4065 18.5479 42.1688 19.5545L39.5299 16.5404C40.4404 15.6971 41.4273 14.9299 42.4742 14.2499C43.3084 13.7058 44.1807 13.227 45.0749 12.8081C45.4348 12.6286 45.8001 12.4599 46.1654 12.3021C44.4261 9.22817 41.9235 7.02472 39.0883 5.66457C36.253 4.30986 33.0798 3.78756 29.9883 4.08679C26.9186 4.38058 23.9362 5.49591 21.4717 7.40557C18.6201 9.61446 16.4556 12.906 15.6213 17.2748L15.3596 18.6404L13.9965 18.8798C12.6607 19.1138 11.4667 19.4348 10.4198 19.8428C9.40567 20.2345 8.50058 20.7188 7.70999 21.29C7.07751 21.747 6.53228 22.2584 6.06883 22.8134C4.63486 24.5272 3.96967 26.6762 3.98603 28.8525C4.00239 31.0614 4.7221 33.292 6.05247 35.1255C6.54864 35.8056 7.12113 36.4313 7.77541 36.9753C8.4406 37.5248 9.18757 37.9818 10.0272 38.3246C10.9214 38.6728 11.9083 38.9285 12.9988 39.0645ZM30.3318 43.4007C31.5258 48.9338 35.1135 51.6976 35.1135 54.4669C35.1135 57.2362 33.9194 60 30.3318 60C26.7441 60 25.5501 57.2362 25.5501 54.4669C25.5501 51.7031 29.1323 48.9338 30.3318 43.4007ZM40.9421 28.7872C42.1361 34.7936 45.7238 37.7968 45.7238 40.8001C45.7238 43.8033 44.5297 46.8065 40.9421 46.8065C37.3544 46.8065 36.1603 43.8033 36.1603 40.8001C36.1603 37.7968 39.748 34.7936 40.9421 28.7872ZM24.9394 28.205C25.8009 32.1821 28.3798 34.1734 28.3798 36.1647C28.3798 38.1559 27.5184 40.1418 24.9394 40.1418C22.3604 40.1418 21.499 38.1505 21.499 36.1647C21.499 34.1734 24.0779 32.1821 24.9394 28.205Z" fill="#324CDA"/>
</svg>
