<svg width="40" height="41" viewBox="0 0 40 41" fill="none" xmlns="http://www.w3.org/2000/svg">
<path d="M19.4248 0.251953C19.6263 0.240065 19.8313 0.278444 20.0156 0.365234L34.5459 7.19434L34.7002 7.28027C35.0412 7.50485 35.2499 7.88901 35.25 8.30469V23.915C35.25 27.8345 33.0198 30.864 30.1182 33.4004C27.2271 35.927 23.5429 38.1331 20.2061 40.5234C19.7838 40.8261 19.2164 40.8253 18.793 40.5234L18.7158 40.4688C15.3993 38.0998 11.7502 35.9077 8.88184 33.4004C5.9782 30.8635 3.75 27.8341 3.75 23.915V8.30469C3.75008 7.82978 4.02298 7.39604 4.45215 7.19434L18.9834 0.365234L18.9844 0.364258C19.1227 0.300488 19.2706 0.261598 19.4238 0.251953H19.4248ZM6.1875 9.08398V23.915C6.1875 26.8889 7.818 29.2249 10.4805 31.5508C12.9659 33.7234 16.2514 35.7591 19.499 38.0391C22.7468 35.7608 26.0317 33.7237 28.5195 31.5508C31.182 29.2248 32.8125 26.8889 32.8125 23.915V9.08398L19.5 2.82812L6.1875 9.08398ZM27.2988 13.4209L27.3984 13.4297C27.6296 13.4588 27.8495 13.5528 28.0312 13.7061C28.5473 14.1395 28.616 14.9117 28.1865 15.4307L18.499 27.1387C18.1107 27.6084 17.4416 27.7138 16.9316 27.4033L16.8311 27.335L11.0186 22.9443C10.7925 22.7731 10.6331 22.5301 10.5664 22.2568L10.543 22.1377C10.498 21.8162 10.5814 21.4887 10.7744 21.2295L10.8545 21.1328C11.2733 20.6767 11.9764 20.6022 12.4814 20.9824V20.9834L17.3662 24.6748L26.3115 13.8623V13.8613C26.5188 13.6119 26.8164 13.4568 27.1367 13.4258H27.1387C27.1884 13.4214 27.2423 13.4183 27.2988 13.4209Z" fill="#182DA8" stroke="#182DA8" stroke-width="0.5"/>
</svg>
