<svg width="70" height="40" viewBox="0 0 70 40" fill="none" xmlns="http://www.w3.org/2000/svg">
<path d="M45.4699 2.18281C45.3293 2.36563 45.3223 2.44297 45.3223 5.19922V8.03281L46.0043 8.51094C46.377 8.77813 47.0309 9.32658 47.4527 9.73439C47.8676 10.1422 48.2402 10.4727 48.2824 10.4656C48.3176 10.4586 48.3809 10.4516 48.416 10.4445C48.4652 10.4445 48.4863 9.03127 48.4863 6.37344V2.30234L48.3246 2.15469C48.1699 2.00703 48.0996 2 46.8902 2H45.6105L45.4699 2.18281Z" fill="white"/>
<path d="M32.3499 6.36643C29.889 6.59143 27.1468 7.17502 25.5577 7.80784C24.2569 8.33518 22.9983 9.20002 21.9225 10.3321C20.4741 11.8438 19.5249 13.686 19.1241 15.7461C18.9764 16.5196 18.9553 18.1227 19.0889 18.875C19.553 21.4485 21.3811 23.8039 23.8772 25.0274C25.1499 25.6602 26.3522 25.9274 27.8499 25.9274C30.1702 25.9203 32.2444 25.0906 34.0022 23.4735C34.3116 23.1852 34.5999 22.9531 34.6351 22.9531C34.6702 22.9531 34.9585 23.1852 35.2679 23.4735C36.5616 24.6617 38.0241 25.4211 39.7186 25.7727C40.6327 25.9625 42.2569 25.9836 43.1077 25.8078C45.9483 25.2172 48.2194 23.5086 49.471 21.0055C50.0476 19.8524 50.2655 18.8891 50.2655 17.4336C50.2726 15.8094 49.928 14.375 49.1616 12.8774C48.6132 11.8016 48.0788 11.0703 47.1226 10.1141C46.2015 9.19299 45.3788 8.60237 44.303 8.08205C42.8968 7.40002 40.4358 6.78127 37.8694 6.46487C36.7515 6.32424 33.4186 6.26799 32.3499 6.36643ZM37.8343 8.77815C39.6061 9.03127 41.4343 9.45315 42.5804 9.86799C45.1679 10.8172 47.2561 13.236 47.8116 15.95C48.2897 18.2422 47.6851 20.1899 46.0116 21.8C44.739 23.0164 43.2765 23.6 41.4554 23.6071C39.5921 23.6141 38.1507 22.9883 36.5827 21.4906C35.7319 20.6821 35.3452 20.4781 34.6351 20.4781C33.9249 20.4781 33.5382 20.6821 32.6874 21.4906C31.9491 22.2008 31.4147 22.5875 30.7186 22.9461C28.1452 24.2399 25.0093 23.6633 22.9913 21.5258C21.6905 20.1477 21.128 18.5164 21.3389 16.7305C21.5499 14.9094 22.3163 13.2922 23.61 11.9422C24.9038 10.5922 25.9866 9.99455 28.1944 9.41799C29.2843 9.12971 30.7257 8.86252 31.7522 8.75705C32.1601 8.71487 32.589 8.66565 32.7015 8.65159C33.2499 8.58127 37.103 8.67268 37.8343 8.77815Z" fill="white"/>
<path d="M35.0977 9.29004C36.147 9.31113 37.1975 9.36017 37.709 9.42578H37.71C38.8341 9.56543 40.3875 9.88015 41.4844 10.1875V10.1885C43.9056 10.8733 45.5999 12.2865 46.6211 14.4463C47.4782 16.2572 47.546 18.2536 46.8262 19.6865C45.7904 21.7372 43.8106 22.9433 41.4824 22.9502C40.5501 22.9501 39.7849 22.8111 39.0371 22.4688C38.3805 22.1681 37.7302 21.708 36.9883 21.0361L36.665 20.7354C36.3086 20.3932 36.0088 20.1636 35.6904 20.0215C35.3696 19.8783 35.0412 19.8291 34.6348 19.8291C34.2083 19.8291 33.8858 19.874 33.5508 20.0371C33.3044 20.1571 33.0566 20.3385 32.7568 20.5996L32.4375 20.8887C31.618 21.6524 30.9018 22.1684 30.1729 22.4932C29.446 22.8169 28.6972 22.9546 27.8076 22.9512C26.9218 22.9512 26.22 22.8197 25.4844 22.5068L25.166 22.3613L24.9648 22.2588C23.9735 21.7342 23.2061 20.9844 22.5996 19.9521H22.6006C21.3223 17.7695 21.9846 14.4462 24.1934 12.2305L24.1943 12.2314C25.4868 10.939 26.8598 10.3066 29.6504 9.74707C30.7713 9.52991 31.4976 9.41915 32.5391 9.32129C33.0145 9.2765 34.0475 9.26893 35.0977 9.29004Z" fill="white" stroke="white" stroke-width="0.3"/>
<path d="M47.7486 24.0431C47.2564 24.5001 46.3846 25.0978 45.7658 25.4072L45.3299 25.6251L45.3088 28.3462L45.2877 31.0744L45.0697 31.679C44.6338 32.9095 43.8111 33.8376 42.6861 34.379C41.9408 34.7376 41.5189 34.8361 40.7314 34.8361C38.6783 34.8361 36.8432 33.3454 36.351 31.2853C36.2877 31.0111 36.1963 30.7579 36.1541 30.7158C36.0979 30.6525 35.9361 30.6525 35.5846 30.7017C35.3174 30.7369 34.6354 30.7439 34.0799 30.7228L33.0674 30.6806L33.1096 31.1939C33.3768 34.1962 35.6971 36.9173 38.7205 37.7611C39.5361 37.9861 41.1393 38.0704 42.0041 37.9298C45.0135 37.4517 47.4463 35.2369 48.2619 32.2486L48.4447 31.5665L48.4518 27.629C48.4518 23.7408 48.4518 23.6915 48.3111 23.6775C48.2268 23.6634 48.0088 23.804 47.7486 24.0431Z" fill="white"/>
<path d="M31.2525 27.4672C30.8939 27.6711 30.6689 28.1 30.6759 28.557C30.683 29.2742 31.0767 29.5977 32.3845 29.9422C33.8119 30.3289 35.3658 30.3289 36.8634 29.9492C38.2064 29.6047 38.6073 29.2742 38.6073 28.5008C38.6073 28.2055 38.5651 28.0508 38.4385 27.868C38.0448 27.2914 37.5314 27.1789 36.6314 27.4742C35.2603 27.9242 33.8822 27.9172 32.5673 27.4602C32.033 27.2703 31.583 27.2703 31.2525 27.4672Z" fill="white"/>
</svg>
