<svg width="32" height="33" viewBox="0 0 32 33" fill="none" xmlns="http://www.w3.org/2000/svg">
<path d="M21.8204 16.4936C21.0469 15.7201 19.8019 15.7201 19.0284 16.4936L17.8691 17.6966C15.5503 16.6665 14.3473 14.5607 13.9177 13.7017L15.0771 12.5423C15.8506 11.7688 15.8506 10.5238 15.0771 9.75033L12.9295 7.60268C12.5436 7.21677 12.0704 7.04395 11.5553 7.04395C11.0402 7.04395 10.5251 7.25871 10.1812 7.60268L9.32209 8.46174C8.63416 9.1916 8.16271 10.0943 8.11907 11.0826C7.98987 12.757 8.20464 16.066 11.1258 19.2436L11.7264 19.8879C14.6895 22.9802 17.8253 23.5826 19.802 23.5826C20.0604 23.5826 20.3171 23.5826 20.5319 23.539C21.5201 23.4534 22.4648 23.0239 23.1946 22.3359L24.0537 21.4769C24.4396 21.091 24.6124 20.6178 24.6124 20.1027C24.6124 19.5876 24.3977 19.0725 24.0537 18.7286L21.8204 16.4936ZM22.765 20.2302L21.906 21.0892C21.4764 21.5188 20.9177 21.7772 20.359 21.8191C18.812 21.9483 15.7634 21.6899 12.9277 18.6832L12.327 18.0825C9.87902 15.3761 9.66426 12.6279 9.79346 11.2539C9.83708 10.6951 10.0938 10.1364 10.5233 9.70686L11.3824 8.8478C11.426 8.80418 11.5116 8.76223 11.5535 8.76223C11.5971 8.76223 11.6827 8.76223 11.7247 8.8478L13.8723 10.9955C13.9579 11.081 13.9579 11.2538 13.8723 11.3394L12.7129 12.4988C12.1978 13.0139 12.0686 13.831 12.369 14.4753C13.0133 15.7639 14.4311 18.0827 17.1793 19.2856C17.8236 19.586 18.5971 19.4148 19.1122 18.9417L20.3152 17.7386C20.4008 17.6531 20.5736 17.6531 20.6591 17.7386L22.8068 19.8863C22.8504 19.9299 22.8924 20.0155 22.8924 20.0574C22.894 20.1011 22.8523 20.1446 22.765 20.2302Z" fill="#E8E8E6"/>
<path d="M16.1512 0.000515727C11.8995 0.000515727 7.94631 1.63307 4.9396 4.63987C-0.214765 9.79423 -1.20311 17.6551 2.49162 23.9249L0 32.086L7.73154 29.294C13.9597 33.2035 22.1646 32.3008 27.3606 27.0608C30.3674 24.0541 32 20.1029 32 15.8492C32 11.5976 30.3674 7.64435 27.3606 4.63764C24.3556 1.63093 20.4027 0 16.1508 0L16.1512 0.000515727ZM26.1597 25.8578C21.391 30.6264 13.9181 31.3562 8.33417 27.6196L7.99021 27.3612L2.6649 29.2941L4.38302 23.6664L4.16826 23.3224C0.646452 17.6947 1.46187 10.522 6.14478 5.84095C8.80753 3.17821 12.373 1.71677 16.1533 1.71677C19.9335 1.71677 23.4991 3.17649 26.1617 5.84095C28.8245 8.50369 30.2859 12.0691 30.2859 15.8494C30.2826 19.6296 28.8225 23.1951 26.1597 25.8578Z" fill="#E8E8E6"/>
</svg>
