<svg width="46" height="32" viewBox="0 0 46 32" fill="none" xmlns="http://www.w3.org/2000/svg">
<path fill-rule="evenodd" clip-rule="evenodd" d="M6.70332 0.592914C3.14211 0.870958 0.450355 3.74877 0.276997 7.29458C0.134167 10.2161 0 13.578 0 15.8987C0 18.246 0.137254 21.6585 0.281903 24.603C0.453867 28.1035 3.08399 30.9621 6.59558 31.2843C10.4828 31.641 16.1073 32 23 32C29.8748 32 35.4879 31.6429 39.3741 31.2871C42.8992 30.9644 45.5346 28.0872 45.7042 24.5731C45.8538 21.4729 46 17.9256 46 15.8987C46 13.8936 45.8569 10.4005 45.709 7.32424C45.5379 3.76472 42.8418 0.869029 39.267 0.590578C35.4407 0.292572 29.9218 0 23 0C16.0603 0 10.5307 0.294095 6.70332 0.592914ZM18.4 9.11391L30.2578 15.8987L18.4 22.6835V9.11391Z" fill="#E8E8E6"/>
</svg>
