<svg width="422" height="274" viewBox="0 0 422 274" fill="none" xmlns="http://www.w3.org/2000/svg">
<path d="M8.90705 157.796L7.38524 135.667L61.4282 27.3191L97.2393 24.8544L45.1809 127.18L87.7201 124.252L86.9567 90.9547L114.303 89.0725L116.586 122.266L134.6 121.026L136.525 149.012L118.511 150.252L120.495 179.106L90.1099 181.197L88.1255 152.343L8.90705 157.796Z" fill="white"/>
<path d="M208.654 176.308C171.541 178.862 148.33 158.444 145.809 121.78L142.751 77.3057C140.229 40.6414 160.426 17.2359 197.539 14.6815L206.655 14.0541C243.768 11.4997 267.196 31.9028 269.717 68.5671L272.776 113.042C275.297 149.706 254.883 173.126 217.77 175.681L208.654 176.308ZM214.162 145.413C234.997 143.978 242.865 134.718 241.433 113.891L238.553 72.0198C237.121 51.1928 228.06 43.0974 207.224 44.5315L200.93 44.9647C180.529 46.3688 172.444 55.6443 173.876 76.4713L176.756 118.342C178.188 139.169 187.466 147.25 207.868 145.846L214.162 145.413Z" fill="white"/>
<path d="M292.174 138.299L290.652 116.171L344.695 7.82295L380.506 5.35821L328.448 107.684L370.987 104.756L370.224 71.4585L397.57 69.5764L399.853 102.769L417.867 101.53L419.792 129.516L401.778 130.756L403.762 159.61L373.377 161.701L371.393 132.847L292.174 138.299Z" fill="white"/>
<path d="M51.7656 230.996H66.8993C72.2619 230.996 76.3976 235.081 76.3976 240.404V243.8C76.3976 249.262 72.2619 253.53 66.9447 253.53L56.9465 253.576V263.627H51.7656V230.996ZM56.9465 235.999V248.528L66.3085 248.482C69.4443 248.482 71.2167 246.646 71.2167 243.387V241.093C71.2167 237.834 69.4443 235.999 66.3085 235.999H56.9465Z" fill="#F9F9F9" fill-opacity="0.65"/>
<path d="M86.9592 264.269C81.6874 264.269 78.4608 261.194 78.4608 256.697C78.4608 252.199 81.6874 249.216 86.9592 249.216H94.4124V248.023C94.4124 245.636 92.6855 243.984 89.9587 243.984H88.868C86.323 243.984 84.6869 245.361 84.3233 247.243H79.2333C80.0968 241.965 83.8234 239.532 89.0498 239.532H89.5497C96.1394 239.532 99.2752 243.112 99.2752 249.17V256.284C99.2752 258.532 99.8205 259.267 101.184 259.267H102.275V263.627H99.7297C97.2301 263.627 95.9122 262.342 95.3668 260.781C94.1398 263.168 91.7765 264.269 89.0498 264.269H86.9592ZM89.1407 260.001C92.0947 260.001 94.4124 258.487 94.4124 255.136V253.117H87.8682C85.1414 253.117 83.5962 254.54 83.5962 256.559C83.5962 258.624 85.1414 260.001 87.8682 260.001H89.1407Z" fill="#F9F9F9" fill-opacity="0.65"/>
<path d="M111.246 273.999C106.974 273.999 103.793 271.153 103.793 267.023V266.197H108.837V266.747C108.837 268.308 110.11 269.593 111.928 269.593H118.654C120.563 269.593 121.79 268.491 121.79 266.839C121.79 265.187 120.563 264.086 118.654 264.086H109.883C105.52 264.086 103.975 259.726 106.792 256.834L108.292 255.274C105.747 253.897 104.475 251.419 104.475 248.069C104.475 242.699 107.656 239.532 114.246 239.532H116.2C118.79 239.532 120.835 240.037 122.38 240.955L125.153 238.293L127.879 241.139L125.107 243.892C125.698 245.04 125.971 246.462 125.971 248.069C125.971 253.438 122.789 256.513 116.2 256.513H114.246C113.655 256.513 113.064 256.467 112.519 256.421L111.11 257.844C110.246 258.67 110.701 259.68 111.791 259.68H119.381C123.789 259.68 126.834 262.571 126.834 266.793C126.834 270.97 123.789 273.999 119.381 273.999H111.246ZM116.245 252.153C119.563 252.153 120.972 250.363 120.972 247.977C120.972 245.636 119.517 243.892 116.245 243.892H114.246C110.928 243.892 109.519 245.636 109.519 247.977C109.519 250.409 110.928 252.153 114.246 252.153H116.245Z" fill="#F9F9F9" fill-opacity="0.65"/>
<path d="M139.745 264.269C133.11 264.269 129.519 260.552 129.519 253.989V249.767C129.519 243.25 133.11 239.532 139.745 239.532H140.699C147.289 239.532 150.879 243.25 150.879 249.767V253.989H134.473V254.264C134.473 257.752 136.336 259.726 139.699 259.726H140.699C143.199 259.726 144.835 258.624 145.517 256.743H150.652C149.743 261.561 146.335 264.269 140.699 264.269H139.745ZM134.473 249.95H145.971V249.491C145.971 245.957 144.108 244.03 140.745 244.03H139.699C136.336 244.03 134.473 245.957 134.473 249.491V249.95Z" fill="#F9F9F9" fill-opacity="0.65"/>
<path d="M166.855 263.627V230.996H172.036L186.079 251.465L188.442 255.687L188.215 248.39V230.996H193.396V263.627H188.215L174.263 243.158L171.809 238.89L172.036 246.141V263.627H166.855Z" fill="#F9F9F9" fill-opacity="0.65"/>
<path d="M208.301 264.269C201.666 264.269 198.076 260.552 198.076 253.989V249.767C198.076 243.25 201.666 239.532 208.301 239.532H209.392C215.982 239.532 219.572 243.25 219.572 249.767V253.989C219.572 260.552 215.982 264.269 209.392 264.269H208.301ZM209.301 259.496C212.664 259.496 214.528 257.523 214.528 254.035V249.767C214.528 246.233 212.664 244.259 209.301 244.259H208.347C204.984 244.259 203.12 246.233 203.12 249.767V254.035C203.12 257.523 204.984 259.496 208.347 259.496H209.301Z" fill="#F9F9F9" fill-opacity="0.65"/>
<path d="M223.35 234.622H228.349V240.129H235.439V244.672H228.349V254.035C228.349 257.89 230.849 258.991 233.848 258.991H235.984V263.627H233.076C227.122 263.627 223.35 260.644 223.35 254.402V234.622Z" fill="#F9F9F9" fill-opacity="0.65"/>
<path d="M251.044 263.627V230.996H272.359V236.044H256.225V245.453H270.768V250.409H256.225V263.627H251.044Z" fill="#F9F9F9" fill-opacity="0.65"/>
<path d="M284.813 264.269C278.178 264.269 274.587 260.552 274.587 253.989V249.767C274.587 243.25 278.178 239.532 284.813 239.532H285.904C292.493 239.532 296.084 243.25 296.084 249.767V253.989C296.084 260.552 292.493 264.269 285.904 264.269H284.813ZM285.813 259.496C289.176 259.496 291.039 257.523 291.039 254.035V249.767C291.039 246.233 289.176 244.259 285.813 244.259H284.858C281.495 244.259 279.632 246.233 279.632 249.767V254.035C279.632 257.523 281.495 259.496 284.858 259.496H285.813Z" fill="#F9F9F9" fill-opacity="0.65"/>
<path d="M310.036 264.269C303.537 264.269 300.084 260.735 300.084 254.218V240.129H305.083V254.127C305.083 257.477 306.855 259.358 309.991 259.358H310.854C313.99 259.358 315.763 257.477 315.763 254.127V240.129H320.762V254.218C320.762 260.735 317.262 264.269 310.809 264.269H310.036Z" fill="#F9F9F9" fill-opacity="0.65"/>
<path d="M325.214 249.583C325.214 243.02 328.668 239.532 335.076 239.532H336.303C342.665 239.532 346.165 243.02 346.165 249.583V263.627H341.166V249.675C341.166 246.279 339.393 244.397 336.121 244.397H335.258C331.985 244.397 330.213 246.279 330.213 249.675V263.627H325.214V249.583Z" fill="#F9F9F9" fill-opacity="0.65"/>
<path d="M360.249 264.269C353.613 264.269 350.023 260.552 350.023 253.989V249.767C350.023 243.25 353.613 239.532 359.43 239.532H360.976C363.657 239.532 365.52 240.45 366.793 241.965L366.656 239.624V230.996H371.656V253.989C371.656 260.552 368.111 264.269 361.43 264.269H360.249ZM361.385 259.496C364.839 259.496 366.656 257.523 366.656 254.035V249.767C366.656 246.233 364.839 244.259 361.385 244.259H360.294C356.931 244.259 355.068 246.233 355.068 249.767V254.035C355.068 257.523 356.931 259.496 360.294 259.496H361.385Z" fill="#F9F9F9" fill-opacity="0.65"/>
</svg>
