<svg width="83" height="20" viewBox="0 0 83 20" fill="none" xmlns="http://www.w3.org/2000/svg">
<path d="M31.152 4.672H36.656C37.456 4.672 38.1013 4.91733 38.592 5.408C39.0933 5.89867 39.344 6.53333 39.344 7.312V7.888C39.344 8.38933 39.2587 8.832 39.088 9.216C38.9173 9.58933 38.6667 9.88267 38.336 10.096C38.752 10.32 39.072 10.6453 39.296 11.072C39.5307 11.4987 39.648 12.0107 39.648 12.608V13.264C39.648 14.0747 39.3867 14.736 38.864 15.248C38.352 15.7493 37.6747 16 36.832 16H31.152V4.672ZM36.72 14.672C37.168 14.672 37.5413 14.528 37.84 14.24C38.1387 13.9413 38.288 13.5573 38.288 13.088V12.496C38.288 12.0267 38.1387 11.648 37.84 11.36C37.5413 11.072 37.168 10.928 36.72 10.928H32.512V14.672H36.72ZM36.416 9.6C36.864 9.6 37.2373 9.46133 37.536 9.184C37.8347 8.896 37.984 8.51733 37.984 8.048V7.552C37.984 7.08267 37.8347 6.70933 37.536 6.432C37.2373 6.144 36.864 6 36.416 6H32.512V9.6H36.416ZM41.687 4.672H43.063V14.656H49.175V16H41.687V4.672ZM54.4355 16.208C53.6782 16.208 53.0008 16.048 52.4035 15.728C51.8168 15.3973 51.3528 14.9333 51.0115 14.336C50.6808 13.7387 50.5155 13.0507 50.5155 12.272V4.672H51.8915V12.224C51.8915 13.056 52.1262 13.7067 52.5955 14.176C53.0648 14.6347 53.6995 14.864 54.4995 14.864H55.5235C56.3235 14.864 56.9528 14.6347 57.4115 14.176C57.8808 13.7067 58.1155 13.056 58.1155 12.224V4.672H59.4915V12.272C59.4915 13.0507 59.3208 13.7387 58.9795 14.336C58.6488 14.9333 58.1848 15.3973 57.5875 15.728C57.0008 16.048 56.3288 16.208 55.5715 16.208H54.4355ZM65.5799 16.208C64.8225 16.208 64.1452 16.048 63.5479 15.728C62.9612 15.3973 62.4972 14.9333 62.1559 14.336C61.8252 13.7387 61.6599 13.0507 61.6599 12.272V4.672H63.0359V12.224C63.0359 13.056 63.2705 13.7067 63.7399 14.176C64.2092 14.6347 64.8439 14.864 65.6439 14.864H66.6679C67.4679 14.864 68.0972 14.6347 68.5559 14.176C69.0252 13.7067 69.2599 13.056 69.2599 12.224V4.672H70.6359V12.272C70.6359 13.0507 70.4652 13.7387 70.1239 14.336C69.7932 14.9333 69.3292 15.3973 68.7319 15.728C68.1452 16.048 67.4732 16.208 66.7159 16.208H65.5799ZM76.7242 16.208C75.9669 16.208 75.2896 16.048 74.6922 15.728C74.1056 15.3973 73.6416 14.9333 73.3002 14.336C72.9696 13.7387 72.8042 13.0507 72.8042 12.272V4.672H74.1802V12.224C74.1802 13.056 74.4149 13.7067 74.8842 14.176C75.3536 14.6347 75.9882 14.864 76.7882 14.864H77.8122C78.6122 14.864 79.2416 14.6347 79.7002 14.176C80.1696 13.7067 80.4043 13.056 80.4043 12.224V4.672H81.7802V12.272C81.7802 13.0507 81.6096 13.7387 81.2682 14.336C80.9376 14.9333 80.4736 15.3973 79.8762 15.728C79.2896 16.048 78.6176 16.208 77.8602 16.208H76.7242Z" fill="#7E7E7E"/>
<rect width="20" height="20" rx="4.33333" fill="#2B2B2B"/>
<mask id="mask0_42_17512" style="mask-type:luminance" maskUnits="userSpaceOnUse" x="0" y="0" width="20" height="20">
<rect width="20" height="20" rx="4.33333" fill="white"/>
</mask>
<g mask="url(#mask0_42_17512)">
</g>
</svg>
