<svg width="370" height="64" viewBox="0 0 370 64" fill="none" xmlns="http://www.w3.org/2000/svg">
<path d="M92.3099 28.1775C90.6289 30.7721 88.2351 32.815 85.1937 34.2485C82.1429 35.6886 78.5436 36.4181 74.4967 36.4181C70.4487 36.4181 66.8498 35.6886 63.799 34.2485C60.7588 32.8153 58.3649 30.7811 56.6828 28.2028C55.0026 25.6273 54.1509 22.577 54.1509 19.1361C54.1509 15.6948 55.0144 12.6449 56.7175 10.0709C58.4221 7.4938 60.8172 5.45874 63.836 4.02291C66.8644 2.58435 70.4515 1.85438 74.4967 1.85438C78.5408 1.85438 82.1397 2.59253 85.1929 4.04897C88.2351 5.50114 90.6293 7.54438 92.3107 10.1215C93.9909 12.6966 94.8426 15.7294 94.8426 19.1361C94.8426 22.5435 93.9909 25.5856 92.3099 28.1775ZM93.2862 5.46302C90.9046 3.7447 88.0746 2.38902 84.8755 1.43452C81.6808 0.481976 78.1883 -0.000900269 74.4967 -0.000900269C70.8036 -0.000900269 67.3115 0.481976 64.1176 1.43452C60.9189 2.38863 58.0893 3.74431 55.7073 5.46302C53.3157 7.18796 51.4285 9.23937 50.0981 11.56C48.763 13.8893 48.0859 16.4384 48.0859 19.1361C48.0859 21.835 48.763 24.384 50.0981 26.7121C51.4281 29.0328 53.3149 31.0842 55.7073 32.8099C58.0921 34.5302 60.9217 35.8855 64.1176 36.8384C67.3108 37.7909 70.8028 38.2734 74.4967 38.2734C78.1891 38.2734 81.6811 37.7909 84.8755 36.8384C88.0722 35.8851 90.9018 34.5298 93.2862 32.8099C95.677 31.0853 97.5641 29.0336 98.895 26.7121C100.231 24.3821 100.908 21.833 100.908 19.1361C100.908 16.4407 100.231 13.8916 98.895 11.56C97.563 9.2382 95.6758 7.18719 93.2862 5.46302Z" fill="#B6A27B"/>
<path d="M126.695 15.8336L119.371 15.8814V1.91539H130.972C137.907 1.91539 141.326 4.23721 141.278 9.01318C141.23 13.6942 133.923 16.0161 126.695 15.8336ZM132.831 17.2811C135.842 17.0133 141.6 16.4655 144.262 14.4152C146.073 13.0207 146.938 11.1424 146.938 8.96261C146.938 6.15477 144.896 -0.153919 130.972 0.0978394H113.992V37.829H119.371V17.7254H126.875C133.364 24.0832 146.732 37.8142 146.732 37.8142C146.732 37.8142 152.236 37.8438 154.327 37.8438C154.327 37.8438 136.436 20.5348 132.831 17.2811Z" fill="#B6A27B"/>
<path d="M178.413 0.258476H160.289V3.89706C160.289 3.89706 178.073 1.88574 178.399 1.87757V37.8281H183.777V1.87835C184.061 1.88652 201.901 4.15816 201.901 4.15816V0.258476C201.901 0.258476 178.676 0.260811 178.413 0.258476Z" fill="#B6A27B"/>
<path d="M251.348 24.8761C251.438 26.852 250.857 28.6248 249.623 30.1459C248.375 31.6848 246.574 32.9074 244.272 33.7782C241.952 34.6569 239.187 35.102 236.054 35.102C231.091 35.102 227.196 33.974 224.479 31.7494C221.779 29.54 220.41 26.4045 220.41 22.4305V0.122684H215.031V22.329C215.031 27.0361 216.868 30.791 220.491 33.4899C224.085 36.169 229.132 37.5273 235.492 37.5273C241.38 37.5273 245.985 36.4534 249.181 34.3358C252.411 32.1957 254.146 29.0132 254.338 24.8777L255.091 0.122684H250.603L251.348 24.8761Z" fill="#B6A27B"/>
<path d="M308.828 29.6282L275.408 0.415577H273.147L271.715 37.9062H276.199L276.173 7.86827L309.959 37.9062H311.793L313.152 0.259552H308.704L308.828 29.6282Z" fill="#B6A27B"/>
<path d="M370.002 4.57529V0.258476H329.781V37.8281H335.088H370.002V33.3631C370.002 33.3631 336.032 34.6475 335.16 34.7214V20.1332C335.884 20.1453 363.626 20.6593 363.626 20.6593V16.6596C363.626 16.6596 335.893 17.2316 335.17 17.244L335.16 3.24336C337.453 3.34414 370.002 4.57529 370.002 4.57529Z" fill="#B6A27B"/>
<path d="M40.2206 4.70896V0.391762H0V37.8828H5.30708L5.37885 19.4015C6.1034 19.4135 33.8449 19.9276 33.8449 19.9276V15.9279C33.8449 15.9279 6.11251 16.4999 5.38823 16.5119L5.37885 3.37665C7.67159 3.47743 40.2206 4.70896 40.2206 4.70896Z" fill="#B6A27B"/>
<path d="M97.5773 51.8536V52.2112C97.3312 52.2416 97.0856 52.2898 96.8458 52.3501C96.2741 52.4957 95.819 52.7564 95.4807 53.1319L92.9847 55.9553L92.4559 56.5553L91.9271 57.1491L91.3984 57.7487L90.3345 58.9483V62.3714C90.3345 62.8142 90.5313 63.1227 90.937 63.2986C91.0786 63.3593 91.2324 63.4076 91.3984 63.45V63.8438H87.1437V63.45C87.3282 63.4138 87.4879 63.3651 87.6417 63.2986C88.0538 63.1227 88.2565 62.8142 88.2565 62.3714V59.0211L87.1437 57.6335L86.0861 56.3129L83.5653 53.1684C83.264 52.7809 82.8338 52.5081 82.268 52.3626C82.0346 52.3019 81.8007 52.2474 81.5547 52.2171V51.8536H84.7703L86.0861 53.5319L87.1437 54.8829L89.6153 58.0335L91.3984 55.9918L91.9271 55.386L92.4559 54.7864L92.9847 54.1801L93.8821 53.1501C94.1467 52.8774 94.2082 52.6657 94.0789 52.5202C93.95 52.3746 93.6976 52.2778 93.3289 52.2171C93.2244 52.1988 93.1073 52.1871 92.9847 52.175V51.8536H97.5773Z" fill="#B6A27B"/>
<path d="M160.112 53.3198V62.3714C160.112 62.8142 160.303 63.1227 160.684 63.2986C160.801 63.3531 160.93 63.4017 161.071 63.4317V63.8438H157.056V63.4317C157.198 63.4017 157.327 63.3531 157.45 63.2986C157.844 63.1227 158.04 62.8142 158.04 62.3714V57.5549H148.738V62.3714C148.738 62.8142 148.928 63.1227 149.309 63.2986C149.432 63.3531 149.562 63.4017 149.703 63.4317V63.8438H145.676V63.4317C145.817 63.4017 145.953 63.3531 146.076 63.2986C146.469 63.1227 146.666 62.8142 146.666 62.3714V53.3198C146.666 52.8836 146.469 52.5746 146.076 52.3988C145.953 52.3443 145.817 52.2957 145.676 52.2595V51.8536H149.703V52.2595C149.562 52.2957 149.432 52.3443 149.309 52.3988C148.928 52.5746 148.738 52.8836 148.738 53.3198V56.767H158.04V53.3198C158.04 52.8836 157.844 52.5746 157.45 52.3988C157.327 52.3443 157.198 52.2957 157.056 52.2657V51.8536H161.071V52.2657C160.93 52.2957 160.801 52.3443 160.684 52.3988C160.303 52.5746 160.112 52.8836 160.112 53.3198Z" fill="#B6A27B"/>
<path d="M183.493 53.3894H182.768C182.725 53.3291 182.67 53.2688 182.614 53.2139C182.282 52.8866 181.76 52.7232 181.034 52.7232H176.374V62.4534C176.374 62.8958 176.57 63.2048 176.976 63.3806C177.136 63.4534 177.314 63.5079 177.511 63.5441V63.9258H173.22V63.532C173.392 63.4958 173.552 63.4413 173.693 63.3806C174.099 63.2048 174.296 62.8958 174.296 62.4534V52.7232H169.635C168.934 52.7232 168.412 52.8866 168.067 53.2018C168.006 53.2625 167.944 53.3228 167.901 53.3894H167.176L167.348 52.4446L167.465 51.766C167.686 51.8263 167.975 51.8691 168.326 51.8932C168.676 51.9236 169.125 51.9356 169.666 51.9356H181.034C181.575 51.9356 182.018 51.9236 182.362 51.8932C182.7 51.8691 182.989 51.8263 183.235 51.766L183.321 52.4446L183.493 53.3894Z" fill="#B6A27B"/>
<path d="M203.054 60.5342C203.054 61.8128 202.439 62.7093 201.215 63.2245C199.992 63.7393 198.381 64 196.37 64C194.686 64 193.272 63.8121 192.116 63.4486C190.96 63.0852 190.087 62.6307 189.484 62.0793V59.0501H189.952C190.081 59.7649 190.351 60.4132 190.763 60.9828C191.292 61.728 192.048 62.2976 193.032 62.7093C194.015 63.1155 195.159 63.3214 196.463 63.3214C197.889 63.3214 198.99 63.0973 199.77 62.649C200.558 62.2066 200.945 61.6311 200.945 60.928C200.945 60.3525 200.699 59.8676 200.207 59.468C199.715 59.0742 198.94 58.7653 197.877 58.5407L193.573 57.5777C192.374 57.317 191.476 56.9656 190.88 56.5356C190.29 56.0994 189.995 55.5057 189.995 54.7543C189.995 54.215 190.222 53.7181 190.689 53.2578C191.15 52.7974 191.87 52.4215 192.854 52.1309C193.837 51.834 195.036 51.6885 196.463 51.6885C197.625 51.6885 198.707 51.7916 199.697 52.0099C200.693 52.2215 201.547 52.5309 202.273 52.9488L202.463 55.5422H201.929C201.597 54.5663 201.049 53.8154 200.299 53.2881C199.389 52.6457 198.11 52.3247 196.463 52.3247C195.036 52.3247 193.948 52.5309 193.198 52.9367C192.448 53.3488 192.073 53.876 192.073 54.5301C192.073 54.9177 192.251 55.2632 192.614 55.5664C192.971 55.8629 193.555 56.1053 194.36 56.2812L198.627 57.2563C200.133 57.5956 201.246 58.0139 201.972 58.5108C202.691 59.0073 203.054 59.6801 203.054 60.5342Z" fill="#B6A27B"/>
<path d="M234.899 62.3834C234.198 62.8321 233.024 63.05 231.382 63.05H227.226V57.6701H230.023C232.132 57.6701 233.645 57.888 234.567 58.3246C235.489 58.7666 235.95 59.4635 235.95 60.4145C235.95 61.2811 235.6 61.9355 234.899 62.3834ZM227.226 52.6412H230.626C231.751 52.6412 232.624 52.7202 233.245 52.8774C233.866 53.035 234.296 53.2591 234.524 53.556C234.757 53.8533 234.868 54.2346 234.868 54.7136C234.868 55.4039 234.493 55.9432 233.743 56.3432C232.987 56.737 231.77 56.937 230.085 56.937H227.226V52.6412ZM237.204 58.4518C236.59 57.9911 235.858 57.6822 235.003 57.5187C234.315 57.3853 233.503 57.2942 232.581 57.2335C233.915 57.1063 234.96 56.8825 235.729 56.5673C236.62 56.1977 237.069 55.5553 237.069 54.6408C237.069 53.7498 236.583 53.0595 235.624 52.5746C234.659 52.096 233.233 51.8536 231.351 51.8536H224.164V52.2595C224.305 52.2957 224.44 52.3443 224.563 52.3988C224.957 52.5746 225.154 52.8836 225.154 53.3198V62.3714C225.154 62.8142 224.957 63.1227 224.563 63.2986C224.44 63.3531 224.305 63.4017 224.164 63.4317V63.8438H231.861C233.227 63.8438 234.376 63.6924 235.305 63.4017C236.239 63.1044 236.94 62.6986 237.413 62.1838C237.881 61.669 238.12 61.0931 238.12 60.4569C238.12 59.5783 237.813 58.9059 237.204 58.4518Z" fill="#B6A27B"/>
<path d="M248.366 59.3421L249.017 57.9608L251.495 52.7202L253.887 57.8214L254.6 59.3421H248.366ZM259.199 63.3044C258.707 63.1352 258.356 62.8441 258.16 62.432L254.944 55.616L253.887 53.3805L253.167 51.8536H248.875V52.1322C249.188 52.1322 250.209 52.3171 249.767 53.2653L249.017 54.8529L247.96 57.0884L245.433 62.432C245.23 62.8441 244.879 63.1352 244.381 63.3044C244.191 63.3714 243.994 63.42 243.785 63.4558V63.8438H247.96V63.4986C247.659 63.4558 247.406 63.3955 247.21 63.3165C246.804 63.1531 246.705 62.8562 246.908 62.432L247.96 60.2028L247.991 60.1359H254.975L256.051 62.432C256.254 62.8562 256.149 63.1531 255.737 63.3165C255.528 63.4017 255.264 63.462 254.944 63.4986V63.8438H259.801V63.4558C259.592 63.4258 259.389 63.3714 259.199 63.3044Z" fill="#B6A27B"/>
<path d="M107.167 59.3421L107.818 57.9608L110.296 52.7202L112.688 57.8214L113.401 59.3421H107.167ZM118 63.3044C117.508 63.1352 117.157 62.8441 116.961 62.432L113.745 55.616L112.688 53.3805L111.968 51.8536H107.676V52.1322C107.99 52.1322 109.01 52.3171 108.568 53.2653L107.818 54.8529L106.761 57.0884L104.234 62.432C104.031 62.8441 103.681 63.1352 103.183 63.3044C102.992 63.3714 102.795 63.42 102.586 63.4558V63.8438H106.761V63.4986C106.46 63.4558 106.207 63.3955 106.011 63.3165C105.605 63.1531 105.507 62.8562 105.709 62.432L106.761 60.2028L106.792 60.1359H113.776L114.852 62.432C115.055 62.8562 114.95 63.1531 114.538 63.3165C114.329 63.4017 114.065 63.462 113.745 63.4986V63.8438H118.602V63.4558C118.393 63.4258 118.191 63.3714 118 63.3044Z" fill="#B6A27B"/>
<path d="M278.529 62.1476L278.019 63.3165L277.81 63.8438H266.688V63.4317C266.829 63.4017 266.964 63.3531 267.087 63.2986C267.474 63.1227 267.671 62.8142 267.671 62.3714V53.3198C267.671 52.8836 267.474 52.5746 267.087 52.3988C266.964 52.3443 266.829 52.2957 266.688 52.2657V51.8536H270.739V52.2536C270.585 52.2898 270.45 52.3385 270.321 52.3988C269.94 52.5746 269.749 52.8836 269.749 53.3198V63.05H275.793C276.494 63.05 277.053 62.8986 277.465 62.5896C277.644 62.4566 277.797 62.311 277.926 62.1476H278.529Z" fill="#B6A27B"/>
<path d="M287.404 53.3198V62.3714C287.404 62.8142 287.6 63.1227 287.988 63.2986C288.129 63.3593 288.283 63.4138 288.449 63.4437V63.8438H284.219V63.45C284.397 63.4138 284.563 63.3651 284.71 63.2986C285.123 63.1227 285.326 62.8142 285.326 62.3714V53.3198C285.326 52.8836 285.123 52.5746 284.71 52.3988C284.563 52.3322 284.397 52.2836 284.219 52.2474V51.8536H288.449V52.2474C288.283 52.2836 288.129 52.3385 287.988 52.3988C287.6 52.5746 287.404 52.8836 287.404 53.3198Z" fill="#B6A27B"/>
<path d="M137.206 53.0623C136.123 52.1592 134.353 51.7078 131.901 51.7078C130.217 51.7078 128.745 51.9619 127.491 52.4697C126.231 52.9775 125.257 53.6946 124.564 54.6203C123.871 55.5402 123.527 56.6071 123.527 57.8149C123.527 57.9959 123.533 58.1706 123.544 58.3398H125.721C125.704 58.1706 125.698 57.9959 125.698 57.8149C125.698 55.9807 126.276 54.6145 127.445 53.7113C128.608 52.814 130.137 52.3681 132.022 52.3681C133.328 52.3681 134.376 52.5996 135.143 53.0907C135.974 53.6269 136.467 54.3608 136.724 55.0378H138.609C138.357 54.2872 137.893 53.6323 137.206 53.0623Z" fill="#B6A27B"/>
<path d="M138.609 60.5172H136.724C136.467 61.1947 135.974 61.9285 135.143 62.4647C134.376 62.9558 133.328 63.1873 132.022 63.1873C130.137 63.1873 128.608 62.7414 127.445 61.8437C126.276 60.9406 125.698 59.5748 125.698 57.7401C125.698 57.5596 125.704 57.3845 125.721 57.2152H123.544C123.533 57.3845 123.527 57.5596 123.527 57.7401C123.527 58.9479 123.871 60.0149 124.564 60.9348C125.257 61.8608 126.231 62.5776 127.491 63.0854C128.745 63.5936 130.217 63.8477 131.901 63.8477C134.353 63.8477 136.123 63.3959 137.206 62.4928C137.893 61.9227 138.357 61.2678 138.609 60.5172Z" fill="#B6A27B"/>
</svg>
