<svg width="188" height="40" viewBox="0 0 188 40" fill="none" xmlns="http://www.w3.org/2000/svg">
<path d="M11.4879 8.62848C7.95047 5.99297 1.59747 3.85607 0.767252 8.62848C0.297996 11.2996 -0.0629717 16.7487 0.00922151 22.3046C0.153608 35.9096 0.370187 37.5122 1.63357 38.4738C1.95844 38.7231 2.3194 38.9012 2.71646 39.0437C9.14166 41.145 15.3503 31.2084 17.2634 27.0414C20.0789 20.9513 17.5161 13.116 11.4879 8.62848Z" fill="#F9F9F9"/>
<path d="M39.8976 4.88816C34.8441 -0.097938 28.9243 0.115748 20.5138 0.00890266C14.991 0.00890266 7.48292 -0.0267101 3.69278 0.0445198C0.263607 0.00890483 0.480187 0.614359 3.15133 1.64719C3.5484 1.78965 3.94545 1.96773 4.30642 2.1458C7.12195 3.49917 10.2263 5.31554 12.8252 7.34559C16.868 10.3729 20.5499 14.7891 24.5566 16.9973C28.3467 19.1342 33.689 20.2026 37.6597 18.7424C43.6878 16.8192 44.0849 8.84142 39.8976 4.88816Z" fill="#F9F9F9"/>
<path d="M30.2236 22.2671C24.412 24.1547 18.7088 28.0367 15.8571 33.2009C11.6338 41.4992 26.5417 40.2171 31.7396 39.3979C38.0926 38.4007 43.3627 35.4803 44.9149 29.7819C46.828 21.2343 37.9483 19.4535 30.2236 22.2671Z" fill="#F9F9F9"/>
<path d="M84.183 18.4949C89.3088 14.4704 87.1791 4.64062 77.9744 4.64062H55.4141V32.2422C55.4141 33.6312 56.5331 34.7709 57.9047 34.7709H79.2378C90.536 34.8065 92.8823 21.7714 84.183 18.4949ZM60.6842 9.76918H77.9383C82.4865 9.76918 82.1255 16.999 77.9744 16.999H60.6842V9.76918ZM79.2378 29.678H60.6842V21.5221H79.0212C85.5547 21.5577 85.1576 29.678 79.2378 29.678Z" fill="#F9F9F9"/>
<path d="M91.875 7.20491V34.9134H94.6544C96.0261 34.9134 97.1451 33.7737 97.1451 32.3847V4.64062H94.3657C92.994 4.67624 91.875 5.78031 91.875 7.20491Z" fill="#F9F9F9"/>
<path d="M127.865 28.4672V10.7309L124.905 10.7665C123.606 10.7665 122.559 11.7994 122.559 13.0815V26.6508C122.559 26.9714 122.451 27.2563 122.27 27.5056C121.079 29.1439 118.913 30.3904 115.448 30.3904C110.503 30.3904 105.919 28.7521 105.919 23.9797V10.6953H102.995C101.695 10.6953 100.648 11.7281 100.648 13.0103V23.9797C100.648 32.4561 107.543 35.3409 115.159 35.3409C121.223 35.3409 124.905 32.278 125.808 31.4588C126.818 30.5685 127.901 29.7137 127.865 28.4672Z" fill="#F9F9F9"/>
<path d="M182.767 10.7309V24.0153C182.767 28.7877 178.147 30.426 173.238 30.426C169.772 30.426 167.643 29.1795 166.415 27.5412C166.235 27.2919 166.127 27.007 166.127 26.6864V13.1171C166.127 11.835 165.08 10.8022 163.78 10.8022L160.82 10.6953V28.4316C160.82 29.6781 161.867 30.5685 162.842 31.4588C163.744 32.278 167.426 35.3409 173.49 35.3409C181.107 35.3409 188.001 32.4561 188.001 23.9797V13.0103C188.001 11.7281 186.954 10.6953 185.655 10.6953L182.767 10.7309Z" fill="#F9F9F9"/>
<path d="M158.043 28.4672V10.6953L155.083 10.7309C153.783 10.7309 152.737 11.7638 152.737 13.0459V26.544C152.737 26.9001 152.628 27.2207 152.376 27.5056C151.329 28.7165 149.199 30.3904 144.29 30.3904C140.139 30.3904 137.432 28.7877 136.277 27.5412C136.024 27.2919 135.916 26.9357 135.916 26.5796V13.0459C135.916 11.7638 134.869 10.7309 133.569 10.7309L130.609 10.6953V28.4316C130.609 29.3576 131.512 30.7109 132.559 31.4232C135.555 33.4889 138.262 34.9135 142.196 35.1984C143.604 35.3409 144.218 35.3053 145.77 35.234C145.77 35.234 152.267 34.9847 155.985 31.4232C157.032 30.5685 158.043 29.3576 158.043 28.4672Z" fill="#F9F9F9"/>
</svg>
