<svg width="27" height="24" viewBox="0 0 27 24" fill="none" xmlns="http://www.w3.org/2000/svg">
<g clip-path="url(#clip0_991_23091)">
<path d="M6.72166 5.17667C4.65187 3.59539 0.934692 2.31327 0.448924 5.17667C0.17436 6.77932 -0.0368451 10.0487 0.00539555 13.3822C0.0898769 21.5451 0.216599 22.5067 0.955811 23.0836C1.14589 23.2332 1.3571 23.34 1.58942 23.4255C5.34884 24.6863 8.98154 18.7244 10.1009 16.2243C11.7483 12.5702 10.2488 7.86912 6.72166 5.17667Z" fill="#2E53D9"/>
<path d="M23.3456 2.93285C20.3888 -0.0587621 16.925 0.0694475 12.004 0.0053415C8.77258 0.0053415 4.37955 -0.0160258 2.16192 0.0267115C0.155485 0.0053428 0.282207 0.36861 1.84511 0.988302C2.07744 1.07378 2.30976 1.18062 2.52096 1.28746C4.16835 2.09947 5.9847 3.18927 7.50536 4.40729C9.87084 6.22363 12.0251 8.87334 14.3695 10.1982C16.5871 11.4803 19.7129 12.1214 22.0362 11.2453C25.5633 10.0914 25.7956 5.30477 23.3456 2.93285Z" fill="#2E53D9"/>
<path d="M17.6849 13.3606C14.2845 14.4932 10.9475 16.8224 9.27899 19.9208C6.80791 24.8997 15.5306 24.1304 18.5719 23.639C22.2891 23.0406 25.3727 21.2884 26.2809 17.8694C27.4002 12.7409 22.2046 11.6725 17.6849 13.3606Z" fill="#2E53D9"/>
</g>
<defs>
<clipPath id="clip0_991_23091">
<rect width="27" height="24" fill="white"/>
</clipPath>
</defs>
</svg>
