<svg width="140" height="30" viewBox="0 0 140 30" fill="none" xmlns="http://www.w3.org/2000/svg">
<g clip-path="url(#clip0_985_23158)">
<path d="M8.55478 6.47086C5.92052 4.49424 1.1896 2.89157 0.571354 6.47086C0.221911 8.47419 -0.0468934 12.561 0.00686701 16.7279C0.114388 26.9315 0.275669 28.1335 1.21648 28.8547C1.4584 29.0417 1.7272 29.1753 2.02288 29.2821C6.80757 30.8581 11.431 23.4057 12.8556 20.2805C14.9523 15.7129 13.0438 9.83645 8.55478 6.47086Z" fill="#2E53D9"/>
<path d="M29.711 3.6661C25.9477 -0.0734532 21.5394 0.0868102 15.2763 0.00667695C11.1636 0.00667695 5.57252 -0.0200325 2.7501 0.0333897C0.196474 0.00667858 0.357756 0.460767 2.34689 1.23539C2.64258 1.34223 2.93825 1.47579 3.20706 1.60934C5.30371 2.62436 7.61542 3.98663 9.55079 5.50916C12.5614 7.7796 15.3032 11.0918 18.2869 12.7479C21.1093 14.3505 25.0876 15.1519 28.0444 14.0567C32.5334 12.6143 32.8291 6.63103 29.711 3.6661Z" fill="#2E53D9"/>
<path d="M22.5062 16.7003C18.1785 18.116 13.9314 21.0275 11.8078 24.9006C8.66289 31.1243 19.7644 30.1627 23.6352 29.5483C28.3661 28.8004 32.2906 26.6101 33.4464 22.3363C34.8711 15.9257 28.2586 14.5901 22.5062 16.7003Z" fill="#2E53D9"/>
<path d="M62.6931 13.8691C66.5101 10.8507 64.9241 3.47852 58.0697 3.47852H41.2695V24.1796C41.2695 25.2213 42.1028 26.0761 43.1243 26.0761H59.0105C67.424 26.1028 69.1712 16.3265 62.6931 13.8691ZM45.194 7.32492H58.0428C61.4297 7.32492 61.1609 12.7472 58.0697 12.7472H45.194V7.32492ZM59.0105 22.2564H45.194V16.1395H58.8492C63.7145 16.1663 63.4188 22.2564 59.0105 22.2564Z" fill="#2E53D9"/>
<path d="M68.418 5.40172V26.1829H70.4878C71.5092 26.1829 72.3425 25.3282 72.3425 24.2864V3.47852H70.2727C69.2513 3.50523 68.418 4.33328 68.418 5.40172Z" fill="#2E53D9"/>
<path d="M95.2169 21.3484V8.04624L93.0127 8.07296C92.0451 8.07296 91.2655 8.84758 91.2655 9.80918V19.9861C91.2655 20.2265 91.1849 20.4402 91.0505 20.6272C90.1634 21.8559 88.5506 22.7908 85.9701 22.7908C82.2875 22.7908 78.8737 21.562 78.8737 17.9828V8.01953H76.6964C75.7287 8.01953 74.9492 8.79415 74.9492 9.75575V17.9828C74.9492 24.34 80.0833 26.5036 85.7551 26.5036C90.271 26.5036 93.0127 24.2064 93.6847 23.5921C94.4374 22.9243 95.2438 22.2832 95.2169 21.3484Z" fill="#2E53D9"/>
<path d="M136.101 8.04624V18.0095C136.101 21.5888 132.66 22.8175 129.005 22.8175C126.424 22.8175 124.838 21.8826 123.924 20.6539C123.79 20.4669 123.709 20.2532 123.709 20.0128V9.83588C123.709 8.87428 122.93 8.09966 121.962 8.09966L119.758 8.01953V21.3216C119.758 22.2565 120.537 22.9243 121.263 23.5921C121.935 24.2064 124.677 26.5036 129.193 26.5036C134.864 26.5036 139.999 24.34 139.999 17.9828V9.75575C139.999 8.79415 139.219 8.01953 138.251 8.01953L136.101 8.04624Z" fill="#2E53D9"/>
<path d="M117.691 21.3484V8.01953L115.487 8.04624C114.519 8.04624 113.739 8.82087 113.739 9.78246V19.906C113.739 20.1731 113.659 20.4135 113.471 20.6272C112.691 21.5353 111.105 22.7908 107.449 22.7908C104.358 22.7908 102.342 21.5888 101.482 20.6539C101.294 20.4669 101.213 20.1998 101.213 19.9327V9.78246C101.213 8.82087 100.434 8.04624 99.4659 8.04624L97.2617 8.01953V21.3216C97.2617 22.0161 97.9337 23.0312 98.7133 23.5654C100.944 25.1146 102.96 26.1831 105.89 26.3967C106.939 26.5036 107.396 26.4769 108.551 26.4235C108.551 26.4235 113.39 26.2365 116.159 23.5654C116.938 22.9243 117.691 22.0161 117.691 21.3484Z" fill="#2E53D9"/>
</g>
<defs>
<clipPath id="clip0_985_23158">
<rect width="140" height="30" fill="white"/>
</clipPath>
</defs>
</svg>
