<svg width="140" height="30" viewBox="0 0 140 30" fill="none" xmlns="http://www.w3.org/2000/svg">
<path d="M8.55475 6.47086C5.9205 4.49424 1.1896 2.89157 0.571352 6.47086C0.22191 8.47419 -0.0468933 12.561 0.00686701 16.7279C0.114388 26.9315 0.275669 28.1335 1.21647 28.8547C1.4584 29.0417 1.7272 29.1753 2.02288 29.2821C6.80755 30.8581 11.4309 23.4057 12.8556 20.2805C14.9522 15.7129 13.0437 9.83645 8.55475 6.47086Z" fill="#1E1E1E"/>
<path d="M29.7109 3.6661C25.9477 -0.0734531 21.5393 0.0868102 15.2762 0.00667696C11.1636 0.00667696 5.57251 -0.0200325 2.75009 0.0333897C0.196476 0.00667859 0.357757 0.460767 2.34689 1.23539C2.64257 1.34223 2.93825 1.47579 3.20705 1.60934C5.3037 2.62436 7.6154 3.98663 9.55077 5.50916C12.5613 7.7796 15.3031 11.0918 18.2868 12.7479C21.1092 14.3505 25.0875 15.1519 28.0443 14.0567C32.5333 12.6143 32.829 6.63103 29.7109 3.6661Z" fill="#1E1E1E"/>
<path d="M22.5062 16.7013C18.1784 18.117 13.9314 21.0285 11.8078 24.9016C8.66286 31.1253 19.7644 30.1637 23.6351 29.5493C28.366 28.8014 32.2905 26.6111 33.4464 22.3373C34.871 15.9267 28.2585 14.5911 22.5062 16.7013Z" fill="#1E1E1E"/>
<path d="M62.6891 13.8701C66.5061 10.8518 64.9202 3.47949 58.0657 3.47949H41.2656V24.1806C41.2656 25.2223 42.0989 26.0771 43.1204 26.0771H59.0065C67.42 26.1038 69.1672 16.3275 62.6891 13.8701ZM45.1901 7.32589H58.0389C61.4258 7.32589 61.1569 12.7482 58.0657 12.7482H45.1901V7.32589ZM59.0065 22.2574H45.1901V16.1405H58.8453C63.7106 16.1673 63.4149 22.2574 59.0065 22.2574Z" fill="#1E1E1E"/>
<path d="M68.4182 5.40269V26.1839H70.488C71.5094 26.1839 72.3427 25.3292 72.3427 24.2874V3.47949H70.273C69.2515 3.5062 68.4182 4.33425 68.4182 5.40269Z" fill="#1E1E1E"/>
<path d="M95.2169 21.3493V8.04722L93.0127 8.07393C92.045 8.07393 91.2655 8.84855 91.2655 9.81015V19.9871C91.2655 20.2275 91.1848 20.4412 91.0504 20.6281C90.1634 21.8569 88.5506 22.7917 85.9701 22.7917C82.2875 22.7917 78.8737 21.563 78.8737 17.9837V8.02051H76.6964C75.7287 8.02051 74.9492 8.79513 74.9492 9.75673V17.9837C74.9492 24.341 80.0833 26.5046 85.755 26.5046C90.2709 26.5046 93.0127 24.2074 93.6847 23.5931C94.4373 22.9253 95.2437 22.2842 95.2169 21.3493Z" fill="#1E1E1E"/>
<path d="M136.101 8.04722V18.0105C136.101 21.5897 132.66 22.8184 129.005 22.8184C126.424 22.8184 124.838 21.8836 123.924 20.6548C123.79 20.4679 123.709 20.2542 123.709 20.0138V9.83686C123.709 8.87526 122.93 8.10064 121.962 8.10064L119.758 8.02051V21.3226C119.758 22.2575 120.537 22.9253 121.263 23.5931C121.935 24.2074 124.677 26.5046 129.193 26.5046C134.864 26.5046 139.999 24.341 139.999 17.9837V9.75673C139.999 8.79513 139.219 8.02051 138.251 8.02051L136.101 8.04722Z" fill="#1E1E1E"/>
<path d="M117.691 21.3493V8.02051L115.486 8.04722C114.519 8.04722 113.739 8.82184 113.739 9.78344V19.9069C113.739 20.1741 113.659 20.4145 113.47 20.6281C112.691 21.5363 111.105 22.7917 107.449 22.7917C104.358 22.7917 102.342 21.5897 101.482 20.6548C101.294 20.4679 101.213 20.2008 101.213 19.9337V9.78344C101.213 8.82184 100.434 8.04722 99.4659 8.04722L97.2617 8.02051V21.3226C97.2617 22.0171 97.9337 23.0321 98.7133 23.5664C100.944 25.1156 102.96 26.184 105.89 26.3977C106.939 26.5046 107.396 26.4779 108.551 26.4244C108.551 26.4244 113.39 26.2375 116.158 23.5664C116.938 22.9253 117.691 22.0171 117.691 21.3493Z" fill="#1E1E1E"/>
</svg>
