<svg width="24" height="24" viewBox="0 0 24 24" fill="none" xmlns="http://www.w3.org/2000/svg">
<path fill-rule="evenodd" clip-rule="evenodd" d="M12 0C18.6262 0 24 5.37387 24 12.0001C24 18.6263 18.6262 24 12 24C5.37363 24.0002 0 18.6263 0 12.0001C0 5.37387 5.37363 0 12 0ZM15.5117 19.1828H8.48828V18.0005H9.80801V10.7817H8.48828V9.8411H11.7711C12.6002 9.8411 13.416 9.74149 14.2221 9.53816V18.0007H15.5119L15.5117 19.1828ZM12.4725 4.11683C13.0164 4.11683 13.4441 4.27406 13.7559 4.5848C14.0643 4.89535 14.2201 5.32133 14.2201 5.87017C14.2201 6.42642 13.9549 6.92115 13.4207 7.35475C12.8834 7.78834 12.2604 8.00671 11.5502 8.00671C11.0164 8.00671 10.5922 7.85729 10.2672 7.55807C9.94199 7.25514 9.77949 6.86353 9.77949 6.37642C9.77949 5.76255 10.0447 5.23325 10.5723 4.78422C11.0996 4.33968 11.7328 4.11683 12.4725 4.11683Z" fill="#1E1E1E"/>
</svg>
