<svg width="96" height="13" viewBox="0 0 96 13" fill="none" xmlns="http://www.w3.org/2000/svg">
<g clip-path="url(#clip0_992_23104)">
<path d="M41.9902 1.39062H48.2371V11.61H41.9902V1.39062Z" fill="#F26122"/>
<path d="M45.0869 11.6101C43.955 12.5092 42.5448 12.9997 41.0906 13C40.2318 12.9925 39.3828 12.8184 38.5923 12.4876C37.8018 12.1568 37.0852 11.6759 36.4835 11.0722C35.8818 10.4686 35.4068 9.75408 35.0856 8.96955C34.7644 8.18503 34.6034 7.34586 34.6116 6.5C34.6035 5.65418 34.7647 4.81508 35.0859 4.03062C35.4071 3.24615 35.8822 2.53171 36.4838 1.92809C37.0855 1.32448 37.802 0.843515 38.5925 0.512687C39.3829 0.18186 40.2318 0.00764654 41.0906 0C42.5448 0 43.955 0.49075 45.0869 1.38992C44.316 2.00765 43.6945 2.78681 43.2677 3.67075C42.8408 4.55469 42.6194 5.52119 42.6194 6.5C42.6194 7.47881 42.8408 8.44531 43.2677 9.32925C43.6945 10.2132 44.316 10.9924 45.0869 11.6101Z" fill="#EA1D25"/>
<path d="M55.5819 6.5C55.59 7.34582 55.4288 8.18492 55.1076 8.96938C54.7864 9.75385 54.3113 10.4683 53.7097 11.0719C53.108 11.6755 52.3915 12.1565 51.601 12.4873C50.8106 12.8181 49.9617 12.9924 49.1029 13C47.6483 12.9998 46.2377 12.5093 45.1055 11.6101C45.8762 10.9922 46.4975 10.213 46.9243 9.32912C47.351 8.44519 47.5724 7.47874 47.5724 6.5C47.5724 5.52126 47.351 4.55481 46.9243 3.67088C46.4975 2.78696 45.8762 2.00776 45.1055 1.38992C46.2374 0.49082 47.6476 0.000333515 49.1018 0C49.9607 0.00736297 50.8098 0.181375 51.6005 0.51209C52.3911 0.842805 53.1078 1.32374 53.7096 1.9274C54.3114 2.53106 54.7865 3.24561 55.1078 4.0302C55.429 4.8148 55.5901 5.65405 55.5819 6.5Z" fill="#F69E1E"/>
</g>
<g clip-path="url(#clip1_992_23104)">
<path fill-rule="evenodd" clip-rule="evenodd" d="M20.8388 8.026C20.8448 6.651 19.7058 6.053 18.7948 5.576C18.1838 5.254 17.6758 4.987 17.6838 4.576C17.6908 4.263 17.9888 3.93 18.6388 3.846C19.4005 3.77266 20.1678 3.90636 20.8598 4.233L21.2558 2.387C20.5821 2.13371 19.8685 2.00266 19.1488 2C16.9228 2 15.3568 3.183 15.3418 4.877C15.3278 6.13 16.4608 6.83 17.3138 7.247C18.1918 7.673 18.4858 7.947 18.4828 8.329C18.4828 8.914 17.7818 9.17 17.1348 9.181C16.0358 9.197 15.3848 8.893 14.8678 8.652L14.8218 8.631L14.4148 10.538C14.9408 10.779 15.9128 10.99 16.9188 11C19.2858 11 20.8328 9.831 20.8408 8.022L20.8388 8.026ZM11.5098 2.163L7.86078 10.869H5.47978L3.68378 3.92C3.57378 3.492 3.47978 3.336 3.14778 3.155C2.60778 2.861 1.71378 2.586 0.925781 2.415L0.978781 2.155H4.81178C5.06136 2.15588 5.30243 2.24581 5.49162 2.4086C5.6808 2.57138 5.80568 2.79634 5.84378 3.043L6.79178 8.075L9.13478 2.151L11.5098 2.163ZM28.7998 10.86H26.7178L26.4458 9.566H23.5568L23.0868 10.867H20.7218L24.1008 2.8C24.1778 2.60891 24.3103 2.4453 24.4813 2.33032C24.6522 2.21534 24.8538 2.15427 25.0598 2.155H26.9818L28.7998 10.86ZM24.2058 7.776L25.3918 4.508L26.0678 7.784L24.2058 7.776ZM12.8688 10.861L14.7308 2.155H12.4758L10.6128 10.86H12.8688V10.861Z" fill="#122D98"/>
</g>
<g clip-path="url(#clip2_992_23104)">
<path d="M63.4995 2L59.4375 10.988H64.2995L64.9025 9.555H66.2805L66.8835 10.988H72.2355V9.895L72.7125 10.988H75.4805L75.9575 9.872V10.988H87.0885L88.4425 9.593L89.7095 10.988L95.4265 11L91.3525 6.52L95.4265 2H89.7985L88.4805 3.37L87.2535 2H75.1445L74.1045 4.32L73.0405 2H68.1875V3.057L67.6485 2H63.4995ZM64.4395 3.276H66.8105L69.5045 9.372V3.276H72.1005L74.1815 7.646L76.0995 3.276H78.6825V9.726H77.1105L77.0985 4.672L74.8065 9.726H73.4005L71.0955 4.672V9.726H67.8615L67.2485 8.28H63.9365L63.3245 9.725H61.5915L64.4395 3.276ZM80.1215 3.276H86.5135L88.4685 5.388L90.4865 3.276H92.4415L89.4705 6.518L92.4415 9.722H90.3975L88.4425 7.586L86.4145 9.722H80.1215V3.276ZM65.5925 4.368L64.5015 6.944H66.6825L65.5925 4.368ZM81.6995 4.612V5.789H85.1865V7.101H81.6995V8.387H85.6105L87.4285 6.494L85.6875 4.611L81.6995 4.612Z" fill="#2478BC"/>
</g>
<defs>
<clipPath id="clip0_992_23104">
<rect width="22" height="13" fill="white" transform="translate(34)"/>
</clipPath>
<clipPath id="clip1_992_23104">
<rect width="29" height="9" fill="white" transform="translate(0 2)"/>
</clipPath>
<clipPath id="clip2_992_23104">
<rect width="37" height="9" fill="white" transform="translate(59 2)"/>
</clipPath>
</defs>
</svg>
