<svg width="488" height="40" viewBox="0 0 488 40" fill="none" xmlns="http://www.w3.org/2000/svg">
<path d="M387.481 4.65234L388.213 6.05664L388.242 4.65234V3.27734L397.339 3.33594L406.435 3.42383L408.219 7.31348C409.184 9.41936 410.062 11.1161 410.12 11.0283C410.208 10.9397 411.027 9.21469 411.934 7.13867L413.601 3.42383L435.858 3.33594L458.116 3.27734L460.223 5.61719L462.357 7.95703L467.096 3.27734L477.421 3.33594L487.774 3.42383L480.404 11.584L473.062 19.7734L474.057 20.7979C474.583 21.383 477.918 25.0095 481.398 28.8701L487.774 35.8896L466.774 36.0654L464.522 33.6377L462.27 31.21L459.843 33.6084L457.415 36.0361H416.613L416.584 34.4854V32.9648L415.882 34.4854L415.18 36.0361H404.768L404.124 34.4854L403.48 32.9648V34.4854L403.451 36.0361H383.621L382.598 33.6084L381.545 31.21L379.088 31.1221L376.602 31.0342L375.607 33.4619L374.583 35.8896L365.575 35.9775C357.095 36.036 356.596 36.0067 356.742 35.5391C356.83 35.2466 359.842 28.4897 363.439 20.5342C367.066 12.5788 370.284 5.44236 370.635 4.65234L371.249 3.27734H386.78L387.481 4.65234ZM417.432 8.10352L413.951 15.9707C412.051 20.2684 410.443 23.8652 410.383 23.9268C410.324 23.9853 408.569 20.4751 406.463 16.0879L402.661 8.10352L398.099 8.01562L393.506 7.92773L393.477 19.1299C393.477 27.6698 393.389 30.2148 393.126 29.835C392.95 29.5717 390.699 24.5702 388.096 18.7207L383.416 8.10352L379.263 8.01562C375.519 7.95713 375.08 7.9862 374.846 8.4541C374.348 9.39005 364.843 31.0052 364.843 31.21C364.847 31.2973 366.162 31.3261 367.797 31.2969L370.751 31.21L371.804 28.6357L372.828 26.0908H385.229L386.341 28.7236L387.452 31.3555H399.063L399.122 22.1133L399.21 12.8711L403.422 22.1133L407.633 31.3555H412.459L416.642 22.1133L420.854 12.8711L420.941 22.1133L421 31.3555H426.557V7.92773L417.432 8.10352ZM432.115 31.3555L443.464 31.3262H454.783L458.439 27.4072C460.457 25.2434 462.182 23.5185 462.3 23.5469C462.388 23.5761 464.084 25.3599 466.044 27.4658L469.583 31.3555H476.632L472.741 27.1729C470.606 24.8916 468.15 22.2885 467.302 21.3818L465.751 19.7734L471.162 13.8652L476.603 7.95703H469.904L466.132 11.9053L462.329 15.8838L458.702 11.9053L455.075 7.95703H432.115V31.3555ZM453.964 14.4502C454.929 15.4739 456.392 17.0533 457.27 17.96L458.819 19.6562L455.485 23.1367L452.15 26.6172L444.927 26.6465L437.673 26.6758V21.7041H450.25V17.3164H437.673V12.6367H452.238L453.964 14.4502ZM379.175 11.9639C379.292 12.0809 379.672 12.9293 380.052 13.8066C380.432 14.6841 381.28 16.7606 381.982 18.3984L383.24 21.4111H379.175C376.925 21.4111 375.083 21.2945 375.08 21.1484C375.08 20.5342 378.999 11.7591 379.175 11.9639Z" fill="white" fill-opacity="0.8"/>
<path d="M38.5906 3.85882L25.2836 35.5706H16.6018L10.0534 10.2631C9.65585 8.70437 9.3102 8.13331 8.10109 7.47659C6.12808 6.40691 2.86817 5.40385 0 4.78097L0.194811 3.85882H14.1698C15.9512 3.85882 17.5526 5.04324 17.957 7.09218L21.4155 25.4422L29.9628 3.85882H38.5906ZM72.6079 25.217C72.6428 16.8473 61.0209 16.3862 61.1008 12.6473C61.1256 11.5094 62.2103 10.2996 64.5846 9.99084C65.7614 9.83697 69.0039 9.71959 72.6814 11.41L74.124 4.68527C72.1478 3.9688 69.6053 3.2793 66.4417 3.2793C58.3237 3.2793 52.6106 7.58975 52.5625 13.7619C52.51 18.3272 56.6403 20.8748 59.7519 22.3919C62.9531 23.9453 64.0272 24.9436 64.015 26.3332C63.9923 28.4604 61.4619 29.3995 59.0971 29.4365C54.969 29.4999 52.5736 28.3208 50.6641 27.4341L49.1755 34.3814C51.0945 35.2608 54.6366 36.028 58.3089 36.0666C66.9372 36.0666 72.5814 31.8096 72.6079 25.217ZM94.0445 35.5711H101.641L95.0099 3.85882H87.9986C86.4226 3.85882 85.0926 4.77569 84.504 6.18536L72.1796 35.5706H80.8039L82.5161 30.8334H93.0533L94.0453 35.5706L94.0445 35.5711ZM84.8801 24.3345L89.2031 12.4279L91.6912 24.3345H84.8809H84.8801ZM50.3259 3.85882L43.5344 35.5706H35.3217L42.1157 3.85882H50.3259Z" fill="white" fill-opacity="0.8"/>
<path d="M210.481 22.8564C213.477 22.8539 216.373 21.7808 218.647 19.8308C220.921 17.8808 222.424 15.1821 222.883 12.2218C223.852 6.051 219.031 0.664134 212.199 0.664134H201.188C200.982 0.66147 200.781 0.733571 200.624 0.867139C200.466 1.00071 200.362 1.18673 200.331 1.39091L195.424 32.5393C195.406 32.6531 195.413 32.7694 195.444 32.8802C195.476 32.991 195.531 33.0937 195.606 33.1812C195.68 33.2688 195.773 33.3391 195.878 33.3874C195.982 33.4358 196.096 33.4609 196.211 33.4611H202.038C202.244 33.4632 202.444 33.3908 202.601 33.2573C202.758 33.1238 202.862 32.9381 202.893 32.7344L204.336 23.5844C204.367 23.3802 204.471 23.194 204.628 23.0603C204.785 22.9265 204.986 22.8541 205.192 22.8564H210.481ZM215.357 11.941C214.997 14.222 213.234 15.9029 209.86 15.9029H205.544L206.852 7.60394H211.09C214.581 7.6114 215.715 9.66999 215.357 11.9472V11.941ZM248.128 10.475H242.596C242.389 10.4726 242.189 10.5448 242.032 10.6783C241.874 10.8119 241.77 10.9977 241.739 11.2018L241.56 12.3498C241.56 12.3498 237.265 7.65985 229.664 10.8279C225.304 12.6429 223.211 16.3936 222.322 19.1392C222.322 19.1392 219.493 27.4854 225.887 32.0809C225.887 32.0809 231.815 36.4987 238.491 31.8076L238.376 32.5393C238.358 32.6531 238.365 32.7695 238.396 32.8804C238.427 32.9913 238.482 33.0941 238.557 33.1817C238.632 33.2693 238.725 33.3396 238.83 33.3879C238.934 33.4361 239.048 33.4611 239.163 33.4611H244.693C244.899 33.4638 245.1 33.3917 245.258 33.2581C245.415 33.1246 245.519 32.9385 245.55 32.7344L248.914 11.3969C248.932 11.2831 248.925 11.1668 248.894 11.056C248.862 10.9452 248.807 10.8425 248.733 10.7549C248.658 10.6674 248.565 10.597 248.46 10.5487C248.356 10.5004 248.243 10.4753 248.128 10.475ZM239.994 22.2675C239.778 23.7542 239.03 25.1119 237.888 26.0888C236.747 27.0657 235.29 27.5955 233.788 27.5798C233.199 27.5865 232.614 27.5006 232.052 27.3251C229.667 26.5598 228.306 24.2664 228.698 21.7817C228.914 20.2909 229.666 18.9298 230.812 17.9522C231.958 16.9745 233.42 16.4471 234.927 16.4682C235.516 16.462 236.102 16.5489 236.664 16.7241C239.04 17.4869 240.392 19.7803 240.001 22.2675H239.994Z" fill="white" fill-opacity="0.8"/>
<path d="M290.128 22.8563C293.125 22.8555 296.023 21.7833 298.3 19.8332C300.576 17.8831 302.08 15.1836 302.541 12.2218C303.509 6.05097 298.689 0.664107 291.854 0.664107H280.847C280.641 0.662006 280.441 0.734336 280.284 0.867831C280.126 1.00133 280.023 1.18703 279.991 1.39089L275.069 32.548C275.041 32.7196 275.07 32.8957 275.152 33.0491C275.234 33.2024 275.364 33.3245 275.522 33.3965C275.627 33.4453 275.741 33.4708 275.857 33.4711H281.685C281.891 33.4731 282.091 33.4006 282.248 33.2669C282.406 33.1331 282.509 32.9471 282.541 32.743L283.985 23.5931C284.016 23.3888 284.12 23.2025 284.277 23.0686C284.434 22.9348 284.635 22.8625 284.841 22.865L290.128 22.8563ZM295.004 11.941C294.644 14.222 292.881 15.9029 289.505 15.9029H285.191L286.5 7.60392H290.738C294.226 7.61137 295.363 9.66996 295.004 11.9472V11.941ZM327.774 10.475H322.248C322.041 10.4729 321.841 10.5452 321.684 10.6787C321.527 10.8122 321.423 10.9979 321.392 11.2018L321.21 12.3497C321.21 12.3497 316.917 7.65982 309.316 10.8278C304.956 12.6429 302.863 16.3936 301.972 19.1392C301.972 19.1392 299.145 27.4854 305.538 32.0809C305.538 32.0809 311.466 36.4987 318.143 31.8075L318.027 32.5393C317.999 32.7109 318.028 32.887 318.11 33.0404C318.192 33.1937 318.322 33.3158 318.481 33.3878C318.585 33.4375 318.699 33.4624 318.815 33.4624H324.345C324.551 33.4655 324.752 33.3933 324.91 33.2594C325.067 33.1255 325.17 32.9389 325.201 32.7343L328.566 11.3968C328.583 11.2827 328.575 11.1663 328.543 11.0554C328.511 10.9444 328.457 10.8415 328.382 10.7533C328.308 10.6649 328.214 10.5941 328.109 10.546C328.004 10.4979 327.889 10.4737 327.774 10.475ZM319.641 22.2675C319.427 23.7553 318.679 25.1145 317.538 26.0919C316.396 27.0693 314.937 27.5981 313.434 27.5798C312.845 27.5867 312.259 27.5008 311.696 27.3251C309.31 26.5598 307.948 24.2664 308.339 21.7817C308.555 20.2948 309.304 18.9367 310.445 17.9596C311.587 16.9824 313.044 16.4525 314.546 16.4681C315.136 16.4619 315.723 16.5477 316.284 16.7241C318.686 17.4869 320.041 19.7803 319.647 22.2675H319.641Z" fill="white" fill-opacity="0.8"/>
<path d="M268.427 11.0008L261.76 22.2553L258.377 11.084C258.323 10.9067 258.214 10.7514 258.066 10.6412C257.917 10.5311 257.737 10.472 257.552 10.4728H251.536C251.432 10.4708 251.33 10.494 251.237 10.5404C251.144 10.5868 251.064 10.655 251.004 10.7392C250.943 10.8234 250.904 10.921 250.889 11.0237C250.875 11.1264 250.885 11.2311 250.92 11.3288L256.983 30.1455L251.5 39.0135C251.438 39.1111 251.404 39.2236 251.4 39.3391C251.397 39.4547 251.425 39.569 251.481 39.67C251.537 39.771 251.62 39.855 251.72 39.9131C251.82 39.9711 251.934 40.0011 252.049 39.9999H258.531C258.716 40.0008 258.898 39.9534 259.06 39.8624C259.221 39.7713 259.356 39.6397 259.451 39.4806L276.387 11.4629C276.448 11.3652 276.482 11.2527 276.484 11.1375C276.486 11.0223 276.458 10.9086 276.401 10.8082C276.344 10.7079 276.262 10.6247 276.162 10.5674C276.062 10.5102 275.948 10.4809 275.833 10.4827H269.354C269.168 10.4805 268.984 10.5272 268.822 10.6181C268.659 10.709 268.523 10.841 268.427 11.0008Z" fill="white" fill-opacity="0.8"/>
<path d="M333.995 1.38307L329.073 32.5402C329.045 32.7118 329.074 32.8879 329.156 33.0413C329.238 33.1946 329.368 33.3167 329.526 33.3887C329.631 33.4384 329.745 33.4632 329.861 33.4632H335.686C335.893 33.4658 336.093 33.3935 336.25 33.2597C336.408 33.1258 336.511 32.9395 336.542 32.7352L341.465 1.57812C341.484 1.46431 341.477 1.34786 341.446 1.23692C341.414 1.12597 341.359 1.02321 341.284 0.935826C341.209 0.848388 341.116 0.778155 341.011 0.729916C340.907 0.681677 340.793 0.656565 340.678 0.656295H334.851C334.645 0.654193 334.445 0.726524 334.288 0.860018C334.13 0.993513 334.027 1.17922 333.995 1.38307Z" fill="white" fill-opacity="0.8"/>
<ellipse cx="160.985" cy="19.3445" rx="19.3445" ry="19.3445" fill="white" fill-opacity="0.8"/>
<ellipse cx="136.067" cy="20.0008" rx="19.3445" ry="19.3445" fill="white" fill-opacity="0.5"/>
</svg>
