<svg width="18" height="18" viewBox="0 0 18 18" fill="none" xmlns="http://www.w3.org/2000/svg">
<path d="M14.659 9.97351L1.0493 9.97351C0.468089 9.97351 0 9.54746 0 9.00425C0 8.47524 0.468089 8.03499 1.0493 8.03499L14.6473 8.03499L10.3837 3.58989C10.0015 3.1958 10.0366 2.58868 10.4696 2.24074C10.9025 1.8928 11.5579 1.92475 11.9401 2.31885L17.7366 8.36163C18.0955 8.73442 18.0838 9.28473 17.7249 9.64332L11.9362 15.6754C11.554 16.0695 10.8986 16.1157 10.4657 15.7536C10.0327 15.4056 9.99758 14.7985 10.3798 14.4044L14.6433 9.95931L14.659 9.97351Z" fill="#045CFF"/>
</svg>
