<svg width="17" height="10" viewBox="0 0 17 10" fill="none" xmlns="http://www.w3.org/2000/svg">
<path d="M14.5713 1.125C14.965 0.750632 15.5944 0.760388 15.9775 1.14258C16.3633 1.52757 16.3537 2.14567 15.957 2.52051L9.32324 8.83008L9.32227 8.8291C9.31543 8.83661 9.30714 8.84537 9.29785 8.85449L9.29883 8.85547C8.95 9.20488 8.3988 9.24315 8.00391 8.9668L7.99707 8.97461L7.91992 8.90234C7.91025 8.89392 7.90004 8.88581 7.89062 8.87695L7.77832 8.77148L7.7793 8.76953L1.15234 2.52148C0.756751 2.14668 0.747947 1.52764 1.13379 1.14258C1.51716 0.760177 2.14457 0.752019 2.53906 1.12402L8.58105 6.82129L14.5713 1.125Z" fill="#2B2B2B" stroke="#2B2B2B" stroke-width="0.3"/>
</svg>
