<svg width="10" height="12" viewBox="0 0 10 12" fill="none" xmlns="http://www.w3.org/2000/svg">
<path d="M7.06445 9.98047C7.31246 10.2413 7.30589 10.6583 7.05273 10.9121C6.7978 11.1676 6.389 11.1609 6.14063 10.8984L6.13965 10.8994L1.96484 6.50879C1.95974 6.50415 1.95451 6.49761 1.94824 6.49121L1.94727 6.49219C1.71598 6.26115 1.69213 5.89729 1.875 5.63574L1.86816 5.62988L1.92969 5.56445C1.93104 5.56299 1.93223 5.56103 1.93359 5.55957L2.00391 5.48437L2.00488 5.48437L6.13867 1.10059C6.38699 0.83845 6.79761 0.832245 7.05273 1.08789C7.30616 1.34194 7.31111 1.75819 7.06445 2.01953L3.2959 6.0166L7.06445 9.98047Z" fill="#1E1E1E" stroke="#1E1E1E" stroke-width="0.2"/>
</svg>
