<svg width="72" height="65" viewBox="0 0 72 65" fill="none" xmlns="http://www.w3.org/2000/svg">
<path d="M18.3071 14.0185C12.6698 9.73588 2.54572 6.2635 1.22269 14.0185C0.474885 18.3589 -0.100351 27.2135 0.0146953 36.2417C0.244789 58.3491 0.589928 60.9534 2.60324 62.5159C3.12095 62.9211 3.69619 63.2104 4.32894 63.4419C14.5681 66.8564 24.4621 50.7099 27.5108 43.9387C31.9976 34.0425 27.9135 21.3105 18.3071 14.0185Z" fill="#1E1E1E" fill-opacity="0.05"/>
<path d="M63.5801 7.94306C55.5268 -0.159145 46.093 0.188085 32.6901 0.0144665C23.889 0.0144665 11.9242 -0.0434029 5.88424 0.0723429C0.419527 0.01447 0.764667 0.998309 5.02139 2.67662C5.65415 2.90811 6.28689 3.19747 6.86212 3.48684C11.3489 5.68601 16.2959 8.63753 20.4376 11.9363C26.8802 16.8555 32.7476 24.0317 39.1327 27.6198C45.1726 31.0922 53.6861 32.8284 60.0136 30.4556C69.62 27.3305 70.2528 14.3669 63.5801 7.94306Z" fill="#1E1E1E" fill-opacity="0.05"/>
<path d="M48.1735 36.1879C38.9122 39.2552 29.8235 45.5633 25.2792 53.9549C18.5489 67.4393 42.3061 65.3558 50.5894 64.0247C60.7135 62.4043 69.1119 57.6587 71.5854 48.3991C74.6342 34.5096 60.4834 31.6159 48.1735 36.1879Z" fill="#1E1E1E" fill-opacity="0.05"/>
</svg>
