<svg width="148" height="141" viewBox="0 0 148 141" fill="none" xmlns="http://www.w3.org/2000/svg">
<path d="M56.3071 52.0204C50.6698 47.7378 40.5457 44.2655 39.2227 52.0204C38.4749 56.3609 37.8996 65.2154 38.0147 74.2436C38.2448 96.3511 38.5899 98.9553 40.6032 100.518C41.121 100.923 41.6962 101.212 42.3289 101.444C52.5681 104.858 62.4621 88.7118 65.5108 81.9407C69.9976 72.0444 65.9135 59.3124 56.3071 52.0204Z" fill="#1E1E1E" fill-opacity="0.05"/>
<path d="M101.58 45.9431C93.5268 37.8409 84.093 38.1881 70.6901 38.0145C61.889 38.0145 49.9242 37.9566 43.8842 38.0723C38.4195 38.0145 38.7647 38.9983 43.0214 40.6766C43.6541 40.9081 44.2869 41.1975 44.8621 41.4868C49.3489 43.686 54.2959 46.6375 58.4376 49.9363C64.8802 54.8555 70.7476 62.0317 77.1327 65.6198C83.1726 69.0922 91.6861 70.8284 98.0136 68.4556C107.62 65.3305 108.253 52.3669 101.58 45.9431Z" fill="#1E1E1E" fill-opacity="0.05"/>
<path d="M86.1656 74.1859C76.9044 77.2532 67.8157 83.5613 63.2714 91.9529C56.5411 105.437 80.2983 103.354 88.5816 102.023C98.7057 100.402 107.104 95.6568 109.578 86.3971C112.626 72.5076 98.4756 69.614 86.1656 74.1859Z" fill="#1E1E1E" fill-opacity="0.05"/>
</svg>
