<svg width="76" height="76" viewBox="0 0 76 76" fill="none" xmlns="http://www.w3.org/2000/svg">
<path d="M28.8936 25.5V32.8359H31.4766V28.7236H31.9736V32.8359H42.209L42.25 32.8379C43.012 32.9032 43.7111 33.0585 44.3428 33.3164H44.3438C44.981 33.5752 45.5573 33.9374 46.0723 34.4219V34.4229C46.5135 34.8373 46.9073 35.3409 47.2461 35.9482L47.3877 36.2148C47.7505 36.9341 48.0423 37.7905 48.248 38.7998L48.2588 38.8936V40.5146H59.9863L56.0693 44.7578C55.728 45.127 55.4877 45.3975 55.2607 45.6504L55.252 45.6592L55.2441 45.668C54.5569 46.4348 53.9574 47.113 53.2666 47.7158C52.5774 48.3177 51.8021 48.8479 50.7959 49.3008L50.793 49.3018C50.5826 49.3979 50.366 49.485 50.1396 49.5703C49.9167 49.6543 49.6957 49.7306 49.4658 49.7988L49.4619 49.7998C49.2382 49.8683 49.0061 49.9298 48.7695 49.9844H48.7676C48.5387 50.038 48.3006 50.0848 48.0518 50.1289C44.3957 50.5423 39.269 50.5463 34.0283 50.4443C28.914 50.3448 23.6864 50.1447 19.6973 50.1357L19.6318 49.9766L19.6309 49.9756L15.7012 40.5146H24.0205L24.1025 40.1152L25.6016 32.8398H28.3994V25.5H28.8936ZM16.7383 41.7266L19.8867 49.3066L20.0146 49.6143H48.002L48.043 49.6074C48.2609 49.5712 48.4745 49.5266 48.6875 49.4746L48.6885 49.4756C48.8985 49.4252 49.1129 49.3688 49.3262 49.3047L49.3271 49.3057C49.5487 49.2402 49.767 49.1634 49.9756 49.085C50.1878 49.0052 50.3998 48.9167 50.6035 48.8252C51.5692 48.3911 52.3259 47.8643 53.001 47.2705V47.2695C53.6751 46.676 54.2668 46.0099 54.8848 45.3145L54.8857 45.3154L55.3154 44.832L55.3164 44.833C55.4669 44.6681 55.5908 44.5281 55.7139 44.3955L55.7148 44.3945L58.043 41.874L58.8184 41.0352H16.4512L16.7383 41.7266ZM36.459 35.9648V38.123H34.3213V35.9648H36.459ZM47.7646 38.8975L47.7559 38.8496L47.6982 38.5947L47.6621 38.4395L47.5732 38.0508H40.2969V35.9648H46.8076L46.0654 35.1318L45.9951 35.0518L45.9863 35.043C45.9109 34.9624 45.8312 34.8816 45.7451 34.8027H45.7461C45.2754 34.3629 44.7389 34.0302 44.1504 33.792C43.5602 33.5532 42.9139 33.415 42.2373 33.3584L42.2168 33.3564H25.9941L25.9121 33.7559L24.6465 39.9141L24.5234 40.5146H47.7646V38.8975Z" fill="#1E1E1E" stroke="#1E1E1E"/>
</svg>
