<svg width="13" height="11" viewBox="0 0 13 11" fill="none" xmlns="http://www.w3.org/2000/svg">
<path d="M10.587 6.19536L0.757826 6.19536C0.338064 6.19536 -2.01464e-07 5.89104 -2.18424e-07 5.50303C-2.34941e-07 5.12517 0.338064 4.81071 0.757826 4.81071L10.5786 4.81071L7.49937 1.63564C7.22329 1.35414 7.24864 0.920484 7.56135 0.671957C7.87406 0.423428 8.34735 0.446252 8.62343 0.727748L12.8098 5.04402C13.069 5.3103 13.0605 5.70338 12.8013 5.95951L8.62062 10.2682C8.34453 10.5497 7.87124 10.5826 7.55854 10.324C7.24583 10.0754 7.22047 9.64179 7.49656 9.36029L10.5758 6.18522L10.587 6.19536Z" fill="#1E1E1E" fill-opacity="0.35"/>
</svg>
