<svg width="25" height="24" viewBox="0 0 25 24" fill="none" xmlns="http://www.w3.org/2000/svg">
<path fill-rule="evenodd" clip-rule="evenodd" d="M18.1575 12.9858C18.093 11.4859 17.718 11.0047 17.2625 10.9988C17.5396 12.2781 17.5346 13.6037 17.2478 14.8808C17.7605 14.9165 18.0945 14.2957 18.1575 12.9844V12.9858ZM20.8335 5.93457C20.9652 5.93427 21.094 5.9736 21.2035 6.04758C21.3131 6.12155 21.3986 6.22684 21.4491 6.3501C21.4996 6.47336 21.5129 6.60905 21.4873 6.73998C21.4617 6.8709 21.3983 6.99118 21.3052 7.08556C21.2121 7.17994 21.0935 7.24419 20.9644 7.27016C20.8352 7.29612 20.7014 7.28265 20.5798 7.23143C20.4583 7.18022 20.3544 7.09357 20.2815 6.98246C20.2085 6.87136 20.1697 6.7408 20.17 6.60732C20.17 6.42889 20.2399 6.25778 20.3644 6.13161C20.4888 6.00545 20.6576 5.93457 20.8335 5.93457ZM19.4655 3C19.675 2.99971 19.88 3.06247 20.0544 3.18034C20.2288 3.29821 20.3647 3.46589 20.4451 3.66215C20.5254 3.8584 20.5465 4.07442 20.5057 4.28284C20.4649 4.49126 20.364 4.68272 20.2158 4.83297C20.0676 4.98322 19.8787 5.08552 19.6732 5.1269C19.4676 5.16828 19.2546 5.1469 19.061 5.06544C18.8674 4.98399 18.702 4.84614 18.5858 4.66934C18.4695 4.49254 18.4076 4.28474 18.4079 4.07225C18.4079 3.78787 18.5193 3.51514 18.7177 3.31405C18.916 3.11297 19.185 3 19.4655 3ZM12.7452 16.4135C13.0434 16.4135 13.3348 16.5031 13.5827 16.6711C13.8306 16.8391 14.0238 17.0778 14.1379 17.3572C14.2519 17.6365 14.2817 17.9438 14.2234 18.2403C14.1651 18.5368 14.0214 18.8091 13.8105 19.0227C13.5995 19.2364 13.3308 19.3818 13.0384 19.4406C12.7459 19.4994 12.4428 19.4689 12.1674 19.3531C11.892 19.2372 11.6567 19.0411 11.4913 18.7896C11.3259 18.5381 11.2377 18.2425 11.238 17.9401C11.2384 17.5354 11.3972 17.1473 11.6795 16.861C11.9618 16.5748 12.3445 16.4139 12.7438 16.4135H12.7452ZM4.9147 13.3794C5.03206 13.2358 5.19003 13.1321 5.3673 13.0824V13.0319C5.3735 12.5079 5.42249 11.9853 5.51378 11.4695C5.56138 10.9627 5.76654 10.4842 6.09968 10.1033L6.16998 10.029L5.96053 9.96068C5.66758 0.649082 20.0587 1.86835 19.8448 10.0201C19.8448 10.1166 19.8448 10.2102 19.8287 10.2993C20.0553 10.6529 20.1759 11.0656 20.1759 11.4874C20.2753 11.9961 20.3273 12.5132 20.3311 13.0319C20.3335 13.5311 20.2819 14.0291 20.1773 14.517C20.1627 15.2595 19.9269 15.7823 19.505 16.1372C19.301 16.3081 19.0617 16.4304 18.8049 16.4951C18.5382 17.35 18.0971 18.1384 17.51 18.8089C16.9132 19.4898 16.1822 20.0362 15.3642 20.4128C14.577 20.78 13.7215 20.9724 12.8551 20.9772C12.0165 20.9821 11.1891 20.7824 10.4426 20.395C9.81582 20.7318 9.12688 20.933 8.41942 20.9859C7.71195 21.0388 7.00135 20.9423 6.33257 20.7024C5.63352 20.4547 5.00526 20.0365 4.50311 19.4847C3.98778 18.9126 3.65313 18.1973 3.54223 17.4308C3.365 16.2174 3.73119 14.8185 4.9147 13.3794ZM6.21686 13.2962C6.22635 13.3145 6.23131 13.3349 6.23131 13.3556C6.23131 13.3763 6.22635 13.3967 6.21686 13.415C6.23072 13.7369 6.263 14.0578 6.31353 14.3759C6.3243 14.3929 6.33155 14.4119 6.33482 14.4318C6.3381 14.4517 6.33733 14.4721 6.33257 14.4917L6.34722 14.569C6.45268 15.3427 6.87453 15.6828 7.5029 15.7407H9.86114C11.3772 15.6546 11.5661 14.8095 12.2223 14.4531C12.4393 14.3416 12.6804 14.2872 12.9235 14.2947C13.1666 14.3022 13.404 14.3715 13.6138 14.4962C14.2085 14.8823 14.4048 15.6991 15.7846 15.6991H17.9114C18.8063 15.7957 19.3351 15.4407 19.3249 14.4219C19.5293 13.4843 19.5293 12.5127 19.3249 11.575C19.3249 10.6631 18.7873 10.3052 17.9729 10.2384H7.48679C6.8672 10.4136 6.44536 10.8116 6.35161 11.575C6.24816 12.1425 6.203 12.7193 6.21686 13.2962ZM5.71445 15.4214C5.36584 16.0689 5.25745 16.663 5.33362 17.1649C5.39335 17.5701 5.57081 17.9481 5.84335 18.2505C6.14436 18.5806 6.52053 18.831 6.93898 18.9797C7.52766 19.1902 8.16342 19.2258 8.77137 19.0822C8.12102 18.4451 7.63473 17.8718 7.29344 17.2273C7.17161 16.9987 7.06872 16.7603 6.98585 16.5144C6.70605 16.4419 6.44618 16.3058 6.22591 16.1165C6.00565 15.9271 5.83075 15.6894 5.71445 15.4214ZM12.7452 15.5788C13.2063 15.5785 13.657 15.7169 14.0405 15.9764C14.4239 16.2359 14.7229 16.6049 14.8994 17.0367C15.076 17.4685 15.1223 17.9437 15.0324 18.4022C14.9425 18.8607 14.7205 19.2818 14.3945 19.6124C14.0685 19.9429 13.6532 20.168 13.201 20.2591C12.7488 20.3502 12.2801 20.3033 11.8542 20.1243C11.4283 19.9453 11.0644 19.6422 10.8084 19.2534C10.5525 18.8646 10.416 18.4076 10.4163 17.9401C10.4163 17.3139 10.6616 16.7133 11.0984 16.2704C11.5352 15.8276 12.1275 15.5788 12.7452 15.5788Z" fill="#1E1E1E"/>
</svg>
