<svg width="18" height="18" viewBox="0 0 18 18" fill="none" xmlns="http://www.w3.org/2000/svg">
<path fill-rule="evenodd" clip-rule="evenodd" d="M13.1642 0C13.6702 0 14.0811 0.365952 14.0811 0.81784V1.86975H14.1442C16.3301 1.86975 18 3.54437 18 5.49363V14.3771C17.9999 16.3262 16.33 18 14.1442 18H3.85579C1.67001 18 0.000122721 16.3262 0 14.3771V5.49363C0 3.54437 1.66993 1.86975 3.85579 1.86975H3.91895V0.81784C3.91895 0.365952 4.32978 0 4.83579 0C5.34162 0.000184712 5.75158 0.366066 5.75158 0.81784V1.86975H12.2484V0.81784C12.2484 0.366066 12.6584 0.000184945 13.1642 0ZM1.83158 14.3771C1.8317 15.5264 2.7946 16.3643 3.85579 16.3643H14.1442C15.2054 16.3643 16.1683 15.5264 16.1684 14.3771V8.18216H1.83158V14.3771ZM3.85579 3.50637C2.79453 3.50637 1.83158 4.34422 1.83158 5.49363V6.54554H16.1684V5.49363C16.1684 4.34422 15.2055 3.50637 14.1442 3.50637H3.85579Z" fill="#F9F9F9"/>
</svg>
