<svg width="24" height="24" viewBox="0 0 24 24" fill="none" xmlns="http://www.w3.org/2000/svg">
<path fill-rule="evenodd" clip-rule="evenodd" d="M1.37397 2.86937H5.90555L5.89955 2.7932V0.806706C5.89955 0.363311 6.37151 0 6.95146 0C7.52941 0 8.00336 0.365264 8.00336 0.806706V2.7932L7.99736 2.86937H15.7147L15.7087 2.7932V0.806706C15.7087 0.363311 16.1806 0 16.7586 0C17.3365 0 17.8105 0.365264 17.8105 0.806706V2.7932L17.8045 2.86937H22.626C22.832 2.86937 23 3.03345 23 3.23464V7.03573C23 7.23692 22.832 7.40099 22.626 7.40099H1.37397C1.16798 7.39904 1 7.23496 1 7.03377V3.23268C1 3.0315 1.16798 2.86937 1.37397 2.86937ZM13.8468 12.0635C14.2688 11.6455 14.9567 11.6416 15.3827 12.0596C15.8067 12.4776 15.8087 13.1554 15.3867 13.5734L13.5329 15.4114L15.3907 17.2514C15.8087 17.6675 15.8047 18.3413 15.3787 18.7574C14.9527 19.1734 14.2668 19.1715 13.8488 18.7554L12.005 16.9291L10.1572 18.7593C9.73521 19.1793 9.04727 19.1812 8.62131 18.7632C8.19735 18.3472 8.19535 17.6675 8.61731 17.2494L10.4731 15.4114L8.61531 13.5714C8.19735 13.1554 8.20135 12.4815 8.62731 12.0654C9.05327 11.6494 9.73921 11.6513 10.1572 12.0674L11.999 13.8937L13.8468 12.0635ZM1.09399 8.2409H22.908C22.96 8.2409 23 8.28192 23 8.33076V23.9101C23 23.959 22.958 24 22.908 24H1.09399C1.044 24 1.002 23.959 1.002 23.9101V8.33271C1 8.28192 1.042 8.2409 1.09399 8.2409ZM2.76784 9.87971H21.5341C21.6381 9.87971 21.7221 9.96761 21.7221 10.0633V22.3397C21.7221 22.4354 21.6321 22.5233 21.5341 22.5233H2.67785C2.57986 22.5233 2.48986 22.4413 2.48986 22.3397V10.1512C2.48986 9.95003 2.65785 9.78791 2.86183 9.78791L2.76784 9.87971ZM16.6666 5.83446C17.2445 5.83446 17.7185 5.46919 17.7185 5.02775V2.95141L17.7125 2.87133H15.6207L15.6147 2.95141V4.93595C15.6147 5.37934 16.0866 5.74265 16.6646 5.74265V5.83446H16.6666ZM6.85747 5.83446C7.43542 5.83446 7.90937 5.46919 7.90937 5.02775V2.95141L7.90337 2.87133H5.81356L5.80756 2.95141V4.93595C5.80756 5.37934 6.27952 5.74265 6.85747 5.74265V5.83446Z" fill="#1E1E1E"/>
</svg>
