<svg width="512" height="512" viewBox="0 0 512 512" fill="none" xmlns="http://www.w3.org/2000/svg">
<path d="M139.975 92.4231C116.991 96.3497 95.6337 110.811 83.5667 130.827C81.3639 134.562 78.012 141.936 76.1923 147.299C73.1277 156.206 72.7446 158.217 72.3615 170.476C72.0742 181.777 72.2657 185.224 73.9896 192.311C81.2682 222.862 104.54 246.134 135.091 253.413C142.178 255.137 145.626 255.328 156.927 255.041C169.185 254.658 171.197 254.275 180.103 251.21C201.747 243.74 217.358 230.045 227.414 209.742C233.926 196.621 236.32 185.129 235.65 169.997C234.98 156.589 233.256 149.215 227.701 137.722C214.006 109.183 185.275 91.2739 153.575 91.5612C148.595 91.6569 142.465 92.04 139.975 92.4231Z" fill="#DFDFDF"/>
<path d="M323.854 92.4231C300.869 96.3497 279.513 110.811 267.446 130.827C265.243 134.562 261.891 141.936 260.071 147.299C257.007 156.206 256.624 158.217 256.24 170.476C255.953 181.777 256.145 185.224 257.869 192.311C265.147 222.862 288.419 246.134 318.97 253.413C326.057 255.137 329.505 255.328 340.806 255.041C353.064 254.658 355.076 254.275 363.982 251.21C385.626 243.74 401.237 230.045 411.293 209.742C417.805 196.621 420.199 185.129 419.529 169.997C418.859 156.589 417.135 149.215 411.58 137.722C397.885 109.183 369.154 91.2739 337.454 91.5612C332.474 91.6569 326.344 92.04 323.854 92.4231Z" fill="#DFDFDF"/>
<path d="M125.322 276.877C77.7242 285.305 40.5653 322.751 32.4248 370.54C30.5094 382.033 30.5094 401.666 32.5206 406.358C34.436 411.051 38.2668 414.978 42.9596 417.18C46.5031 418.808 50.3339 419 102.529 419H158.171L156.639 414.403C154.149 407.125 154.532 382.128 157.214 368.433C161.236 348.322 168.419 329.742 178.379 313.653C184.125 304.459 193.894 291.721 198.97 286.933C200.885 285.113 202.417 283.294 202.417 282.815C202.417 281.761 190.829 278.505 180.965 276.781C169.951 274.866 136.24 274.962 125.322 276.877Z" fill="#DFDFDF"/>
<path d="M299.623 276.398C259.591 282.432 225.593 306.949 207.492 342.767C198.777 360.006 194.372 378.968 194.946 396.302C195.234 405.401 195.425 406.55 198.011 410.189C199.639 412.679 202.512 415.073 205.577 416.606L210.461 419H337.836C459.081 419 465.498 418.904 469.137 417.18C473.83 415.073 478.618 409.806 480.151 405.018C481.97 399.654 480.725 381.458 477.756 369.391C466.647 323.996 433.127 290.476 387.062 278.505C377.389 276.015 376.623 276.015 341.284 275.728C321.555 275.632 302.784 275.919 299.623 276.398Z" fill="#DFDFDF"/>
</svg>
