<svg width="76" height="76" viewBox="0 0 76 76" fill="none" xmlns="http://www.w3.org/2000/svg">
<path d="M23.2793 40.8887C25.1804 40.8889 26.6953 42.3809 26.6953 44.1943C26.6952 46.0077 25.1803 47.4998 23.2793 47.5C21.3781 47.5 19.8634 46.0078 19.8633 44.1943C19.8633 42.3844 21.3818 40.8887 23.2793 40.8887ZM50.5664 40.8887C52.4676 40.8887 53.9824 42.3807 53.9824 44.1943C53.9823 46.0078 52.4676 47.5 50.5664 47.5C48.6654 47.4998 47.1505 46.0077 47.1504 44.1943C47.1504 42.3842 48.6656 40.8889 50.5664 40.8887ZM23.2793 41.8242C21.9528 41.8242 20.8545 42.8758 20.8545 44.1943C20.8546 45.517 21.9535 46.5645 23.2793 46.5645C24.6049 46.5643 25.703 45.5169 25.7031 44.1943C25.7031 42.8716 24.605 41.8244 23.2793 41.8242ZM50.5664 41.8242C49.2401 41.8244 48.1426 42.8759 48.1426 44.1943C48.1427 45.5169 49.2408 46.5643 50.5664 46.5645C51.8922 46.5645 52.9911 45.517 52.9912 44.1943C52.9912 42.8715 51.8922 41.8242 50.5664 41.8242ZM57.6602 28.5029L57.8506 28.5127C58.2787 28.5498 58.6032 28.6769 58.8467 28.876C59.1243 29.103 59.3497 29.4674 59.4746 30.0439L59.4785 30.0605L59.4834 30.0762C60.4709 33.5101 60.6094 37.813 60.4375 42.4766L60.4365 42.4854V42.4951C60.4365 43.0426 60.358 43.4002 60.2461 43.6387C60.1403 43.8639 59.9948 44.0053 59.8018 44.1084C59.5944 44.2191 59.3205 44.2921 58.9551 44.3457C58.5848 44.4 58.1817 44.4281 57.6982 44.4756C57.207 44.5237 56.835 44.5718 56.4697 44.6191C56.2771 44.6441 56.0861 44.6678 55.8789 44.6924C56.0322 42.5539 55.4466 40.9508 54.4072 39.8828C53.2771 38.7217 51.682 38.2647 50.1494 38.377C48.6188 38.4891 47.0966 39.1719 46.0889 40.3633C45.1749 41.4439 44.714 42.9112 45.0195 44.6621H28.7842C29.0851 42.8375 28.607 41.3415 27.665 40.2588C26.6324 39.072 25.0868 38.4288 23.5488 38.3535C22.0101 38.2783 20.4209 38.7695 19.3174 39.9287C18.2959 41.0019 17.749 42.5872 17.9775 44.6621H16.2168C16.1952 44.6506 16.1572 44.6264 16.1064 44.5713C16.0275 44.4856 15.9405 44.354 15.8564 44.1768C15.6884 43.822 15.5623 43.349 15.5176 42.876C15.4721 42.3953 15.5161 41.9743 15.6318 41.6992C15.6876 41.5667 15.7505 41.4896 15.8066 41.4473C15.8565 41.4097 15.9252 41.3807 16.0371 41.3828L16.5518 41.3926L16.5459 40.8779C16.5403 40.3261 16.536 39.4308 16.6436 38.5791C16.6973 38.1534 16.7773 37.7556 16.8916 37.4258C17.0081 37.0897 17.1444 36.8699 17.2822 36.75C17.4003 36.648 17.6832 36.509 18.1465 36.3613C18.5884 36.2205 19.1309 36.0906 19.7061 35.9736C20.8552 35.74 22.0973 35.5676 22.8506 35.4736L23.0137 35.4531L23.1328 35.3408C24.0894 34.4335 25.0139 33.2781 25.9346 32.208C26.871 31.1195 27.8175 30.1007 28.8652 29.374L28.8965 29.3506C29.4253 28.9181 30.3009 28.6877 31.3271 28.582C31.832 28.5301 32.3461 28.5097 32.8369 28.5029H57.6602ZM30.4365 29.125C29.434 29.1252 28.3783 29.8071 27.4766 30.6611C26.6661 31.4288 25.9013 32.4112 25.3027 33.4131L25.0566 33.8428C25.0126 33.923 24.7147 34.4132 24.5264 34.8584C24.4364 35.0711 24.3357 35.3502 24.333 35.6045C24.3317 35.7349 24.3554 35.933 24.4961 36.1045C24.6521 36.2945 24.87 36.3545 25.0537 36.3545H33.3438V29.625H32.8477V29.125H30.4365Z" fill="#1E1E1E" stroke="#1E1E1E"/>
</svg>
