<svg width="284" height="59" viewBox="0 0 284 59" fill="none" xmlns="http://www.w3.org/2000/svg">
<rect width="284" height="59" rx="29.5" fill="#1E1E1E"/>
<path d="M71.8054 20.2619C70.3411 19.7057 68.7931 19.4267 67.2346 19.4378C62.1945 19.4378 58.6349 22.0839 58.6097 25.8823C58.5782 28.6729 61.1392 30.2454 63.0766 31.1778C65.0643 32.1364 65.729 32.7404 65.7226 33.5973C65.7101 34.9007 64.1349 35.4916 62.6702 35.4916C60.6572 35.4916 59.5579 35.1994 57.8663 34.4673L57.2394 34.162L56.5244 38.535C57.7498 39.0667 59.9579 39.5231 62.2386 39.5625C67.597 39.5625 71.0999 36.9329 71.1407 32.8915C71.1848 30.6623 69.7988 28.9782 66.8818 27.5862C65.1083 26.6834 64.009 26.0793 64.009 25.1633C64.009 24.3524 64.9509 23.4857 66.9196 23.4857C68.2299 23.4527 69.5321 23.7089 70.7407 24.2375L71.2132 24.4575L71.9283 20.2323L71.8054 20.2619ZM84.8846 19.7924H80.947C79.7217 19.7924 78.7986 20.1437 78.2632 21.4109L70.6903 39.29H76.0485L77.1196 36.3583L83.6592 36.3649C83.8135 37.051 84.2861 39.29 84.2861 39.29H89.0112L84.8846 19.7924ZM51.3614 19.6282H56.4676L53.2735 39.1357H48.1735L51.3614 19.6217V19.6282ZM38.3987 30.38L38.928 33.0884L43.9177 19.7924H49.3263L41.2905 39.2638H35.8944L31.4843 22.7766C31.4129 22.5048 31.2451 22.2713 31.0149 22.1233C29.4254 21.2676 27.7412 20.6182 26 20.1896L26.0693 19.7793H34.2879C35.403 19.8252 36.3008 20.1896 36.6 21.4306L38.3956 30.3898L38.3987 30.38ZM78.5844 32.3695L80.6193 26.9132C80.5942 26.9723 81.0383 25.7871 81.2967 25.055L81.6463 26.7392L82.8276 32.3662H78.5812L78.5844 32.3695Z" fill="white"/>
<path d="M117.878 41C123.972 41 128.913 35.8513 128.913 29.5C128.913 23.1487 123.972 18 117.878 18C111.784 18 106.844 23.1487 106.844 29.5C106.844 35.8513 111.784 41 117.878 41Z" fill="#EA001B"/>
<path d="M133.636 41C139.73 41 144.671 35.8513 144.671 29.5C144.671 23.1487 139.73 18 133.636 18C127.542 18 122.602 23.1487 122.602 29.5C122.602 35.8513 127.542 41 133.636 41Z" fill="#FDB331" fill-opacity="0.8"/>
<g clip-path="url(#clip0_354_20951)">
<path fill-rule="evenodd" clip-rule="evenodd" d="M237.412 28.025C237.136 29.896 235.75 29.896 234.41 29.896H233.647L234.182 26.4027C234.214 26.1916 234.391 26.036 234.598 26.036H234.948C235.86 26.036 236.722 26.036 237.166 26.572C237.432 26.8928 237.512 27.3681 237.412 28.025ZM236.828 23.1436H231.774C231.428 23.1436 231.134 23.4029 231.08 23.755L229.037 37.1206C228.996 37.3841 229.194 37.6226 229.453 37.6226H232.046C232.288 37.6226 232.494 37.441 232.531 37.1946L233.111 33.4055C233.165 33.0535 233.459 32.7942 233.805 32.7942H235.404C238.734 32.7942 240.655 31.1325 241.157 27.8394C241.383 26.3991 241.166 25.2674 240.512 24.4751C239.794 23.6041 238.52 23.1436 236.828 23.1436Z" fill="#CDD3D6"/>
<path fill-rule="evenodd" clip-rule="evenodd" d="M201.365 28.025C201.089 29.896 199.703 29.896 198.363 29.896H197.6L198.135 26.4027C198.168 26.1916 198.344 26.036 198.551 26.036H198.901C199.813 26.036 200.675 26.036 201.119 26.572C201.385 26.8928 201.466 27.3681 201.365 28.025ZM200.782 23.1436H195.727C195.382 23.1436 195.087 23.4029 195.034 23.755L192.99 37.1206C192.949 37.3841 193.147 37.6226 193.406 37.6226H195.819C196.165 37.6226 196.459 37.3632 196.513 37.0113L197.064 33.4055C197.118 33.0535 197.413 32.7942 197.758 32.7942H199.358C202.687 32.7942 204.608 31.1325 205.111 27.8394C205.337 26.3991 205.12 25.2674 204.466 24.4751C203.747 23.6041 202.473 23.1436 200.782 23.1436Z" fill="white"/>
<path fill-rule="evenodd" clip-rule="evenodd" d="M212.511 32.8224C212.277 34.2486 211.179 35.2061 209.779 35.2061C209.077 35.2061 208.515 34.9732 208.154 34.5323C207.796 34.0952 207.661 33.4725 207.774 32.779C207.992 31.3658 209.108 30.3774 210.487 30.3774C211.174 30.3774 211.732 30.6126 212.1 31.0575C212.471 31.5056 212.617 32.1325 212.511 32.8224ZM215.884 27.9645H213.463C213.256 27.9645 213.08 28.1198 213.047 28.3313L212.941 29.0292L212.771 28.7762C212.247 27.9916 211.079 27.7295 209.913 27.7295C207.239 27.7295 204.955 29.8191 204.51 32.75C204.279 34.2121 204.607 35.6093 205.411 36.5845C206.15 37.4805 207.204 37.8535 208.459 37.8535C210.615 37.8535 211.81 36.4257 211.81 36.4257L211.702 37.1193C211.661 37.3831 211.859 37.6218 212.118 37.6218H214.298C214.643 37.6218 214.938 37.3628 214.991 37.0106L216.3 28.4665C216.34 28.2027 216.143 27.9645 215.884 27.9645Z" fill="white"/>
<path fill-rule="evenodd" clip-rule="evenodd" d="M248.565 32.8224C248.332 34.2486 247.234 35.2061 245.834 35.2061C245.131 35.2061 244.57 34.9732 244.208 34.5323C243.85 34.0952 243.715 33.4725 243.829 32.779C244.047 31.3658 245.162 30.3774 246.541 30.3774C247.229 30.3774 247.787 30.6126 248.155 31.0575C248.526 31.5056 248.671 32.1325 248.565 32.8224ZM251.938 27.9645H249.518C249.311 27.9645 249.134 28.1198 249.102 28.3313L248.995 29.0292L248.826 28.7762C248.302 27.9916 247.134 27.7295 245.967 27.7295C243.294 27.7295 241.009 29.8191 240.565 32.75C240.333 34.2121 240.662 35.6093 241.466 36.5845C242.204 37.4805 243.258 37.8535 244.514 37.8535C246.669 37.8535 247.865 36.4257 247.865 36.4257L247.757 37.1193C247.716 37.3831 247.914 37.6218 248.173 37.6218H250.352C250.698 37.6218 250.992 37.3628 251.046 37.0106L252.354 28.4665C252.395 28.2027 252.197 27.9645 251.938 27.9645Z" fill="#CDD3D6"/>
<path fill-rule="evenodd" clip-rule="evenodd" d="M228.777 27.9648H226.345C226.112 27.9648 225.894 28.0839 225.764 28.2823L222.408 33.3792L220.986 28.4814C220.897 28.175 220.623 27.9648 220.313 27.9648H217.922C217.633 27.9648 217.43 28.2577 217.523 28.5395L220.202 36.6479L217.682 40.3141C217.484 40.6019 217.684 40.9998 218.026 40.9998H220.456C220.687 40.9998 220.902 40.8834 221.034 40.688L229.124 28.647C229.317 28.3589 229.117 27.9648 228.777 27.9648Z" fill="white"/>
<path fill-rule="evenodd" clip-rule="evenodd" d="M175.613 40.052L176.292 35.6088L176.336 35.3626C176.369 35.1485 176.475 34.9526 176.635 34.8116C176.795 34.6706 176.999 34.5928 177.21 34.5928H177.75C178.649 34.5928 179.475 34.4938 180.205 34.2984C180.985 34.0901 181.678 33.7657 182.265 33.3348C182.888 32.878 183.411 32.2874 183.82 31.5799C184.252 30.8336 184.569 29.9349 184.762 28.9093C184.933 28.0036 184.965 27.1928 184.858 26.4992C184.744 25.7664 184.47 25.1411 184.045 24.6403C183.786 24.3369 183.456 24.074 183.062 23.859L183.053 23.8539L183.053 23.8421C183.19 22.9381 183.185 22.184 183.037 21.5349C182.888 20.8843 182.588 20.2989 182.117 19.7455C181.141 18.599 179.366 18.0176 176.842 18.0176H169.91C169.679 18.0176 169.454 18.1031 169.278 18.2584C169.101 18.4137 168.984 18.6295 168.948 18.8656L166.062 37.7411C166.035 37.9133 166.083 38.0884 166.193 38.2205C166.303 38.3533 166.463 38.4293 166.632 38.4293H170.933L170.929 38.4505L170.633 40.3818C170.611 40.532 170.653 40.6842 170.748 40.7995C170.844 40.9149 170.983 40.9815 171.13 40.9815H174.737C174.94 40.9815 175.136 40.9067 175.29 40.7712C175.443 40.6355 175.546 40.4473 175.577 40.2415L175.613 40.052Z" fill="white"/>
<path fill-rule="evenodd" clip-rule="evenodd" d="M254.791 23.5106L252.716 37.1206C252.676 37.3844 252.874 37.6226 253.132 37.6226H255.219C255.564 37.6226 255.859 37.3632 255.912 37.0113L257.958 23.6458C257.998 23.382 257.801 23.1436 257.542 23.1436H255.207C254.999 23.1436 254.823 23.2994 254.791 23.5106Z" fill="#D9D9D9"/>
<path fill-rule="evenodd" clip-rule="evenodd" d="M173.143 23.8672C173.189 23.568 173.375 23.3232 173.626 23.1993C173.74 23.1431 173.867 23.1117 174 23.1117H179.434C180.078 23.1117 180.678 23.1553 181.227 23.2464C181.383 23.2724 181.536 23.3024 181.684 23.3363C181.832 23.3703 181.976 23.408 182.116 23.4502C182.185 23.4711 182.254 23.4931 182.321 23.5163C182.591 23.6086 182.841 23.7173 183.072 23.8433C183.344 22.0542 183.07 20.8367 182.132 19.734C181.099 18.5201 179.232 18 176.844 18H169.912C169.424 18 169.009 18.3662 168.933 18.8633L166.046 37.7387C165.989 38.1112 166.269 38.4479 166.634 38.4479H170.914L173.143 23.8672Z" fill="#D9D9D9"/>
<path fill-rule="evenodd" clip-rule="evenodd" d="M182.114 23.4498C181.974 23.4077 181.831 23.37 181.682 23.336C181.534 23.302 181.381 23.272 181.225 23.246C180.676 23.1549 180.076 23.1113 179.432 23.1113H173.998C173.865 23.1113 173.738 23.1427 173.624 23.1989C173.373 23.3229 173.187 23.5677 173.141 23.8668L171.987 31.4182L171.953 31.6386C172.029 31.1415 172.441 30.7751 172.929 30.7751H174.963C178.958 30.7751 182.086 29.1018 182.999 24.2616C183.027 24.1184 183.05 23.9795 183.07 23.8429C182.839 23.7169 182.589 23.6082 182.319 23.5159C182.252 23.4927 182.183 23.4707 182.114 23.4498Z" fill="white"/>
</g>
<defs>
<clipPath id="clip0_354_20951">
<rect width="92" height="23" fill="white" transform="translate(166 18)"/>
</clipPath>
</defs>
</svg>
