<svg width="32" height="32" viewBox="0 0 32 32" fill="none" xmlns="http://www.w3.org/2000/svg">
<path d="M29.8667 4H2.13333C1.56754 4 1.02492 4.22987 0.624839 4.63904C0.224761 5.04821 0 5.60316 0 6.18182V25.8182C0 27.0182 0.96 28 2.13333 28H29.8667C30.4325 28 30.9751 27.7701 31.3752 27.361C31.7752 26.9518 32 26.3968 32 25.8182V6.18182C32 5.60316 31.7752 5.04821 31.3752 4.63904C30.9751 4.22987 30.4325 4 29.8667 4ZM21.8667 24.7273C21.4423 24.7273 21.0354 24.5549 20.7353 24.248C20.4352 23.9411 20.2667 23.5249 20.2667 23.0909C20.2667 22.6569 20.4352 22.2407 20.7353 21.9338C21.0354 21.6269 21.4423 21.4545 21.8667 21.4545C22.291 21.4545 22.698 21.6269 22.998 21.9338C23.2981 22.2407 23.4667 22.6569 23.4667 23.0909C23.4667 23.5249 23.2981 23.9411 22.998 24.248C22.698 24.5549 22.291 24.7273 21.8667 24.7273ZM27.2 24.7273C26.7757 24.7273 26.3687 24.5549 26.0686 24.248C25.7686 23.9411 25.6 23.5249 25.6 23.0909C25.6 22.6569 25.7686 22.2407 26.0686 21.9338C26.3687 21.6269 26.7757 21.4545 27.2 21.4545C27.6243 21.4545 28.0313 21.6269 28.3314 21.9338C28.6314 22.2407 28.8 22.6569 28.8 23.0909C28.8 23.5249 28.6314 23.9411 28.3314 24.248C28.0313 24.5549 27.6243 24.7273 27.2 24.7273ZM29.8667 11.0909H2.13333V7.81818H29.8667V11.0909Z" fill="#00457C"/>
</svg>
