<svg width="24" height="24" viewBox="0 0 24 24" fill="none" xmlns="http://www.w3.org/2000/svg">
<g clip-path="url(#clip0_855_23222)">
<mask id="mask0_855_23222" style="mask-type:luminance" maskUnits="userSpaceOnUse" x="0" y="0" width="24" height="24">
<path d="M24 0H0V24H24V0Z" fill="white"/>
</mask>
<g mask="url(#mask0_855_23222)">
<path d="M10.5013 0.0712445C5.80905 0.652494 1.86687 3.97593 0.498119 8.49937C0.113744 9.76968 -0.0221929 10.8384 0.0153071 12.3478C0.0621821 14.2415 0.418432 15.704 1.2528 17.3775L1.55749 17.9915L0.774682 20.4243C0.0481196 22.679 -0.00813039 22.8712 0.0106196 23.1384C0.0434321 23.6493 0.352807 23.9587 0.863745 23.9915C1.13093 24.0103 1.32312 23.954 3.5778 23.2275L6.01062 22.4447L6.62468 22.7493C7.78249 23.3259 8.82312 23.6587 10.1732 23.8884C10.7825 23.9915 12.531 24.029 13.2482 23.954C18.0435 23.4665 22.1075 20.1197 23.5044 15.4978C23.8513 14.3587 24.0013 13.304 24.0013 12.0009C24.0013 11.0212 23.9544 10.4822 23.7857 9.63374C22.9982 5.63999 20.2185 2.32124 16.3794 0.797807C15.5263 0.455619 14.27 0.150932 13.3044 0.047807C12.6904 -0.017818 11.106 -0.00375549 10.5013 0.0712445ZM13.6654 2.0353C15.8122 2.43374 17.6169 3.37124 19.1216 4.88062C20.406 6.1603 21.306 7.71187 21.7513 9.39468C22.0185 10.4165 22.056 10.7025 22.056 12.0009C22.056 13.2993 22.0185 13.5853 21.7513 14.6072C21.306 16.29 20.406 17.8415 19.1216 19.1212C17.6169 20.6306 15.8029 21.5728 13.6654 21.9665C13.1075 22.065 11.5654 22.1072 10.9279 22.0368C10.2763 21.9665 9.62937 21.8306 9.0153 21.6384C8.33093 21.4181 7.9653 21.2634 7.09343 20.8134C6.35749 20.429 6.3528 20.429 6.07155 20.4525C5.89812 20.4712 5.13874 20.6915 4.12624 21.0197C3.21218 21.315 2.46218 21.554 2.4528 21.5493C2.44812 21.54 2.68718 20.79 2.98249 19.8759C3.31062 18.8634 3.53093 18.104 3.54968 17.9306C3.57312 17.6634 3.56374 17.6306 3.3528 17.2275C2.7903 16.1681 2.60749 15.7509 2.36374 14.9868C2.17155 14.3728 2.03562 13.7259 1.9653 13.0743C1.89499 12.4368 1.93718 10.8947 2.03562 10.3368C2.42937 8.19937 3.37155 6.3853 4.88093 4.88062C5.68249 4.07437 6.51687 3.46968 7.50124 2.97749C8.6028 2.42437 9.51218 2.15249 10.9466 1.95093C11.3029 1.89937 13.2622 1.9603 13.6654 2.0353Z" fill="#244BD1"/>
<path d="M6.82031 10.9172C6.38906 11.1094 6.14062 11.5078 6.14062 12C6.14062 12.6937 6.61875 13.1719 7.3125 13.1719C8.00625 13.1719 8.48438 12.6937 8.48438 12C8.48438 11.3062 8.00625 10.8281 7.3125 10.8281C7.11563 10.8281 6.94219 10.8609 6.82031 10.9172Z" fill="#244BD1"/>
<path d="M11.5078 10.9172C11.0766 11.1094 10.8281 11.5078 10.8281 12C10.8281 12.6937 11.3063 13.1719 12 13.1719C12.6938 13.1719 13.1719 12.6937 13.1719 12C13.1719 11.3062 12.6938 10.8281 12 10.8281C11.8031 10.8281 11.6297 10.8609 11.5078 10.9172Z" fill="#244BD1"/>
<path d="M16.1953 10.9172C15.7641 11.1094 15.5156 11.5078 15.5156 12C15.5156 12.6937 15.9938 13.1719 16.6875 13.1719C17.3813 13.1719 17.8594 12.6937 17.8594 12C17.8594 11.3062 17.3813 10.8281 16.6875 10.8281C16.4906 10.8281 16.3172 10.8609 16.1953 10.9172Z" fill="#244BD1"/>
</g>
</g>
<defs>
<clipPath id="clip0_855_23222">
<rect width="24" height="24" fill="white"/>
</clipPath>
</defs>
</svg>
