<svg width="24" height="24" viewBox="0 0 24 24" fill="none" xmlns="http://www.w3.org/2000/svg">
<path d="M21.75 3.37936C21.1406 3.48249 21.4781 3.16842 14.7984 9.83874L8.625 16.0075L5.79844 13.1903C3.18281 10.5794 2.95313 10.3637 2.68125 10.2465C1.82344 9.87155 0.815625 10.1669 0.304688 10.9403C0.0890625 11.259 0 11.5731 0 11.9997C0 12.4122 0.0890625 12.7262 0.28125 13.0262C0.35625 13.1434 2.01563 14.8403 3.97031 16.7903C7.85156 20.6669 7.67813 20.5169 8.34375 20.62C8.7375 20.6856 9.10313 20.6247 9.51094 20.4372C9.80156 20.3012 10.2094 19.9028 16.7438 13.3684C23.3953 6.71686 23.6719 6.43092 23.8219 6.11686C23.9672 5.80749 23.9766 5.76061 23.9766 5.27311C23.9766 4.79499 23.9672 4.73405 23.8313 4.4528C23.4609 3.66999 22.6172 3.23405 21.75 3.37936Z" fill="#2E53D9"/>
</svg>
