<svg width="24" height="24" viewBox="0 0 24 24" fill="none" xmlns="http://www.w3.org/2000/svg">
<g clip-path="url(#clip0_43_2102)">
<path fill-rule="evenodd" clip-rule="evenodd" d="M5.36396 5.3626C5.65685 5.06971 6.13173 5.06971 6.42462 5.3626L11.7279 10.6659L17.0312 5.3626C17.3241 5.06971 17.799 5.06971 18.0919 5.3626C18.3848 5.65549 18.3848 6.13037 18.0919 6.42326L12.7886 11.7266L18.0919 17.0299C18.3848 17.3228 18.3848 17.7976 18.0919 18.0905C17.799 18.3834 17.3241 18.3834 17.0312 18.0905L11.7279 12.7872L6.42462 18.0905C6.13173 18.3834 5.65685 18.3834 5.36396 18.0905C5.07107 17.7976 5.07107 17.3228 5.36396 17.0299L10.6673 11.7266L5.36396 6.42326C5.07107 6.13037 5.07107 5.6555 5.36396 5.3626Z" fill="#F9F9F9"/>
</g>
<defs>
<clipPath id="clip0_43_2102">
<rect width="18" height="18" fill="white" transform="translate(3 3)"/>
</clipPath>
</defs>
</svg>
