<svg width="12" height="13" viewBox="0 0 12 13" fill="none" xmlns="http://www.w3.org/2000/svg">
<path fill-rule="evenodd" clip-rule="evenodd" d="M4 4.375C4 3.33947 4.83947 2.5 5.875 2.5H9.125C10.1605 2.5 11 3.33947 11 4.375V7.63C11 8.66554 10.1605 9.505 9.125 9.505H9V9.625C9 10.6605 8.16053 11.5 7.125 11.5H3.875C2.83947 11.5 2 10.6605 2 9.625V6.375C2 5.33947 2.83947 4.5 3.875 4.5H4V4.375ZM9 8.755V6.375C9 5.33947 8.16053 4.5 7.125 4.5H4.75V4.375C4.75 3.75368 5.25368 3.25 5.875 3.25H9.125C9.74632 3.25 10.25 3.75368 10.25 4.375V7.63C10.25 8.25132 9.74632 8.755 9.125 8.755H9Z" fill="#DFDFDF"/>
</svg>
