<svg width="76" height="76" viewBox="0 0 76 76" fill="none" xmlns="http://www.w3.org/2000/svg">
<path d="M38.6816 22.334C45.2016 22.6288 51.5661 26.9235 51.374 34.2471V34.2598C51.374 34.451 51.3725 34.582 51.3516 34.6982L51.3164 34.8916L51.4219 35.0576C51.751 35.5713 51.9458 36.1604 51.9893 36.7695L51.999 37.0312V37.0801L52.0078 37.1279C52.1669 37.9423 52.2597 38.7683 52.2852 39.5977L52.292 39.9531C52.2961 40.8596 52.2025 41.7637 52.0127 42.6494L52.0029 42.6963L52.002 42.7441C51.9765 44.0363 51.5733 44.874 50.9111 45.4316C50.5832 45.7063 50.1988 45.9021 49.7871 46.0059L49.5156 46.0742L49.4316 46.3418C48.9488 47.89 48.1502 49.3175 47.0879 50.5312C46.0066 51.7648 44.6821 52.7546 43.2012 53.4365L43.1992 53.4375C41.7775 54.1006 40.2323 54.4484 38.668 54.457C37.1654 54.4658 35.6819 54.1075 34.3438 53.4131L34.1094 53.292L33.877 53.417C32.7545 54.02 31.5211 54.3799 30.2549 54.4746C28.9887 54.5693 27.7168 54.3971 26.5195 53.9678L26.5176 53.9668L26.2861 53.8809C25.213 53.4627 24.2405 52.8153 23.4346 51.9824L23.2646 51.8008C22.359 50.7946 21.7695 49.5362 21.5742 48.1865V48.1855C21.2637 46.0589 21.8948 43.5539 24.0586 40.9229L24.0596 40.9219C24.2166 40.7297 24.4272 40.5924 24.6621 40.5264L25.0273 40.4238V39.9551C25.0387 38.9926 25.1282 38.0324 25.2959 37.085L25.2998 37.0654L25.3018 37.0449C25.3719 36.2982 25.6449 35.5886 26.0869 34.9941L26.2871 34.7461L26.4062 34.6211L26.9502 34.0469L26.1982 33.8018L26.1396 33.7822C26.0987 29.7121 27.6162 26.8243 29.8857 24.9668C32.2349 23.0442 35.4389 22.1874 38.6816 22.334ZM38.4629 44.2598C37.1614 44.2598 35.9142 44.7839 34.9961 45.7148C34.0782 46.6455 33.5646 47.9066 33.5645 49.2197C33.5638 50.1999 33.8494 51.1592 34.3867 51.9756C34.9242 52.792 35.6895 53.4297 36.5859 53.8066C37.4826 54.1836 38.4703 54.2828 39.4229 54.0908C40.3752 53.8989 41.2493 53.4252 41.9346 52.7305C42.6197 52.0358 43.0859 51.1511 43.2744 50.1895C43.4629 49.2278 43.3656 48.2304 42.9951 47.3242C42.6246 46.4182 41.9969 45.6425 41.1904 45.0967C40.4846 44.619 39.6695 44.3363 38.8262 44.2734L38.4629 44.2598ZM24.7422 44.2256C24.0882 45.4404 23.8374 46.5987 23.9434 47.627L23.9688 47.8311C24.0962 48.6925 24.474 49.4971 25.0547 50.1416L25.0566 50.1436C25.6801 50.8272 26.4601 51.3457 27.3281 51.6543C28.5308 52.0843 29.83 52.1577 31.0723 51.8643L31.9551 51.6553L31.3066 51.0205C30.094 49.8326 29.2172 48.7913 28.6074 47.6396L28.6064 47.6387L28.4502 47.3301C28.3 47.018 28.1695 46.6961 28.0586 46.3672L27.9717 46.1113L27.71 46.043L27.541 45.9941C27.1511 45.8688 26.7882 45.6661 26.4746 45.3965C26.1163 45.0884 25.8314 44.701 25.6416 44.2637L25.2314 43.3184L24.7422 44.2256ZM38.4629 46.8369C38.9256 46.8369 39.3788 46.9758 39.7646 47.2373C40.1504 47.4987 40.4524 47.8708 40.6309 48.3076C40.8092 48.7446 40.8558 49.2262 40.7646 49.6904C40.6734 50.1548 40.4481 50.5808 40.1191 50.9141C39.7903 51.2471 39.3719 51.4732 38.918 51.5645C38.4641 51.6556 37.9933 51.6088 37.5654 51.4287C37.1374 51.2486 36.7711 50.9426 36.5127 50.5498C36.2542 50.1568 36.1158 49.6943 36.1162 49.2207C36.1168 48.5865 36.3655 47.9796 36.8057 47.5332C37.1909 47.1426 37.6954 46.9029 38.2305 46.8486L38.4609 46.8369H38.4629ZM28.3945 34.1914C27.7427 34.3758 27.1597 34.6879 26.7139 35.1846C26.2716 35.6774 25.9963 36.3173 25.8945 37.1074C25.693 38.2127 25.6049 39.3363 25.6318 40.46L25.6338 40.5469L25.627 40.5615L25.6318 40.6943C25.6589 41.3215 25.7219 41.9467 25.8203 42.5664L25.8369 42.668L25.8428 42.6768L25.8389 42.6934L25.8594 42.7998L25.8867 42.9453C25.9994 43.7421 26.2824 44.3761 26.7529 44.8271C27.2288 45.2832 27.8437 45.5015 28.5156 45.5635L28.5381 45.5654H33.0439C34.5866 45.4778 35.4932 44.9947 36.1748 44.4248C36.4956 44.1566 36.7755 43.86 37.0078 43.6328C37.1911 43.4536 37.358 43.3038 37.5342 43.1836L37.7139 43.0732C38.0459 42.9047 38.4137 42.8226 38.7842 42.834C39.1535 42.8454 39.5152 42.9491 39.8359 43.1367C40.0612 43.2838 40.2592 43.4781 40.4883 43.7207C40.7091 43.9545 40.9676 44.2439 41.2734 44.5049C41.9209 45.0574 42.7796 45.4873 44.2041 45.4873H48.2051C49.0954 45.5777 49.9181 45.4595 50.5195 44.9541C51.1262 44.4443 51.3893 43.6412 51.3896 42.6309C51.777 40.8203 51.7767 38.9471 51.3887 37.1367C51.3768 36.2011 51.0908 35.4709 50.5254 34.9639C49.9642 34.4606 49.2004 34.2413 48.3789 34.1738L48.3584 34.1729H28.4609L28.3945 34.1914ZM47.7012 37.2158C47.9364 37.7076 48.1258 38.5355 48.1846 39.8574C48.1251 41.0591 47.9441 41.8831 47.6973 42.3828C47.6878 42.4019 47.6765 42.4196 47.667 42.4375C47.9392 40.7084 47.9505 38.948 47.7012 37.2158ZM53.7412 27.043H53.7422C53.8903 27.0426 54.0358 27.087 54.1602 27.1709C54.2847 27.2549 54.3831 27.3754 54.4414 27.5176C54.4997 27.6598 54.515 27.8172 54.4854 27.9688C54.4557 28.1201 54.3826 28.2584 54.2764 28.3662C54.1701 28.474 54.0351 28.5459 53.8896 28.5752C53.7442 28.6044 53.5934 28.5901 53.4561 28.5322C53.3186 28.4743 53.2 28.3756 53.1162 28.248C53.0324 28.1204 52.9879 27.9691 52.9883 27.8145V27.8135C52.9884 27.607 53.069 27.4105 53.2109 27.2666C53.3528 27.1228 53.5437 27.043 53.7412 27.043ZM51.1572 21.5C51.4526 21.4996 51.7424 21.588 51.9893 21.7549C52.2362 21.9218 52.4303 22.1603 52.5449 22.4404C52.6595 22.7205 52.6892 23.0293 52.6309 23.3271C52.5725 23.625 52.4282 23.898 52.2178 24.1113C52.0074 24.3245 51.74 24.469 51.4502 24.5273C51.1605 24.5856 50.8602 24.5554 50.5869 24.4404C50.3136 24.3254 50.0786 24.1305 49.9131 23.8789C49.7476 23.6272 49.6588 23.3302 49.6592 23.0264V23.0254C49.6592 22.6186 49.819 22.2299 50.1006 21.9443C50.3468 21.6947 50.6686 21.5422 51.0098 21.5078L51.1572 21.5Z" fill="#1E1E1E" stroke="#1E1E1E"/>
</svg>
