<svg width="76" height="76" viewBox="0 0 76 76" fill="none" xmlns="http://www.w3.org/2000/svg">
<path d="M47.4704 51.1372L46.6024 50.9834L46.1669 51.7552C46.164 51.7609 46.1611 51.7666 46.1554 51.7694C45.9737 51.9916 45.8064 51.9859 45.6622 51.8691C45.5065 51.7438 45.4027 51.4761 45.3364 51.2995L45.3104 51.234L44.3905 49.5195C44.3617 49.4654 44.3818 49.3999 44.4366 49.3742C44.4424 49.3714 44.4482 49.3685 44.4511 49.3685C44.5462 49.3372 44.6529 49.2717 44.7683 49.1863C44.8894 49.098 45.0163 48.9869 45.146 48.873C45.1691 48.8531 45.198 48.8417 45.2297 48.8445C45.4777 48.8502 45.7199 48.8303 45.9362 48.7591C46.1496 48.6879 46.3457 48.5626 46.513 48.3518C46.5505 48.3034 46.6197 48.2949 46.6658 48.3319C46.6773 48.3433 46.6889 48.3547 46.6946 48.3689L47.7588 50.3967L47.8511 50.5932C47.8539 50.5989 47.8568 50.6046 47.8568 50.6103C47.9001 50.7612 47.9087 50.8922 47.8568 50.9919C47.7991 51.103 47.6867 51.1599 47.4963 51.1457C47.4906 51.1428 47.479 51.14 47.4704 51.1372ZM29.1929 48.1838C30.8251 46.0677 32.218 47.0303 34.1674 48.3746C34.2655 48.4429 34.3635 48.5084 34.4616 48.5768C34.7413 48.7676 35.0326 48.7334 35.3267 48.591C35.6439 48.4344 35.964 48.1553 36.2813 47.879L36.287 47.8762C36.5725 47.6284 36.8522 47.3835 37.1522 47.1955C37.2041 47.1642 37.2704 47.1784 37.3021 47.2297L37.7462 47.9189C37.7779 47.9702 37.7635 48.0357 37.7116 48.067C37.4809 48.2123 37.23 48.4316 36.9734 48.6565L36.9676 48.6622C36.5235 49.0496 36.0678 49.4454 35.5661 49.6505C35.047 49.8612 34.4875 49.8612 33.8646 49.434L33.5676 49.229C32.8178 48.7107 32.1747 48.2692 31.598 48.1297C31.0443 47.9987 30.5396 48.1553 30.0292 48.816C29.9917 48.8644 29.9225 48.873 29.8763 48.836L29.2159 48.3376C29.164 48.3005 29.1554 48.2322 29.1929 48.1838ZM47.1214 21.1136C46.9311 21.3272 46.7812 21.5436 46.6687 21.7572C46.5505 21.9851 46.4697 22.2129 46.4265 22.4436C46.3774 22.6999 46.3688 22.9619 46.3976 23.2296C46.4265 23.5002 46.4899 23.7793 46.5851 24.0641L46.7783 24.6479C46.7956 24.7049 46.7667 24.7647 46.7091 24.7846C46.6975 24.7875 46.686 24.7903 46.6745 24.7903H26.3581V51.3422C26.3581 51.3508 26.3581 51.3564 26.3552 51.3621C26.3581 51.8292 26.4071 52.2308 26.5109 52.5668C26.6119 52.9001 26.7618 53.1706 26.9666 53.3671C27.1627 53.5579 27.4193 53.6918 27.7366 53.7687C28.0624 53.8456 28.4546 53.8598 28.9131 53.8086C34.7644 53.3045 43.3523 53.8029 49.5035 53.8029V23.7537C49.5035 23.748 49.5035 23.7394 49.5064 23.7337V23.7309C49.5323 23.1641 49.4804 22.717 49.3679 22.3667C49.2583 22.0249 49.0853 21.7772 48.8661 21.6006C48.6556 21.4325 48.3961 21.3158 48.0962 21.2417C47.8049 21.1648 47.4762 21.1278 47.1214 21.1136ZM25.2334 24.7903H21.1096C21.049 24.7903 21 24.7419 21 24.6821L21.0173 24.2179C21.0346 23.7423 21.0923 23.2894 21.199 22.8679C21.3057 22.4436 21.4614 22.0506 21.6748 21.6917C21.8969 21.3243 22.1737 20.9968 22.5226 20.7177C22.8687 20.4386 23.2811 20.2108 23.7742 20.0342C23.78 20.0313 23.7857 20.0313 23.7915 20.0285L23.9444 20C23.9472 20 23.9559 20 23.9617 20H47.9549C48.0125 20 48.0616 20.0456 48.0645 20.1025C48.324 20.1481 48.5691 20.2136 48.7998 20.3047C49.0824 20.413 49.342 20.5582 49.5727 20.7433C49.9303 21.031 50.21 21.4126 50.3917 21.911C50.5705 22.398 50.6541 23.0018 50.6224 23.7423V23.7537V50.1318H53.7138C53.7571 50.1318 53.7946 50.1347 53.8263 50.1375C53.8349 50.1347 53.8436 50.1347 53.8522 50.1347H53.8782C54.1204 50.1347 54.2963 50.1318 54.4434 50.166C54.6049 50.203 54.726 50.2771 54.8414 50.4223C55.0173 50.6473 55.0086 50.8324 54.9913 51.1685V51.1742C54.9856 51.271 54.9798 51.3935 54.9798 51.59C54.9798 52.3903 54.8385 53.0225 54.579 53.5181C54.3136 54.0165 53.9301 54.3725 53.4485 54.6146C53.0275 54.8253 52.5372 54.9392 51.9951 54.9819C51.4616 55.0218 50.8733 54.9933 50.2475 54.9193H28.9939C28.3768 54.9848 27.8346 54.9506 27.3674 54.8253C26.8945 54.6971 26.4965 54.475 26.1735 54.1589C25.8563 53.8484 25.6198 53.4526 25.4641 52.9798C25.3113 52.5184 25.2363 51.9802 25.2363 51.3678C25.2363 51.3621 25.2334 51.3536 25.2334 51.3451V24.7903ZM45.3248 22.2357C45.3681 22.0135 45.4315 21.7971 45.5209 21.5806C45.5844 21.4212 45.6622 21.2645 45.7545 21.1079H24.0568C23.7281 21.236 23.4483 21.3955 23.2176 21.5863C22.9812 21.78 22.7908 22.005 22.6409 22.2556C22.5111 22.4721 22.4102 22.7113 22.3323 22.9676C22.266 23.1926 22.217 23.4318 22.1824 23.6825H45.3306C45.2902 23.4603 45.2672 23.241 45.2614 23.0217C45.2556 22.7569 45.2758 22.4948 45.3248 22.2357ZM50.6253 51.2397V53.8456C51.0867 53.8912 51.5164 53.9054 51.8999 53.8769C52.3036 53.8456 52.6555 53.7687 52.9438 53.6235C53.2293 53.4811 53.4572 53.2561 53.6129 52.9314C53.7744 52.5982 53.8609 52.1567 53.8609 51.5871C53.8609 51.5074 53.8638 51.422 53.8667 51.3365L53.8724 51.2254C53.8551 51.234 53.8349 51.2397 53.8147 51.2397H53.809C53.7859 51.2397 53.7657 51.2425 53.7455 51.2397H50.6253ZM29.6081 29.256C29.4524 29.256 29.314 29.1933 29.2131 29.0937C29.1121 28.994 29.0487 28.8544 29.0487 28.7035C29.0487 28.5497 29.1121 28.413 29.2131 28.3133C29.314 28.2136 29.4553 28.151 29.6081 28.151H42.6371C42.7929 28.151 42.9313 28.2136 43.0322 28.3133C43.1332 28.413 43.1966 28.5525 43.1966 28.7035C43.1966 28.8573 43.1332 28.994 43.0322 29.0937C42.9313 29.1933 42.79 29.256 42.6371 29.256H29.6081ZM29.6081 33.8156C29.4524 33.8156 29.3111 33.753 29.2102 33.6533C29.1092 33.5536 29.0458 33.4141 29.0458 33.2631C29.0458 33.1093 29.1092 32.9726 29.2102 32.8729C29.3111 32.7733 29.4524 32.7106 29.6081 32.7106H45.5902C45.7459 32.7106 45.8872 32.7733 45.9881 32.8729C46.089 32.9726 46.1525 33.1122 46.1525 33.2631C46.1525 33.4169 46.089 33.5536 45.9881 33.6533C45.8872 33.753 45.7459 33.8156 45.5902 33.8156H29.6081ZM29.6081 38.381C29.4524 38.381 29.314 38.3183 29.2131 38.2186C29.1121 38.119 29.0487 37.9794 29.0487 37.8285C29.0487 37.6747 29.1121 37.538 29.2131 37.4354C29.314 37.3358 29.4553 37.2731 29.611 37.2731H42.3834C42.5391 37.2731 42.6775 37.3358 42.7784 37.4354C42.8794 37.5351 42.9428 37.6747 42.9428 37.8256C42.9428 37.9794 42.8794 38.1161 42.7784 38.2158C42.6775 38.3155 42.5362 38.3781 42.3834 38.3781H29.6081V38.381ZM29.6081 42.9492C29.4553 42.9492 29.314 42.8865 29.2131 42.7868C29.1121 42.6871 29.0487 42.5476 29.0487 42.3938C29.0487 42.24 29.1121 42.1005 29.2131 42.0008C29.314 41.9011 29.4553 41.8384 29.6081 41.8384H36.2178C36.3706 41.8384 36.512 41.9011 36.6129 42.0008C36.7138 42.1005 36.7773 42.24 36.7773 42.3938C36.7773 42.5476 36.7138 42.6871 36.6129 42.7868C36.512 42.8865 36.3706 42.9492 36.2178 42.9492H29.6081ZM43.9522 41.6761C44.056 41.6704 44.1483 41.6875 44.2348 41.716C44.3184 41.7445 44.3963 41.7872 44.477 41.8356C44.5578 41.8869 44.6414 41.9552 44.7308 42.0321L44.7365 42.0378C44.849 42.1318 44.973 42.2372 45.1114 42.3141C45.2239 42.3767 45.3912 42.3824 45.5671 42.391C45.8987 42.4023 46.2592 42.4166 46.4985 42.7669C46.7033 43.0716 46.7206 43.3023 46.735 43.533L46.7379 43.5586C46.7437 43.6697 46.7581 43.7751 46.7985 43.889C46.8388 44.0058 46.908 44.1311 47.0234 44.2849C47.2397 44.5668 47.3695 44.8061 47.4185 45.0253C47.4704 45.256 47.4358 45.4639 47.3175 45.6747L47.3147 45.6804C47.2253 45.8313 47.0955 45.9424 46.983 46.0364C46.8994 46.1076 46.8244 46.1702 46.8013 46.2215C46.7408 46.3611 46.7379 46.4892 46.7379 46.6231C46.735 46.8053 46.7321 46.9933 46.611 47.2325L46.6081 47.2382C46.5303 47.3863 46.4322 47.5116 46.314 47.6113C46.1929 47.7139 46.0516 47.7908 45.8901 47.842C45.7459 47.8876 45.6132 47.879 45.4835 47.8705C45.3768 47.862 45.2787 47.8563 45.2037 47.8876L45.1951 47.8904C45.0393 47.9559 44.898 48.0699 44.7625 48.1752C44.6125 48.2948 44.4712 48.4059 44.3097 48.4572C44.1915 48.4942 44.0733 48.5113 43.955 48.5113C43.8368 48.5113 43.7186 48.4942 43.6003 48.4572L43.5946 48.4543C43.436 48.4059 43.2946 48.292 43.1447 48.1724C43.0092 48.0642 42.865 47.9502 42.7064 47.8847C42.6314 47.8534 42.5333 47.862 42.4266 47.8676C42.2997 47.8762 42.1642 47.8847 42.0171 47.8392L42.0085 47.8363C41.8499 47.7851 41.7114 47.7082 41.5903 47.6085C41.4721 47.506 41.3712 47.3806 41.2962 47.2297C41.1751 46.9905 41.1722 46.8025 41.1693 46.6202C41.1664 46.4864 41.1664 46.3582 41.1058 46.2187L41.103 46.2158C41.077 46.1617 41.002 46.099 40.9184 46.0278C40.803 45.931 40.6733 45.8228 40.5868 45.6718L40.581 45.6633C40.4628 45.4554 40.431 45.2503 40.4829 45.0197C40.532 44.8004 40.6646 44.5611 40.8809 44.2792C40.9991 44.1282 41.0655 44.0001 41.1058 43.8833C41.1462 43.7694 41.1606 43.6612 41.1664 43.5501L41.1693 43.5273C41.1837 43.2966 41.201 43.0602 41.4058 42.7612L41.4115 42.7555C41.648 42.4109 42.0056 42.3995 42.3343 42.3881C42.5103 42.3824 42.6804 42.3739 42.7929 42.3112L42.7958 42.3084C42.9313 42.2315 43.0553 42.1289 43.1678 42.0321C43.2572 41.9552 43.3408 41.884 43.4273 41.8327C43.5052 41.7815 43.5859 41.7416 43.6695 41.7131C43.7589 41.6875 43.8512 41.6733 43.9522 41.6761ZM45.296 43.7665C44.9528 43.4276 44.4799 43.2169 43.955 43.2169C43.4302 43.2169 42.9572 43.4276 42.6141 43.7665C42.2709 44.1054 42.0575 44.5725 42.0575 45.0909C42.0575 45.6092 42.2709 46.0763 42.6141 46.4152C42.9572 46.7541 43.4302 46.9648 43.955 46.9648C44.4799 46.9648 44.9528 46.7541 45.296 46.4152C45.6392 46.0763 45.8526 45.6092 45.8526 45.0909C45.8497 44.5754 45.6392 44.1054 45.296 43.7665ZM41.3077 50.9834L40.4397 51.1372C40.431 51.14 40.4224 51.14 40.4108 51.14C40.2205 51.1542 40.1081 51.0973 40.0504 50.9862C39.9985 50.8894 40.0071 50.7584 40.0504 50.6046L40.0561 50.5875L40.1484 50.391L41.2125 48.3632C41.2183 48.349 41.2298 48.3376 41.2414 48.3262C41.2904 48.2892 41.3567 48.2977 41.3942 48.3461C41.5586 48.554 41.7547 48.6793 41.971 48.7534C42.1902 48.8274 42.4295 48.8445 42.6775 48.8388C42.7064 48.836 42.7352 48.8445 42.7611 48.8673C42.8909 48.9812 43.0178 49.0923 43.1389 49.1806C43.2543 49.266 43.361 49.3315 43.4561 49.3628L43.4706 49.3685C43.5254 49.397 43.5455 49.4625 43.5167 49.5138L42.5968 51.2283L42.5708 51.2938C42.5045 51.4704 42.4007 51.7381 42.2449 51.8634C42.1008 51.9773 41.9364 51.9859 41.7518 51.7637C41.7489 51.758 41.7432 51.7552 41.7403 51.7495L41.3077 50.9834Z" fill="#F9F9F9" stroke="#F9F9F9" stroke-width="0.4"/>
</svg>
