<svg width="16" height="17" viewBox="0 0 16 17" fill="none" xmlns="http://www.w3.org/2000/svg">
<path d="M1.75 13C0.783502 13 -3.42479e-08 12.2165 -7.64949e-08 11.25C-1.18742e-07 10.2835 0.783502 9.5 1.75 9.5C2.7165 9.5 3.5 10.2835 3.5 11.25C3.5 12.2165 2.7165 13 1.75 13Z" fill="#F9F9F9"/>
<path d="M1.75 7.5C0.783502 7.5 -2.74661e-07 6.7165 -3.16908e-07 5.75C-3.59155e-07 4.7835 0.783501 4 1.75 4C2.7165 4 3.5 4.7835 3.5 5.75C3.5 6.7165 2.7165 7.5 1.75 7.5Z" fill="#F9F9F9"/>
<path d="M14.25 13C13.2835 13 12.5 12.2165 12.5 11.25C12.5 10.2835 13.2835 9.5 14.25 9.5C15.2165 9.5 16 10.2835 16 11.25C16 12.2165 15.2165 13 14.25 13Z" fill="#F9F9F9"/>
<path d="M14.25 7.5C13.2835 7.5 12.5 6.7165 12.5 5.75C12.5 4.7835 13.2835 4 14.25 4C15.2165 4 16 4.7835 16 5.75C16 6.7165 15.2165 7.5 14.25 7.5Z" fill="#F9F9F9"/>
<path d="M7.9 13C6.9335 13 6.15 12.2165 6.15 11.25C6.15 10.2835 6.9335 9.5 7.9 9.5L8 9.5C8.9665 9.5 9.75 10.2835 9.75 11.25C9.75 12.2165 8.9665 13 8 13L7.9 13Z" fill="#F9F9F9"/>
<path d="M7.9 7.5C6.9335 7.5 6.15 6.7165 6.15 5.75C6.15 4.7835 6.9335 4 7.9 4L8 4C8.9665 4 9.75 4.7835 9.75 5.75C9.75 6.7165 8.9665 7.5 8 7.5L7.9 7.5Z" fill="#F9F9F9"/>
</svg>
