<svg width="24" height="24" viewBox="0 0 24 24" fill="none" xmlns="http://www.w3.org/2000/svg">
<path d="M12.0375 3.00062C12.2364 3.00062 12.4272 3.07963 12.5679 3.22029C12.7085 3.36094 12.7875 3.5517 12.7875 3.75062L12.7875 13.3306L16.0375 10.0806C16.1797 9.94814 16.3678 9.87601 16.5621 9.87944C16.7564 9.88287 16.9417 9.96158 17.0792 10.099C17.2166 10.2364 17.2953 10.4218 17.2987 10.6161C17.3021 10.8104 17.23 10.9984 17.0975 11.1406L12.5675 15.6706C12.4983 15.7407 12.4157 15.7963 12.3247 15.8341C12.2337 15.8719 12.1361 15.8911 12.0375 15.8906C11.8375 15.8906 11.6375 15.8006 11.5075 15.6706L6.97754 11.1406C6.90385 11.072 6.84475 10.9892 6.80375 10.8972C6.76276 10.8052 6.74072 10.7058 6.73894 10.6051C6.73717 10.5044 6.75569 10.4044 6.79341 10.311C6.83113 10.2176 6.88728 10.1328 6.9585 10.0616C7.02972 9.99036 7.11455 9.93421 7.20794 9.89649C7.30133 9.85877 7.40136 9.84025 7.50206 9.84202C7.60276 9.8438 7.70208 9.86584 7.79407 9.90684C7.88607 9.94783 7.96887 10.0069 8.03754 10.0806L11.2875 13.3306L11.2875 3.75062C11.2875 3.35062 11.6275 3.00062 12.0375 3.00062Z" fill="#1E1E1E"/>
<path d="M7.25 20.9793C6.38805 20.9793 5.5614 20.6369 4.9519 20.0274C4.34241 19.4179 4 18.5913 4 17.7293V11.5293C4 11.3304 4.07902 11.1396 4.21967 10.999C4.36032 10.8583 4.55109 10.7793 4.75 10.7793C4.94891 10.7793 5.13968 10.8583 5.28033 10.999C5.42098 11.1396 5.5 11.3304 5.5 11.5293V17.7293C5.5 18.6993 6.28 19.4793 7.25 19.4793H16.75C17.72 19.4793 18.5 18.6993 18.5 17.7293V11.5293C18.5 11.3304 18.579 11.1396 18.7197 10.999C18.8603 10.8583 19.0511 10.7793 19.25 10.7793C19.4489 10.7793 19.6397 10.8583 19.7803 10.999C19.921 11.1396 20 11.3304 20 11.5293V17.7293C20 19.5293 18.54 20.9793 16.75 20.9793H7.25Z" fill="#1E1E1E"/>
</svg>
