<svg width="22" height="16" viewBox="0 0 22 16" fill="none" xmlns="http://www.w3.org/2000/svg">
<path fill-rule="evenodd" clip-rule="evenodd" d="M20.2661 8.22336C20.3811 7.74969 20.8565 7.45893 21.3274 7.57331C21.7988 7.68789 22.088 8.16369 21.9759 8.63704V8.63904C21.8918 8.98408 21.8184 9.32275 21.7521 9.65269L21.5681 10.6163C21.4192 11.4119 21.2818 12.1506 21.0867 12.8008C20.8908 13.4534 20.6311 14.0382 20.2263 14.5236C19.4027 15.5108 18.0544 16 15.7335 16H6.58382C4.14893 16 2.73939 15.5441 1.87321 14.5647C1.44565 14.0812 1.17072 13.4912 0.960126 12.8218C0.750466 12.1553 0.597973 11.3878 0.430978 10.5451C0.33552 10.0637 0.241448 9.58552 0.135569 9.11181L0.0251643 8.63904C-0.0904466 8.16295 0.203699 7.68753 0.67367 7.57331C1.14443 7.4592 1.61897 7.74983 1.73396 8.22336C1.91485 8.97186 2.04309 9.61699 2.15966 10.2036C2.2985 10.9042 2.41745 11.502 2.57741 12.0145C2.73651 12.5242 2.93078 12.9271 3.20602 13.2435C3.7446 13.8626 4.67326 14.2341 6.58581 14.2341H15.7315C17.5072 14.2341 18.3728 13.8458 18.8746 13.2295C19.1327 12.9123 19.3137 12.5124 19.4604 12.0175C19.6079 11.5202 19.7153 10.9478 19.8384 10.2897C19.9549 9.66349 20.083 8.97723 20.2661 8.22336ZM21.4527 9.59159C21.4418 9.64591 21.4314 9.70006 21.4209 9.75385C21.464 9.53542 21.5094 9.3124 21.5591 9.08576L21.4527 9.59159Z" fill="#fff"/>
<path fill-rule="evenodd" clip-rule="evenodd" d="M10.999 0C11.466 0 11.8532 0.376689 11.8534 0.850382V6.95931L13.8725 5.19444L13.9402 5.14035C14.2898 4.89104 14.7785 4.93965 15.0711 5.26756C15.3852 5.6201 15.3521 6.15836 14.9975 6.46951L11.562 9.47239L11.561 9.47139C11.2336 9.75801 10.7485 9.75091 10.4311 9.46638L7.00157 6.47051C6.64691 6.15937 6.61281 5.62012 6.92697 5.26756C7.23893 4.92019 7.77415 4.88801 8.12551 5.19344L8.12651 5.19444L10.1456 6.95931V0.850382C10.1458 0.376825 10.5322 0.000216324 10.999 0ZM11.5093 0.654063C11.5073 0.649161 11.5064 0.643871 11.5043 0.639038C11.5028 0.635612 11.5009 0.63242 11.4993 0.629022C11.5031 0.63719 11.506 0.645688 11.5093 0.654063Z" fill="#fff"/>
</svg>
