<svg width="15" height="8" viewBox="0 0 15 8" fill="none" xmlns="http://www.w3.org/2000/svg">
<path d="M12.6602 0.59668C13.0074 0.260907 13.5626 0.26985 13.9004 0.612305C14.2393 0.956316 14.2313 1.50765 13.8828 1.84277L13.8838 1.84375L8.17578 7.36328C8.16996 7.36978 8.16224 7.37682 8.1543 7.38477L8.15527 7.38574C7.85207 7.69464 7.37458 7.73258 7.02734 7.49609L7.01953 7.50488L6.93555 7.4248C6.92818 7.41821 6.92029 7.41215 6.91309 7.40527L6.80273 7.2998L6.80371 7.29785L1.11621 1.84375C0.768439 1.50868 0.760531 0.956482 1.09961 0.612305C1.43771 0.269448 1.99203 0.261868 2.33984 0.595703L7.52148 5.56543L12.6602 0.59668Z" fill="#1E1E1E" stroke="#1E1E1E" stroke-width="0.3"/>
</svg>
