<svg width="24" height="24" viewBox="0 0 24 24" fill="none" xmlns="http://www.w3.org/2000/svg">
<g clip-path="url(#clip0_999_23069)">
<mask id="mask0_999_23069" style="mask-type:luminance" maskUnits="userSpaceOnUse" x="0" y="0" width="24" height="24">
<path d="M24 0H0V24H24V0Z" fill="white"/>
</mask>
<g mask="url(#mask0_999_23069)">
<path d="M11.3953 0.145312C10.4016 0.642187 9.43125 2.39062 8.77031 4.875C8.63906 5.3625 8.34375 6.73125 8.34375 6.84375C8.34375 6.87187 9.69844 6.89062 12 6.89062C14.2313 6.89062 15.6563 6.87187 15.6563 6.84844C15.6563 6.68906 15.2906 5.08125 15.1219 4.48594C14.8453 3.52969 14.6344 2.95781 14.2734 2.22656C13.7344 1.12969 13.1766 0.43125 12.6047 0.145312C12.3656 0.028125 12.2578 0 12 0C11.7422 0 11.6344 0.028125 11.3953 0.145312Z" fill="#1E1E1E"/>
<path d="M8.64844 0.45C5.8875 1.25625 3.49219 3.0375 1.90781 5.46094C1.62656 5.89687 1.125 6.7875 1.125 6.85781C1.125 6.87656 2.44219 6.89062 4.05 6.89062H6.975L7.00781 6.66562C7.06875 6.23437 7.3125 5.08125 7.45781 4.54687C7.9125 2.83594 8.45625 1.56094 9.225 0.384375C9.2625 0.328125 9.27188 0.28125 9.25313 0.28125C9.22969 0.285937 8.95781 0.360937 8.64844 0.45Z" fill="#1E1E1E"/>
<path d="M14.7494 0.337688C14.7682 0.3705 14.876 0.534563 14.9838 0.703313C15.415 1.37363 15.9072 2.4705 16.2353 3.49238C16.54 4.43925 16.8728 5.83613 16.9947 6.66581L17.0275 6.89081H19.9525C21.5603 6.89081 22.8775 6.87675 22.8775 6.858C22.8775 6.78769 22.376 5.89706 22.0947 5.46113C21.4385 4.458 20.4728 3.38456 19.5728 2.658C18.3353 1.65956 16.8307 0.872063 15.3728 0.454875C14.7588 0.27675 14.7072 0.267375 14.7494 0.337688Z" fill="#1E1E1E"/>
<path d="M0.474856 8.56406C0.338919 9.01875 0.207669 9.6 0.109231 10.1953C0.00141872 10.8422 -0.0126438 13.0031 0.0857937 13.6406C0.151419 14.0578 0.268606 14.6812 0.310794 14.8219C0.334231 14.9016 0.526419 14.9062 3.52642 14.9062H6.71392L6.69048 14.7703C6.67642 14.6953 6.63892 14.0437 6.60611 13.3172C6.54517 11.9437 6.59204 10.1344 6.72329 8.82187L6.77954 8.25H3.67173H0.568606L0.474856 8.56406Z" fill="#1E1E1E"/>
<path d="M8.13889 8.35312C8.08733 8.5875 8.01233 9.6 7.96077 10.7297C7.91858 11.6625 7.91858 12.2156 7.96545 13.2609C7.99827 13.9969 8.03577 14.6719 8.04983 14.7516L8.07327 14.9062H12.0014H15.9295L15.953 14.7516C15.967 14.6719 16.0045 13.9969 16.0373 13.2609C16.0842 12.2156 16.0842 11.6625 16.042 10.7297C15.9905 9.6 15.9155 8.5875 15.8639 8.35312L15.8451 8.25H12.0014H8.15764L8.13889 8.35312Z" fill="#1E1E1E"/>
<path d="M17.2789 8.84531C17.4102 10.2328 17.457 11.9016 17.3961 13.2937C17.368 14.0297 17.3305 14.6953 17.3117 14.7703L17.2883 14.9062H20.4758C23.4758 14.9062 23.668 14.9016 23.6914 14.8219C23.757 14.5969 23.907 13.6969 23.9586 13.2281C24.0383 12.45 23.9914 10.7719 23.8648 10.0547C23.757 9.42656 23.668 9.03281 23.5273 8.56406L23.4336 8.25H20.3305H17.2227L17.2789 8.84531Z" fill="#1E1E1E"/>
<path d="M0.825 16.4625C1.00313 16.9406 1.57031 18.0187 1.9125 18.5391C2.42344 19.3172 2.93438 19.9406 3.61406 20.6016C5.07656 22.0266 6.74063 23.0016 8.66719 23.5547C8.98594 23.6437 9.25313 23.7141 9.2625 23.7094C9.26719 23.7 9.16875 23.5266 9.0375 23.3203C8.07188 21.7641 7.40625 19.7625 6.96094 17.0625C6.89531 16.6641 6.84375 16.3219 6.84375 16.3031C6.84375 16.2844 5.475 16.2656 3.79688 16.2656H0.75L0.825 16.4625Z" fill="#1E1E1E"/>
<path d="M8.22344 16.3922C8.2375 16.4672 8.27969 16.725 8.32187 16.9734C8.43906 17.7328 8.66875 18.7687 8.88437 19.5187C9.55469 21.8625 10.5016 23.4562 11.4859 23.9016C11.7719 24.0328 12.2312 24.0328 12.5172 23.9016C13.5016 23.4562 14.4484 21.8625 15.1187 19.5187C15.3344 18.7687 15.5641 17.7328 15.6812 16.9734C15.7234 16.725 15.7656 16.4672 15.7797 16.3922L15.8078 16.2656H12.0016H8.19531L8.22344 16.3922Z" fill="#1E1E1E"/>
<path d="M17.1572 16.3078C17.1572 16.3312 17.0963 16.725 17.0166 17.175C16.7634 18.7031 16.4166 20.0531 16.0041 21.1875C15.7931 21.7547 15.2681 22.8375 14.9634 23.3203C14.8322 23.5266 14.7338 23.7 14.7384 23.7094C14.7478 23.7141 15.015 23.6437 15.3338 23.5547C17.3541 22.9734 19.1119 21.9141 20.6025 20.3859C21.2447 19.7297 21.6338 19.2422 22.1213 18.4922C22.4353 18.0094 23.0025 16.9172 23.1759 16.4625L23.2509 16.2656H20.2041C18.3478 16.2656 17.1572 16.2844 17.1572 16.3078Z" fill="#1E1E1E"/>
</g>
</g>
<defs>
<clipPath id="clip0_999_23069">
<rect width="24" height="24" fill="white"/>
</clipPath>
</defs>
</svg>
