<svg width="24" height="24" viewBox="0 0 24 24" fill="none" xmlns="http://www.w3.org/2000/svg">
<path fill-rule="evenodd" clip-rule="evenodd" d="M12.5144 2.01309C17.7981 2.28084 22 6.6498 22 12C22 17.5228 17.5228 22 12 22C6.47727 22 2 17.5228 2 12C2 6.47727 6.47727 2 12 2L12.5144 2.01309ZM8.47337 12.7218C8.55357 14.9096 8.99287 16.8477 9.6412 18.2589C10.3888 19.886 11.2757 20.5563 12 20.5563C12.7243 20.5563 13.6112 19.886 14.3588 18.2589C15.0071 16.8477 15.4464 14.9096 15.5266 12.7218H8.47337ZM3.47589 12.7218C3.7547 16.0589 5.94706 18.8494 8.95359 19.9956C8.7227 19.6437 8.51413 19.2618 8.33041 18.862C7.58209 17.2333 7.10929 15.0821 7.02869 12.7218H3.47589ZM16.9703 12.7218C16.8897 15.082 16.4179 17.2333 15.6696 18.862C15.4858 19.262 15.2764 19.6435 15.0454 19.9956C18.0524 18.8496 20.2453 16.0592 20.5241 12.7218H16.9703ZM8.95359 4.00342C5.94689 5.14953 3.75472 7.94103 3.47589 11.2782H7.02869C7.10929 8.91796 7.58209 6.76672 8.33041 5.13802C8.51425 4.73794 8.72252 4.35551 8.95359 4.00342ZM12 3.44367C11.2757 3.44367 10.3888 4.11395 9.6412 5.74106C8.99287 7.15233 8.55357 9.09039 8.47337 11.2782H15.5266C15.4464 9.09039 15.0071 7.15233 14.3588 5.74106C13.6112 4.11395 12.7243 3.44367 12 3.44367ZM15.0454 4.00342C15.2766 4.35564 15.4857 4.73776 15.6696 5.13802C16.4179 6.76672 16.8897 8.91797 16.9703 11.2782H20.5241C20.2453 7.9407 18.0526 5.14932 15.0454 4.00342Z" fill="#F9F9F9"/>
</svg>
