<svg width="18" height="18" viewBox="0 0 18 18" fill="none" xmlns="http://www.w3.org/2000/svg">

<path d="M4.19822 0.240635H8.62494L6.51265 2.47333H4.19822C3.93699 2.47353 3.67838 2.52599 3.43729 2.6277C3.1962 2.72941 2.97738 2.87835 2.79344 3.06596C2.60795 3.25199 2.46069 3.47331 2.36013 3.71715C2.25957 3.961 2.2077 4.22256 2.20751 4.48676V15.7673H13.3608C13.622 15.7673 13.8807 15.7149 14.1218 15.6132C14.3629 15.5114 14.5817 15.3624 14.7655 15.1747C14.9511 14.9887 15.0985 14.7674 15.1991 14.5236C15.2996 14.2797 15.3514 14.0181 15.3515 13.7539V11.4501L17.559 9.11809V13.7539C17.5583 14.3106 17.4491 14.8617 17.2377 15.3757C17.0263 15.8897 16.7169 16.3566 16.327 16.7496V16.757C15.5427 17.5518 14.4783 17.9989 13.3681 18H1.68456C1.23926 17.9992 0.812506 17.8196 0.498044 17.5007C0.340763 17.3426 0.215824 17.1548 0.130367 16.9479C0.0449098 16.7409 0.00061016 16.519 0 16.2947V4.48676C0.000734887 3.93028 0.109916 3.37941 0.321299 2.86564C0.532683 2.35187 0.842123 1.88528 1.23193 1.49255L1.23925 1.47921C1.62749 1.08541 2.08863 0.772809 2.59634 0.559275C3.10404 0.345741 3.64836 0.235453 4.19822 0.234709V0.240635ZM10.6933 11.3271L6.38375 12.216L7.0063 7.57728L10.6933 11.3271ZM8.3686 6.17277L14.1064 0.132482C14.1679 0.0641683 14.2507 0.0191507 14.341 0.0048728C14.4313 -0.00940514 14.5237 0.00791163 14.6029 0.0539599L17.8959 3.27782C17.9311 3.31298 17.9585 3.3553 17.9764 3.40197C17.9943 3.44865 18.0021 3.49862 17.9995 3.5486C17.9969 3.59858 17.9838 3.64743 17.9611 3.69192C17.9385 3.73642 17.9068 3.77555 17.8681 3.80673L12.0527 9.92406L8.3686 6.17277Z" fill="#F9F9F9"/>


</svg>
