<svg width="14" height="14" viewBox="0 0 14 14" fill="none" xmlns="http://www.w3.org/2000/svg">
<path d="M3.26528 0.187161H6.70829L5.0654 1.9237H3.26528C3.0621 1.92386 2.86097 1.96466 2.67345 2.04377C2.48593 2.12287 2.31574 2.23872 2.17267 2.38463C2.02841 2.52933 1.91387 2.70146 1.83566 2.89112C1.75744 3.08078 1.7171 3.28421 1.71695 3.4897V12.2635H10.3917C10.5949 12.2634 10.7961 12.2227 10.9836 12.1436C11.1711 12.0645 11.3413 11.9485 11.4843 11.8025C11.6287 11.6579 11.7433 11.4858 11.8215 11.2961C11.8997 11.1064 11.94 10.903 11.94 10.6975V8.9056L13.657 7.09185V10.6975C13.6564 11.1304 13.5715 11.5591 13.4071 11.9589C13.2427 12.3587 13.002 12.7218 12.6988 13.0274V13.0332C12.0888 13.6514 11.2609 13.9991 10.3974 14H1.31021C0.963873 13.9994 0.631949 13.8597 0.387367 13.6117C0.265038 13.4887 0.167863 13.3426 0.101397 13.1817C0.0349299 13.0207 0.000474569 12.8481 0 12.6737L0 3.4897C0.000571579 3.05689 0.08549 2.62843 0.249899 2.22883C0.414309 1.82923 0.654985 1.46633 0.958164 1.16087L0.963861 1.1505C1.26583 0.844204 1.62449 0.601073 2.01937 0.434991C2.41426 0.268909 2.83762 0.18313 3.26528 0.182552V0.187161ZM8.317 8.80996L4.96514 9.50135L5.44935 5.89344L8.317 8.80996ZM6.50891 4.80104L10.9716 0.103042C11.0195 0.0499087 11.0839 0.014895 11.1541 0.00378995C11.2243 -0.00731511 11.2962 0.00615349 11.3578 0.0419688L13.919 2.54941C13.9464 2.57676 13.9678 2.60968 13.9816 2.64598C13.9955 2.68228 14.0017 2.72115 13.9996 2.76002C13.9976 2.7989 13.9874 2.83689 13.9698 2.87149C13.9522 2.9061 13.9275 2.93654 13.8974 2.96079L9.37429 7.71871L6.50891 4.80104Z" fill="#1E1E1E" fill-opacity="0.5"/>
</svg>
