<svg width="24" height="24" viewBox="0 0 24 24" fill="none" xmlns="http://www.w3.org/2000/svg">
<path d="M11.9998 3C16.9705 3 21 7.02943 21 11.9996C21 16.9701 16.9705 21 11.9998 21C7.02953 21 3 16.9701 3 11.9996C3 7.02943 7.02953 3 11.9998 3Z" fill="#FEFEFE"/>
<path d="M8.98374 8.81829V3.51586C7.2653 4.1272 5.78765 5.24632 4.73047 6.69108L8.98374 8.81829ZM8.98374 15.1771V20.4795C7.26613 19.8682 5.7889 18.7499 4.73088 17.3043L8.98374 15.1771ZM14.9954 15.1771V20.4866C16.7192 19.8781 18.2015 18.759 19.2628 17.3118L14.9954 15.1771ZM14.9954 8.81829V3.50879C16.7192 4.11722 18.2023 5.23634 19.2632 6.68401L14.9954 8.81829Z" fill="#012169"/>
<path d="M19.9973 15.001H17.9965L20.0489 16.029C20.1824 15.7624 20.303 15.4884 20.4103 15.2077L19.9973 15.001ZM19.6089 7.19246L16.0148 8.99445H18.0156L20.0514 7.97556C19.917 7.7069 19.769 7.44531 19.6089 7.19246ZM10.1869 13.7991V20.817C10.7725 20.9364 11.3789 21 11.9998 21C12.6136 21 13.2138 20.938 13.7935 20.8212V13.7991H20.8195C20.9372 13.2177 21 12.6163 21 11.9996C21 11.3808 20.9372 10.7761 20.8183 10.1918H13.7935V3.17924C13.2031 3.05989 12.6022 2.99985 11.9998 3C11.3789 3 10.7725 3.06405 10.1869 3.18299V10.1918H3.18174C3.06072 10.7868 2.99983 11.3924 3 11.9996C3 12.6163 3.0628 13.2177 3.1805 13.7991H10.1869ZM3.97817 8.99903H5.979L3.94573 7.98096C3.81264 8.24754 3.69162 8.52243 3.58474 8.80274L3.97817 8.99903ZM7.96527 15.0055H5.96444L3.94448 16.0165C4.0794 16.2864 4.22778 16.5493 4.38906 16.8042L7.98357 15.0055H7.96527Z" fill="#C8102E"/>
</svg>
