<svg width="16" height="16" viewBox="0 0 16 16" fill="none" xmlns="http://www.w3.org/2000/svg">
<path fill-rule="evenodd" clip-rule="evenodd" d="M7.47874 5.49851C6.08212 4.23694 3.89272 4.81369 2.04024 4.61059C2.34282 3.66279 2.74714 2.63036 3.19242 1.53934C3.58617 0.573314 3.59014 0.574616 4.32214 0.729546C4.45691 0.758188 4.61019 0.790736 4.76478 0.820681L7.20391 1.29458C7.32679 1.32843 7.41796 1.38181 7.48007 1.45342C7.54349 1.52633 7.58445 1.62267 7.60427 1.74375C7.59238 2.09527 7.58709 2.48454 7.58181 2.89075C7.57124 3.71356 7.55934 4.6158 7.47874 5.49851ZM11.1837 15.7408C10.9445 15.7863 10.7133 15.6314 10.6671 15.3958C10.6208 15.1601 10.778 14.9323 11.0172 14.8867L12.8763 14.5326L12.0822 10.7075C11.8113 10.7336 11.551 10.7297 11.3039 10.6958C10.7596 10.6216 10.2786 10.4068 9.85974 10.0553C8.69831 9.08272 8.24642 7.49566 8.06408 5.83961C7.88174 7.49436 7.42986 9.08141 6.26843 10.0553C5.84825 10.4068 5.36729 10.6216 4.82424 10.6958C4.57715 10.7297 4.31818 10.7336 4.04599 10.7075L3.19771 14.7969L4.98412 15.138C5.22327 15.1835 5.38051 15.4114 5.33426 15.647C5.28802 15.8827 5.05679 16.0376 4.81763 15.992L0.358217 15.1419C0.119061 15.0963 -0.0381748 14.8685 0.00807093 14.6328C0.0543167 14.3972 0.285546 14.2423 0.524702 14.2878L2.33093 14.6315L3.18185 10.5344C3.15014 10.5253 3.11843 10.5148 3.0854 10.5044C3.08011 10.5031 3.07483 10.5018 3.06954 10.4992C1.32409 9.93938 0.762538 8.71818 0.881455 7.04259C0.992445 5.47247 1.72577 3.50395 2.61897 1.31281C3.20828 -0.129727 3.21356 -0.128425 4.45031 0.133263C4.57055 0.159301 4.70796 0.187944 4.88237 0.221794L7.32679 0.696998C7.3334 0.698299 7.34001 0.699601 7.34661 0.700903C7.60163 0.767302 7.79982 0.887079 7.94781 1.05633C7.99141 1.1071 8.02973 1.16048 8.06408 1.21777C8.09712 1.16048 8.13676 1.1058 8.18036 1.05633C8.32834 0.887079 8.52786 0.767302 8.78155 0.700903C8.78816 0.699601 8.79477 0.698299 8.80137 0.696998L11.2458 0.221794C11.4202 0.187944 11.5576 0.159301 11.6779 0.133263C12.9146 -0.128425 12.9199 -0.129727 13.5079 1.31281C14.4024 3.50395 15.1344 5.47247 15.2454 7.04259C15.3643 8.71687 14.8028 9.93938 13.0573 10.4992C13.052 10.5005 13.0467 10.5018 13.0414 10.5044C13.0097 10.5148 12.9767 10.5239 12.945 10.5344L13.7404 14.3685L15.4753 14.0379C15.7145 13.9923 15.9457 14.1472 15.9919 14.3829C16.0382 14.6185 15.8809 14.8463 15.6418 14.8919L11.1837 15.7408ZM9.79103 7.75084C9.75536 7.66101 9.80028 7.56076 9.89145 7.52561C9.98262 7.49046 10.0844 7.53472 10.12 7.62456C10.346 8.19089 10.6591 8.60751 11.0476 8.89393C11.4347 9.17776 11.9012 9.33529 12.4363 9.38086C12.5341 9.38867 12.6054 9.47329 12.5975 9.56964C12.5896 9.66598 12.5037 9.73628 12.4059 9.72847C11.806 9.67639 11.2788 9.49803 10.8362 9.17385C10.3962 8.84837 10.0434 8.38098 9.79103 7.75084ZM8.66264 5.64172C10.6697 4.7499 12.7508 3.78777 13.8197 3.82032C13.562 3.09775 13.2595 2.33352 12.9357 1.53934C12.542 0.573314 12.538 0.574616 11.806 0.729546C11.6713 0.758188 11.518 0.790736 11.3634 0.820681L8.92558 1.29458C8.80269 1.32843 8.71152 1.38181 8.64942 1.45342C8.586 1.52633 8.54504 1.62267 8.52522 1.74375C8.53711 2.09527 8.5424 2.48454 8.54768 2.89075C8.55693 3.75783 8.56882 4.71345 8.66264 5.64172ZM6.43227 6.96578C6.44548 6.87074 6.53533 6.80434 6.63179 6.81866C6.72824 6.83168 6.79563 6.92021 6.78109 7.01525C6.682 7.68444 6.44812 8.21954 6.09269 8.63485C5.73726 9.05147 5.26555 9.3444 4.69475 9.52928C4.60226 9.55922 4.50184 9.50975 4.47145 9.41861C4.44106 9.32748 4.49127 9.22853 4.58376 9.19859C5.0951 9.03324 5.51264 8.77546 5.82315 8.41092C6.1363 8.04638 6.34242 7.56987 6.43227 6.96578Z" fill="#F9F9F9"/>
</svg>
