<svg width="46" height="46" viewBox="0 0 46 46" fill="none" xmlns="http://www.w3.org/2000/svg">
<path d="M33 23.0368C33 17.4936 28.5229 13 23 13C17.4771 13 13 17.4936 13 23.0368C13 27.7438 16.2286 31.6933 20.5843 32.7779V26.1038H18.5221V23.0368H20.5843V21.7152C20.5843 18.299 22.1246 16.7156 25.4662 16.7156C26.0997 16.7156 27.1928 16.8402 27.64 16.9649V19.7452C27.404 19.7204 26.9941 19.7078 26.4848 19.7078C24.845 19.7078 24.2115 20.3313 24.2115 21.952V23.0368H27.4779L26.9167 26.1038H24.2115V33C29.1629 32.3998 33 28.1682 33 23.0368Z" fill="#F9F9F9"/>
</svg>
