<svg width="76" height="76" viewBox="0 0 76 76" fill="none" xmlns="http://www.w3.org/2000/svg">
<path fill-rule="evenodd" clip-rule="evenodd" d="M47.0855 22.6322C46.69 22.3566 46.2417 22.2364 45.7846 22.3273C45.3276 22.4182 44.9408 22.6645 44.6654 23.0487L43.1213 25.2275C42.5735 24.9841 42.0021 24.7994 41.3927 24.6469C40.7833 24.4944 40.212 24.3712 39.6026 24.2803L39.1133 21.4299C39.0254 20.9402 38.7793 20.5854 38.4218 20.3097C38.0263 20.034 37.6073 19.9431 37.1209 20.034L33.5523 20.6763C33.0953 20.7672 32.7378 20.9812 32.4331 21.3771C32.1577 21.773 32.0376 22.1924 32.1284 22.6792L32.5855 25.2832C32.0053 25.5266 31.4662 25.8023 30.9477 26.1278C30.4291 26.4328 29.9222 26.7993 29.4622 27.1542L27.0421 25.4856C26.6466 25.2099 26.2276 25.0897 25.7705 25.1806C25.3135 25.2715 24.9267 25.5178 24.6513 25.9137L22.5916 28.8579C22.3162 29.2538 22.1961 29.7025 22.2869 30.16C22.3777 30.6497 22.6238 31.0045 23.0194 31.2802L25.1963 32.8256C24.9531 33.374 24.7685 33.9458 24.6162 34.5558C24.4638 35.1657 24.3408 35.7376 24.2499 36.3475L21.405 36.8373C18.9908 37.2918 20.3561 40.7551 20.652 42.4031C20.7428 42.8606 20.9567 43.2184 21.3435 43.5234C21.739 43.799 22.158 43.9192 22.6443 43.8283L25.2461 43.3709C25.4893 43.9515 25.7647 44.4911 26.0899 45.0101C26.3946 45.5292 26.7608 46.0365 27.1154 46.5262L25.4483 48.9192C25.1728 49.315 25.0527 49.7344 25.1435 50.1919C25.2344 50.6493 25.4776 51.0364 25.8643 51.3121L28.8323 53.3971C29.2278 53.6727 29.6761 53.7636 30.1331 53.6727C30.5902 53.5818 30.977 53.3678 31.2817 52.9807L32.8286 50.7725C33.3765 51.0159 33.9479 51.2006 34.5573 51.3531C35.1667 51.5056 35.7351 51.6288 36.3474 51.7197L36.8367 54.5701C36.9276 55.0598 37.1737 55.4146 37.5282 55.6903C37.9237 55.966 38.3427 56.0569 38.8291 55.966L42.3977 55.3237C42.8547 55.2328 43.2122 55.0188 43.5169 54.6317C43.7923 54.2358 43.9124 53.8164 43.8216 53.3296L43.3645 50.7256C43.9446 50.4822 44.4837 50.2065 45.0023 49.881C45.5209 49.576 46.0307 49.2183 46.5171 48.8546L48.9079 50.5232C49.3034 50.7989 49.7224 50.9191 50.2088 50.8282C50.698 50.7373 51.0526 50.491 51.328 50.1068L53.4111 47.1333C53.6865 46.7374 53.7774 46.2887 53.6865 45.8312C53.5957 45.3738 53.3818 44.9867 52.9863 44.6817L50.7772 43.1656C51.0203 42.6172 51.2049 42.0454 51.3573 41.4354C51.5096 40.8255 51.6327 40.2536 51.7235 39.6437L54.5714 39.1539C55.0606 39.063 55.4152 38.8167 55.6906 38.4531C55.966 38.0572 56.0568 37.6378 55.966 37.151L55.3243 33.5793C55.2335 33.1218 55.0196 32.764 54.6329 32.459C54.2373 32.1834 53.8184 32.0632 53.332 32.1541L50.7303 32.6115C50.4871 32.0632 50.2117 31.5236 49.8865 30.9723C49.5818 30.4239 49.2155 29.9459 48.861 29.4855L50.5281 27.0632C50.8035 26.6674 50.9236 26.248 50.8328 25.7905C50.742 25.3331 50.4959 24.946 50.1121 24.6703L47.1675 22.6L47.0855 22.6322ZM34.3903 35.2742L36.9305 37.6936L41.3048 33.2479C41.7384 32.808 42.008 32.4532 42.5442 33.0045L44.2757 34.7787C44.8471 35.3417 44.8148 35.6701 44.2787 36.1921L37.9208 42.4383C36.7899 43.5468 36.9891 43.6143 35.8406 42.4765L31.475 38.1364C31.2377 37.8783 31.2612 37.6173 31.5219 37.3563L33.5318 35.2684C33.8336 34.9546 34.0768 34.9751 34.3903 35.2742ZM37.9999 26.943C44.0999 26.943 49.0485 31.8931 49.0485 38.0015C49.0485 44.1069 44.1029 49.0599 37.9999 49.0599C31.8969 49.0599 26.9513 44.1069 26.9513 37.9985C26.9513 31.8931 31.8999 26.943 37.9999 26.943Z" fill="#F9F9F9"/>
</svg>
