<svg width="76" height="76" viewBox="0 0 76 76" fill="none" xmlns="http://www.w3.org/2000/svg">
<mask id="path-1-inside-1_358_20433" fill="white">
<path d="M56.1507 40.702C55.9734 40.571 55.7844 40.5251 55.5795 40.5627C55.3747 40.6004 55.2093 40.7114 55.0872 40.8974L54.4179 41.8946C54.1762 41.7866 53.9249 41.6996 53.6653 41.6285C53.4057 41.5573 53.1439 41.5024 52.8818 41.4621L52.6652 40.1562C52.6287 39.9356 52.5262 39.7635 52.3554 39.6367C52.1843 39.5102 51.9952 39.4676 51.7858 39.506L50.2267 39.7918C50.0273 39.8286 49.8661 39.9356 49.7408 40.1163C49.6183 40.2966 49.5747 40.4957 49.6115 40.716L49.8099 41.9119C49.56 42.0241 49.3201 42.1514 49.0941 42.2956C48.865 42.4397 48.6512 42.5952 48.4525 42.762L47.4008 41.9967C47.2343 41.8664 47.0499 41.8171 46.8426 41.8555C46.6381 41.8927 46.4752 42.0057 46.3502 42.1894L45.4493 43.5397C45.3247 43.7261 45.2814 43.9249 45.3172 44.1398C45.353 44.3551 45.4586 44.5294 45.6351 44.6578L46.584 45.3614C46.4813 45.6155 46.3986 45.8798 46.3305 46.1527C46.2628 46.4256 46.2109 46.7008 46.1723 46.9764L44.9301 47.2042C44.7206 47.2426 44.5566 47.3498 44.4363 47.5298C44.316 47.7097 44.2752 47.9085 44.3117 48.1287L44.5838 49.7678C44.6186 49.9775 44.7203 50.1469 44.8921 50.2787C45.0637 50.4074 45.2531 50.4533 45.4629 50.4146L46.6002 50.206C46.7069 50.4688 46.8279 50.7206 46.965 50.9585C47.1025 51.1995 47.2515 51.4295 47.4115 51.649L46.6807 52.7388C46.5568 52.9139 46.5103 53.1077 46.5464 53.3257C46.5822 53.5406 46.6893 53.7119 46.8641 53.8433L48.1513 54.8063C48.3268 54.9264 48.5151 54.967 48.7196 54.9294C48.924 54.8917 49.0909 54.7863 49.2148 54.6113L49.8815 53.5975C50.1229 53.7055 50.3742 53.7925 50.6342 53.8636C50.8934 53.9352 51.1552 53.9898 51.4177 54.03L51.6339 55.3363C51.6705 55.5566 51.7729 55.729 51.9437 55.8555C52.1148 55.9816 52.3039 56.0249 52.5134 55.9865L54.0724 55.7004C54.2719 55.6639 54.433 55.5566 54.5583 55.3762C54.6811 55.1959 54.7245 54.9968 54.6876 54.7762L54.4892 53.5802C54.7391 53.468 54.979 53.3411 55.2053 53.1969C55.4342 53.0524 55.6529 52.8958 55.8621 52.7275L56.8983 53.4958C57.0652 53.6261 57.2521 53.6747 57.4616 53.6359C57.6739 53.5967 57.834 53.4849 57.9489 53.3027L58.8648 51.9498C58.9787 51.7653 59.0174 51.5673 58.9819 51.3523C58.9458 51.1374 58.8455 50.9619 58.6794 50.8317L57.7151 50.1311C57.8178 49.8766 57.9006 49.6123 57.9682 49.3394C58.0359 49.0669 58.0878 48.7913 58.1265 48.5157L59.3687 48.2883C59.5781 48.2496 59.7421 48.1423 59.8624 47.9623C59.9831 47.7824 60.0236 47.584 59.987 47.3634L59.7153 45.7243C59.6802 45.5146 59.5785 45.3448 59.4066 45.2135C59.2351 45.084 59.0457 45.0388 58.8362 45.0772L57.6986 45.2857C57.5937 45.0335 57.473 44.7843 57.3352 44.5411C57.1966 44.2953 57.0483 44.0675 56.8901 43.8586L57.618 42.7533C57.7419 42.5779 57.7885 42.384 57.7523 42.1661C57.7165 41.9511 57.6094 41.7798 57.4347 41.6484L56.1507 40.702ZM51.621 44.5629C52.0364 44.4865 52.4428 44.4967 52.8428 44.5938C53.2402 44.694 53.6001 44.8611 53.9209 45.096C54.24 45.3339 54.5114 45.6332 54.7356 45.9927C54.9576 46.3556 55.1044 46.7539 55.1767 47.191C55.2494 47.628 55.2394 48.0553 55.1473 48.4754C55.0521 48.8937 54.8927 49.2713 54.669 49.609C54.443 49.9447 54.1587 50.2297 53.8164 50.4654C53.4716 50.6988 53.0927 50.8531 52.677 50.9296C52.2613 51.0056 51.8549 50.9954 51.4553 50.8983C51.0574 50.7982 50.6979 50.631 50.3771 50.3957C50.0577 50.1578 49.7866 49.8589 49.5625 49.4994C49.3405 49.1365 49.1937 48.7382 49.121 48.3011C49.0487 47.8641 49.0583 47.4368 49.1507 47.0167C49.2459 46.5984 49.4049 46.2205 49.6287 45.8828C49.8547 45.5478 50.1393 45.2624 50.4813 45.0267C50.8268 44.7933 51.2053 44.639 51.621 44.5629ZM39.6374 25.1032C39.573 25.0351 39.5128 24.9892 39.4577 24.9647C39.4054 24.9414 39.3395 24.9301 39.2604 24.9301C39.1798 24.9301 39.1129 24.9421 39.0588 24.9658C39.0015 24.991 38.9438 25.0347 38.8866 25.0964L38.8798 25.1032L37.3859 26.6689C37.0908 26.9776 36.6343 27.0115 36.3038 26.7713C36.1358 26.658 35.9557 26.5473 35.7652 26.4389C35.5576 26.3211 35.3581 26.2168 35.1655 26.1242C34.9624 26.0267 34.754 25.9344 34.5413 25.8475C34.3555 25.7714 34.1407 25.6912 33.8997 25.6081C33.5413 25.4838 33.3135 25.1333 33.3139 24.7569L33.3135 22.3483C33.3135 22.2606 33.3013 22.1853 33.277 22.1228C33.2537 22.0622 33.2158 22.005 33.1642 21.95L33.1628 21.9515C33.1087 21.8951 33.0543 21.8548 32.9998 21.8315C32.9404 21.8059 32.8688 21.7934 32.7854 21.7934H29.9111C29.8352 21.7934 29.7707 21.8047 29.7178 21.8281C29.6583 21.8537 29.5974 21.8985 29.5348 21.9621C29.4839 22.0159 29.4467 22.0716 29.4238 22.1292C29.3998 22.1895 29.3876 22.2621 29.3876 22.3476V24.5521C29.3876 24.9933 29.0847 25.36 28.6854 25.4349C28.4591 25.4917 28.2536 25.5493 28.0717 25.6081C27.8658 25.6743 27.6574 25.7504 27.4465 25.8366C27.2474 25.9171 27.0437 26.0082 26.8356 26.1091C26.6269 26.2108 26.4346 26.3116 26.2602 26.4118C25.9236 26.6045 25.5172 26.5334 25.2576 26.2642L25.2572 26.2646L23.603 24.5506C23.5961 24.5434 23.5897 24.5367 23.5833 24.5295C23.5313 24.4719 23.4791 24.4305 23.4271 24.4068C23.3795 24.3849 23.3183 24.3737 23.2427 24.3737C23.1675 24.3737 23.1031 24.3861 23.0487 24.4102C22.9853 24.4384 22.923 24.4843 22.8621 24.5468L20.8533 26.6636L20.8519 26.6651L20.8533 26.667C20.7889 26.7348 20.7452 26.7977 20.7219 26.8556C20.6997 26.9106 20.689 26.9799 20.689 27.0631C20.689 27.1474 20.7001 27.2182 20.723 27.275C20.7473 27.3352 20.7885 27.3958 20.8472 27.4561L20.8537 27.4632L22.3429 29.0338C22.6365 29.3444 22.6687 29.824 22.4403 30.1718C22.3325 30.348 22.2272 30.5374 22.1241 30.738C22.012 30.956 21.9128 31.1657 21.8248 31.3682C21.7317 31.582 21.6439 31.8011 21.5616 32.0247C21.4892 32.2205 21.413 32.4464 21.3335 32.6993C21.2153 33.0762 20.882 33.3156 20.5239 33.3156V33.316H18.234C18.1502 33.316 18.0786 33.3288 18.0195 33.354C17.9615 33.3788 17.9075 33.4176 17.857 33.4711L17.8537 33.4745C17.8033 33.5275 17.766 33.5844 17.7424 33.6454C17.7184 33.7079 17.7062 33.7832 17.7062 33.8709V36.893C17.7062 36.9725 17.7173 37.0402 17.7392 37.0963C17.7635 37.1585 17.8061 37.2224 17.867 37.2887L17.8677 37.2895C17.9189 37.3425 17.9719 37.3813 18.026 37.405C18.0833 37.4299 18.1524 37.4427 18.234 37.4427H20.3305C20.7502 37.4427 21.099 37.7615 21.1702 38.1813C21.2239 38.4181 21.2783 38.6326 21.3342 38.8235L21.3349 38.8231C21.4012 39.0505 21.4735 39.2707 21.5523 39.4838C21.6282 39.6909 21.7159 39.91 21.8147 40.1407C21.9168 40.3779 22.0142 40.5895 22.1062 40.7751C22.2827 41.1304 22.2093 41.5532 21.9522 41.822L21.953 41.8224L20.3223 43.5318L20.3087 43.5458H20.309C20.2543 43.6007 20.2149 43.6549 20.1923 43.7099C20.1715 43.76 20.1608 43.8243 20.1608 43.9038C20.1608 43.9825 20.1726 44.0506 20.1955 44.1074C20.2227 44.1752 20.2675 44.2415 20.3287 44.307L22.3225 46.4275C22.3816 46.4844 22.4414 46.5258 22.5019 46.5506C22.5631 46.5759 22.6358 46.589 22.7192 46.589C22.8037 46.589 22.8775 46.5762 22.9405 46.5499C22.9996 46.5254 23.0562 46.487 23.1095 46.4343L24.5866 44.857C24.8806 44.5426 25.3414 44.505 25.6755 44.7474C25.8431 44.8603 26.0235 44.9714 26.2144 45.0798C26.4221 45.1977 26.6215 45.3019 26.8138 45.3945C27.0172 45.4924 27.2256 45.5846 27.4383 45.6712C27.6241 45.7473 27.8393 45.8275 28.0799 45.9107C28.4384 46.0349 28.6661 46.3857 28.6661 46.7622L28.6665 49.17C28.6665 49.2573 28.6786 49.333 28.703 49.3955C28.7266 49.4565 28.7635 49.5133 28.814 49.5664L28.8154 49.5683L28.8172 49.5664C28.9182 49.6726 29.0431 49.7249 29.1943 49.7249H32.0685C32.1441 49.7249 32.2089 49.7136 32.2619 49.6903C32.3209 49.6647 32.3818 49.6195 32.4448 49.5559C32.4957 49.5017 32.5326 49.4459 32.5555 49.3887C32.5795 49.3285 32.5916 49.2555 32.5916 49.1704V46.9659C32.5916 46.5243 32.8949 46.1576 33.2938 46.0827C33.5201 46.0262 33.7257 45.9683 33.9076 45.9095C34.1135 45.8433 34.3218 45.7672 34.5328 45.6814C34.7297 45.6016 34.9381 45.5094 35.1576 45.4055C35.3832 45.2982 35.5848 45.1958 35.7609 45.0994C36.099 44.9138 36.5011 44.991 36.7567 45.2613L36.7571 45.2605L38.3831 46.9749L38.396 46.9892L38.3964 46.9888C38.449 47.0472 38.5009 47.0886 38.5518 47.1115C38.6001 47.1338 38.6646 47.1447 38.7462 47.1447C38.825 47.1447 38.8909 47.1323 38.9446 47.1078C38.9997 47.0829 39.0516 47.043 39.1007 46.9888C39.1114 46.9772 39.1225 46.9655 39.1336 46.9542L41.1381 44.8716C41.1918 44.8099 41.2312 44.747 41.2548 44.683C41.2788 44.6187 41.2914 44.5426 41.2914 44.4549C41.2914 44.3657 41.2788 44.2881 41.2541 44.2223C41.2309 44.1598 41.1943 44.1007 41.1446 44.0446L39.6439 42.4913C39.3449 42.1822 39.3091 41.6974 39.5397 41.3465C39.6475 41.17 39.7527 40.9806 39.8559 40.7803C39.9679 40.562 40.0671 40.3523 40.1552 40.1494C40.2483 39.9359 40.336 39.7168 40.4184 39.4932C40.4907 39.2978 40.567 39.0716 40.6465 38.8186C40.7646 38.4414 41.0984 38.2024 41.4564 38.2024L43.7463 38.202C43.8301 38.202 43.9017 38.1896 43.9612 38.1636C44.0192 38.1391 44.0732 38.1 44.1237 38.0469L44.1255 38.0454L44.1237 38.0435C44.2247 37.9373 44.2745 37.8056 44.2745 37.6471V34.6253C44.2745 34.5455 44.2634 34.4777 44.2415 34.422C44.2172 34.3599 44.1742 34.2959 44.1137 34.2296L44.113 34.2285C44.0618 34.1754 44.0091 34.137 43.9547 34.1129C43.8978 34.0877 43.8283 34.0753 43.7467 34.0753H41.6502C41.2255 34.0753 40.8735 33.7489 40.808 33.322C40.7603 33.1232 40.7066 32.9203 40.6458 32.7136C40.5845 32.5066 40.5115 32.2841 40.4248 32.0458C40.4195 32.0308 40.4144 32.0157 40.4098 32.0006C40.3307 31.783 40.2505 31.5801 40.1688 31.3923C40.0782 31.1837 39.9823 30.9819 39.8809 30.7869C39.6976 30.4331 39.7656 30.0058 40.0213 29.7329L41.6516 27.9936C41.6584 27.9865 41.6648 27.9797 41.672 27.9729L41.6716 27.9726C41.7264 27.918 41.7658 27.8634 41.7884 27.8088C41.8091 27.7587 41.8199 27.6944 41.8199 27.6149C41.8199 27.5359 41.8081 27.4681 41.7848 27.4109C41.7579 27.3446 41.7146 27.2791 41.6548 27.2148L39.6414 25.1032L39.6396 25.1013L39.6374 25.1032ZM40.1176 23.3177C40.3883 23.4382 40.6304 23.6102 40.8438 23.8346L40.842 23.8365L42.8572 25.9503L42.864 25.9574C43.076 26.184 43.2389 26.4351 43.3503 26.7103C43.4659 26.9964 43.525 27.2976 43.525 27.6149C43.525 27.9368 43.4649 28.2395 43.3467 28.5237C43.2314 28.8019 43.0642 29.0481 42.8476 29.2649L41.6613 30.5298C41.6792 30.5694 41.6967 30.6096 41.7139 30.6495C41.8181 30.8901 41.9137 31.1288 42 31.3659C42.0057 31.3795 42.0111 31.3938 42.0165 31.4081C42.1042 31.6498 42.1887 31.9107 42.2707 32.1881L42.2979 32.2815H43.7456C44.051 32.2815 44.3371 32.341 44.6068 32.4595C44.8714 32.5762 45.1095 32.7468 45.3222 32.9715L45.339 32.9892C45.5471 33.2155 45.7046 33.4662 45.8135 33.7421C45.9245 34.0245 45.9796 34.3185 45.9796 34.6253V37.6475C45.9796 38.3014 45.7651 38.8533 45.329 39.3118L45.3276 39.3099C45.1099 39.5384 44.8678 39.7097 44.6 39.8241C44.3332 39.9389 44.0489 39.9954 43.7456 39.9954H42.0569C42.0401 40.0421 42.0226 40.0895 42.0047 40.1373C41.9119 40.3884 41.8109 40.6399 41.7014 40.8921C41.5871 41.1549 41.4715 41.4015 41.3551 41.6277C41.3415 41.6545 41.3275 41.6819 41.3129 41.709L42.3402 42.7718C42.3516 42.7831 42.3627 42.7951 42.3742 42.8072C42.5804 43.036 42.7358 43.2909 42.8404 43.5699C42.9453 43.8496 42.9972 44.1451 42.9972 44.4545C42.9972 44.7625 42.9449 45.0561 42.8407 45.3343C42.7369 45.6121 42.5837 45.8651 42.3806 46.0947L42.3803 46.0944C42.372 46.1038 42.3631 46.1136 42.3541 46.1226L40.3307 48.2255C40.1212 48.4566 39.8841 48.6339 39.6181 48.7544C39.3492 48.876 39.0588 48.9381 38.7465 48.9381C38.4411 48.9381 38.1525 48.8749 37.8793 48.7506C37.6086 48.6279 37.3705 48.4506 37.1639 48.2217L35.9837 46.9772C35.9411 46.9982 35.8992 47.0182 35.858 47.0378C35.6392 47.1413 35.4022 47.2456 35.1465 47.3491C34.9098 47.4458 34.6609 47.5358 34.4013 47.6194C34.3666 47.6307 34.3322 47.642 34.2979 47.6525V49.1708C34.2979 49.4915 34.2413 49.7927 34.1285 50.0754C34.0175 50.354 33.8549 50.6043 33.6412 50.8279L33.6243 50.8456C33.4091 51.0639 33.1706 51.23 32.9085 51.344C32.64 51.4611 32.3607 51.5191 32.0685 51.5191H29.195C28.573 51.5191 28.0477 51.2932 27.6116 50.8354L27.613 50.8336C27.3957 50.6047 27.2327 50.3502 27.1239 50.0686C27.015 49.7881 26.961 49.4892 26.961 49.1708V47.3946C26.9166 47.3769 26.8718 47.3585 26.826 47.3401C26.5875 47.2422 26.3483 47.136 26.1087 47.0208C25.8584 46.9007 25.6243 46.7791 25.4087 46.6568C25.3829 46.6421 25.3571 46.6274 25.3317 46.6124L24.3205 47.692C24.3098 47.7045 24.2983 47.7161 24.2869 47.7282C24.0692 47.945 23.8264 48.1084 23.5614 48.2183C23.2954 48.3286 23.0143 48.3832 22.7203 48.3832C22.4267 48.3832 22.1477 48.3286 21.8831 48.2191C21.6189 48.1099 21.3782 47.9484 21.1602 47.735L21.1605 47.7346C21.1512 47.7259 21.1423 47.7165 21.1333 47.7071L19.1163 45.5624C18.9043 45.3351 18.7418 45.0843 18.63 44.8091C18.514 44.5234 18.4553 44.2219 18.4553 43.9049C18.4553 43.583 18.5155 43.2804 18.6336 42.9965C18.75 42.7164 18.9183 42.4691 19.1367 42.2511L20.3205 41.01C20.3004 40.9655 20.2815 40.9215 20.2629 40.8778C20.164 40.6478 20.0652 40.3986 19.9667 40.1302C19.8711 39.8723 19.7859 39.6122 19.7093 39.3502L19.71 39.3498L19.7093 39.3468L19.6781 39.238H18.234C17.9289 39.238 17.6425 39.1789 17.3732 39.0603C17.1082 38.9436 16.8701 38.7727 16.6574 38.5483L16.6406 38.5303C16.4326 38.304 16.275 38.0533 16.1665 37.7777C16.0551 37.495 16 37.2006 16 36.8942V33.872C16 33.5535 16.0541 33.2546 16.1629 32.9742C16.2718 32.6937 16.4336 32.44 16.6499 32.2118L16.6506 32.2111L16.652 32.2096L16.6535 32.2077C16.8705 31.9803 17.1122 31.8094 17.3793 31.695C17.6464 31.5805 17.9307 31.5237 18.2337 31.5237H19.923C19.9399 31.477 19.9574 31.4299 19.9753 31.3817C20.0681 31.131 20.169 30.8796 20.2786 30.6273C20.3928 30.3646 20.5081 30.1184 20.6245 29.8917C20.6395 29.8627 20.6546 29.8334 20.6696 29.8044L19.648 28.7274C19.4328 28.5034 19.2688 28.25 19.1561 27.9703C19.0397 27.6812 18.982 27.3789 18.982 27.0649C18.982 26.7521 19.0397 26.4521 19.155 26.1641C19.2692 25.8795 19.4328 25.625 19.6466 25.4006L19.648 25.4021L21.6586 23.2834L21.6654 23.2763C21.881 23.0534 22.1195 22.8821 22.3816 22.7647C22.6537 22.6431 22.9402 22.581 23.242 22.581C23.5482 22.581 23.8357 22.6442 24.106 22.7685C24.3707 22.89 24.6048 23.0655 24.8111 23.2932L26.0124 24.5385C26.0489 24.5201 26.0851 24.5024 26.1213 24.4847C26.3422 24.3774 26.5789 24.2728 26.832 24.1704C27.0687 24.0736 27.3176 23.9833 27.5772 23.8997C27.6119 23.8888 27.6463 23.8775 27.6807 23.8669V22.3483C27.6807 22.0276 27.7373 21.7264 27.8497 21.4433C27.9607 21.1651 28.1233 20.9144 28.3367 20.6908L28.3539 20.6731C28.5691 20.4544 28.8075 20.2887 29.07 20.1747C29.3396 20.058 29.6193 20 29.9111 20H32.7857C33.0883 20 33.373 20.0568 33.6397 20.1713C33.9115 20.288 34.1546 20.4585 34.3688 20.6836L34.3673 20.6855L34.3688 20.687C34.585 20.914 34.7472 21.1681 34.8565 21.4501C34.9653 21.7306 35.0194 22.0298 35.0194 22.348V24.1244C35.0638 24.1421 35.1089 24.1606 35.1544 24.179C35.3928 24.2765 35.632 24.3827 35.8719 24.4979C36.1222 24.6184 36.3564 24.7396 36.5716 24.8619L36.6547 24.9094L37.6791 23.8353C37.8925 23.6087 38.1332 23.4367 38.3992 23.3181C38.6746 23.1957 38.9618 23.1355 39.2604 23.1355C39.5579 23.1362 39.8437 23.1965 40.1176 23.3177ZM30.99 28.9423C31.4318 28.9423 31.863 28.9867 32.2848 29.0752C32.6973 29.1618 33.1076 29.2958 33.5158 29.4769L33.5216 29.4795L33.5226 29.4769C33.9083 29.6516 34.2757 29.862 34.6244 30.1074C34.9696 30.3503 35.2886 30.6243 35.5812 30.9292L35.5848 30.933C35.8752 31.241 36.1358 31.5767 36.3668 31.9397C36.6003 32.3063 36.8001 32.6926 36.9666 33.0976C36.9766 33.1225 36.9859 33.1477 36.9938 33.1729C37.1524 33.5799 37.2706 33.9883 37.3486 34.3987C37.4328 34.8417 37.475 35.2954 37.475 35.7599C37.475 36.2245 37.4328 36.6781 37.3486 37.1208C37.2663 37.5545 37.1388 37.9859 36.9666 38.4154L36.9641 38.4215L36.9666 38.4222C36.8004 38.8273 36.6003 39.2135 36.3668 39.5802C36.1358 39.9431 35.8752 40.2785 35.5848 40.5865L35.5812 40.5902C35.2886 40.8951 34.9696 41.1692 34.6241 41.4124C34.2753 41.6575 33.9083 41.8679 33.5226 42.043C33.499 42.0535 33.4754 42.0633 33.451 42.0712C33.0639 42.238 32.6754 42.3622 32.2848 42.4443C31.8633 42.5327 31.4318 42.5771 30.99 42.5771C30.5481 42.5771 30.117 42.5331 29.6956 42.4443C29.2831 42.358 28.8727 42.224 28.4645 42.043L28.4588 42.0403L28.4577 42.043C28.0724 41.8679 27.705 41.6578 27.3563 41.4124C27.0111 41.1692 26.692 40.8951 26.3995 40.5902L26.3963 40.5865C26.1059 40.2789 25.8452 39.9431 25.6142 39.5802C25.3808 39.2135 25.181 38.8277 25.0148 38.4222C25.0044 38.3977 24.9955 38.3721 24.9876 38.3473C24.829 37.9403 24.7108 37.5315 24.6324 37.1208C24.5483 36.6781 24.506 36.2245 24.506 35.7599C24.506 35.2954 24.5483 34.8421 24.6324 34.3987C24.7148 33.965 24.8422 33.5336 25.0145 33.1044L25.0166 33.0984L25.0145 33.0976C25.1806 32.6922 25.3804 32.3063 25.6139 31.9397C25.8452 31.5767 26.1055 31.2413 26.3959 30.933L26.3991 30.9296C26.6917 30.6247 27.0107 30.3506 27.3559 30.1078C27.705 29.8624 28.0721 29.6519 28.4577 29.4773C28.4817 29.4663 28.5057 29.4569 28.53 29.4486C28.9167 29.2823 29.3053 29.1576 29.6956 29.0756C30.1166 28.9867 30.5481 28.9423 30.99 28.9423ZM31.9514 30.8336C31.6413 30.7689 31.3208 30.7361 30.99 30.7361C30.6591 30.7361 30.3387 30.7689 30.0286 30.8336C29.7303 30.8961 29.4474 30.9846 29.1799 31.099C29.1638 31.1073 29.1473 31.1156 29.1305 31.1231C28.8279 31.2605 28.5515 31.4171 28.3019 31.5929C28.0495 31.7706 27.8157 31.9717 27.5998 32.1964C27.3867 32.4226 27.1955 32.6688 27.0265 32.9342C26.8596 33.1966 26.7107 33.4873 26.58 33.805L26.5775 33.8039C26.4586 34.1013 26.3676 34.416 26.3046 34.7491C26.2427 35.0751 26.2115 35.4121 26.2115 35.7599C26.2115 36.1078 26.2423 36.4447 26.3046 36.7707C26.364 37.0839 26.4482 37.3813 26.5567 37.6625C26.5649 37.6795 26.5724 37.6968 26.58 37.7149C26.7103 38.033 26.8593 38.3228 27.0265 38.5856C27.1955 38.851 27.3867 39.0968 27.6005 39.3238C27.816 39.5482 28.0499 39.7492 28.3023 39.9269C28.5519 40.1027 28.8283 40.2593 29.1305 40.3963L29.1294 40.399C29.412 40.5236 29.7113 40.6196 30.0282 40.6862C30.3383 40.751 30.6584 40.7837 30.9896 40.7837C31.3205 40.7837 31.641 40.751 31.9511 40.6862C32.2493 40.6237 32.5318 40.5353 32.7993 40.4212C32.8158 40.4125 32.8323 40.4042 32.8491 40.3967C33.1517 40.2597 33.4277 40.1031 33.6773 39.9277C33.9298 39.7496 34.1639 39.5486 34.3795 39.3242C34.5929 39.0976 34.7841 38.8514 34.9535 38.5856C35.1203 38.3236 35.2693 38.033 35.3996 37.7152L35.4022 37.716C35.521 37.419 35.612 37.1042 35.6754 36.7711C35.7373 36.4451 35.7685 36.1081 35.7685 35.7603C35.7685 35.4125 35.7373 35.0755 35.6754 34.7495C35.6159 34.4359 35.5318 34.1389 35.4233 33.8577C35.415 33.8408 35.4072 33.8234 35.4 33.8054C35.2697 33.4876 35.1207 33.197 34.9535 32.9346C34.7845 32.6688 34.5933 32.423 34.3802 32.1968C34.1647 31.972 33.9305 31.771 33.678 31.5933C33.4281 31.4175 33.152 31.2609 32.8495 31.1235L32.8505 31.1209C32.568 30.9959 32.2687 30.9003 31.9514 30.8336Z"/>
</mask>
<path d="M56.1507 40.702C55.9734 40.571 55.7844 40.5251 55.5795 40.5627C55.3747 40.6004 55.2093 40.7114 55.0872 40.8974L54.4179 41.8946C54.1762 41.7866 53.9249 41.6996 53.6653 41.6285C53.4057 41.5573 53.1439 41.5024 52.8818 41.4621L52.6652 40.1562C52.6287 39.9356 52.5262 39.7635 52.3554 39.6367C52.1843 39.5102 51.9952 39.4676 51.7858 39.506L50.2267 39.7918C50.0273 39.8286 49.8661 39.9356 49.7408 40.1163C49.6183 40.2966 49.5747 40.4957 49.6115 40.716L49.8099 41.9119C49.56 42.0241 49.3201 42.1514 49.0941 42.2956C48.865 42.4397 48.6512 42.5952 48.4525 42.762L47.4008 41.9967C47.2343 41.8664 47.0499 41.8171 46.8426 41.8555C46.6381 41.8927 46.4752 42.0057 46.3502 42.1894L45.4493 43.5397C45.3247 43.7261 45.2814 43.9249 45.3172 44.1398C45.353 44.3551 45.4586 44.5294 45.6351 44.6578L46.584 45.3614C46.4813 45.6155 46.3986 45.8798 46.3305 46.1527C46.2628 46.4256 46.2109 46.7008 46.1723 46.9764L44.9301 47.2042C44.7206 47.2426 44.5566 47.3498 44.4363 47.5298C44.316 47.7097 44.2752 47.9085 44.3117 48.1287L44.5838 49.7678C44.6186 49.9775 44.7203 50.1469 44.8921 50.2787C45.0637 50.4074 45.2531 50.4533 45.4629 50.4146L46.6002 50.206C46.7069 50.4688 46.8279 50.7206 46.965 50.9585C47.1025 51.1995 47.2515 51.4295 47.4115 51.649L46.6807 52.7388C46.5568 52.9139 46.5103 53.1077 46.5464 53.3257C46.5822 53.5406 46.6893 53.7119 46.8641 53.8433L48.1513 54.8063C48.3268 54.9264 48.5151 54.967 48.7196 54.9294C48.924 54.8917 49.0909 54.7863 49.2148 54.6113L49.8815 53.5975C50.1229 53.7055 50.3742 53.7925 50.6342 53.8636C50.8934 53.9352 51.1552 53.9898 51.4177 54.03L51.6339 55.3363C51.6705 55.5566 51.7729 55.729 51.9437 55.8555C52.1148 55.9816 52.3039 56.0249 52.5134 55.9865L54.0724 55.7004C54.2719 55.6639 54.433 55.5566 54.5583 55.3762C54.6811 55.1959 54.7245 54.9968 54.6876 54.7762L54.4892 53.5802C54.7391 53.468 54.979 53.3411 55.2053 53.1969C55.4342 53.0524 55.6529 52.8958 55.8621 52.7275L56.8983 53.4958C57.0652 53.6261 57.2521 53.6747 57.4616 53.6359C57.6739 53.5967 57.834 53.4849 57.9489 53.3027L58.8648 51.9498C58.9787 51.7653 59.0174 51.5673 58.9819 51.3523C58.9458 51.1374 58.8455 50.9619 58.6794 50.8317L57.7151 50.1311C57.8178 49.8766 57.9006 49.6123 57.9682 49.3394C58.0359 49.0669 58.0878 48.7913 58.1265 48.5157L59.3687 48.2883C59.5781 48.2496 59.7421 48.1423 59.8624 47.9623C59.9831 47.7824 60.0236 47.584 59.987 47.3634L59.7153 45.7243C59.6802 45.5146 59.5785 45.3448 59.4066 45.2135C59.2351 45.084 59.0457 45.0388 58.8362 45.0772L57.6986 45.2857C57.5937 45.0335 57.473 44.7843 57.3352 44.5411C57.1966 44.2953 57.0483 44.0675 56.8901 43.8586L57.618 42.7533C57.7419 42.5779 57.7885 42.384 57.7523 42.1661C57.7165 41.9511 57.6094 41.7798 57.4347 41.6484L56.1507 40.702ZM51.621 44.5629C52.0364 44.4865 52.4428 44.4967 52.8428 44.5938C53.2402 44.694 53.6001 44.8611 53.9209 45.096C54.24 45.3339 54.5114 45.6332 54.7356 45.9927C54.9576 46.3556 55.1044 46.7539 55.1767 47.191C55.2494 47.628 55.2394 48.0553 55.1473 48.4754C55.0521 48.8937 54.8927 49.2713 54.669 49.609C54.443 49.9447 54.1587 50.2297 53.8164 50.4654C53.4716 50.6988 53.0927 50.8531 52.677 50.9296C52.2613 51.0056 51.8549 50.9954 51.4553 50.8983C51.0574 50.7982 50.6979 50.631 50.3771 50.3957C50.0577 50.1578 49.7866 49.8589 49.5625 49.4994C49.3405 49.1365 49.1937 48.7382 49.121 48.3011C49.0487 47.8641 49.0583 47.4368 49.1507 47.0167C49.2459 46.5984 49.4049 46.2205 49.6287 45.8828C49.8547 45.5478 50.1393 45.2624 50.4813 45.0267C50.8268 44.7933 51.2053 44.639 51.621 44.5629ZM39.6374 25.1032C39.573 25.0351 39.5128 24.9892 39.4577 24.9647C39.4054 24.9414 39.3395 24.9301 39.2604 24.9301C39.1798 24.9301 39.1129 24.9421 39.0588 24.9658C39.0015 24.991 38.9438 25.0347 38.8866 25.0964L38.8798 25.1032L37.3859 26.6689C37.0908 26.9776 36.6343 27.0115 36.3038 26.7713C36.1358 26.658 35.9557 26.5473 35.7652 26.4389C35.5576 26.3211 35.3581 26.2168 35.1655 26.1242C34.9624 26.0267 34.754 25.9344 34.5413 25.8475C34.3555 25.7714 34.1407 25.6912 33.8997 25.6081C33.5413 25.4838 33.3135 25.1333 33.3139 24.7569L33.3135 22.3483C33.3135 22.2606 33.3013 22.1853 33.277 22.1228C33.2537 22.0622 33.2158 22.005 33.1642 21.95L33.1628 21.9515C33.1087 21.8951 33.0543 21.8548 32.9998 21.8315C32.9404 21.8059 32.8688 21.7934 32.7854 21.7934H29.9111C29.8352 21.7934 29.7707 21.8047 29.7178 21.8281C29.6583 21.8537 29.5974 21.8985 29.5348 21.9621C29.4839 22.0159 29.4467 22.0716 29.4238 22.1292C29.3998 22.1895 29.3876 22.2621 29.3876 22.3476V24.5521C29.3876 24.9933 29.0847 25.36 28.6854 25.4349C28.4591 25.4917 28.2536 25.5493 28.0717 25.6081C27.8658 25.6743 27.6574 25.7504 27.4465 25.8366C27.2474 25.9171 27.0437 26.0082 26.8356 26.1091C26.6269 26.2108 26.4346 26.3116 26.2602 26.4118C25.9236 26.6045 25.5172 26.5334 25.2576 26.2642L25.2572 26.2646L23.603 24.5506C23.5961 24.5434 23.5897 24.5367 23.5833 24.5295C23.5313 24.4719 23.4791 24.4305 23.4271 24.4068C23.3795 24.3849 23.3183 24.3737 23.2427 24.3737C23.1675 24.3737 23.1031 24.3861 23.0487 24.4102C22.9853 24.4384 22.923 24.4843 22.8621 24.5468L20.8533 26.6636L20.8519 26.6651L20.8533 26.667C20.7889 26.7348 20.7452 26.7977 20.7219 26.8556C20.6997 26.9106 20.689 26.9799 20.689 27.0631C20.689 27.1474 20.7001 27.2182 20.723 27.275C20.7473 27.3352 20.7885 27.3958 20.8472 27.4561L20.8537 27.4632L22.3429 29.0338C22.6365 29.3444 22.6687 29.824 22.4403 30.1718C22.3325 30.348 22.2272 30.5374 22.1241 30.738C22.012 30.956 21.9128 31.1657 21.8248 31.3682C21.7317 31.582 21.6439 31.8011 21.5616 32.0247C21.4892 32.2205 21.413 32.4464 21.3335 32.6993C21.2153 33.0762 20.882 33.3156 20.5239 33.3156V33.316H18.234C18.1502 33.316 18.0786 33.3288 18.0195 33.354C17.9615 33.3788 17.9075 33.4176 17.857 33.4711L17.8537 33.4745C17.8033 33.5275 17.766 33.5844 17.7424 33.6454C17.7184 33.7079 17.7062 33.7832 17.7062 33.8709V36.893C17.7062 36.9725 17.7173 37.0402 17.7392 37.0963C17.7635 37.1585 17.8061 37.2224 17.867 37.2887L17.8677 37.2895C17.9189 37.3425 17.9719 37.3813 18.026 37.405C18.0833 37.4299 18.1524 37.4427 18.234 37.4427H20.3305C20.7502 37.4427 21.099 37.7615 21.1702 38.1813C21.2239 38.4181 21.2783 38.6326 21.3342 38.8235L21.3349 38.8231C21.4012 39.0505 21.4735 39.2707 21.5523 39.4838C21.6282 39.6909 21.7159 39.91 21.8147 40.1407C21.9168 40.3779 22.0142 40.5895 22.1062 40.7751C22.2827 41.1304 22.2093 41.5532 21.9522 41.822L21.953 41.8224L20.3223 43.5318L20.3087 43.5458H20.309C20.2543 43.6007 20.2149 43.6549 20.1923 43.7099C20.1715 43.76 20.1608 43.8243 20.1608 43.9038C20.1608 43.9825 20.1726 44.0506 20.1955 44.1074C20.2227 44.1752 20.2675 44.2415 20.3287 44.307L22.3225 46.4275C22.3816 46.4844 22.4414 46.5258 22.5019 46.5506C22.5631 46.5759 22.6358 46.589 22.7192 46.589C22.8037 46.589 22.8775 46.5762 22.9405 46.5499C22.9996 46.5254 23.0562 46.487 23.1095 46.4343L24.5866 44.857C24.8806 44.5426 25.3414 44.505 25.6755 44.7474C25.8431 44.8603 26.0235 44.9714 26.2144 45.0798C26.4221 45.1977 26.6215 45.3019 26.8138 45.3945C27.0172 45.4924 27.2256 45.5846 27.4383 45.6712C27.6241 45.7473 27.8393 45.8275 28.0799 45.9107C28.4384 46.0349 28.6661 46.3857 28.6661 46.7622L28.6665 49.17C28.6665 49.2573 28.6786 49.333 28.703 49.3955C28.7266 49.4565 28.7635 49.5133 28.814 49.5664L28.8154 49.5683L28.8172 49.5664C28.9182 49.6726 29.0431 49.7249 29.1943 49.7249H32.0685C32.1441 49.7249 32.2089 49.7136 32.2619 49.6903C32.3209 49.6647 32.3818 49.6195 32.4448 49.5559C32.4957 49.5017 32.5326 49.4459 32.5555 49.3887C32.5795 49.3285 32.5916 49.2555 32.5916 49.1704V46.9659C32.5916 46.5243 32.8949 46.1576 33.2938 46.0827C33.5201 46.0262 33.7257 45.9683 33.9076 45.9095C34.1135 45.8433 34.3218 45.7672 34.5328 45.6814C34.7297 45.6016 34.9381 45.5094 35.1576 45.4055C35.3832 45.2982 35.5848 45.1958 35.7609 45.0994C36.099 44.9138 36.5011 44.991 36.7567 45.2613L36.7571 45.2605L38.3831 46.9749L38.396 46.9892L38.3964 46.9888C38.449 47.0472 38.5009 47.0886 38.5518 47.1115C38.6001 47.1338 38.6646 47.1447 38.7462 47.1447C38.825 47.1447 38.8909 47.1323 38.9446 47.1078C38.9997 47.0829 39.0516 47.043 39.1007 46.9888C39.1114 46.9772 39.1225 46.9655 39.1336 46.9542L41.1381 44.8716C41.1918 44.8099 41.2312 44.747 41.2548 44.683C41.2788 44.6187 41.2914 44.5426 41.2914 44.4549C41.2914 44.3657 41.2788 44.2881 41.2541 44.2223C41.2309 44.1598 41.1943 44.1007 41.1446 44.0446L39.6439 42.4913C39.3449 42.1822 39.3091 41.6974 39.5397 41.3465C39.6475 41.17 39.7527 40.9806 39.8559 40.7803C39.9679 40.562 40.0671 40.3523 40.1552 40.1494C40.2483 39.9359 40.336 39.7168 40.4184 39.4932C40.4907 39.2978 40.567 39.0716 40.6465 38.8186C40.7646 38.4414 41.0984 38.2024 41.4564 38.2024L43.7463 38.202C43.8301 38.202 43.9017 38.1896 43.9612 38.1636C44.0192 38.1391 44.0732 38.1 44.1237 38.0469L44.1255 38.0454L44.1237 38.0435C44.2247 37.9373 44.2745 37.8056 44.2745 37.6471V34.6253C44.2745 34.5455 44.2634 34.4777 44.2415 34.422C44.2172 34.3599 44.1742 34.2959 44.1137 34.2296L44.113 34.2285C44.0618 34.1754 44.0091 34.137 43.9547 34.1129C43.8978 34.0877 43.8283 34.0753 43.7467 34.0753H41.6502C41.2255 34.0753 40.8735 33.7489 40.808 33.322C40.7603 33.1232 40.7066 32.9203 40.6458 32.7136C40.5845 32.5066 40.5115 32.2841 40.4248 32.0458C40.4195 32.0308 40.4144 32.0157 40.4098 32.0006C40.3307 31.783 40.2505 31.5801 40.1688 31.3923C40.0782 31.1837 39.9823 30.9819 39.8809 30.7869C39.6976 30.4331 39.7656 30.0058 40.0213 29.7329L41.6516 27.9936C41.6584 27.9865 41.6648 27.9797 41.672 27.9729L41.6716 27.9726C41.7264 27.918 41.7658 27.8634 41.7884 27.8088C41.8091 27.7587 41.8199 27.6944 41.8199 27.6149C41.8199 27.5359 41.8081 27.4681 41.7848 27.4109C41.7579 27.3446 41.7146 27.2791 41.6548 27.2148L39.6414 25.1032L39.6396 25.1013L39.6374 25.1032ZM40.1176 23.3177C40.3883 23.4382 40.6304 23.6102 40.8438 23.8346L40.842 23.8365L42.8572 25.9503L42.864 25.9574C43.076 26.184 43.2389 26.4351 43.3503 26.7103C43.4659 26.9964 43.525 27.2976 43.525 27.6149C43.525 27.9368 43.4649 28.2395 43.3467 28.5237C43.2314 28.8019 43.0642 29.0481 42.8476 29.2649L41.6613 30.5298C41.6792 30.5694 41.6967 30.6096 41.7139 30.6495C41.8181 30.8901 41.9137 31.1288 42 31.3659C42.0057 31.3795 42.0111 31.3938 42.0165 31.4081C42.1042 31.6498 42.1887 31.9107 42.2707 32.1881L42.2979 32.2815H43.7456C44.051 32.2815 44.3371 32.341 44.6068 32.4595C44.8714 32.5762 45.1095 32.7468 45.3222 32.9715L45.339 32.9892C45.5471 33.2155 45.7046 33.4662 45.8135 33.7421C45.9245 34.0245 45.9796 34.3185 45.9796 34.6253V37.6475C45.9796 38.3014 45.7651 38.8533 45.329 39.3118L45.3276 39.3099C45.1099 39.5384 44.8678 39.7097 44.6 39.8241C44.3332 39.9389 44.0489 39.9954 43.7456 39.9954H42.0569C42.0401 40.0421 42.0226 40.0895 42.0047 40.1373C41.9119 40.3884 41.8109 40.6399 41.7014 40.8921C41.5871 41.1549 41.4715 41.4015 41.3551 41.6277C41.3415 41.6545 41.3275 41.6819 41.3129 41.709L42.3402 42.7718C42.3516 42.7831 42.3627 42.7951 42.3742 42.8072C42.5804 43.036 42.7358 43.2909 42.8404 43.5699C42.9453 43.8496 42.9972 44.1451 42.9972 44.4545C42.9972 44.7625 42.9449 45.0561 42.8407 45.3343C42.7369 45.6121 42.5837 45.8651 42.3806 46.0947L42.3803 46.0944C42.372 46.1038 42.3631 46.1136 42.3541 46.1226L40.3307 48.2255C40.1212 48.4566 39.8841 48.6339 39.6181 48.7544C39.3492 48.876 39.0588 48.9381 38.7465 48.9381C38.4411 48.9381 38.1525 48.8749 37.8793 48.7506C37.6086 48.6279 37.3705 48.4506 37.1639 48.2217L35.9837 46.9772C35.9411 46.9982 35.8992 47.0182 35.858 47.0378C35.6392 47.1413 35.4022 47.2456 35.1465 47.3491C34.9098 47.4458 34.6609 47.5358 34.4013 47.6194C34.3666 47.6307 34.3322 47.642 34.2979 47.6525V49.1708C34.2979 49.4915 34.2413 49.7927 34.1285 50.0754C34.0175 50.354 33.8549 50.6043 33.6412 50.8279L33.6243 50.8456C33.4091 51.0639 33.1706 51.23 32.9085 51.344C32.64 51.4611 32.3607 51.5191 32.0685 51.5191H29.195C28.573 51.5191 28.0477 51.2932 27.6116 50.8354L27.613 50.8336C27.3957 50.6047 27.2327 50.3502 27.1239 50.0686C27.015 49.7881 26.961 49.4892 26.961 49.1708V47.3946C26.9166 47.3769 26.8718 47.3585 26.826 47.3401C26.5875 47.2422 26.3483 47.136 26.1087 47.0208C25.8584 46.9007 25.6243 46.7791 25.4087 46.6568C25.3829 46.6421 25.3571 46.6274 25.3317 46.6124L24.3205 47.692C24.3098 47.7045 24.2983 47.7161 24.2869 47.7282C24.0692 47.945 23.8264 48.1084 23.5614 48.2183C23.2954 48.3286 23.0143 48.3832 22.7203 48.3832C22.4267 48.3832 22.1477 48.3286 21.8831 48.2191C21.6189 48.1099 21.3782 47.9484 21.1602 47.735L21.1605 47.7346C21.1512 47.7259 21.1423 47.7165 21.1333 47.7071L19.1163 45.5624C18.9043 45.3351 18.7418 45.0843 18.63 44.8091C18.514 44.5234 18.4553 44.2219 18.4553 43.9049C18.4553 43.583 18.5155 43.2804 18.6336 42.9965C18.75 42.7164 18.9183 42.4691 19.1367 42.2511L20.3205 41.01C20.3004 40.9655 20.2815 40.9215 20.2629 40.8778C20.164 40.6478 20.0652 40.3986 19.9667 40.1302C19.8711 39.8723 19.7859 39.6122 19.7093 39.3502L19.71 39.3498L19.7093 39.3468L19.6781 39.238H18.234C17.9289 39.238 17.6425 39.1789 17.3732 39.0603C17.1082 38.9436 16.8701 38.7727 16.6574 38.5483L16.6406 38.5303C16.4326 38.304 16.275 38.0533 16.1665 37.7777C16.0551 37.495 16 37.2006 16 36.8942V33.872C16 33.5535 16.0541 33.2546 16.1629 32.9742C16.2718 32.6937 16.4336 32.44 16.6499 32.2118L16.6506 32.2111L16.652 32.2096L16.6535 32.2077C16.8705 31.9803 17.1122 31.8094 17.3793 31.695C17.6464 31.5805 17.9307 31.5237 18.2337 31.5237H19.923C19.9399 31.477 19.9574 31.4299 19.9753 31.3817C20.0681 31.131 20.169 30.8796 20.2786 30.6273C20.3928 30.3646 20.5081 30.1184 20.6245 29.8917C20.6395 29.8627 20.6546 29.8334 20.6696 29.8044L19.648 28.7274C19.4328 28.5034 19.2688 28.25 19.1561 27.9703C19.0397 27.6812 18.982 27.3789 18.982 27.0649C18.982 26.7521 19.0397 26.4521 19.155 26.1641C19.2692 25.8795 19.4328 25.625 19.6466 25.4006L19.648 25.4021L21.6586 23.2834L21.6654 23.2763C21.881 23.0534 22.1195 22.8821 22.3816 22.7647C22.6537 22.6431 22.9402 22.581 23.242 22.581C23.5482 22.581 23.8357 22.6442 24.106 22.7685C24.3707 22.89 24.6048 23.0655 24.8111 23.2932L26.0124 24.5385C26.0489 24.5201 26.0851 24.5024 26.1213 24.4847C26.3422 24.3774 26.5789 24.2728 26.832 24.1704C27.0687 24.0736 27.3176 23.9833 27.5772 23.8997C27.6119 23.8888 27.6463 23.8775 27.6807 23.8669V22.3483C27.6807 22.0276 27.7373 21.7264 27.8497 21.4433C27.9607 21.1651 28.1233 20.9144 28.3367 20.6908L28.3539 20.6731C28.5691 20.4544 28.8075 20.2887 29.07 20.1747C29.3396 20.058 29.6193 20 29.9111 20H32.7857C33.0883 20 33.373 20.0568 33.6397 20.1713C33.9115 20.288 34.1546 20.4585 34.3688 20.6836L34.3673 20.6855L34.3688 20.687C34.585 20.914 34.7472 21.1681 34.8565 21.4501C34.9653 21.7306 35.0194 22.0298 35.0194 22.348V24.1244C35.0638 24.1421 35.1089 24.1606 35.1544 24.179C35.3928 24.2765 35.632 24.3827 35.8719 24.4979C36.1222 24.6184 36.3564 24.7396 36.5716 24.8619L36.6547 24.9094L37.6791 23.8353C37.8925 23.6087 38.1332 23.4367 38.3992 23.3181C38.6746 23.1957 38.9618 23.1355 39.2604 23.1355C39.5579 23.1362 39.8437 23.1965 40.1176 23.3177ZM30.99 28.9423C31.4318 28.9423 31.863 28.9867 32.2848 29.0752C32.6973 29.1618 33.1076 29.2958 33.5158 29.4769L33.5216 29.4795L33.5226 29.4769C33.9083 29.6516 34.2757 29.862 34.6244 30.1074C34.9696 30.3503 35.2886 30.6243 35.5812 30.9292L35.5848 30.933C35.8752 31.241 36.1358 31.5767 36.3668 31.9397C36.6003 32.3063 36.8001 32.6926 36.9666 33.0976C36.9766 33.1225 36.9859 33.1477 36.9938 33.1729C37.1524 33.5799 37.2706 33.9883 37.3486 34.3987C37.4328 34.8417 37.475 35.2954 37.475 35.7599C37.475 36.2245 37.4328 36.6781 37.3486 37.1208C37.2663 37.5545 37.1388 37.9859 36.9666 38.4154L36.9641 38.4215L36.9666 38.4222C36.8004 38.8273 36.6003 39.2135 36.3668 39.5802C36.1358 39.9431 35.8752 40.2785 35.5848 40.5865L35.5812 40.5902C35.2886 40.8951 34.9696 41.1692 34.6241 41.4124C34.2753 41.6575 33.9083 41.8679 33.5226 42.043C33.499 42.0535 33.4754 42.0633 33.451 42.0712C33.0639 42.238 32.6754 42.3622 32.2848 42.4443C31.8633 42.5327 31.4318 42.5771 30.99 42.5771C30.5481 42.5771 30.117 42.5331 29.6956 42.4443C29.2831 42.358 28.8727 42.224 28.4645 42.043L28.4588 42.0403L28.4577 42.043C28.0724 41.8679 27.705 41.6578 27.3563 41.4124C27.0111 41.1692 26.692 40.8951 26.3995 40.5902L26.3963 40.5865C26.1059 40.2789 25.8452 39.9431 25.6142 39.5802C25.3808 39.2135 25.181 38.8277 25.0148 38.4222C25.0044 38.3977 24.9955 38.3721 24.9876 38.3473C24.829 37.9403 24.7108 37.5315 24.6324 37.1208C24.5483 36.6781 24.506 36.2245 24.506 35.7599C24.506 35.2954 24.5483 34.8421 24.6324 34.3987C24.7148 33.965 24.8422 33.5336 25.0145 33.1044L25.0166 33.0984L25.0145 33.0976C25.1806 32.6922 25.3804 32.3063 25.6139 31.9397C25.8452 31.5767 26.1055 31.2413 26.3959 30.933L26.3991 30.9296C26.6917 30.6247 27.0107 30.3506 27.3559 30.1078C27.705 29.8624 28.0721 29.6519 28.4577 29.4773C28.4817 29.4663 28.5057 29.4569 28.53 29.4486C28.9167 29.2823 29.3053 29.1576 29.6956 29.0756C30.1166 28.9867 30.5481 28.9423 30.99 28.9423ZM31.9514 30.8336C31.6413 30.7689 31.3208 30.7361 30.99 30.7361C30.6591 30.7361 30.3387 30.7689 30.0286 30.8336C29.7303 30.8961 29.4474 30.9846 29.1799 31.099C29.1638 31.1073 29.1473 31.1156 29.1305 31.1231C28.8279 31.2605 28.5515 31.4171 28.3019 31.5929C28.0495 31.7706 27.8157 31.9717 27.5998 32.1964C27.3867 32.4226 27.1955 32.6688 27.0265 32.9342C26.8596 33.1966 26.7107 33.4873 26.58 33.805L26.5775 33.8039C26.4586 34.1013 26.3676 34.416 26.3046 34.7491C26.2427 35.0751 26.2115 35.4121 26.2115 35.7599C26.2115 36.1078 26.2423 36.4447 26.3046 36.7707C26.364 37.0839 26.4482 37.3813 26.5567 37.6625C26.5649 37.6795 26.5724 37.6968 26.58 37.7149C26.7103 38.033 26.8593 38.3228 27.0265 38.5856C27.1955 38.851 27.3867 39.0968 27.6005 39.3238C27.816 39.5482 28.0499 39.7492 28.3023 39.9269C28.5519 40.1027 28.8283 40.2593 29.1305 40.3963L29.1294 40.399C29.412 40.5236 29.7113 40.6196 30.0282 40.6862C30.3383 40.751 30.6584 40.7837 30.9896 40.7837C31.3205 40.7837 31.641 40.751 31.9511 40.6862C32.2493 40.6237 32.5318 40.5353 32.7993 40.4212C32.8158 40.4125 32.8323 40.4042 32.8491 40.3967C33.1517 40.2597 33.4277 40.1031 33.6773 39.9277C33.9298 39.7496 34.1639 39.5486 34.3795 39.3242C34.5929 39.0976 34.7841 38.8514 34.9535 38.5856C35.1203 38.3236 35.2693 38.033 35.3996 37.7152L35.4022 37.716C35.521 37.419 35.612 37.1042 35.6754 36.7711C35.7373 36.4451 35.7685 36.1081 35.7685 35.7603C35.7685 35.4125 35.7373 35.0755 35.6754 34.7495C35.6159 34.4359 35.5318 34.1389 35.4233 33.8577C35.415 33.8408 35.4072 33.8234 35.4 33.8054C35.2697 33.4876 35.1207 33.197 34.9535 32.9346C34.7845 32.6688 34.5933 32.423 34.3802 32.1968C34.1647 31.972 33.9305 31.771 33.678 31.5933C33.4281 31.4175 33.152 31.2609 32.8495 31.1235L32.8505 31.1209C32.568 30.9959 32.2687 30.9003 31.9514 30.8336Z" fill="#1E1E1E" stroke="#1E1E1E" stroke-width="2" mask="url(#path-1-inside-1_358_20433)"/>
</svg>
