<svg width="512" height="512" viewBox="0 0 512 512" fill="none" xmlns="http://www.w3.org/2000/svg">
<path d="M258.953 34.0555L255.896 37.1118V59.1386V81.1654L258.847 84.1164C264.749 89.7022 273.918 88.4375 277.502 81.4816C278.977 78.8468 279.188 74.842 278.872 57.8739L278.556 37.428L275.499 34.2663C272.864 31.5261 271.6 30.9991 267.173 30.9991C262.958 30.9991 261.588 31.5261 258.953 34.0555Z" fill="#DFDFDF"/>
<path d="M203.095 56.0823C199.933 58.9279 199.512 59.8764 199.512 64.619V69.994L213.213 83.6948C227.124 97.6065 229.97 99.5036 236.083 98.6604C242.406 97.7119 246.938 89.0698 244.408 82.8517C243.671 81.1655 237.347 73.9988 230.181 66.9376C217.534 54.2906 216.901 53.8691 211.843 53.3421C207.205 52.9205 206.257 53.2367 203.095 56.0823Z" fill="#DFDFDF"/>
<path d="M315.338 56.1882C313.125 57.7691 306.485 64.0926 300.583 70.0999C288.99 82.1145 287.409 85.2762 290.044 91.4943C290.887 93.4968 292.573 95.8154 293.943 96.7639C297.105 98.9771 304.272 98.9771 307.539 96.7639C311.438 94.1291 328.406 77.4773 331.884 72.7347C336.311 66.8327 336.1 61.4578 331.357 56.7152C326.615 51.9725 321.24 51.7618 315.338 56.1882Z" fill="#DFDFDF"/>
<path d="M106.452 76.634C105.082 77.2663 102.763 80.2173 101.288 83.0629C92.5402 100.347 47.6435 197.202 45.4302 203.841C39.7391 220.388 41.2146 243.574 49.2243 261.174C59.0257 282.885 79.9986 303.12 104.766 314.713C109.614 316.926 113.618 319.14 113.618 319.561C113.618 321.142 90.1162 408.828 89.4838 409.46C89.1676 409.882 82.2118 408.301 74.0967 405.982C64.1899 403.242 57.9718 402.083 55.2316 402.399C49.6459 403.031 46.0626 406.72 45.4302 412.727C44.9033 416.838 45.2195 417.891 47.9596 420.948C50.8052 424.11 53.2292 424.953 93.0671 435.808C116.253 442.132 137.015 447.296 139.123 447.296C144.287 447.296 147.66 445.609 149.768 442.026C152.402 437.6 152.086 432.225 148.819 428.431C145.974 425.058 143.339 424.004 122.577 418.524C116.253 416.838 113.091 415.467 113.197 414.519C113.302 413.149 136.805 325.779 137.121 325.463C137.226 325.358 142.074 325.779 147.871 326.412C166.63 328.309 189.5 324.62 206.784 316.716C226.282 307.863 242.828 291.316 250.733 272.557L253.578 265.706L254.316 271.924C257.372 299.642 261.377 311.762 272.127 325.252C283.193 339.164 304.061 351.916 324.928 357.397C334.097 359.821 337.68 360.137 352.33 360.242C361.604 360.348 370.457 360.032 371.933 359.61L374.567 358.872L386.477 402.821C393.116 426.955 398.491 447.401 398.597 448.244C398.702 449.298 393.959 451.09 382.366 454.146C362.553 459.521 363.185 459.31 360.972 462.999C357.916 468.163 358.653 473.327 362.869 477.543C366.558 481.232 366.874 481.337 372.67 480.705C375.937 480.389 388.374 477.543 400.283 474.381C463.307 457.624 459.618 458.783 463.307 455.095C467.839 450.563 468.049 444.661 463.834 439.918C459.302 434.86 455.086 434.86 437.697 439.813C429.582 442.026 422.626 443.607 422.31 443.185C421.677 442.553 398.175 355.816 398.175 354.235C398.175 353.813 401.758 351.811 406.079 349.809C429.792 339.059 450.028 320.299 460.356 299.748C467.628 285.204 469.314 278.037 469.314 261.28C469.209 248.211 468.893 245.576 466.574 238.621C461.621 224.498 409.873 115.102 406.501 111.835C404.498 110.043 402.285 108.989 400.177 108.989C397.648 108.989 273.181 141.45 267.701 143.452C266.541 143.979 266.436 142.082 267.068 132.913C267.911 120.161 266.963 117.526 260.85 114.786C255.475 112.362 115.41 75.2639 111.932 75.3693C110.246 75.3693 107.822 75.8962 106.452 76.634ZM181.701 118.053C215.321 127.116 242.828 134.599 243.039 134.81C243.671 135.442 232.605 250.846 231.446 255.483C226.387 276.245 207.522 293.846 182.544 301.012C171.057 304.385 146.711 304.385 134.486 301.012C97.1774 290.895 70.3026 264.758 65.9815 234.51C63.9791 220.599 65.2438 216.805 90.4323 162.739C102.763 136.391 114.145 111.835 115.832 108.146C117.413 104.563 119.204 101.612 119.731 101.612C120.258 101.612 148.187 108.989 181.701 118.053ZM420.096 193.302C432.954 220.809 444.126 246.209 445.074 249.687C455.402 289.946 411.665 334.105 358.232 337.372C321.661 339.586 289.2 319.877 280.769 290.157C279.083 284.15 268.017 169.273 269.071 168.219C269.387 167.903 297.315 160.209 331.041 151.04L392.378 134.599L394.592 138.92C395.856 141.239 407.344 165.795 420.096 193.302Z" fill="#DFDFDF"/>
<path d="M173.692 182.446C172.216 182.762 164.628 185.397 156.829 188.348C142.707 193.723 142.496 193.723 130.481 193.723C120.469 193.723 116.57 193.301 107.822 190.877C96.2291 187.61 93.0673 187.821 88.9571 191.826C84.7414 196.147 76.7317 216.382 75.9939 224.708C74.0969 247.473 92.7512 273.821 119.31 285.519C131.535 290.894 141.442 292.791 157.883 292.791C169.16 292.791 174.956 292.369 180.015 290.999C201.304 285.308 216.691 272.029 221.118 255.693C222.593 249.897 227.336 200.468 226.704 196.99C225.439 190.983 217.956 186.978 200.566 183.289C193.611 181.814 179.488 181.392 173.692 182.446Z" fill="#DFDFDF"/>
<path d="M305.641 218.068C292.362 221.546 288.462 223.549 286.249 228.081C284.668 231.558 284.668 233.245 286.987 258.328C288.357 272.872 290.043 286.889 290.676 289.418C294.997 305.649 310.489 318.928 331.778 324.725C342.107 327.57 367.295 327.254 378.677 324.198C418.41 313.448 443.388 279.301 434.008 248.843C431.162 239.779 424.944 226.71 422.204 224.181C419.569 221.757 414.089 221.968 403.234 224.708C384.79 229.661 373.724 228.713 352.33 220.492C341.474 216.382 339.999 216.066 328.09 215.75C317.234 215.434 314.072 215.75 305.641 218.068Z" fill="#DFDFDF"/>
</svg>
