<svg width="512" height="512" viewBox="0 0 512 512" fill="none" xmlns="http://www.w3.org/2000/svg">
<path d="M38.0312 75.7148C36.3613 76.5059 34.0762 78.5273 33.0215 80.1973L31 83.1855V127.834V172.57H69.6719H108.344V123.352V74.1328H74.7695C44.4473 74.1328 40.8438 74.3086 38.0312 75.7148Z" fill="#1E1E1E"/>
<path d="M135.59 256.066V438H256H376.41V256.066V74.1328H256H135.59V256.066ZM228.666 193.664C243.783 201.75 317.699 245.432 319.457 247.277C324.203 252.463 324.203 259.67 319.457 264.855C317.611 266.789 239.916 312.668 227.875 318.908C223.041 321.457 216.889 320.754 213.109 317.238C208.451 313.02 208.539 314.777 208.539 256.066C208.539 210.891 208.715 201.047 209.77 199.113C213.461 191.994 221.371 189.709 228.666 193.664Z" fill="#1E1E1E"/>
<path d="M403.656 123.352V172.57H442.328H481V127.834V83.1855L478.979 80.1973C474.936 74.1328 474.76 74.1328 437.318 74.1328H403.656V123.352Z" fill="#1E1E1E"/>
<path d="M31 256.066V312.316H69.6719H108.344V256.066V199.816H69.6719H31V256.066Z" fill="#1E1E1E"/>
<path d="M403.656 256.066V312.316H442.328H481V256.066V199.816H442.328H403.656V256.066Z" fill="#1E1E1E"/>
<path d="M31 384.299V428.947L33.0215 431.936C37.0645 438 37.2402 438 74.7695 438H108.344V388.781V339.562H69.6719H31V384.299Z" fill="#1E1E1E"/>
<path d="M403.656 388.781V438H437.318C474.76 438 474.936 438 478.979 431.936L481 428.947V384.299V339.562H442.328H403.656V388.781Z" fill="#1E1E1E"/>
</svg>
