<svg width="76" height="76" viewBox="0 0 76 76" fill="none" xmlns="http://www.w3.org/2000/svg">
<path d="M25.1216 23H50.8784C51.4619 23 51.9941 23.2407 52.3774 23.6263C52.7607 24.012 53 24.5474 53 25.1344V50.8656C53 51.4526 52.7607 51.988 52.3774 52.3737C51.9941 52.7593 51.4619 53 50.8784 53H25.1216C24.5381 53 24.0059 52.7593 23.6226 52.3737C23.2393 51.988 23 51.4526 23 50.8656V25.1344C23 24.5474 23.2393 24.012 23.6226 23.6263C24.0059 23.2407 24.5381 23 25.1216 23ZM24.7139 44.6882L33.8716 36.3642C34.2207 36.0473 34.7603 36.0743 35.0752 36.4256C35.0825 36.4329 35.0874 36.4403 35.0947 36.4477L35.0972 36.4452L42.7754 45.5872L43.9521 38.3193C44.0278 37.8502 44.4673 37.5333 44.9336 37.6095C45.1167 37.6389 45.2754 37.7249 45.3975 37.8453L51.2935 43.5387V25.1344C51.2935 25.0215 51.2471 24.9207 51.1738 24.8446C51.1006 24.7709 50.998 24.7243 50.8857 24.7243H25.1216C25.0093 24.7243 24.9092 24.7709 24.8335 24.8446C24.7603 24.9183 24.7139 25.0215 24.7139 25.1344V44.6882ZM51.2861 45.9212L45.373 40.2106L44.1646 47.6799C44.1377 47.8837 44.0376 48.0802 43.8691 48.2252C43.5078 48.5322 42.9707 48.4855 42.6655 48.1244L34.3574 38.2333L24.7139 47.002V50.8656C24.7139 50.9785 24.7603 51.0793 24.8335 51.1554C24.9092 51.2315 25.0093 51.2758 25.1216 51.2758H50.8784C50.9907 51.2758 51.0908 51.2291 51.1665 51.1554C51.2397 51.0817 51.2861 50.9785 51.2861 50.8656V45.9212ZM45.6074 27.878C46.457 27.878 47.2236 28.2243 47.7803 28.7843C48.3369 29.3444 48.6812 30.1181 48.6812 30.9704C48.6812 31.8227 48.3369 32.5964 47.7803 33.1564C47.2236 33.7164 46.4546 34.0627 45.6074 34.0627C44.7578 34.0627 43.9912 33.7164 43.4346 33.1564C42.8779 32.5964 42.5337 31.8227 42.5337 30.9704C42.5337 30.1181 42.8779 29.3444 43.4346 28.7843C43.9912 28.2243 44.7578 27.878 45.6074 27.878ZM46.8232 29.7472C46.5132 29.4352 46.0835 29.2412 45.6074 29.2412C45.1338 29.2412 44.7041 29.4352 44.3916 29.7472C44.0815 30.0591 43.8887 30.4914 43.8887 30.9704C43.8887 31.4469 44.0815 31.8792 44.3916 32.1935C44.7017 32.5055 45.1313 32.6995 45.6074 32.6995C46.0811 32.6995 46.5107 32.5055 46.8232 32.1935C47.1333 31.8816 47.3262 31.4493 47.3262 30.9704C47.3262 30.4939 47.1333 30.0616 46.8232 29.7472Z" fill="#1E1E1E" stroke="#1E1E1E" stroke-width="0.4"/>
</svg>
