<svg width="46" height="46" viewBox="0 0 46 46" fill="none" xmlns="http://www.w3.org/2000/svg">
  <g clip-path="url(#clip0_881_23066)">
    <g>
      <path d="M46 23C46 10.3 35.7 0 23 0C10.3 0 0 10.3 0 23M3.89999 23C3.89999 12.5 12.4 3.9 23 3.9C33.6 3.9 42.1 12.5 42.1 23" fill="white"/>
      <path d="M0 23C0 35.7 10.3 46 23 46C35.7 46 46 35.7 46 23M42.1 23C42.1 33.5 33.6 42.1 23 42.1C12.4 42.1 3.89999 33.5 3.89999 23" fill="#D9D9D9"/>
      <!-- Анимация вращения -->
      <animateTransform 
        attributeName="transform" 
        attributeType="XML" 
        type="rotate" 
        from="0 23 23" 
        to="360 23 23" 
        dur="3s" 
        repeatCount="indefinite"/>
    </g>
  </g>
  <defs>
    <clipPath id="clip0_881_23066">
      <rect width="46" height="46" fill="white"/>
    </clipPath>
  </defs>
</svg>
