<svg width="24" height="24" viewBox="0 0 24 24" fill="none" xmlns="http://www.w3.org/2000/svg">
<path fill-rule="evenodd" clip-rule="evenodd" d="M1.74609 3H22.2539C23.2148 3 24 3.79604 24 4.7703C24 5.74455 23.2148 6.54059 22.2539 6.54059H1.74609C0.785156 6.54059 0 5.74455 0 4.7703C0 3.79604 0.785156 3 1.74609 3ZM1.74609 18.4594H22.2539C23.2148 18.4594 24 19.2554 24 20.2297C24 21.204 23.2148 22 22.2539 22H1.74609C0.785156 22 0 21.204 0 20.2297C0 19.2554 0.785156 18.4594 1.74609 18.4594ZM1.74609 10.7287H22.2539C23.2148 10.7287 24 11.5248 24 12.499C24 13.4733 23.2148 14.2693 22.2539 14.2693H1.74609C0.785156 14.2693 0 13.4733 0 12.499C0 11.5267 0.785156 10.7287 1.74609 10.7287Z" fill="#1E1E1E"/>
</svg>
