<svg width="26" height="26" viewBox="0 0 26 26" fill="none" xmlns="http://www.w3.org/2000/svg">
<path fill-rule="evenodd" clip-rule="evenodd" d="M13 0C20.1784 0 26 5.82169 26 13.0001C26 20.1785 20.1784 26 13 26C5.82144 26.0002 0 20.1785 0 13.0001C0 5.82169 5.82144 0 13 0ZM16.8044 20.7813H9.19564V19.5006H10.6253V11.6802H9.19564V10.6612H12.752C13.6502 10.6612 14.534 10.5533 15.4072 10.333V19.5008H16.8046L16.8044 20.7813ZM13.5118 4.4599C14.1011 4.4599 14.5645 4.63023 14.9022 4.96687C15.2363 5.3033 15.4051 5.76478 15.4051 6.35935C15.4051 6.96195 15.1178 7.49791 14.5391 7.96764C13.957 8.43737 13.282 8.67393 12.5127 8.67393C11.9344 8.67393 11.4749 8.51206 11.1228 8.18791C10.7705 7.85973 10.5944 7.43549 10.5944 6.90779C10.5944 6.24276 10.8818 5.66935 11.4533 5.1829C12.0246 4.70132 12.7105 4.4599 13.5118 4.4599Z" fill="#1E1E1E"/>
</svg>
