<svg width="46" height="46" viewBox="0 0 46 46" fill="none" xmlns="http://www.w3.org/2000/svg">
<path d="M19.6665 23.0061C19.6633 21.1655 21.153 19.6702 22.9934 19.667C24.834 19.6634 26.3296 21.1525 26.3332 22.9935C26.3367 24.8345 24.847 26.3295 23.006 26.333C21.1657 26.3366 19.6701 24.8472 19.6665 23.0061ZM17.8654 23.0097C17.8709 25.8457 20.1743 28.1397 23.0096 28.1341C25.8452 28.1287 28.1404 25.826 28.1349 22.99C28.1294 20.1549 25.8258 17.8596 22.9898 17.8652C20.1545 17.8707 17.8599 20.1743 17.8654 23.0097ZM27.1273 17.6546C27.1286 18.3168 27.667 18.8531 28.3293 18.8518C28.9919 18.8505 29.5281 18.3123 29.5272 17.65C29.5259 16.9878 28.9874 16.4512 28.3248 16.4525C27.6622 16.4538 27.126 16.9923 27.1273 17.6546ZM18.9751 31.1468C18.0002 31.1043 17.4708 30.9423 17.118 30.8066C16.6507 30.6258 16.3173 30.409 15.9664 30.0607C15.6162 29.7111 15.3988 29.3787 15.2164 28.9124C15.0793 28.5596 14.9144 28.0308 14.8687 27.0559C14.8191 26.0019 14.8078 25.6857 14.803 23.0155C14.7978 20.3461 14.8075 20.0298 14.8535 18.9749C14.8953 18.0006 15.0583 17.4705 15.1937 17.118C15.3745 16.6501 15.5906 16.3174 15.9396 15.9665C16.2891 15.6156 16.6216 15.3989 17.0881 15.2164C17.4407 15.0787 17.9694 14.9151 18.944 14.8688C19.9986 14.8189 20.3145 14.8082 22.984 14.803C25.654 14.7978 25.9702 14.8072 27.0252 14.8535C27.9995 14.896 28.5295 15.0573 28.8818 15.1937C29.3493 15.3745 29.6827 15.59 30.0333 15.9396C30.3838 16.2892 30.6012 16.621 30.7836 17.0885C30.9213 17.4401 31.085 17.9695 31.131 18.9438C31.1812 19.9984 31.1926 20.3146 31.1974 22.9841C31.2026 25.6542 31.1928 25.9705 31.1465 27.0248C31.1041 27.9997 30.9424 28.5295 30.8063 28.8826C30.6255 29.3495 30.4094 29.6829 30.0601 30.0338C29.7109 30.3834 29.3785 30.6015 28.9116 30.7839C28.5597 30.9213 28.0303 31.0852 27.0563 31.1315C26.0017 31.1811 25.6858 31.1925 23.0154 31.1973C20.3459 31.2025 20.0301 31.1925 18.9751 31.1468ZM18.8585 13.0692C17.7944 13.1195 17.0677 13.2899 16.4326 13.5387C15.7753 13.795 15.218 14.1385 14.6637 14.6951C14.1086 15.2521 13.7678 15.8103 13.5134 16.4684C13.2672 17.105 13.1003 17.8321 13.0533 18.8968C13.0067 19.9634 12.996 20.3036 13.0012 23.0191C13.0064 25.7343 13.0183 26.0751 13.0692 27.1421C13.1201 28.2058 13.2899 28.9322 13.5387 29.5675C13.7953 30.225 14.1384 30.782 14.6954 31.3366C15.252 31.8913 15.8106 32.2319 16.469 32.4866C17.105 32.7324 17.8323 32.9 18.8967 32.9466C19.9633 32.9936 20.3038 33.004 23.0186 32.9988C25.7347 32.9936 26.0753 32.9816 27.1419 32.9311C28.2059 32.8802 28.932 32.7098 29.5677 32.4616C30.2251 32.2043 30.7823 31.8618 31.3367 31.3049C31.8911 30.7482 32.2319 30.1897 32.4863 29.5313C32.7325 28.8953 32.9 28.1679 32.9463 27.1042C32.993 26.0369 33.004 25.696 32.9988 22.9809C32.9936 20.2654 32.9813 19.9252 32.9308 18.8589C32.8803 17.7942 32.7098 17.0681 32.4613 16.4324C32.2044 15.775 31.8616 15.2184 31.305 14.6634C30.7483 14.109 30.1897 13.7675 29.5314 13.5138C28.8951 13.2675 28.168 13.0997 27.1036 13.0537C26.037 13.0064 25.6965 12.996 22.9807 13.0012C20.2656 13.0064 19.9251 13.018 18.8585 13.0692Z" fill="#F9F9F9"/>
</svg>
