<svg width="20" height="24" viewBox="0 0 20 24" fill="none" xmlns="http://www.w3.org/2000/svg">
<path fill-rule="evenodd" clip-rule="evenodd" d="M0 9.90144C0 4.43303 4.47715 0 10 0C15.5228 0 20 4.43303 20 9.90144C20 12.7357 18.8294 15.3877 17.3711 17.6017C15.9081 19.8227 14.1081 21.6749 12.7375 22.9286C11.1758 24.3571 8.82416 24.3571 7.26252 22.9286C5.89189 21.6749 4.09191 19.8227 2.62893 17.6017C1.17058 15.3877 0 12.7357 0 9.90144ZM6.09375 9.90144C6.09375 7.76534 7.84264 6.03369 10 6.03369C12.1574 6.03369 13.9062 7.76534 13.9062 9.90144C13.9062 12.0375 12.1574 13.7692 10 13.7692C7.84264 13.7692 6.09375 12.0375 6.09375 9.90144Z" fill="#DFDFDF"/>
</svg>
