<svg width="22" height="22" viewBox="0 0 22 22" fill="none" xmlns="http://www.w3.org/2000/svg">
<path fill-rule="evenodd" clip-rule="evenodd" d="M2 9.07632C2 4.06361 6.02944 0 11 0C15.9706 0 20 4.06361 20 9.07632C20 11.6744 18.9465 14.1054 17.634 16.1349C16.3173 18.1708 14.6973 19.8686 13.4637 21.0179C12.0583 22.3274 9.94174 22.3274 8.53627 21.0179C7.3027 19.8686 5.68272 18.1708 4.36604 16.1349C3.05352 14.1054 2 11.6744 2 9.07632ZM7.48438 9.07632C7.48438 7.11823 9.05837 5.53088 11 5.53088C12.9416 5.53088 14.5156 7.11823 14.5156 9.07632C14.5156 11.0344 12.9416 12.6218 11 12.6218C9.05837 12.6218 7.48438 11.0344 7.48438 9.07632Z" fill="#0479FF"/>
</svg>
