<svg width="76" height="76" viewBox="0 0 76 76" fill="none" xmlns="http://www.w3.org/2000/svg">
<path d="M38.2471 22.5C40.8744 22.5001 43.2609 23.5354 44.9893 25.1992L44.998 25.207C46.722 26.87 47.7871 29.1568 47.7871 31.666V37.0928H50.2178C50.3899 37.0928 50.5 37.226 50.5 37.3457V53.2471C50.5 53.3668 50.3899 53.4999 50.2178 53.5H25.7822C25.6101 53.4999 25.5 53.3668 25.5 53.2471V37.3457L25.5049 37.3008C25.5281 37.1949 25.6314 37.0928 25.7822 37.0928H28.7061V31.666C28.7061 29.1539 29.7735 26.8646 31.501 25.2012L31.5449 25.1582C33.2698 23.5186 35.6392 22.5 38.2471 22.5ZM37.8369 40.4053C36.3069 40.4055 35.0343 41.6031 35.0342 43.1211C35.0342 44.1884 35.6664 45.0992 36.5703 45.5449L35.6465 50.7246L35.541 51.3145L36.1406 51.3125L39.5371 51.2988L40.1602 51.2959L40.0234 50.6885L38.8867 45.6396C39.9063 45.2397 40.6396 44.2716 40.6396 43.1211C40.6395 41.603 39.3657 40.4053 37.8369 40.4053ZM38.2471 25.2021C36.4258 25.2021 34.7664 25.9196 33.5625 27.0771V27.0781C32.3602 28.2366 31.6074 29.842 31.6074 31.6123V37.0928H44.8857V31.6123C44.8857 29.8419 44.1317 28.2366 42.9297 27.0781L42.6201 26.7783L42.6055 26.7891C41.4369 25.8024 39.9098 25.2023 38.2471 25.2021Z" fill="#1E1E1E" stroke="#1E1E1E"/>
</svg>
