<svg width="24" height="24" viewBox="0 0 24 24" fill="none" xmlns="http://www.w3.org/2000/svg">
<path fill-rule="evenodd" clip-rule="evenodd" d="M11.713 12.1917L12.3738 12.2339C12.9819 12.2727 13.5692 12.4728 14.075 12.8126L15.3289 13.6554C16.2621 14.2825 16.5841 15.5049 16.0813 16.5105C15.7025 17.2676 14.9288 17.7463 14.0822 17.7463H13.3962C12.278 17.7462 11.2337 17.1865 10.6135 16.2561L9.9455 15.2554C9.42319 14.4719 9.52805 13.4278 10.1951 12.7632C10.5957 12.3641 11.1487 12.1557 11.713 12.1917ZM11.6178 13.6711C11.4774 13.6622 11.3401 13.7141 11.2404 13.8134C11.0746 13.9788 11.049 14.2382 11.1789 14.4331L11.8457 15.435C12.1912 15.9533 12.7733 16.2644 13.3962 16.2645H14.0822C14.3678 16.2645 14.6285 16.1028 14.7562 15.8474C14.9256 15.5084 14.8174 15.0967 14.503 14.8852L13.2491 14.0424C12.9609 13.8488 12.6262 13.7354 12.2797 13.7133L11.6178 13.6711Z" fill="#F9F9F9"/>
<path fill-rule="evenodd" clip-rule="evenodd" d="M12 2C12.836 2 13.6493 2.10268 14.4271 2.2966C18.7769 3.38136 22 7.31315 22 12C22 17.5231 17.5231 22 12 22C6.47689 22 2 17.5231 2 12C2 10.3715 2.38945 8.83188 3.0815 7.47143C4.73264 4.22569 8.10566 2 12 2ZM14.1582 6.42971C13.8235 7.76944 12.7786 8.81647 11.4394 9.15336L9.78635 9.56933C9.61384 9.61272 9.46863 9.72885 9.38847 9.88763C8.80176 11.0523 7.30443 11.4039 6.26091 10.6219L4.04123 8.95804C3.68011 9.90223 3.48059 10.9272 3.48059 12C3.48059 16.7049 7.29513 20.5194 12 20.5194C16.7049 20.5194 20.5194 16.7049 20.5194 12C20.5194 8.26857 18.119 5.09666 14.7779 3.94478L14.1582 6.42971ZM12 3.48059C8.90539 3.48059 6.19445 5.13068 4.70195 7.60164L7.14951 9.4367C7.45498 9.66539 7.89292 9.56173 8.06463 9.22088C8.33831 8.67785 8.8349 8.2805 9.42464 8.13214L11.0776 7.71618C11.887 7.51258 12.5188 6.88009 12.721 6.07041L13.3395 3.5891C12.9033 3.52023 12.4563 3.48059 12 3.48059Z" fill="#F9F9F9"/>
</svg>
