<svg width="12" height="3" viewBox="0 0 12 3" fill="none" xmlns="http://www.w3.org/2000/svg">
<path d="M1.40332 0.900391V0.901367C1.40099 0.901252 1.39874 0.900395 1.39648 0.900391C1.3258 0.900391 1.25839 0.917724 1.19824 0.949219L1.19922 0.950195C1.19621 0.95173 1.19319 0.952049 1.19141 0.953125L1.18848 0.955078L1.18945 0.956055C1.13137 0.988246 1.07984 1.03139 1.03809 1.08398C0.951392 1.19327 0.900391 1.34112 0.900391 1.5C0.900396 1.57778 0.912968 1.65266 0.935547 1.72168C0.959128 1.79368 0.993642 1.86018 1.03809 1.91602C1.0684 1.95419 1.10529 1.98561 1.14453 2.01367V2.02246L1.19824 2.05078C1.2583 2.0821 1.32581 2.09961 1.39648 2.09961C1.39872 2.09961 1.40097 2.09875 1.40332 2.09863V2.09961H10.5967V2.09863C10.599 2.09875 10.6012 2.0996 10.6035 2.09961C10.6741 2.09961 10.7416 2.08226 10.8018 2.05078C10.8639 2.01833 10.9178 1.97163 10.9619 1.91602C10.9914 1.87882 11.0156 1.83603 11.0361 1.79102H11.042L11.0645 1.72266C11.0872 1.65341 11.0996 1.57797 11.0996 1.5C11.0996 1.42234 11.0872 1.34746 11.0645 1.27832C11.0408 1.20641 11.0061 1.13973 10.9619 1.08398C10.8751 0.97465 10.7489 0.900391 10.6035 0.900391L10.5967 0.901367C7.53241 0.901264 4.46759 0.900391 1.40332 0.900391Z" fill="#2B2B2B" stroke="#2B2B2B" stroke-width="0.2"/>
</svg>
