<svg width="101" height="20" viewBox="0 0 101 20" fill="none" xmlns="http://www.w3.org/2000/svg">
<path d="M27.5218 12.121C28.6175 12.1199 29.6768 11.7274 30.5087 11.014C31.3404 10.3006 31.8899 9.31357 32.0579 8.23073C32.4126 5.97364 30.6487 4.00307 28.1496 4.00307H24.1224C24.0469 4.00222 23.9736 4.02868 23.9161 4.0776C23.8585 4.12652 23.8205 4.19458 23.8093 4.26926L22.014 15.6629C22.0075 15.7045 22.01 15.747 22.0215 15.7876C22.0329 15.8282 22.053 15.8658 22.0804 15.8979C22.1078 15.93 22.1418 15.9557 22.1801 15.9733C22.2184 15.9911 22.26 16.0002 22.3022 16.0002H24.4332C24.5087 16.0011 24.582 15.9747 24.6395 15.9257C24.6972 15.8768 24.7351 15.8087 24.7464 15.7341L25.274 12.3871C25.2854 12.3125 25.3233 12.2445 25.3808 12.1956C25.4384 12.1466 25.5117 12.1201 25.5872 12.121H27.5218ZM29.3052 8.12819C29.1737 8.96274 28.5286 9.57733 27.2939 9.57733H25.7156L26.194 6.54202H27.7441C29.021 6.54438 29.436 7.29752 29.3052 8.13053V8.12819Z" fill="#003087"/>
<path d="M41.2914 7.59178H39.2684C39.1929 7.59093 39.1195 7.61741 39.062 7.66632C39.0045 7.71524 38.9666 7.7833 38.9552 7.85798L38.8894 8.27765C38.8894 8.27765 37.3181 6.56227 34.538 7.72096C32.9433 8.3849 32.1776 9.7565 31.8527 10.761C31.8527 10.761 30.8177 13.8143 33.1562 15.4952C33.1562 15.4952 35.3248 17.1111 37.7667 15.3949L37.7245 15.6627C37.7179 15.7044 37.7205 15.747 37.7319 15.7875C37.7434 15.8281 37.7635 15.8657 37.7908 15.8977C37.8183 15.9298 37.8523 15.9555 37.8905 15.9733C37.9288 15.9909 37.9704 16.0001 38.0126 16.0002H40.0356C40.1111 16.001 40.1845 15.9745 40.242 15.9256C40.2995 15.8767 40.3374 15.8087 40.3488 15.734L41.5795 7.92922C41.586 7.88757 41.5835 7.845 41.572 7.80443C41.5606 7.76386 41.5405 7.72625 41.5131 7.69419C41.4857 7.66213 41.4517 7.63637 41.4134 7.6187C41.3752 7.60102 41.3336 7.59184 41.2914 7.59178ZM38.3163 11.9056C38.2372 12.4494 37.9634 12.946 37.5459 13.3033C37.1284 13.6607 36.5955 13.8545 36.0459 13.8488C35.8307 13.8512 35.6164 13.8198 35.411 13.7556C34.5388 13.4753 34.0409 12.6368 34.1842 11.7279C34.2633 11.1825 34.5382 10.6847 34.9574 10.327C35.3765 9.96927 35.9114 9.77631 36.4624 9.78395C36.678 9.78177 36.8925 9.81349 37.0982 9.87784C37.9671 10.1566 38.4619 10.9959 38.3187 11.9056H38.3163Z" fill="#003087"/>
<path d="M70.4269 7.59178H68.4055C68.33 7.59093 68.2567 7.61741 68.1992 7.66632C68.1416 7.71524 68.1036 7.7833 68.0924 7.85798L68.0258 8.27765C68.0258 8.27765 66.4553 6.56227 63.6752 7.72096C62.0804 8.3849 61.3147 9.7565 60.9891 10.761C60.9891 10.761 59.9548 13.8143 62.2934 15.4952C62.2934 15.4952 64.462 17.1111 66.9039 15.3949L66.8616 15.6627C66.8551 15.7044 66.8576 15.747 66.8691 15.7875C66.8805 15.8281 66.9006 15.8657 66.928 15.8977C66.9553 15.9298 66.9893 15.9555 67.0277 15.9733C67.066 15.9909 67.1076 16.0001 67.1498 16.0002H69.1727C69.2483 16.001 69.3215 15.9745 69.3792 15.9256C69.4367 15.8767 69.4746 15.8087 69.4859 15.734L70.7167 7.92922C70.7232 7.88744 70.7207 7.84474 70.7091 7.80405C70.6976 7.76337 70.6773 7.72568 70.6498 7.69359C70.6222 7.6615 70.588 7.63578 70.5495 7.6182C70.5111 7.60063 70.4693 7.59161 70.4269 7.59178ZM67.452 11.9056C67.3737 12.4498 67.1002 12.947 66.6825 13.3045C66.2648 13.6621 65.7313 13.8555 65.1815 13.8488C64.9661 13.8512 64.7515 13.8198 64.5458 13.7556C63.6728 13.4753 63.1749 12.6368 63.3182 11.7279C63.3972 11.1839 63.6709 10.6871 64.0884 10.3296C64.5059 9.97209 65.039 9.77822 65.5887 9.78395C65.8041 9.78168 66.0186 9.8134 66.2243 9.87784C67.1028 10.1566 67.5984 10.9959 67.4543 11.9056H67.452Z" fill="#0070E0"/>
<path d="M48.7179 7.78533L46.2791 11.9018L45.0414 7.81586C45.0221 7.75097 44.9823 7.69409 44.928 7.65372C44.8736 7.61336 44.8076 7.59168 44.74 7.59195H42.5392C42.5013 7.5913 42.4638 7.59983 42.4299 7.61683C42.396 7.63383 42.3667 7.65878 42.3446 7.68955C42.3224 7.72032 42.308 7.75601 42.3027 7.79354C42.2973 7.83108 42.3011 7.86936 42.3137 7.90511L44.5317 14.7884L42.5259 18.032C42.5032 18.0677 42.4905 18.1089 42.4893 18.1512C42.4881 18.1936 42.4983 18.2354 42.519 18.2724C42.5396 18.3094 42.5698 18.3401 42.6064 18.3614C42.6431 18.3825 42.6847 18.3934 42.7271 18.3929H45.0977C45.1655 18.3931 45.2322 18.3756 45.2912 18.3423C45.3502 18.3089 45.3996 18.2607 45.4344 18.2027L51.6295 7.95444C51.6517 7.91863 51.6639 7.87753 51.6647 7.83543C51.6655 7.79332 51.6551 7.75176 51.6343 7.7151C51.6135 7.67844 51.5834 7.64803 51.5468 7.62706C51.5104 7.60608 51.4688 7.59531 51.4268 7.59586H49.0569C48.9888 7.59523 48.9217 7.61237 48.8623 7.6456C48.8028 7.67883 48.753 7.72699 48.7179 7.78533Z" fill="#003087"/>
<path d="M72.7024 4.26621L70.9018 15.6629C70.8952 15.7045 70.8977 15.7472 70.9092 15.7877C70.9207 15.8282 70.9407 15.8659 70.9681 15.898C70.9955 15.93 71.0295 15.9558 71.0677 15.9735C71.106 15.9911 71.1477 16.0003 71.1899 16.0004H73.3209C73.3965 16.0012 73.4697 15.9748 73.5272 15.9259C73.5848 15.8769 73.6228 15.8089 73.634 15.7342L75.4347 4.33745C75.4413 4.29581 75.4387 4.25324 75.4273 4.21266C75.4158 4.17209 75.3957 4.13448 75.3684 4.10242C75.3409 4.07036 75.3069 4.04461 75.2687 4.02693C75.2304 4.00925 75.1888 4.00007 75.1466 4.00002H73.0156C72.94 3.99917 72.8668 4.02564 72.8092 4.07455C72.7516 4.12346 72.7137 4.19153 72.7024 4.26621Z" fill="#0070E0"/>
<path d="M15.9717 9.2067C15.5144 11.813 13.3881 13.7836 10.5978 13.7836H8.82614C8.46522 13.7836 8.10114 14.1179 8.04321 14.4881L7.26735 19.4118C7.22273 19.6921 7.0912 19.7853 6.80701 19.7853H3.95802C3.66991 19.7853 3.6018 19.689 3.64486 19.4048L3.97211 16L0.551608 15.823C0.264282 15.823 0.160152 15.6664 0.200861 15.3791L2.5347 0.582242C2.57933 0.30196 2.75391 0.181396 3.03733 0.181396H8.95529C11.8043 0.181396 13.6065 2.09951 13.8273 4.586C15.5223 5.73139 16.3146 7.25493 15.9717 9.2067Z" fill="#001C64"/>
<path d="M4.83884 10.4864L3.97217 16.0004L3.42414 19.4592C3.4139 19.526 3.41816 19.5941 3.43664 19.6591C3.45511 19.724 3.48737 19.7842 3.53121 19.8355C3.57504 19.8869 3.62943 19.9281 3.69067 19.9566C3.7519 19.985 3.81854 19.9999 3.88605 20.0003H6.89553C7.03283 20.0001 7.16555 19.9509 7.26987 19.8617C7.3742 19.7724 7.44328 19.6489 7.4647 19.5133L8.25704 14.4871C8.2784 14.3514 8.34747 14.2279 8.45181 14.1386C8.55615 14.0494 8.68885 14.0003 8.82618 14.0001H10.5979C11.9477 13.9984 13.2525 13.5145 14.2769 12.6357C15.3014 11.7568 15.9783 10.541 16.1854 9.2071C16.4924 7.24988 15.5075 5.46799 13.8219 4.58801C13.818 4.79647 13.8 5.00442 13.7679 5.21043C13.5598 6.54358 12.8826 7.75865 11.8582 8.63677C10.8338 9.51494 9.52957 9.99846 8.18024 10.0002H5.40802C5.27079 10.0002 5.13807 10.0492 5.03373 10.1383C4.92939 10.2274 4.86029 10.3508 4.83884 10.4864Z" fill="#0070E0"/>
<path d="M3.97253 16.0002H0.468249C0.400601 16 0.333789 15.9852 0.272403 15.9567C0.211007 15.9283 0.156483 15.8869 0.112539 15.8355C0.0686034 15.7841 0.0363016 15.7237 0.0178331 15.6586C-0.000628177 15.5935 -0.00481812 15.5253 0.00555406 15.4584L2.36679 0.486962C2.38807 0.351284 2.4571 0.227667 2.56146 0.138378C2.66581 0.049098 2.79863 1.81777e-05 2.93596 0H8.9526C11.8016 0 13.8731 2.07313 13.8246 4.58468C13.0663 4.19351 12.2241 3.99279 11.371 3.99985H6.3549C6.21747 3.99985 6.08455 4.0489 5.98007 4.13817C5.87558 4.22744 5.80639 4.35108 5.78495 4.48682L4.8392 10.4862L3.97253 16.0002Z" fill="#003087"/>
<path d="M76.7349 15.9441C76.6117 15.9441 76.5178 15.8338 76.5375 15.7122L78.4029 4.1681C78.4186 4.07121 78.5022 4 78.6003 4H81.0651C81.1883 4 81.2822 4.11029 81.2625 4.2319L79.3971 15.776C79.3814 15.8729 79.2978 15.9441 79.1997 15.9441H76.7349ZM75.8201 8.94435C75.6941 8.94435 75.5994 8.82917 75.6239 8.70552L76.0447 6.57921C76.0633 6.48554 76.1455 6.41804 76.2409 6.41804L82.3431 6.41804C82.4658 6.41804 82.5596 6.52753 82.5407 6.64879L82.2099 8.7751C82.1948 8.87251 82.1109 8.94435 82.0123 8.94435L75.8201 8.94435Z" fill="#0070E0"/>
<path d="M86.0547 16.3296C85.0379 16.3296 84.202 16.1324 83.5471 15.738C82.8948 15.3324 82.4445 14.7859 82.1959 14.0986C81.9501 13.4 81.9356 12.6056 82.1524 11.7155C82.3198 11.0282 82.589 10.3972 82.9601 9.82254C83.3311 9.24789 83.7754 8.75211 84.2929 8.33521C84.8131 7.90704 85.3837 7.58028 86.0048 7.35493C86.6401 7.11831 87.2986 7 87.9803 7C88.6273 7 89.1892 7.11268 89.6658 7.33803C90.1539 7.56338 90.545 7.87887 90.8391 8.28451C91.1331 8.69014 91.3169 9.16902 91.3904 9.72113C91.4639 10.2732 91.4095 10.8761 91.2272 11.5296L91.0726 12.108C91.0492 12.1955 90.9699 12.2563 90.8794 12.2563H83.8981C83.7891 12.2563 83.7002 12.169 83.6982 12.06L83.6774 10.9389C83.6754 10.827 83.7655 10.7352 83.8774 10.7352H88.9222C89.0008 10.7352 89.037 10.8328 88.9775 10.8841V10.8841C88.9151 10.9378 88.8205 10.8799 88.8399 10.7999L88.8598 10.7183C88.9053 10.4366 88.8732 10.1887 88.7636 9.97465C88.6683 9.7493 88.5087 9.57465 88.2846 9.45071C88.0606 9.32676 87.7869 9.26479 87.4634 9.26479C87.0128 9.26479 86.6037 9.35493 86.2363 9.53521C85.8832 9.70423 85.5846 9.95775 85.3405 10.2958C85.0992 10.6225 84.9195 11.0282 84.8015 11.5127C84.6807 12.0085 84.6791 12.4423 84.7965 12.8141C84.9282 13.1746 85.1715 13.4563 85.5265 13.6592C85.8931 13.862 86.3594 13.9634 86.9256 13.9634C87.3184 13.9634 87.6788 13.907 88.0066 13.7944C88.2941 13.6989 88.612 13.5469 88.9602 13.3382C89.063 13.2766 89.1976 13.3147 89.2496 13.4226L89.9417 14.8585C89.9841 14.9466 89.9568 15.0528 89.8756 15.1074C89.488 15.3681 89.0929 15.584 88.6903 15.7549C88.2393 15.9465 87.789 16.0873 87.3396 16.1775C86.8989 16.2789 86.4706 16.3296 86.0547 16.3296Z" fill="#0070E0"/>
<path d="M92.1206 16.1606C91.991 16.1606 91.8956 16.0392 91.9263 15.9132L94.0147 7.33859C94.0365 7.24898 94.1168 7.18592 94.209 7.18592H96.4417C96.5681 7.18592 96.6628 7.30166 96.6378 7.42553L96.1887 9.64777C96.1538 9.82081 95.9281 9.86699 95.828 9.72159L95.7801 9.652C95.7378 9.59061 95.7329 9.51064 95.7693 9.44563C96.0172 9.00383 96.3288 8.60552 96.7042 8.2507C97.121 7.86761 97.5706 7.56338 98.053 7.33803C98.5354 7.11268 99.0192 7 99.5045 7C99.7125 7 99.899 7.0169 100.064 7.0507C100.152 7.06757 100.236 7.08583 100.314 7.10549C100.433 7.13511 100.489 7.26749 100.434 7.37696L99.1524 9.94847C99.0971 10.0593 98.953 10.0954 98.8373 10.0511C98.7604 10.0218 98.672 9.99626 98.572 9.97465C98.3778 9.91831 98.1651 9.89014 97.934 9.89014C97.6798 9.89014 97.432 9.93521 97.1905 10.0254C96.9518 10.1042 96.7381 10.2225 96.5494 10.3803C96.3608 10.538 96.1942 10.7239 96.0497 10.938C95.9166 11.1521 95.8172 11.3944 95.7513 11.6648L94.6935 16.0079C94.6717 16.0975 94.5914 16.1606 94.4992 16.1606H92.1206Z" fill="#0070E0"/>
<path d="M51.2341 16C51.1112 16 51.0174 15.8902 51.0365 15.7689L52.8643 4.16887C52.8796 4.07163 52.9634 4 53.0618 4H55.4361C55.559 4 55.6528 4.1098 55.6337 4.23119L54.2071 13.2659C54.1878 13.3883 54.2833 13.4986 54.4071 13.4971L59.743 13.4317C59.8734 13.4301 59.9704 13.5518 59.9399 13.6785L59.4175 15.8468C59.3959 15.9367 59.3155 16 59.2231 16H51.2341Z" fill="#0070E0"/>
</svg>
