<svg width="171" height="20" viewBox="0 0 171 20" fill="none" xmlns="http://www.w3.org/2000/svg">
<g clip-path="url(#clip0_534_607)">
<path d="M27.5218 12.121C28.6175 12.1199 29.6768 11.7274 30.5087 11.014C31.3404 10.3006 31.8899 9.31357 32.0579 8.23073C32.4126 5.97364 30.6487 4.00307 28.1496 4.00307H24.1224C24.0469 4.00222 23.9736 4.02868 23.9161 4.0776C23.8585 4.12652 23.8205 4.19458 23.8093 4.26926L22.014 15.6629C22.0075 15.7045 22.01 15.747 22.0215 15.7876C22.0329 15.8282 22.053 15.8658 22.0804 15.8979C22.1078 15.93 22.1418 15.9557 22.1801 15.9733C22.2184 15.9911 22.26 16.0002 22.3022 16.0002H24.4332C24.5087 16.0011 24.582 15.9747 24.6395 15.9257C24.6972 15.8768 24.7351 15.8087 24.7464 15.7341L25.274 12.3871C25.2854 12.3125 25.3233 12.2445 25.3808 12.1956C25.4384 12.1466 25.5117 12.1201 25.5872 12.121H27.5218ZM29.3052 8.12819C29.1737 8.96274 28.5286 9.57733 27.2939 9.57733H25.7156L26.194 6.54202H27.7441C29.021 6.54438 29.436 7.29752 29.3052 8.13053V8.12819Z" fill="#003087"/>
<path d="M41.2914 7.59178H39.2684C39.1929 7.59093 39.1195 7.61741 39.062 7.66632C39.0045 7.71524 38.9666 7.7833 38.9552 7.85798L38.8894 8.27765C38.8894 8.27765 37.3181 6.56227 34.538 7.72096C32.9433 8.3849 32.1776 9.7565 31.8527 10.761C31.8527 10.761 30.8177 13.8143 33.1562 15.4952C33.1562 15.4952 35.3248 17.1111 37.7667 15.3949L37.7245 15.6627C37.7179 15.7044 37.7205 15.747 37.7319 15.7875C37.7434 15.8281 37.7635 15.8657 37.7908 15.8977C37.8183 15.9298 37.8523 15.9555 37.8905 15.9733C37.9288 15.9909 37.9704 16.0001 38.0126 16.0002H40.0356C40.1111 16.001 40.1845 15.9745 40.242 15.9256C40.2995 15.8767 40.3374 15.8087 40.3488 15.734L41.5795 7.92922C41.586 7.88757 41.5835 7.845 41.572 7.80443C41.5606 7.76386 41.5405 7.72625 41.5131 7.69419C41.4857 7.66213 41.4517 7.63637 41.4134 7.6187C41.3752 7.60102 41.3336 7.59184 41.2914 7.59178ZM38.3163 11.9056C38.2372 12.4494 37.9634 12.946 37.5459 13.3033C37.1284 13.6607 36.5955 13.8545 36.0459 13.8488C35.8307 13.8512 35.6164 13.8198 35.411 13.7556C34.5388 13.4753 34.0409 12.6368 34.1842 11.7279C34.2633 11.1825 34.5382 10.6847 34.9574 10.327C35.3765 9.96927 35.9114 9.77631 36.4624 9.78395C36.678 9.78177 36.8925 9.81349 37.0982 9.87784C37.9671 10.1566 38.4619 10.9959 38.3187 11.9056H38.3163Z" fill="#003087"/>
<path d="M56.6563 12.121C57.7529 12.1209 58.8133 11.7288 59.646 11.0154C60.4787 10.3019 61.0289 9.3143 61.1972 8.23073C61.551 5.97364 59.788 4.00307 57.2882 4.00307H53.2616C53.1861 4.00222 53.1128 4.02868 53.0553 4.0776C52.9978 4.12652 52.9598 4.19458 52.9485 4.26926L51.1478 15.666C51.1413 15.7077 51.1438 15.7502 51.1553 15.7907C51.1667 15.8314 51.1868 15.8689 51.2142 15.901C51.2416 15.9331 51.2756 15.9588 51.3139 15.9765C51.3521 15.9941 51.3938 16.0033 51.4359 16.0034H53.5677C53.6433 16.0042 53.7166 15.9778 53.7741 15.9289C53.8317 15.88 53.8696 15.8119 53.8809 15.7372L54.4094 12.3903C54.4207 12.3156 54.4586 12.2475 54.5162 12.1986C54.5738 12.1497 54.647 12.1233 54.7226 12.1241L56.6563 12.121ZM58.4398 8.12819C58.3083 8.96275 57.6632 9.57733 56.4285 9.57733H54.8502L55.3293 6.54202H56.8794C58.1556 6.54438 58.5713 7.29752 58.4398 8.13053V8.12819Z" fill="#0070E0"/>
<path d="M70.4269 7.59178H68.4055C68.33 7.59093 68.2567 7.61741 68.1992 7.66632C68.1416 7.71524 68.1036 7.7833 68.0924 7.85798L68.0258 8.27765C68.0258 8.27765 66.4553 6.56227 63.6752 7.72096C62.0804 8.3849 61.3147 9.7565 60.9891 10.761C60.9891 10.761 59.9548 13.8143 62.2934 15.4952C62.2934 15.4952 64.462 17.1111 66.9039 15.3949L66.8616 15.6627C66.8551 15.7044 66.8576 15.747 66.8691 15.7875C66.8805 15.8281 66.9006 15.8657 66.928 15.8977C66.9553 15.9298 66.9893 15.9555 67.0277 15.9733C67.066 15.9909 67.1076 16.0001 67.1498 16.0002H69.1727C69.2483 16.001 69.3215 15.9745 69.3792 15.9256C69.4367 15.8767 69.4746 15.8087 69.4859 15.734L70.7167 7.92922C70.7232 7.88744 70.7207 7.84474 70.7091 7.80405C70.6976 7.76337 70.6773 7.72568 70.6498 7.69359C70.6222 7.6615 70.588 7.63578 70.5495 7.6182C70.5111 7.60063 70.4693 7.59161 70.4269 7.59178ZM67.452 11.9056C67.3737 12.4498 67.1002 12.947 66.6825 13.3045C66.2648 13.6621 65.7313 13.8555 65.1815 13.8488C64.9661 13.8512 64.7515 13.8198 64.5458 13.7556C63.6728 13.4753 63.1749 12.6368 63.3182 11.7279C63.3972 11.1839 63.6709 10.6871 64.0884 10.3296C64.5059 9.97209 65.039 9.77822 65.5887 9.78395C65.8042 9.78168 66.0186 9.8134 66.2243 9.87784C67.1028 10.1566 67.5984 10.9959 67.4543 11.9056H67.452Z" fill="#0070E0"/>
<path d="M48.7179 7.78533L46.2791 11.9018L45.0414 7.81586C45.0221 7.75097 44.9823 7.69409 44.928 7.65372C44.8736 7.61336 44.8076 7.59168 44.74 7.59195H42.5392C42.5013 7.5913 42.4638 7.59983 42.4299 7.61683C42.396 7.63383 42.3667 7.65878 42.3446 7.68955C42.3224 7.72032 42.308 7.75601 42.3027 7.79354C42.2973 7.83108 42.3011 7.86936 42.3137 7.90511L44.5317 14.7884L42.5259 18.032C42.5032 18.0677 42.4905 18.1089 42.4893 18.1512C42.4881 18.1936 42.4983 18.2354 42.519 18.2724C42.5396 18.3094 42.5698 18.3401 42.6064 18.3614C42.6431 18.3825 42.6847 18.3934 42.7271 18.3929H45.0977C45.1655 18.3931 45.2322 18.3756 45.2912 18.3423C45.3502 18.3089 45.3996 18.2607 45.4344 18.2027L51.6295 7.95444C51.6517 7.91863 51.6639 7.87753 51.6647 7.83543C51.6655 7.79332 51.6551 7.75176 51.6343 7.7151C51.6135 7.67844 51.5834 7.64803 51.5468 7.62706C51.5104 7.60608 51.4688 7.59531 51.4268 7.59586H49.0569C48.9888 7.59523 48.9217 7.61237 48.8623 7.6456C48.8028 7.67883 48.753 7.72699 48.7179 7.78533Z" fill="#003087"/>
<path d="M72.7024 4.26621L70.9018 15.6629C70.8952 15.7045 70.8977 15.7472 70.9092 15.7877C70.9207 15.8282 70.9407 15.8659 70.9681 15.898C70.9955 15.93 71.0295 15.9558 71.0677 15.9735C71.106 15.9911 71.1477 16.0003 71.1899 16.0004H73.3209C73.3965 16.0012 73.4697 15.9748 73.5272 15.9259C73.5848 15.8769 73.6228 15.8089 73.634 15.7342L75.4347 4.33745C75.4413 4.29581 75.4387 4.25324 75.4273 4.21266C75.4158 4.17209 75.3957 4.13448 75.3684 4.10242C75.3409 4.07036 75.3069 4.04461 75.2687 4.02693C75.2304 4.00925 75.1888 4.00007 75.1466 4.00002H73.0156C72.94 3.99917 72.8668 4.02564 72.8092 4.07455C72.7516 4.12346 72.7137 4.19153 72.7024 4.26621Z" fill="#0070E0"/>
<path d="M15.9717 9.2067C15.5144 11.813 13.3881 13.7836 10.5978 13.7836H8.82614C8.46522 13.7836 8.10114 14.1179 8.04321 14.4881L7.26735 19.4118C7.22273 19.6921 7.0912 19.7853 6.807 19.7853H3.95802C3.66991 19.7853 3.6018 19.689 3.64486 19.4048L3.97211 16L0.551608 15.823C0.264282 15.823 0.160152 15.6664 0.200861 15.3791L2.5347 0.582242C2.57933 0.30196 2.75391 0.181396 3.03733 0.181396H8.95529C11.8043 0.181396 13.6065 2.09951 13.8273 4.586C15.5223 5.73139 16.3146 7.25493 15.9717 9.2067Z" fill="#001C64"/>
<path d="M4.83884 10.4864L3.97217 16.0004L3.42414 19.4592C3.4139 19.526 3.41816 19.5941 3.43664 19.6591C3.45511 19.724 3.48737 19.7842 3.53121 19.8355C3.57504 19.8869 3.62943 19.9281 3.69067 19.9566C3.7519 19.985 3.81854 19.9999 3.88605 20.0003H6.89553C7.03283 20.0001 7.16555 19.9509 7.26987 19.8617C7.3742 19.7724 7.44328 19.6489 7.4647 19.5133L8.25704 14.4871C8.2784 14.3514 8.34747 14.2279 8.45181 14.1386C8.55615 14.0494 8.68885 14.0003 8.82618 14.0001H10.5979C11.9477 13.9984 13.2525 13.5145 14.2769 12.6357C15.3014 11.7568 15.9783 10.541 16.1854 9.2071C16.4924 7.24988 15.5075 5.46799 13.8219 4.58801C13.818 4.79647 13.8 5.00442 13.7679 5.21043C13.5598 6.54358 12.8826 7.75865 11.8582 8.63677C10.8338 9.51494 9.52957 9.99846 8.18024 10.0002H5.40802C5.27079 10.0002 5.13807 10.0492 5.03373 10.1383C4.92939 10.2274 4.86029 10.3508 4.83884 10.4864Z" fill="#0070E0"/>
<path d="M3.97253 16.0002H0.468249C0.400601 16 0.333789 15.9852 0.272403 15.9567C0.211007 15.9283 0.156483 15.8869 0.112539 15.8355C0.0686034 15.784 0.0363016 15.7237 0.0178331 15.6586C-0.000628181 15.5935 -0.00481812 15.5253 0.00555407 15.4584L2.36679 0.486962C2.38807 0.351284 2.4571 0.227666 2.56146 0.138378C2.66581 0.049098 2.79863 1.81777e-05 2.93596 0H8.9526C11.8016 0 13.8731 2.07313 13.8246 4.58468C13.0663 4.19351 12.2241 3.99279 11.371 3.99985H6.3549C6.21747 3.99985 6.08455 4.0489 5.98007 4.13817C5.87558 4.22744 5.80639 4.35108 5.78495 4.48682L4.8392 10.4862L3.97253 16.0002Z" fill="#003087"/>
<mask id="mask0_534_607" style="mask-type:luminance" maskUnits="userSpaceOnUse" x="79" y="4" width="40" height="13">
<path d="M118.105 4.00012H79.4382V16.0001H118.105V4.00012Z" fill="white"/>
</mask>
<g mask="url(#mask0_534_607)">
<path fill-rule="evenodd" clip-rule="evenodd" d="M107.224 12.0348C107.232 10.2015 105.713 9.40412 104.498 8.76812C103.684 8.33879 103.006 7.98279 103.017 7.43479C103.026 7.01746 103.424 6.57346 104.29 6.46146C105.306 6.36367 106.329 6.54194 107.252 6.97746L107.78 4.51612C106.881 4.17841 105.93 4.00367 104.97 4.00012C102.002 4.00012 99.9142 5.57746 99.8942 7.83612C99.8755 9.50679 101.386 10.4401 102.524 10.9961C103.694 11.5641 104.086 11.9295 104.082 12.4388C104.082 13.2188 103.148 13.5601 102.285 13.5748C100.82 13.5961 99.9515 13.1908 99.2622 12.8695L99.2008 12.8415L98.6582 15.3841C99.3595 15.7055 100.656 15.9868 101.997 16.0001C105.153 16.0001 107.216 14.4415 107.226 12.0295L107.224 12.0348ZM94.7849 4.21746L89.9195 15.8255H86.7449L84.3502 6.56012C84.2035 5.98946 84.0782 5.78146 83.6355 5.54012C82.9155 5.14812 81.7235 4.78146 80.6729 4.55346L80.7435 4.20679H85.8542C86.187 4.20797 86.5084 4.32787 86.7606 4.54492C87.0129 4.76197 87.1794 5.06192 87.2302 5.39079L88.4942 12.1001L91.6182 4.20146L94.7849 4.21746ZM117.838 15.8135H115.062L114.7 14.0881H110.848L110.221 15.8228H107.068L111.573 5.06679C111.676 4.812 111.852 4.59386 112.08 4.44055C112.308 4.28724 112.577 4.20581 112.852 4.20679H115.414L117.838 15.8135ZM111.713 11.7015L113.294 7.34412L114.196 11.7121L111.713 11.7015ZM96.5969 15.8148L99.0795 4.20679H96.0729L93.5889 15.8135H96.5969V15.8148Z" fill="#122D98"/>
</g>
<mask id="mask1_534_607" style="mask-type:luminance" maskUnits="userSpaceOnUse" x="118" y="2" width="27" height="17">
<path d="M144.772 2.00012H118.105V18.0001H144.772V2.00012Z" fill="white"/>
</mask>
<g mask="url(#mask1_534_607)">
<path d="M127.791 3.71106H135.363V16.2888H127.791V3.71106Z" fill="#F26122"/>
<path d="M131.543 16.2895C130.171 17.396 128.462 17.9997 126.699 18.0001C125.658 17.9909 124.629 17.7766 123.671 17.3695C122.713 16.9624 121.844 16.3704 121.115 15.6275C120.386 14.8845 119.81 14.0051 119.421 13.0396C119.031 12.074 118.836 11.0412 118.846 10.0001C118.836 8.95912 119.032 7.92637 119.421 6.96088C119.81 5.99539 120.386 5.11607 121.115 4.37316C121.845 3.63025 122.713 3.03829 123.671 2.63112C124.629 2.22395 125.658 2.00953 126.699 2.00012C128.462 2.00012 130.171 2.60412 131.543 3.71079C130.609 4.47107 129.856 5.43004 129.338 6.51797C128.821 7.60589 128.552 8.79544 128.552 10.0001C128.552 11.2048 128.821 12.3944 129.338 13.4823C129.856 14.5702 130.609 15.5292 131.543 16.2895Z" fill="#EA1D25"/>
<path d="M144.263 10.0001C144.273 11.0411 144.078 12.0739 143.688 13.0394C143.299 14.0049 142.723 14.8842 141.994 15.6271C141.265 16.37 140.396 16.9619 139.438 17.3691C138.48 17.7763 137.451 17.9907 136.41 18.0001C134.647 17.9999 132.937 17.3962 131.565 16.2895C132.499 15.529 133.252 14.57 133.769 13.4821C134.287 12.3942 134.555 11.2047 134.555 10.0001C134.555 8.79552 134.287 7.60604 133.769 6.51813C133.252 5.43023 132.499 4.47121 131.565 3.71079C132.937 2.60421 134.646 2.00053 136.409 2.00012C137.45 2.00918 138.479 2.22335 139.437 2.63039C140.396 3.03742 141.264 3.62934 141.994 4.3723C142.723 5.11527 143.299 5.99471 143.689 6.96037C144.078 7.92603 144.273 8.95896 144.263 10.0001Z" fill="#F69E1E"/>
</g>
<path d="M171.2 16.6285C171.2 17.3859 170.586 18 169.829 18H149.371C148.614 18 148 17.3859 148 16.6285V3.37145C148 2.61404 148.614 2 149.371 2H169.829C170.586 2 171.2 2.61404 171.2 3.37145V16.6285Z" fill="#306FC5"/>
<path opacity="0.15" d="M148.975 16.6285V3.37145C148.975 2.61404 149.589 2 150.346 2H149.371C148.614 2 148 2.61399 148 3.37145V16.6285C148 17.386 148.614 18 149.371 18H150.347C149.589 18 148.975 17.3859 148.975 16.6285Z" fill="#202121"/>
<path d="M151.38 8.40254H152.073L151.727 7.52029L151.38 8.40254Z" fill="white"/>
<path d="M155.066 11.3642V11.7738H156.232V12.2151H155.066V12.6878H156.358L156.957 12.026L156.39 11.3642H155.066Z" fill="white"/>
<path d="M164.172 7.52029L163.794 8.40254H164.519L164.172 7.52029Z" fill="white"/>
<path d="M158.438 12.9396V11.1437L157.619 12.026L158.438 12.9396Z" fill="white"/>
<path d="M159.982 11.6479C159.95 11.4588 159.824 11.3642 159.635 11.3642H158.973V11.9313H159.667C159.856 11.9314 159.982 11.8369 159.982 11.6479Z" fill="white"/>
<path d="M162.187 11.8684C162.25 11.8369 162.282 11.7422 162.282 11.6479C162.313 11.522 162.25 11.4589 162.187 11.4273C162.124 11.3958 162.03 11.3958 161.935 11.3958H161.305V11.9H161.935C162.03 11.9 162.124 11.9 162.187 11.8684Z" fill="white"/>
<path d="M166.724 6.70108V7.07917L166.535 6.70108H165.055V7.07917L164.865 6.70108H162.849C162.502 6.70108 162.219 6.76416 161.967 6.89017V6.70108H160.549V6.73262V6.89017C160.391 6.7642 160.202 6.70108 159.95 6.70108H154.877L154.531 7.48881L154.184 6.70108H153.05H152.577V7.07917L152.42 6.70108H152.388H151.033L150.403 8.18192L149.678 9.78881L149.665 9.8204H149.678H151.285H151.306L151.317 9.78881L151.506 9.31629H151.916L152.105 9.8204H153.932V9.78881V9.4423L154.09 9.82035H155.003L155.161 9.4423V9.78881V9.8204H155.885H159.509H159.54V9.00113H159.604C159.667 9.00113 159.667 9.00113 159.667 9.0957V9.78886H161.935V9.59981C162.124 9.69447 162.408 9.78886 162.786 9.78886H163.731L163.92 9.28484H164.361L164.55 9.78886H166.378V9.47384V9.31633L166.661 9.78886H166.724H166.756H168.142V6.70108H166.724H166.724ZM156.043 9.34787H155.728H155.539V9.15896V7.61487L155.507 7.68714V7.68628L154.774 9.34787H154.751H154.583H154.31L153.554 7.61487V9.34787H152.483L152.262 8.87525H151.191L150.97 9.34787H150.416L151.348 7.14225H152.136L153.018 9.25326V7.14225H153.207H153.853L153.868 7.17383H153.869L154.267 8.03904L154.552 8.68729L154.562 8.65462L155.192 7.14229H156.043V9.34787H156.043ZM158.217 7.61487H156.988V8.02445H158.186V8.46553H156.988V8.90679H158.217V9.37927H156.453V7.14229H158.217V7.61487ZM160.465 8.42733C160.465 8.42806 160.466 8.42856 160.467 8.42924C160.479 8.44183 160.49 8.45447 160.498 8.46657C160.559 8.54569 160.607 8.66337 160.61 8.83592C160.61 8.83891 160.61 8.84186 160.61 8.84485C160.61 8.84657 160.611 8.84806 160.611 8.84983C160.611 8.85083 160.611 8.8516 160.611 8.85255C160.611 8.86991 160.612 8.88762 160.612 8.90679V9.34791H160.139V9.09575C160.139 8.96973 160.139 8.78064 160.045 8.65462C160.015 8.62485 159.985 8.60523 159.952 8.59128C159.905 8.56069 159.815 8.56019 159.667 8.56019H159.099V9.34791H158.564V7.14229H159.761C160.045 7.14229 160.234 7.14229 160.391 7.23682C160.546 7.32953 160.639 7.48328 160.642 7.72674C160.635 8.06206 160.42 8.24603 160.265 8.30807C160.265 8.30807 160.37 8.32923 160.465 8.42733ZM161.526 9.34787H160.99V7.14225H161.526V9.34787ZM167.67 9.34787H166.976L165.968 7.67785V9.06421L165.965 9.06095V9.34923H165.433V9.34791H164.897L164.708 8.8753H163.605L163.416 9.37932H162.817C162.565 9.37932 162.25 9.31638 162.061 9.12733C161.872 8.93828 161.778 8.68621 161.778 8.27667C161.778 7.9616 161.841 7.64631 162.061 7.39433C162.219 7.20514 162.502 7.14229 162.849 7.14229H163.353V7.61487H162.849C162.66 7.61487 162.565 7.64627 162.439 7.74097C162.345 7.83545 162.282 8.02445 162.282 8.24499C162.282 8.49711 162.313 8.65462 162.439 8.78064C162.534 8.8753 162.66 8.90684 162.817 8.90684H163.038L163.762 7.17392H164.078H164.55L165.433 9.28493V9.17727V8.46562V8.40268V7.17397H166.22L167.134 8.71779V7.17397H167.67V9.34796H167.67V9.34787Z" fill="white"/>
<path d="M160.015 8.06086C160.024 8.05102 160.033 8.03988 160.04 8.0271C160.068 7.98192 160.101 7.90054 160.083 7.78947C160.083 7.77928 160.081 7.76985 160.079 7.76075C160.078 7.75821 160.078 7.75599 160.078 7.75345L160.077 7.7535C160.062 7.69953 160.022 7.66636 159.982 7.64624C159.918 7.61484 159.824 7.61484 159.729 7.61484H159.099V8.11904H159.729C159.824 8.11904 159.919 8.11904 159.982 8.08745C159.991 8.08265 160 8.07613 160.008 8.06874L160.008 8.06915C160.008 8.06915 160.011 8.06575 160.015 8.06086Z" fill="white"/>
<path d="M169.528 12.4987C169.528 12.2781 169.466 12.0575 169.371 11.9V10.4822H169.37V10.3875C169.37 10.3875 168.049 10.3875 167.852 10.3875C167.656 10.3875 167.417 10.5765 167.417 10.5765V10.3875H165.968C165.748 10.3875 165.464 10.4506 165.338 10.5765V10.3875H162.754V10.4822V10.5765C162.565 10.4191 162.219 10.3875 162.061 10.3875H160.36V10.4822V10.5765C160.202 10.419 159.824 10.3875 159.635 10.3875H157.745L157.303 10.8601L156.894 10.3875H156.762H156.547H154.058V10.4821V10.731V13.5699H156.831L157.286 13.1142L157.681 13.5699H157.713H159.311H159.383H159.415H159.446V13.2549V12.8453H159.604C159.824 12.8453 160.108 12.8453 160.328 12.7506V13.5383V13.6014H161.746V13.5383V12.7822H161.809C161.904 12.7822 161.904 12.7822 161.904 12.8767V13.5383V13.6014H166.188C166.472 13.6014 166.756 13.5383 166.913 13.4122V13.5383V13.6014H168.268C168.552 13.6014 168.835 13.5699 169.024 13.4438C169.314 13.2698 169.497 12.9617 169.524 12.5942C169.526 12.5834 169.527 12.5725 169.528 12.5616L169.526 12.5598C169.528 12.5394 169.528 12.5193 169.528 12.4987ZM159.604 12.3097H158.973V12.404V12.5931V12.7822V13.1288H157.938L157.335 12.4356L157.333 12.4379L157.303 12.404L156.61 13.1288H154.594V10.9233H156.642L157.201 11.5361L157.319 11.6645L157.335 11.6479L157.997 10.9233H159.666C159.991 10.9233 160.353 11.0033 160.491 11.333C160.508 11.3983 160.517 11.4709 160.517 11.5534C160.517 12.1835 160.076 12.3097 159.604 12.3097ZM162.754 12.2781C162.817 12.3724 162.849 12.4986 162.849 12.6878V13.1288H162.313V12.8453C162.313 12.719 162.313 12.4986 162.219 12.404C162.156 12.3097 162.03 12.3097 161.841 12.3097H161.274V13.1288H160.738V10.8917H161.935C162.187 10.8917 162.408 10.8917 162.565 10.9862C162.723 11.0808 162.849 11.2383 162.849 11.4904C162.849 11.8369 162.628 12.026 162.471 12.0891C162.628 12.1519 162.723 12.2151 162.754 12.2781ZM164.928 11.3642H163.699V11.7738H164.897V12.215H163.699V12.6562H164.928V13.1288H163.164V10.8917H164.928V11.3642ZM166.252 13.1288H165.243V12.6562H166.252C166.346 12.6562 166.409 12.6562 166.472 12.5932C166.504 12.5616 166.535 12.4987 166.535 12.4356C166.535 12.3724 166.504 12.3097 166.472 12.2781C166.441 12.2467 166.378 12.2151 166.283 12.2151C165.779 12.1836 165.18 12.2151 165.18 11.522C165.18 11.2069 165.369 10.8602 165.937 10.8602H166.976V11.3958H166C165.905 11.3958 165.842 11.3958 165.779 11.4273C165.716 11.4589 165.716 11.522 165.716 11.5849C165.716 11.6795 165.779 11.711 165.842 11.7423C165.905 11.7739 165.968 11.7739 166.031 11.7739H166.315C166.598 11.7739 166.787 11.8369 166.913 11.963C167.008 12.0576 167.071 12.2151 167.071 12.4356C167.071 12.9081 166.787 13.1288 166.252 13.1288ZM168.961 12.9081C168.836 13.0343 168.615 13.1288 168.3 13.1288H167.292V12.6562H168.3C168.394 12.6562 168.457 12.6562 168.52 12.5932C168.552 12.5616 168.583 12.4987 168.583 12.4356C168.583 12.3724 168.552 12.3097 168.52 12.2781C168.489 12.2467 168.426 12.2151 168.331 12.2151C167.827 12.1836 167.228 12.2151 167.228 11.522C167.228 11.2226 167.4 10.9521 167.822 10.8717C167.873 10.8647 167.926 10.8602 167.985 10.8602H169.025V11.3958H168.331H168.079H168.048C167.953 11.3958 167.89 11.3958 167.827 11.4273C167.796 11.4589 167.764 11.522 167.764 11.5849C167.764 11.6795 167.796 11.711 167.89 11.7423C167.953 11.7739 168.016 11.7739 168.079 11.7739H168.111H168.363C168.5 11.7739 168.605 11.7909 168.7 11.8244C168.787 11.856 169.076 11.9852 169.141 12.3226C169.146 12.3579 169.15 12.3948 169.15 12.4356C169.15 12.6247 169.087 12.7822 168.961 12.9081Z" fill="white"/>
</g>
<defs>
<clipPath id="clip0_534_607">
<rect width="171" height="20" fill="white"/>
</clipPath>
</defs>
</svg>
