<svg width="66" height="20" viewBox="0 0 66 20" fill="none" xmlns="http://www.w3.org/2000/svg">
<g clip-path="url(#clip0_508_640)">
<path fill-rule="evenodd" clip-rule="evenodd" d="M27.7853 12.0347C27.7933 10.2013 26.2746 9.404 25.06 8.768C24.2453 8.33867 23.568 7.98267 23.5786 7.43467C23.588 7.01733 23.9853 6.57333 24.852 6.46133C25.8675 6.36354 26.8906 6.54182 27.8133 6.97733L28.3413 4.516C27.443 4.17828 26.4916 4.00355 25.532 4C22.564 4 20.476 5.57733 20.456 7.836C20.4373 9.50667 21.9479 10.44 23.0853 10.996C24.2559 11.564 24.648 11.9293 24.644 12.4387C24.644 13.2187 23.7093 13.56 22.8466 13.5747C21.3813 13.596 20.5133 13.1907 19.824 12.8693L19.7626 12.8413L19.22 15.384C19.9213 15.7053 21.2173 15.9867 22.5586 16C25.7146 16 27.7773 14.4413 27.7879 12.0293L27.7853 12.0347ZM15.3466 4.21733L10.4813 15.8253H7.30662L4.91195 6.56C4.76529 5.98933 4.63995 5.78133 4.19729 5.54C3.47729 5.148 2.28529 4.78133 1.23462 4.55333L1.30529 4.20667H6.41595C6.74872 4.20785 7.07015 4.32775 7.3224 4.5448C7.57464 4.76185 7.74115 5.06179 7.79195 5.39067L9.05595 12.1L12.18 4.20133L15.3466 4.21733ZM38.3999 15.8133H35.624L35.2613 14.088H31.4093L30.7826 15.8227H27.6293L32.1346 5.06667C32.2373 4.81188 32.414 4.59373 32.642 4.44043C32.8699 4.28712 33.1386 4.20569 33.4133 4.20667H35.976L38.3999 15.8133ZM32.2746 11.7013L33.856 7.344L34.7573 11.712L32.2746 11.7013ZM17.1586 15.8147L19.6413 4.20667H16.6346L14.1506 15.8133H17.1586V15.8147Z" fill="#122D98"/>
</g>
<g clip-path="url(#clip1_508_640)">
<path d="M48.3523 3.71094H55.9243V16.2887H48.3523V3.71094Z" fill="#F26122"/>
<path d="M52.1052 16.2893C50.7332 17.3959 49.0238 17.9996 47.2612 18C46.2201 17.9908 45.1911 17.7765 44.2329 17.3694C43.2747 16.9622 42.4061 16.3703 41.6768 15.6274C40.9474 14.8844 40.3717 14.005 39.9823 13.0394C39.593 12.0739 39.3978 11.0411 39.4078 10C39.398 8.959 39.5933 7.92625 39.9827 6.96076C40.3721 5.99527 40.9479 5.11595 41.6772 4.37304C42.4064 3.63012 43.275 3.03817 44.2331 2.631C45.1912 2.22383 46.2202 2.00941 47.2612 2C49.0238 2 50.7332 2.604 52.1052 3.71067C51.1707 4.47095 50.4174 5.42992 49.9 6.51784C49.3826 7.60577 49.1142 8.79532 49.1142 10C49.1142 11.2047 49.3826 12.3942 49.9 13.4822C50.4174 14.5701 51.1707 15.529 52.1052 16.2893Z" fill="#EA1D25"/>
<path d="M64.8251 10C64.835 11.041 64.6396 12.0738 64.2503 13.0392C63.8609 14.0047 63.2851 14.8841 62.5558 15.627C61.8265 16.3699 60.958 16.9618 59.9999 17.369C59.0418 17.7762 58.0128 17.9906 56.9718 18C55.2087 17.9998 53.4989 17.3961 52.1265 16.2893C53.0607 15.5289 53.8138 14.5699 54.3311 13.482C54.8483 12.3941 55.1167 11.2046 55.1167 10C55.1167 8.79539 54.8483 7.60592 54.3311 6.51801C53.8138 5.4301 53.0607 4.47109 52.1265 3.71067C53.4984 2.60409 55.2078 2.00041 56.9705 2C58.0116 2.00906 59.0408 2.22323 59.9992 2.63026C60.9575 3.0373 61.8263 3.62922 62.5557 4.37218C63.2852 5.11515 63.8611 5.99459 64.2505 6.96025C64.6399 7.9259 64.8352 8.95884 64.8251 10Z" fill="#F69E1E"/>
</g>
<defs>
<clipPath id="clip0_508_640">
<rect width="38.6667" height="12" fill="white" transform="translate(0 4)"/>
</clipPath>
<clipPath id="clip1_508_640">
<rect width="26.6667" height="16" fill="white" transform="translate(38.6665 2)"/>
</clipPath>
</defs>
</svg>
