<svg width="20" height="16" viewBox="0 0 20 16" fill="none" xmlns="http://www.w3.org/2000/svg">
<path d="M0.90039 8.00391C0.90059 7.41316 1.4198 6.93481 2.04883 6.93457L15.4121 6.93457L11.3115 2.65918L11.2383 2.57519C10.8954 2.14001 10.9582 1.52395 11.4072 1.16309L11.498 1.09668C11.9667 0.789489 12.6184 0.843756 13.0117 1.24902L13.0127 1.25L18.8086 7.29199C19.2053 7.70404 19.1927 8.31615 18.7969 8.71289L13.0088 14.7451L13.0078 14.7451C12.616 15.1489 11.9637 15.2189 11.4932 14.8994L11.4014 14.8301C10.9242 14.4451 10.8852 13.7708 11.3076 13.335L15.3945 9.07324L2.04883 9.07324C1.42066 9.07301 0.90039 8.60993 0.90039 8.00391Z" fill="#1E1E1E" stroke="#1E1E1E" stroke-width="0.2"/>
</svg>
