<svg width="32" height="32" viewBox="0 0 32 32" fill="none" xmlns="http://www.w3.org/2000/svg">
<path d="M11.6817 19.3336L11.71 19.1915C11.8513 18.7084 12.2611 18.3532 12.7416 18.2821H15.8082C20.5565 18.1827 24.259 16.1933 25.4885 10.6942L25.5592 10.2963L25.6581 9.7848L25.7146 9.38693L25.7429 9.00327L25.7711 8.63382V7.8665L25.7287 7.49705L25.5874 6.80078C25.6581 7.01393 25.6863 7.22707 25.7287 7.44021L25.757 7.82387L25.7853 8.17911V8.63382L25.7429 9.00327L25.6581 9.7848C26.1244 10.0264 26.5484 10.3532 26.9017 10.751C28.004 12.0299 28.2159 13.8345 27.8061 16.0086C26.8169 21.053 23.5383 22.886 19.2988 22.9713H18.2954C18.0587 22.9715 17.8286 23.0494 17.6399 23.193C17.4512 23.3366 17.3142 23.5381 17.2496 23.767L17.2072 23.9091L17.1507 24.1933L16.3028 29.6498L16.2604 29.8772C16.2257 30.112 16.1159 30.3292 15.9476 30.4958C15.7794 30.6624 15.5618 30.7694 15.3277 30.8008H10.6501C10.4801 30.8008 10.3168 30.7339 10.1953 30.6144C10.0738 30.4949 10.0037 30.3322 10 30.1613V30.0477L11.6817 19.3336Z" fill="#0079C1"/>
<path d="M17.6085 2C20.6279 2 22.9952 2.64322 24.2852 4.14407C24.6504 4.55826 24.9515 5.0257 25.1782 5.53057C25.5752 6.45967 25.6886 7.50312 25.5326 8.81815L25.4759 9.20408L25.3767 9.71866C24.2568 15.5505 20.472 17.6517 15.5956 17.7375H12.6896C12.1226 17.7375 11.6406 18.1234 11.4847 18.6666L11.4563 18.8095L10.138 27.2H4.7513C4.55448 27.2 4.3655 27.1222 4.225 26.9832C4.0845 26.8442 4.00371 26.6552 4 26.4567V26.3281L7.64311 3.05774C7.74234 2.50028 8.18178 2.07147 8.73463 2.01429L8.87638 2H17.6085Z" fill="#00457C"/>
</svg>
