<svg width="18" height="18" viewBox="0 0 18 18" fill="none" xmlns="http://www.w3.org/2000/svg">
<path d="M4.95627 7.39835C5.56081 8.49481 6.25773 9.54729 7.16534 10.5085C8.07296 11.4747 9.20099 12.3544 10.6645 13.1039C10.7731 13.1576 10.8752 13.1576 10.9676 13.1202C11.1086 13.0664 11.248 12.9524 11.389 12.8106C11.4976 12.7015 11.6321 12.5288 11.7731 12.3381C12.3355 11.5952 13.0308 10.6715 14.0146 11.1325C14.0357 11.1439 14.0519 11.1537 14.0746 11.1651L17.3517 13.0599C17.363 13.0648 17.3728 13.0762 17.3841 13.0811C17.8169 13.3792 17.9951 13.8403 18 14.3616C18 14.8944 17.8055 15.4907 17.5186 15.9958C17.141 16.6637 16.5851 17.1036 15.9417 17.3969C15.3306 17.6787 14.6515 17.8319 13.9968 17.9296C12.9708 18.0812 12.0097 17.9834 11.0259 17.6804C10.0648 17.3822 9.09727 16.8886 8.03892 16.2304L7.96275 16.1815C7.47652 15.8768 6.95302 15.551 6.43925 15.1665C4.55757 13.7393 2.64023 11.6767 1.39226 9.40718C0.345259 7.50099 -0.228484 5.44491 0.0859398 3.48495C0.259359 2.40967 0.718029 1.43376 1.51705 0.786963C2.21397 0.221623 3.154 -0.0862996 4.36794 0.021229C4.50894 0.0326336 4.63212 0.114095 4.69695 0.233028L6.79743 3.80428C7.10537 4.2067 7.14265 4.6026 6.97571 4.9985C6.83471 5.32435 6.55432 5.62249 6.17183 5.90435C6.05837 6.0021 5.92385 6.09986 5.78285 6.2025C5.31283 6.54463 4.77799 6.94054 4.96275 7.40812L4.95627 7.39835Z" fill="#045CFF"/>
</svg>
