<svg width="12" height="11" viewBox="0 0 12 11" fill="none" xmlns="http://www.w3.org/2000/svg">
<path d="M0.90039 5.5C0.90039 5.21465 1.13164 4.9834 1.41699 4.9834L5.4834 4.9834L5.4834 0.916992C5.4834 0.631645 5.71465 0.40039 6 0.40039C6.28535 0.40039 6.5166 0.631645 6.5166 0.916992L6.5166 4.9834L10.583 4.9834C10.8684 4.9834 11.0996 5.21465 11.0996 5.5C11.0996 5.78535 10.8684 6.0166 10.583 6.0166L6.5166 6.0166L6.5166 10.083C6.5166 10.3684 6.28535 10.5996 6 10.5996C5.71465 10.5996 5.4834 10.3684 5.4834 10.083L5.4834 6.0166L1.41699 6.0166C1.13164 6.0166 0.90039 5.78535 0.90039 5.5Z" fill="#2B2B2B" stroke="#2B2B2B" stroke-width="0.2" stroke-linecap="round" stroke-linejoin="round"/>
</svg>
