<svg width="16" height="17" viewBox="0 0 16 17" fill="none" xmlns="http://www.w3.org/2000/svg">
<path d="M4.02891 5.46613C4.27003 7.32725 4.6443 8.7382 5.27751 9.25904C5.28727 8.63438 5.34832 8.01191 5.45992 7.39906C5.8258 5.40915 6.41393 5.30202 6.98005 3.83181C7.26668 3.0953 7.33163 2.27909 7.16561 1.5C9.19419 1.8818 11.0781 5.20628 11.5509 9.43341C12.066 8.71218 12.3673 7.83774 12.4148 6.92608C13.3101 7.92104 13.7535 9.10518 13.9192 10.4044C14.2546 12.8924 13.5522 14.5073 11.6956 15.1421C12.1086 14.1164 12.0101 13.3186 11.5803 12.2633C11.408 11.8318 11.1622 11.4397 10.8558 11.1076C10.7237 12.1333 10.5193 12.9026 10.1713 13.1887C10.1642 12.8441 10.1291 12.5009 10.0664 12.163C9.86514 11.0711 9.54224 11.013 9.22774 10.2061C9.06934 9.80224 9.03264 9.3542 9.1229 8.92625C8.01059 9.13595 6.9769 10.9606 6.71167 13.2799C6.42958 12.8843 6.26437 12.4051 6.23781 11.9054C5.7767 12.4256 5.48633 13.0966 5.4117 13.8144C5.31944 14.4982 5.37081 15.0681 5.57419 15.5C4.14632 15.3222 3.18917 14.4572 2.58426 13.0611C1.71517 11.062 1.87033 9.57131 2.6891 7.57343C3.00941 6.7854 3.46401 6.07038 4.02891 5.46613Z" fill="white"/>
</svg>
