<svg width="258" height="20" viewBox="0 0 258 20" fill="none" xmlns="http://www.w3.org/2000/svg">
<mask id="mask0_948_23069" style="mask-type:luminance" maskUnits="userSpaceOnUse" x="0" y="0" width="171" height="20">
<path d="M171 0H0V20H171V0Z" fill="white"/>
</mask>
<g mask="url(#mask0_948_23069)">
<path d="M27.523 12.1219C28.6187 12.1208 29.678 11.7283 30.5099 11.0149C31.3416 10.3015 31.8911 9.31443 32.0591 8.23159C32.4138 5.9745 30.6499 4.00393 28.1508 4.00393H24.1236C24.0481 4.00308 23.9748 4.02954 23.9173 4.07846C23.8597 4.12738 23.8217 4.19544 23.8105 4.27012L22.0152 15.6638C22.0087 15.7054 22.0112 15.7479 22.0227 15.7885C22.0341 15.8291 22.0542 15.8667 22.0816 15.8988C22.109 15.9309 22.143 15.9566 22.1813 15.9742C22.2196 15.992 22.2612 16.0011 22.3034 16.0011H24.4344C24.5099 16.002 24.5832 15.9756 24.6407 15.9266C24.6984 15.8777 24.7363 15.8096 24.7476 15.735L25.2752 12.388C25.2866 12.3134 25.3245 12.2454 25.382 12.1965C25.4396 12.1475 25.5129 12.121 25.5884 12.1219H27.523ZM29.3064 8.12905C29.1749 8.9636 28.5298 9.57819 27.2951 9.57819H25.7168L26.1952 6.54288H27.7453C29.0222 6.54524 29.4372 7.29838 29.3064 8.13139V8.12905Z" fill="#003087"/>
<path d="M41.2919 7.593H39.2689C39.1934 7.59215 39.12 7.61863 39.0625 7.66754C39.005 7.71646 38.9671 7.78452 38.9557 7.8592L38.8899 8.27887C38.8899 8.27887 37.3186 6.56349 34.5385 7.72218C32.9438 8.38612 32.1781 9.75772 31.8532 10.7622C31.8532 10.7622 30.8182 13.8155 33.1567 15.4964C33.1567 15.4964 35.3253 17.1123 37.7672 15.3961L37.725 15.6639C37.7184 15.7056 37.721 15.7482 37.7324 15.7887C37.7439 15.8293 37.764 15.8669 37.7913 15.8989C37.8188 15.931 37.8528 15.9567 37.891 15.9745C37.9293 15.9921 37.9709 16.0013 38.0131 16.0014H40.0361C40.1116 16.0022 40.185 15.9757 40.2425 15.9268C40.3 15.8779 40.3379 15.8099 40.3493 15.7352L41.58 7.93044C41.5865 7.88879 41.584 7.84622 41.5725 7.80565C41.5611 7.76508 41.541 7.72747 41.5136 7.69541C41.4862 7.66335 41.4522 7.63759 41.4139 7.61992C41.3757 7.60224 41.3341 7.59306 41.2919 7.593ZM38.3168 11.9068C38.2377 12.4506 37.9639 12.9472 37.5464 13.3045C37.1289 13.6619 36.596 13.8557 36.0464 13.85C35.8312 13.8524 35.6169 13.821 35.4115 13.7568C34.5393 13.4765 34.0414 12.638 34.1847 11.7291C34.2638 11.1837 34.5387 10.6859 34.9579 10.3282C35.377 9.97049 35.9119 9.77753 36.4629 9.78517C36.6785 9.78299 36.893 9.81471 37.0987 9.87906C37.9676 10.1578 38.4624 10.9971 38.3192 11.9068H38.3168Z" fill="#003087"/>
<path d="M56.6566 12.1219C57.7532 12.1218 58.8136 11.7297 59.6463 11.0163C60.479 10.3028 61.0291 9.31516 61.1974 8.23159C61.5512 5.9745 59.7883 4.00393 57.2885 4.00393H53.2619C53.1864 4.00308 53.113 4.02954 53.0555 4.07846C52.998 4.12738 52.96 4.19544 52.9487 4.27012L51.1481 15.6669C51.1416 15.7086 51.1441 15.7511 51.1556 15.7916C51.167 15.8323 51.1871 15.8698 51.2145 15.9019C51.2419 15.934 51.2759 15.9597 51.3142 15.9774C51.3524 15.995 51.394 16.0042 51.4361 16.0043H53.568C53.6436 16.0051 53.7168 15.9787 53.7743 15.9298C53.8319 15.8809 53.8698 15.8128 53.8811 15.7381L54.4096 12.3912C54.4209 12.3165 54.4588 12.2484 54.5164 12.1995C54.574 12.1506 54.6473 12.1242 54.7229 12.125L56.6566 12.1219ZM58.4401 8.12905C58.3086 8.96361 57.6634 9.57819 56.4287 9.57819H54.8504L55.3296 6.54288H56.8797C58.1559 6.54524 58.5716 7.29838 58.4401 8.13139V8.12905Z" fill="#0070E0"/>
<path d="M70.4274 7.593H68.406C68.3305 7.59215 68.2572 7.61863 68.1997 7.66754C68.1421 7.71646 68.1041 7.78452 68.0929 7.8592L68.0263 8.27887C68.0263 8.27887 66.4558 6.56349 63.6757 7.72218C62.0809 8.38612 61.3152 9.75772 60.9896 10.7622C60.9896 10.7622 59.9553 13.8155 62.2939 15.4964C62.2939 15.4964 64.4625 17.1123 66.9044 15.3961L66.8621 15.6639C66.8556 15.7056 66.8581 15.7482 66.8696 15.7887C66.881 15.8293 66.9011 15.8669 66.9285 15.8989C66.9558 15.931 66.9898 15.9567 67.0282 15.9745C67.0665 15.9921 67.1081 16.0013 67.1503 16.0014H69.1732C69.2488 16.0022 69.322 15.9757 69.3797 15.9268C69.4372 15.8779 69.4751 15.8099 69.4864 15.7352L70.7172 7.93044C70.7237 7.88866 70.7212 7.84596 70.7096 7.80527C70.6981 7.76459 70.6778 7.7269 70.6503 7.69481C70.6227 7.66272 70.5885 7.637 70.55 7.61942C70.5116 7.60185 70.4698 7.59283 70.4274 7.593ZM67.4525 11.9068C67.3742 12.451 67.1007 12.9482 66.683 13.3057C66.2653 13.6633 65.7318 13.8567 65.182 13.85C64.9666 13.8524 64.752 13.821 64.5463 13.7568C63.6733 13.4765 63.1754 12.638 63.3187 11.7291C63.3977 11.1851 63.6714 10.6883 64.0889 10.3308C64.5064 9.97331 65.0395 9.77944 65.5892 9.78517C65.8047 9.7829 66.0191 9.81462 66.2248 9.87906C67.1033 10.1578 67.5989 10.9971 67.4548 11.9068H67.4525Z" fill="#0070E0"/>
<path d="M48.7184 7.78716L46.2796 11.9036L45.0419 7.81769C45.0226 7.7528 44.9828 7.69592 44.9285 7.65555C44.8741 7.61519 44.8081 7.59351 44.7405 7.59378H42.5397C42.5018 7.59313 42.4643 7.60166 42.4304 7.61866C42.3965 7.63566 42.3672 7.66061 42.3451 7.69138C42.3229 7.72215 42.3085 7.75784 42.3032 7.79537C42.2978 7.83291 42.3016 7.87119 42.3142 7.90694L44.5322 14.7902L42.5264 18.0338C42.5037 18.0695 42.491 18.1107 42.4898 18.153C42.4886 18.1954 42.4988 18.2372 42.5195 18.2742C42.5401 18.3112 42.5703 18.3419 42.6069 18.3632C42.6436 18.3843 42.6852 18.3952 42.7276 18.3947H45.0982C45.166 18.3949 45.2327 18.3774 45.2917 18.3441C45.3507 18.3107 45.4001 18.2625 45.4349 18.2045L51.63 7.95627C51.6522 7.92046 51.6644 7.87936 51.6652 7.83726C51.666 7.79515 51.6556 7.75359 51.6348 7.71693C51.614 7.68027 51.5839 7.64986 51.5473 7.62889C51.5109 7.60791 51.4693 7.59714 51.4273 7.59769H49.0574C48.9893 7.59706 48.9222 7.6142 48.8628 7.64743C48.8033 7.68066 48.7535 7.72882 48.7184 7.78716Z" fill="#003087"/>
<path d="M72.7026 4.26621L70.902 15.6629C70.8954 15.7045 70.8979 15.7472 70.9094 15.7877C70.9209 15.8282 70.9409 15.8659 70.9683 15.898C70.9957 15.93 71.0297 15.9558 71.0679 15.9735C71.1062 15.9911 71.1479 16.0003 71.1901 16.0004H73.3211C73.3967 16.0012 73.4699 15.9748 73.5274 15.9259C73.585 15.8769 73.623 15.8089 73.6342 15.7342L75.4349 4.33745C75.4415 4.29581 75.4389 4.25324 75.4275 4.21266C75.416 4.17209 75.3959 4.13448 75.3686 4.10242C75.3411 4.07036 75.3071 4.04461 75.2689 4.02693C75.2306 4.00925 75.189 4.00007 75.1468 4.00002H73.0158C72.9402 3.99917 72.867 4.02564 72.8094 4.07455C72.7518 4.12346 72.7139 4.19153 72.7026 4.26621Z" fill="#0070E0"/>
<path d="M15.9707 9.20499C15.5134 11.8113 13.3871 13.7819 10.5968 13.7819H8.82517C8.46425 13.7819 8.10017 14.1162 8.04224 14.4864L7.26638 19.4101C7.22176 19.6904 7.09023 19.7836 6.80603 19.7836H3.95705C3.66894 19.7836 3.60083 19.6873 3.64389 19.4031L3.97114 15.9983L0.550631 15.8213C0.263305 15.8213 0.159175 15.6647 0.199884 15.3774L2.53373 0.580533C2.57836 0.300251 2.75294 0.179688 3.03636 0.179688H8.95432C11.8033 0.179688 13.6055 2.0978 13.8263 4.58429C15.5213 5.72968 16.3136 7.25322 15.9707 9.20499Z" fill="#001C64"/>
<path d="M4.8381 10.4882L3.97143 16.0022L3.4234 19.461C3.41316 19.5278 3.41742 19.5959 3.4359 19.6609C3.45437 19.7258 3.48663 19.786 3.53047 19.8373C3.5743 19.8887 3.62869 19.9299 3.68993 19.9584C3.75116 19.9868 3.8178 20.0017 3.88531 20.0021H6.89479C7.03209 20.0019 7.16482 19.9527 7.26913 19.8635C7.37347 19.7742 7.44254 19.6507 7.46396 19.5151L8.2563 14.4889C8.27766 14.3532 8.34673 14.2297 8.45107 14.1404C8.55541 14.0512 8.68812 14.0021 8.82545 14.0019H10.5972C11.947 14.0002 13.2518 13.5163 14.2762 12.6375C15.3007 11.7586 15.9776 10.5428 16.1847 9.20893C16.4917 7.25171 15.5068 5.46982 13.8212 4.58984C13.8173 4.7983 13.7993 5.00625 13.7672 5.21226C13.5591 6.54541 12.8819 7.76048 11.8575 8.6386C10.8331 9.51677 9.52883 10.0003 8.1795 10.002H5.40728C5.27005 10.002 5.13733 10.051 5.03299 10.1401C4.92865 10.2292 4.85955 10.3526 4.8381 10.4882Z" fill="#0070E0"/>
<path d="M3.97253 16.0002H0.468249C0.400601 16 0.333789 15.9852 0.272403 15.9567C0.211007 15.9283 0.156483 15.8869 0.112539 15.8355C0.0686034 15.784 0.0363016 15.7237 0.0178331 15.6586C-0.000628186 15.5935 -0.00481812 15.5253 0.00555407 15.4584L2.36679 0.486962C2.38807 0.351284 2.4571 0.227666 2.56146 0.138378C2.66581 0.049098 2.79863 1.81777e-05 2.93596 0H8.9526C11.8016 0 13.8731 2.07313 13.8246 4.58468C13.0663 4.19351 12.2241 3.99279 11.371 3.99985H6.3549C6.21747 3.99985 6.08455 4.0489 5.98007 4.13817C5.87558 4.22744 5.80639 4.35108 5.78495 4.48682L4.8392 10.4862L3.97253 16.0002Z" fill="#003087"/>
<mask id="mask1_948_23069" style="mask-type:luminance" maskUnits="userSpaceOnUse" x="79" y="4" width="40" height="12">
<path d="M118.104 4H79.4375V16H118.104V4Z" fill="white"/>
</mask>
<g mask="url(#mask1_948_23069)">
<path fill-rule="evenodd" clip-rule="evenodd" d="M107.223 12.0347C107.231 10.2014 105.712 9.404 104.497 8.768C103.683 8.33867 103.005 7.98267 103.016 7.43467C103.025 7.01734 103.423 6.57334 104.289 6.46134C105.305 6.36355 106.328 6.54182 107.251 6.97734L107.779 4.516C106.88 4.17829 105.929 4.00355 104.969 4C102.001 4 99.9132 5.57734 99.8932 7.836C99.8745 9.50667 101.385 10.44 102.523 10.996C103.693 11.564 104.085 11.9294 104.081 12.4387C104.081 13.2187 103.147 13.56 102.284 13.5747C100.819 13.596 99.9505 13.1907 99.2612 12.8694L99.1998 12.8414L98.6572 15.384C99.3585 15.7054 100.655 15.9867 101.996 16C105.152 16 107.215 14.4414 107.225 12.0294L107.223 12.0347ZM94.7839 4.21734L89.9185 15.8254H86.7439L84.3492 6.56C84.2025 5.98934 84.0772 5.78134 83.6345 5.54C82.9145 5.148 81.7225 4.78134 80.6719 4.55334L80.7425 4.20667H85.8532C86.186 4.20785 86.5074 4.32775 86.7596 4.5448C87.0119 4.76185 87.1784 5.0618 87.2292 5.39067L88.4932 12.1L91.6172 4.20134L94.7839 4.21734ZM117.837 15.8134H115.061L114.699 14.088H110.847L110.22 15.8227H107.067L111.572 5.06667C111.675 4.81188 111.851 4.59374 112.079 4.44043C112.307 4.28712 112.576 4.20569 112.851 4.20667H115.413L117.837 15.8134ZM111.712 11.7014L113.293 7.344L114.195 11.712L111.712 11.7014ZM96.5959 15.8147L99.0785 4.20667H96.0719L93.5879 15.8134H96.5959V15.8147Z" fill="#122D98"/>
</g>
<mask id="mask2_948_23069" style="mask-type:luminance" maskUnits="userSpaceOnUse" x="118" y="2" width="27" height="16">
<path d="M144.772 2H118.105V18H144.772V2Z" fill="white"/>
</mask>
<g mask="url(#mask2_948_23069)">
<path d="M127.793 3.71094H135.365V16.2887H127.793V3.71094Z" fill="#F26122"/>
<path d="M131.545 16.2894C130.173 17.3959 128.464 17.9996 126.701 18C125.66 17.9908 124.631 17.7765 123.673 17.3694C122.715 16.9623 121.846 16.3703 121.117 15.6274C120.388 14.8844 119.812 14.005 119.423 13.0395C119.033 12.0739 118.838 11.0411 118.848 9.99998C118.838 8.959 119.034 7.92625 119.423 6.96076C119.812 5.99527 120.388 5.11595 121.117 4.37304C121.847 3.63013 122.715 3.03817 123.673 2.631C124.631 2.22383 125.66 2.00941 126.701 2C128.464 2 130.173 2.604 131.545 3.71067C130.611 4.47095 129.858 5.42992 129.34 6.51785C128.823 7.60577 128.554 8.79532 128.554 9.99998C128.554 11.2047 128.823 12.3943 129.34 13.4822C129.858 14.5701 130.611 15.5291 131.545 16.2894Z" fill="#EA1D25"/>
<path d="M144.264 9.99998C144.274 11.041 144.079 12.0738 143.689 13.0393C143.3 14.0048 142.724 14.8841 141.995 15.627C141.266 16.3699 140.397 16.9618 139.439 17.369C138.481 17.7762 137.452 17.9906 136.411 18C134.648 17.9998 132.938 17.3961 131.566 16.2894C132.5 15.5289 133.253 14.5699 133.77 13.482C134.288 12.3941 134.556 11.2046 134.556 9.99998C134.556 8.7954 134.288 7.60592 133.77 6.51801C133.253 5.43011 132.5 4.47109 131.566 3.71067C132.938 2.60409 134.647 2.00041 136.41 2C137.451 2.00906 138.48 2.22323 139.438 2.63027C140.397 3.0373 141.265 3.62922 141.995 4.37218C142.724 5.11515 143.3 5.99459 143.69 6.96025C144.079 7.92591 144.274 8.95884 144.264 9.99998Z" fill="#F69E1E"/>
</g>
<path d="M171.2 16.6285C171.2 17.3859 170.586 18 169.829 18H149.371C148.614 18 148 17.3859 148 16.6285V3.37145C148 2.61404 148.614 2 149.371 2H169.829C170.586 2 171.2 2.61404 171.2 3.37145V16.6285Z" fill="#306FC5"/>
<path opacity="0.15" d="M148.975 16.6285V3.37145C148.975 2.61404 149.589 2 150.346 2H149.371C148.614 2 148 2.61399 148 3.37145V16.6285C148 17.386 148.614 18 149.371 18H150.347C149.589 18 148.975 17.3859 148.975 16.6285Z" fill="#202121"/>
<path d="M151.383 8.40178H152.076L151.73 7.51953L151.383 8.40178Z" fill="white"/>
<path d="M155.066 11.3633V11.7729H156.232V12.2142H155.066V12.6869H156.358L156.957 12.0251L156.39 11.3633H155.066Z" fill="white"/>
<path d="M164.175 7.51953L163.797 8.40178H164.522L164.175 7.51953Z" fill="white"/>
<path d="M158.436 12.9404V11.1445L157.617 12.0268L158.436 12.9404Z" fill="white"/>
<path d="M159.982 11.647C159.95 11.4579 159.824 11.3633 159.635 11.3633H158.973V11.9304H159.667C159.856 11.9305 159.982 11.836 159.982 11.647Z" fill="white"/>
<path d="M162.187 11.8671C162.25 11.8356 162.282 11.7409 162.282 11.6466C162.313 11.5207 162.25 11.4576 162.187 11.426C162.124 11.3945 162.03 11.3945 161.935 11.3945H161.305V11.8987H161.935C162.03 11.8987 162.124 11.8987 162.187 11.8671Z" fill="white"/>
<path d="M166.723 6.69922V7.07731L166.534 6.69922H165.054V7.07731L164.864 6.69922H162.848C162.501 6.69922 162.218 6.7623 161.966 6.88831V6.69922H160.548V6.73076V6.88831C160.39 6.76234 160.201 6.69922 159.949 6.69922H154.876L154.53 7.48695L154.183 6.69922H153.049H152.576V7.07731L152.419 6.69922H152.387H151.032L150.402 8.18006L149.677 9.78695L149.664 9.81854H149.677H151.284H151.305L151.316 9.78695L151.505 9.31443H151.915L152.104 9.81854H153.931V9.78695V9.44044L154.089 9.81849H155.002L155.16 9.44044V9.78695V9.81854H155.884H159.508H159.539V8.99927H159.603C159.666 8.99927 159.666 8.99927 159.666 9.09384V9.787H161.934V9.59795C162.123 9.69261 162.407 9.787 162.785 9.787H163.73L163.919 9.28298H164.36L164.549 9.787H166.377V9.47198V9.31447L166.66 9.787H166.723H166.755H168.141V6.69922H166.723ZM156.042 9.34601H155.727H155.538V9.1571V7.61301L155.506 7.68528L154.773 9.34601H154.75H154.582H154.309L153.553 7.61301V9.34601H152.482L152.261 8.87339H151.19L150.969 9.34601H150.415L151.347 7.14039H152.135L153.017 9.2514V7.14039H153.206H153.852L153.867 7.17197L154.266 8.03718L154.551 8.68543L154.561 8.65276L155.191 7.14043H156.042V9.34601ZM158.216 7.61301H156.987V8.02259H158.185V8.46367H156.987V8.90493H158.216V9.37741H156.452V7.14043H158.216V7.61301ZM160.464 8.42547C160.464 8.4262 160.465 8.4267 160.466 8.42738C160.478 8.43997 160.489 8.45261 160.497 8.46471C160.558 8.54383 160.606 8.66151 160.609 8.83406C160.609 8.83705 160.609 8.84 160.609 8.84299C160.609 8.84471 160.61 8.8462 160.61 8.84797C160.61 8.84897 160.61 8.84974 160.61 8.85069C160.61 8.86805 160.611 8.88576 160.611 8.90493V9.34605H160.138V9.09389C160.138 8.96787 160.138 8.77878 160.044 8.65276C160.014 8.62299 159.984 8.60337 159.951 8.58942C159.904 8.55883 159.814 8.55833 159.666 8.55833H159.098V9.34605H158.563V7.14043H159.76C160.044 7.14043 160.233 7.14043 160.39 7.23496C160.545 7.32767 160.638 7.48142 160.641 7.72488C160.634 8.0602 160.419 8.24417 160.264 8.30621C160.264 8.30621 160.369 8.32737 160.464 8.42547ZM161.525 9.34601H160.989V7.14039H161.525V9.34601ZM167.669 9.34601H166.975L165.967 7.67599V9.06235L165.964 9.05909V9.34737H165.432V9.34605H164.896L164.707 8.87344H163.604L163.415 9.37746H162.816C162.564 9.37746 162.249 9.31452 162.06 9.12547C161.871 8.93642 161.777 8.68435 161.777 8.27481C161.777 7.95974 161.84 7.64445 162.06 7.39247C162.218 7.20328 162.501 7.14043 162.848 7.14043H163.352V7.61301H162.848C162.659 7.61301 162.564 7.64441 162.438 7.73911C162.344 7.83359 162.281 8.02259 162.281 8.24313C162.281 8.49525 162.312 8.65276 162.438 8.77878C162.533 8.87344 162.659 8.90498 162.816 8.90498H163.037L163.761 7.17206H164.077H164.549L165.432 9.28307V9.17541V8.46376V8.40082V7.17211H166.219L167.133 8.71593V7.17211H167.669V9.34601Z" fill="white"/>
<path d="M160.018 8.0593C160.027 8.04946 160.036 8.03832 160.043 8.02554C160.071 7.98036 160.104 7.89898 160.086 7.78791C160.086 7.77772 160.084 7.76829 160.082 7.75919C160.081 7.75665 160.081 7.75443 160.081 7.75189C160.066 7.69792 160.025 7.6648 159.985 7.64468C159.921 7.61328 159.827 7.61328 159.732 7.61328H159.102V8.11748H159.732C159.827 8.11748 159.922 8.11748 159.985 8.08589C159.994 8.08109 160.003 8.07457 160.011 8.06718C160.011 8.06718 160.014 8.06419 160.018 8.0593Z" fill="white"/>
<path d="M169.529 12.4979C169.529 12.2773 169.467 12.0567 169.372 11.8992V10.4814L169.371 10.3867C169.371 10.3867 168.05 10.3867 167.853 10.3867C167.657 10.3867 167.418 10.5757 167.418 10.5757V10.3867H165.969C165.749 10.3867 165.465 10.4498 165.339 10.5757V10.3867H162.755V10.4814V10.5757C162.566 10.4183 162.22 10.3867 162.062 10.3867H160.361V10.4814V10.5757C160.203 10.4182 159.825 10.3867 159.636 10.3867H157.746L157.304 10.8593L156.895 10.3867H156.763H156.548H154.059V10.4813V10.7302V13.5691H156.832L157.287 13.1134L157.682 13.5691H157.714H159.312H159.384H159.416H159.447V13.2541V12.8445H159.605C159.825 12.8445 160.109 12.8445 160.329 12.7498V13.5375V13.6006H161.747V13.5375V12.7814H161.81C161.905 12.7814 161.905 12.7814 161.905 12.8759V13.5375V13.6006H166.189C166.473 13.6006 166.757 13.5375 166.914 13.4114V13.5375V13.6006H168.269C168.553 13.6006 168.836 13.5691 169.025 13.443C169.315 13.269 169.498 12.9609 169.525 12.5934C169.527 12.5826 169.528 12.5717 169.529 12.5608L169.527 12.559C169.529 12.5386 169.529 12.5185 169.529 12.4979ZM159.605 12.3089H158.974V12.4032V12.5923V12.7814V13.128H157.939L157.336 12.4348L157.334 12.4371L157.304 12.4032L156.611 13.128H154.595V10.9225H156.643L157.202 11.5353L157.32 11.6637L157.336 11.6471L157.998 10.9225H159.667C159.992 10.9225 160.354 11.0025 160.492 11.3322C160.509 11.3975 160.518 11.4701 160.518 11.5526C160.518 12.1827 160.077 12.3089 159.605 12.3089ZM162.755 12.2773C162.818 12.3716 162.85 12.4978 162.85 12.687V13.128H162.314V12.8445C162.314 12.7182 162.314 12.4978 162.22 12.4032C162.157 12.3089 162.031 12.3089 161.842 12.3089H161.275V13.128H160.739V10.8909H161.936C162.188 10.8909 162.409 10.8909 162.566 10.9854C162.724 11.08 162.85 11.2375 162.85 11.4896C162.85 11.8361 162.629 12.0252 162.472 12.0883C162.629 12.1511 162.724 12.2143 162.755 12.2773ZM164.929 11.3634H163.7V11.773H164.898V12.2142H163.7V12.6554H164.929V13.128H163.165V10.8909H164.929V11.3634ZM166.253 13.128H165.244V12.6554H166.253C166.347 12.6554 166.41 12.6554 166.473 12.5924C166.505 12.5608 166.536 12.4979 166.536 12.4348C166.536 12.3716 166.505 12.3089 166.473 12.2773C166.442 12.2459 166.379 12.2143 166.284 12.2143C165.78 12.1828 165.181 12.2143 165.181 11.5212C165.181 11.2061 165.37 10.8594 165.938 10.8594H166.977V11.395H166.001C165.906 11.395 165.843 11.395 165.78 11.4265C165.717 11.4581 165.717 11.5212 165.717 11.5841C165.717 11.6787 165.78 11.7102 165.843 11.7415C165.906 11.7731 165.969 11.7731 166.032 11.7731H166.316C166.599 11.7731 166.788 11.8361 166.914 11.9622C167.009 12.0568 167.072 12.2143 167.072 12.4348C167.072 12.9073 166.788 13.128 166.253 13.128ZM168.962 12.9073C168.837 13.0335 168.616 13.128 168.301 13.128H167.293V12.6554H168.301C168.395 12.6554 168.458 12.6554 168.521 12.5924C168.553 12.5608 168.584 12.4979 168.584 12.4348C168.584 12.3716 168.553 12.3089 168.521 12.2773C168.49 12.2459 168.427 12.2143 168.332 12.2143C167.828 12.1828 167.229 12.2143 167.229 11.5212C167.229 11.2218 167.401 10.9513 167.823 10.8709C167.874 10.8639 167.927 10.8594 167.986 10.8594H169.026V11.395H168.332H168.08H168.049C167.954 11.395 167.891 11.395 167.828 11.4265C167.797 11.4581 167.765 11.5212 167.765 11.5841C167.765 11.6787 167.797 11.7102 167.891 11.7415C167.954 11.7731 168.017 11.7731 168.08 11.7731H168.112H168.364C168.501 11.7731 168.606 11.7901 168.701 11.8236C168.788 11.8552 169.077 11.9844 169.142 12.3218C169.147 12.3571 169.151 12.394 169.151 12.4348C169.151 12.6239 169.088 12.7814 168.962 12.9073Z" fill="white"/>
</g>
<path d="M184.511 11.1219C185.607 11.1208 186.666 10.7283 187.498 10.0149C188.33 9.30146 188.879 8.31443 189.047 7.23159C189.402 4.9745 187.638 3.00393 185.139 3.00393H181.112C181.036 3.00308 180.963 3.02954 180.906 3.07846C180.848 3.12738 180.81 3.19544 180.799 3.27012L179.004 14.6638C178.997 14.7054 179 14.7479 179.011 14.7885C179.022 14.8291 179.043 14.8667 179.07 14.8988C179.097 14.9309 179.131 14.9566 179.17 14.9742C179.208 14.992 179.25 15.0011 179.292 15.0011H181.423C181.498 15.002 181.572 14.9756 181.629 14.9266C181.687 14.8777 181.725 14.8096 181.736 14.735L182.264 11.388C182.275 11.3134 182.313 11.2454 182.37 11.1965C182.428 11.1475 182.501 11.121 182.577 11.1219H184.511ZM186.295 7.12905C186.163 7.9636 185.518 8.57819 184.283 8.57819H182.705L183.184 5.54288H184.734C186.011 5.54524 186.426 6.29838 186.295 7.13139V7.12905Z" fill="#003087"/>
<path d="M198.28 6.593H196.257C196.182 6.59215 196.108 6.61863 196.051 6.66754C195.993 6.71646 195.955 6.78452 195.944 6.8592L195.878 7.27887C195.878 7.27887 194.307 5.56349 191.527 6.72218C189.932 7.38612 189.166 8.75772 188.841 9.76222C188.841 9.76222 187.806 12.8155 190.145 14.4964C190.145 14.4964 192.314 16.1123 194.755 14.3961L194.713 14.6639C194.707 14.7056 194.709 14.7482 194.721 14.7887C194.732 14.8293 194.752 14.8669 194.78 14.8989C194.807 14.931 194.841 14.9567 194.879 14.9745C194.918 14.9921 194.959 15.0013 195.001 15.0014H197.024C197.1 15.0022 197.173 14.9757 197.231 14.9268C197.288 14.8779 197.326 14.8099 197.338 14.7352L198.568 6.93044C198.575 6.88879 198.572 6.84622 198.561 6.80565C198.549 6.76508 198.529 6.72747 198.502 6.69541C198.474 6.66335 198.44 6.63759 198.402 6.61992C198.364 6.60224 198.322 6.59306 198.28 6.593ZM195.305 10.9068C195.226 11.4506 194.952 11.9472 194.535 12.3045C194.117 12.6619 193.584 12.8557 193.035 12.85C192.819 12.8524 192.605 12.821 192.4 12.7568C191.528 12.4765 191.03 11.638 191.173 10.7291C191.252 10.1837 191.527 9.68592 191.946 9.32822C192.365 8.97049 192.9 8.77753 193.451 8.78517C193.667 8.78299 193.881 8.81471 194.087 8.87906C194.956 9.15782 195.451 9.99712 195.307 10.9068H195.305Z" fill="#003087"/>
<path d="M227.42 6.593H225.398C225.323 6.59215 225.249 6.61863 225.192 6.66754C225.134 6.71646 225.096 6.78452 225.085 6.8592L225.019 7.27887C225.019 7.27887 223.448 5.56349 220.668 6.72218C219.073 7.38612 218.307 8.75772 217.982 9.76222C217.982 9.76222 216.948 12.8155 219.286 14.4964C219.286 14.4964 221.455 16.1123 223.897 14.3961L223.854 14.6639C223.848 14.7056 223.85 14.7482 223.862 14.7887C223.873 14.8293 223.893 14.8669 223.921 14.8989C223.948 14.931 223.982 14.9567 224.02 14.9745C224.059 14.9921 224.1 15.0013 224.143 15.0014H226.165C226.241 15.0022 226.314 14.9757 226.372 14.9268C226.429 14.8779 226.467 14.8099 226.479 14.7352L227.709 6.93044C227.716 6.88866 227.713 6.84596 227.702 6.80527C227.69 6.76459 227.67 6.7269 227.643 6.69481C227.615 6.66272 227.581 6.637 227.542 6.61942C227.504 6.60185 227.462 6.59283 227.42 6.593ZM224.445 10.9068C224.366 11.451 224.093 11.9482 223.675 12.3057C223.258 12.6633 222.724 12.8567 222.174 12.85C221.959 12.8524 221.744 12.821 221.539 12.7568C220.666 12.4765 220.168 11.638 220.311 10.7291C220.39 10.1851 220.664 9.68832 221.081 9.33082C221.499 8.97331 222.032 8.77944 222.581 8.78517C222.797 8.7829 223.011 8.81462 223.217 8.87906C224.096 9.15782 224.591 9.99712 224.447 10.9068H224.445Z" fill="#0070E0"/>
<path d="M205.707 6.78716L203.268 10.9036L202.03 6.81769C202.011 6.7528 201.971 6.69592 201.917 6.65555C201.862 6.61519 201.796 6.59351 201.729 6.59378H199.528C199.49 6.59313 199.453 6.60166 199.419 6.61866C199.385 6.63566 199.355 6.66061 199.333 6.69138C199.311 6.72215 199.297 6.75784 199.291 6.79537C199.286 6.83291 199.29 6.87119 199.302 6.90694L201.52 13.7902L199.515 17.0338C199.492 17.0695 199.479 17.1107 199.478 17.153C199.477 17.1954 199.487 17.2372 199.508 17.2742C199.528 17.3112 199.559 17.3419 199.595 17.3632C199.632 17.3843 199.673 17.3952 199.716 17.3947H202.086C202.154 17.3949 202.221 17.3774 202.28 17.3441C202.339 17.3107 202.388 17.2625 202.423 17.2045L208.618 6.95627C208.64 6.92046 208.653 6.87936 208.653 6.83726C208.654 6.79515 208.644 6.75359 208.623 6.71693C208.602 6.68027 208.572 6.64986 208.536 6.62889C208.499 6.60791 208.458 6.59714 208.416 6.59769H206.046C205.978 6.59706 205.91 6.6142 205.851 6.64743C205.792 6.68066 205.742 6.72882 205.707 6.78716Z" fill="#003087"/>
<path d="M230.724 14.9441C230.601 14.9441 230.507 14.8338 230.527 14.7122L232.392 3.1681C232.408 3.07121 232.492 3 232.59 3H235.054C235.178 3 235.272 3.11029 235.252 3.2319L233.386 14.776C233.371 14.8729 233.287 14.9441 233.189 14.9441H230.724ZM229.809 7.94435C229.683 7.94435 229.589 7.82917 229.613 7.70552L230.034 5.57921C230.053 5.48554 230.135 5.41804 230.23 5.41804H236.332C236.455 5.41804 236.549 5.52753 236.53 5.64879L236.199 7.7751C236.184 7.87251 236.1 7.94435 236.002 7.94435H229.809Z" fill="#0070E0"/>
<path d="M240.043 15.3296C239.026 15.3296 238.19 15.1324 237.535 14.738C236.883 14.3324 236.433 13.7859 236.184 13.0986C235.938 12.4 235.924 11.6056 236.141 10.7155C236.308 10.0282 236.577 9.3972 236.948 8.82254C237.319 8.24789 237.764 7.75211 238.281 7.33521C238.801 6.90704 239.372 6.58028 239.993 6.35493C240.628 6.11831 241.287 6 241.969 6C242.616 6 243.177 6.11268 243.654 6.33803C244.142 6.56338 244.533 6.87887 244.827 7.28451C245.121 7.69014 245.305 8.16902 245.379 8.72113C245.452 9.2732 245.398 9.8761 245.215 10.5296L245.061 11.108C245.037 11.1955 244.958 11.2563 244.868 11.2563H237.886C237.777 11.2563 237.688 11.169 237.686 11.06L237.666 9.9389C237.664 9.827 237.754 9.7352 237.866 9.7352H242.91C242.989 9.7352 243.025 9.8328 242.966 9.8841C242.903 9.9378 242.809 9.8799 242.828 9.7999L242.848 9.7183C242.894 9.4366 242.861 9.1887 242.752 8.97465C242.657 8.7493 242.497 8.57465 242.273 8.45071C242.049 8.32676 241.775 8.26479 241.452 8.26479C241.001 8.26479 240.592 8.35493 240.225 8.53521C239.871 8.70423 239.573 8.95775 239.329 9.2958C239.087 9.6225 238.908 10.0282 238.79 10.5127C238.669 11.0085 238.667 11.4423 238.785 11.8141C238.916 12.1746 239.16 12.4563 239.515 12.6592C239.881 12.862 240.348 12.9634 240.914 12.9634C241.307 12.9634 241.667 12.907 241.995 12.7944C242.282 12.6989 242.6 12.5469 242.948 12.3382C243.051 12.2766 243.186 12.3147 243.238 12.4226L243.93 13.8585C243.972 13.9466 243.945 14.0528 243.864 14.1074C243.476 14.3681 243.081 14.584 242.679 14.7549C242.228 14.9465 241.777 15.0873 241.328 15.1775C240.887 15.2789 240.459 15.3296 240.043 15.3296Z" fill="#0070E0"/>
<path d="M246.11 15.1606C245.981 15.1606 245.885 15.0392 245.916 14.9132L248.004 6.33859C248.026 6.24898 248.106 6.18592 248.199 6.18592H250.431C250.558 6.18592 250.652 6.30166 250.627 6.42553L250.178 8.64777C250.143 8.82081 249.918 8.86699 249.818 8.72159L249.77 8.652C249.727 8.59061 249.723 8.51064 249.759 8.44563C250.007 8.00383 250.318 7.60552 250.694 7.2507C251.111 6.86761 251.56 6.56338 252.043 6.33803C252.525 6.11268 253.009 6 253.494 6C253.702 6 253.889 6.0169 254.054 6.0507C254.142 6.06757 254.226 6.08583 254.304 6.10549C254.423 6.13511 254.479 6.26749 254.424 6.37696L253.142 8.94847C253.087 9.0593 252.943 9.0954 252.827 9.0511C252.75 9.0218 252.662 8.99626 252.562 8.97465C252.367 8.91831 252.155 8.89014 251.924 8.89014C251.669 8.89014 251.422 8.93521 251.18 9.0254C250.941 9.1042 250.728 9.2225 250.539 9.3803C250.35 9.538 250.184 9.7239 250.039 9.938C249.906 10.1521 249.807 10.3944 249.741 10.6648L248.683 15.0079C248.661 15.0975 248.581 15.1606 248.489 15.1606H246.11Z" fill="#0070E0"/>
<path d="M208.224 15C208.101 15 208.007 14.8902 208.026 14.7689L209.854 3.16887C209.869 3.07163 209.953 3 210.051 3H212.426C212.548 3 212.642 3.1098 212.623 3.23119L211.197 12.2659C211.177 12.3883 211.273 12.4986 211.397 12.4971L216.732 12.4317C216.863 12.4301 216.96 12.5518 216.929 12.6785L216.407 14.8468C216.385 14.9367 216.305 15 216.213 15H208.224Z" fill="#0070E0"/>
</svg>
