<svg width="20" height="16" viewBox="0 0 20 16" fill="none" xmlns="http://www.w3.org/2000/svg">
<path d="M19.0996 7.99609C19.0994 8.58684 18.5802 9.06519 17.9512 9.06543L4.58789 9.06543L8.68848 13.3408L8.76172 13.4248C9.10461 13.86 9.04184 14.4761 8.59278 14.8369L8.50195 14.9033C8.03334 15.2105 7.38159 15.1562 6.98828 14.751L6.98731 14.75L1.19141 8.70801C0.794752 8.29596 0.807301 7.68385 1.20313 7.28711L6.99121 1.25488L6.99219 1.25488C7.38399 0.851089 8.03626 0.78115 8.50684 1.10059L8.59863 1.16992C9.07582 1.55491 9.11482 2.22919 8.69238 2.66504L4.60547 6.92676L17.9512 6.92676C18.5793 6.92699 19.0996 7.39007 19.0996 7.99609Z" fill="#1E1E1E" stroke="#1E1E1E" stroke-width="0.2"/>
</svg>
