<svg width="25" height="24" viewBox="0 0 25 24" fill="none" xmlns="http://www.w3.org/2000/svg">
<path d="M3.09311 4C3.53297 4 3.93127 4.1795 4.21956 4.46972C4.50788 4.7599 4.68621 5.1608 4.68621 5.60357C4.68621 6.04631 4.50786 6.4472 4.21956 6.73742C3.93124 7.02761 3.53297 7.20713 3.09311 7.20713C2.65326 7.20713 2.25497 7.02763 1.96665 6.73742C1.67836 6.44724 1.5 6.04631 1.5 5.60357C1.5 5.1608 1.67833 4.7599 1.96665 4.46972C2.25497 4.1795 2.65324 4 3.09311 4Z" fill="#1E1E1E"/>
<path d="M12.6283 4C13.0681 4 13.4664 4.1795 13.7547 4.46972C14.043 4.7599 14.2213 5.16079 14.2213 5.60357C14.2213 6.04631 14.043 6.44724 13.7547 6.73742C13.4664 7.02763 13.0681 7.20713 12.6283 7.20713C12.1884 7.20713 11.7901 7.02763 11.5018 6.73742C11.2135 6.44724 11.0352 6.04631 11.0352 5.60357C11.0352 5.16079 11.2135 4.7599 11.5018 4.46972C11.7901 4.1795 12.1884 4 12.6283 4Z" fill="#1E1E1E"/>
<path d="M21.9056 4C22.3455 4 22.7437 4.1795 23.0321 4.46972C23.3204 4.7599 23.4987 5.1608 23.4987 5.60357C23.4987 6.04631 23.3203 6.44724 23.0321 6.73742C22.7437 7.02763 22.3454 7.20713 21.9056 7.20713C21.4657 7.20713 21.0675 7.02761 20.7791 6.73742C20.4908 6.4472 20.3125 6.04631 20.3125 5.60357C20.3125 5.1608 20.4908 4.7599 20.7791 4.46972C21.0674 4.1795 21.4657 4 21.9056 4Z" fill="#1E1E1E"/>
<path fill-rule="evenodd" clip-rule="evenodd" d="M16.2528 11.6761L13.6386 6.84842L13.4264 6.45664L12.6336 6.8913L11.8408 6.45666L11.6286 6.84844L9.01433 11.6761L4.30225 6.65219L3.96716 6.29492L3.5168 6.72144H2.875V7.19238V15.8844C2.875 17.1032 4.02804 18.1656 5.89223 18.8978C7.62718 19.5793 10.013 20.0008 12.6385 20.0008C15.264 20.0008 17.6499 19.5793 19.3848 18.8978C21.249 18.1655 22.402 17.1032 22.402 15.8844H22.3922V7.1328V6.74611H21.6166L21.2248 6.37508L20.8363 6.78931L16.2528 11.6761L16.2528 11.6761ZM12.6385 14.0523C13.2037 14.0523 13.7155 14.283 14.0859 14.6559C14.4564 15.0288 14.6855 15.5439 14.6855 16.1128C14.6855 16.6817 14.4564 17.1968 14.0859 17.5697C13.7155 17.9426 13.2037 18.1733 12.6385 18.1733C12.0733 18.1733 11.5615 17.9426 11.1911 17.5697C10.8206 17.1968 10.5915 16.6817 10.5915 16.1128C10.5915 15.5439 10.8206 15.0288 11.1911 14.6559C11.5615 14.283 12.0733 14.0523 12.6385 14.0523Z" fill="#1E1E1E"/>
</svg>
