<svg width="24" height="24" viewBox="0 0 24 24" fill="none" xmlns="http://www.w3.org/2000/svg">
<path d="M15.6562 2.34844C15.4641 2.42344 12.4312 5.48437 12.3984 5.63437C12.3656 5.77031 12.2156 5.90625 12.0937 5.90625C12.0562 5.90625 10.7062 7.22344 9.09375 8.83594L6.16406 11.7656H11.9906C17.7 11.7656 17.8125 11.7656 17.8125 11.6766C17.8125 11.5219 17.8641 11.4375 18.0047 11.3672C18.1734 11.2781 18.2953 11.325 18.5391 11.5734C18.7078 11.7469 18.7453 11.7656 18.9609 11.7656H19.1953L20.6109 10.3453C21.3844 9.56719 22.0453 8.88281 22.0734 8.82656C22.1391 8.7 22.1391 8.29687 22.0781 8.12812C22.0172 7.97812 20.3109 6.23437 20.2172 6.23437C20.1844 6.23437 20.0625 6.29531 19.9406 6.375C19.2375 6.81562 18.3516 6.55312 17.9906 5.78906C17.7797 5.33437 17.8266 4.80469 18.1172 4.425C18.1828 4.34062 18.2344 4.25156 18.2344 4.23281C18.2344 4.14375 16.4625 2.4375 16.2984 2.36719C16.1062 2.2875 15.8344 2.27812 15.6562 2.34844ZM13.2 6.23906C13.4062 6.43594 13.4531 6.51094 13.4531 6.6375C13.4531 6.80625 13.2797 6.98437 13.1156 6.98437C12.9797 6.98437 12.5156 6.525 12.5156 6.38906C12.5156 6.17344 12.6703 6.01406 12.8812 6.00469C12.9141 6 13.0594 6.10781 13.2 6.23906ZM14.2922 7.33125C14.5547 7.6125 14.5781 7.70625 14.4328 7.89375C14.2687 8.10469 14.0766 8.0625 13.7859 7.7625C13.6547 7.62187 13.5469 7.48125 13.5469 7.45312C13.5469 7.36875 13.6828 7.13437 13.7437 7.11094C13.9312 7.03594 14.0531 7.08281 14.2922 7.33125ZM15.3328 8.37656C15.5953 8.64844 15.6281 8.73281 15.5391 8.90156C15.3984 9.17812 15.1875 9.15937 14.8734 8.85C14.5969 8.57812 14.5641 8.44219 14.7281 8.26406C14.8969 8.08125 15.0844 8.11875 15.3328 8.37656ZM16.3875 9.42656C16.575 9.60469 16.6406 9.70312 16.6406 9.79687C16.6406 9.96094 16.5141 10.1109 16.35 10.1531C16.2422 10.1766 16.1859 10.1437 15.9609 9.9375C15.75 9.73594 15.7031 9.66094 15.7031 9.53437C15.7031 9.36562 15.8766 9.1875 16.0406 9.1875C16.0922 9.1875 16.2469 9.29531 16.3875 9.42656ZM17.4797 10.5187C17.6109 10.6594 17.7187 10.8141 17.7187 10.8656C17.7187 11.0297 17.5406 11.2031 17.3719 11.2031C17.2453 11.2031 17.1703 11.1562 16.9687 10.9453C16.7625 10.7203 16.7297 10.6641 16.7531 10.5562C16.7953 10.3922 16.9453 10.2656 17.1094 10.2656C17.2031 10.2656 17.3016 10.3312 17.4797 10.5187Z" fill="#FF7F24"/>
<path d="M2.42813 12.5156C2.22656 12.5766 2.03438 12.7359 1.95 12.9094C1.88438 13.0453 1.875 13.2656 1.875 14.3859V15.7031L2.00625 15.7312C2.63906 15.8719 3.00938 16.1812 3.16875 16.7156C3.25313 16.9969 3.25313 17.175 3.16406 17.4703C3.02344 17.9531 2.625 18.3141 2.12813 18.4266L1.875 18.4828V19.8281C1.875 21.1453 1.875 21.1781 1.98281 21.3328C2.03906 21.4219 2.17969 21.5391 2.29688 21.6L2.50313 21.7031H8.89219H15.2813V21.4219C15.2813 21.1828 15.3 21.1172 15.3984 21.0234C15.5438 20.8734 15.7219 20.8734 15.8672 21.0234C15.9656 21.1172 15.9844 21.1828 15.9844 21.4219V21.7031H18.1359C19.5469 21.7031 20.3344 21.6844 20.4234 21.6516C20.4938 21.6281 20.6156 21.5484 20.6906 21.4781C20.9391 21.2437 20.9531 21.1641 20.9531 19.7672V18.4875L20.6813 18.4312C20.0391 18.3 19.5891 17.7422 19.5891 17.0859C19.5891 16.4203 20.0344 15.8906 20.7188 15.7453L20.9578 15.6937L20.9438 14.3484L20.9297 12.9984L20.7984 12.8297C20.5359 12.4828 20.6203 12.4922 18.1781 12.4781L15.9844 12.4641V12.6094C15.9844 12.7875 15.8016 12.9844 15.6328 12.9844C15.4641 12.9844 15.2813 12.7875 15.2813 12.6094V12.4687L8.92031 12.4734C5.41875 12.4734 2.49844 12.4922 2.42813 12.5156ZM15.8672 13.5234C15.9703 13.6219 15.9844 13.6781 15.9844 13.9453C15.9844 14.2125 15.9703 14.2687 15.8672 14.3672C15.7219 14.5172 15.5438 14.5172 15.3984 14.3672C15.2953 14.2687 15.2813 14.2125 15.2813 13.9453C15.2813 13.6781 15.2953 13.6219 15.3984 13.5234C15.4594 13.4578 15.5672 13.4062 15.6328 13.4062C15.6984 13.4062 15.8063 13.4578 15.8672 13.5234ZM7.28906 14.2266C7.93594 14.5359 8.18906 15.2906 7.87031 15.9328C7.58438 16.5047 6.96563 16.7672 6.37031 16.5703C5.89219 16.4109 5.48438 15.8625 5.48438 15.375C5.48438 14.8594 5.89688 14.3203 6.42188 14.1516C6.61406 14.0906 7.0875 14.1328 7.28906 14.2266ZM10.8984 14.2266C11.025 14.3531 11.0438 14.4562 10.9547 14.6062C10.8984 14.7047 6.23906 19.8234 6.05625 19.9828C5.84063 20.175 5.43281 19.95 5.49844 19.6781C5.52656 19.5797 9.87188 14.7562 10.3594 14.2828C10.575 14.0766 10.7344 14.0578 10.8984 14.2266ZM15.8672 15.0234C15.9703 15.1219 15.9844 15.1781 15.9844 15.4453C15.9844 15.7125 15.9703 15.7687 15.8672 15.8672C15.7219 16.0172 15.5438 16.0172 15.3984 15.8672C15.2953 15.7687 15.2813 15.7125 15.2813 15.4453C15.2813 15.1781 15.2953 15.1219 15.3984 15.0234C15.4594 14.9578 15.5672 14.9062 15.6328 14.9062C15.6984 14.9062 15.8063 14.9578 15.8672 15.0234ZM15.8672 16.5234C15.9703 16.6219 15.9844 16.6781 15.9844 16.9453C15.9844 17.2125 15.9703 17.2687 15.8672 17.3672C15.7219 17.5172 15.5438 17.5172 15.3984 17.3672C15.2953 17.2687 15.2813 17.2125 15.2813 16.9453C15.2813 16.6781 15.2953 16.6219 15.3984 16.5234C15.4594 16.4578 15.5672 16.4062 15.6328 16.4062C15.6984 16.4062 15.8063 16.4578 15.8672 16.5234ZM10.3125 17.6953C10.5563 17.8172 10.7297 18 10.8891 18.3C11.0484 18.6 11.0297 19.0687 10.8516 19.4016C10.6219 19.8234 10.2234 20.0531 9.72656 20.0578C9.06563 20.0625 8.54531 19.5703 8.49375 18.8953C8.46563 18.4969 8.59219 18.1781 8.8875 17.9062C9.30469 17.5219 9.82031 17.4469 10.3125 17.6953ZM15.8672 18.0234C15.9703 18.1219 15.9844 18.1781 15.9844 18.4453C15.9844 18.7125 15.9703 18.7687 15.8672 18.8672C15.8063 18.9328 15.6984 18.9844 15.6328 18.9844C15.5672 18.9844 15.4594 18.9328 15.3984 18.8672C15.2953 18.7687 15.2813 18.7125 15.2813 18.4453C15.2813 18.1781 15.2953 18.1219 15.3984 18.0234C15.4594 17.9578 15.5672 17.9062 15.6328 17.9062C15.6984 17.9062 15.8063 17.9578 15.8672 18.0234ZM15.8672 19.5234C15.9703 19.6219 15.9844 19.6781 15.9844 19.9453C15.9844 20.2125 15.9703 20.2687 15.8672 20.3672C15.8063 20.4328 15.6984 20.4844 15.6328 20.4844C15.5672 20.4844 15.4594 20.4328 15.3984 20.3672C15.2953 20.2687 15.2813 20.2125 15.2813 19.9453C15.2813 19.6781 15.2953 19.6219 15.3984 19.5234C15.4594 19.4578 15.5672 19.4062 15.6328 19.4062C15.6984 19.4062 15.8063 19.4578 15.8672 19.5234Z" fill="#FF7F24"/>
<path d="M6.46406 14.8829C6.32812 14.9532 6.1875 15.211 6.1875 15.3751C6.1875 15.7876 6.65625 16.0594 7.03125 15.8672C7.28906 15.736 7.40156 15.2907 7.2375 15.0563C7.07812 14.8313 6.7125 14.7469 6.46406 14.8829Z" fill="#FF7F24"/>
<path d="M9.47812 18.3141C9.28594 18.4078 9.1875 18.5906 9.1875 18.8484C9.1875 19.0031 9.21562 19.0688 9.34687 19.2C9.48281 19.3359 9.53906 19.3594 9.73594 19.3594C9.99375 19.3594 10.1391 19.2797 10.2422 19.0781C10.3922 18.7875 10.2609 18.4266 9.96094 18.3C9.75469 18.2156 9.67031 18.2203 9.47812 18.3141Z" fill="#FF7F24"/>
</svg>
