<svg width="76" height="76" viewBox="0 0 76 76" fill="none" xmlns="http://www.w3.org/2000/svg">
<path d="M17.3633 29.0684C22.0671 20.568 33.1113 20.2834 38.4209 28.417L38.6699 28.8105C39.3765 30.0018 39.7238 31.3723 39.6709 32.7568V32.7764C39.6708 32.8257 39.6516 32.8731 39.6172 32.9082C39.5826 32.9433 39.5354 32.9631 39.4863 32.9639H28.5713V52.0488H30.4365L30.5605 51.9678L33.2178 50.2441L34.6348 49.3252H32.0342V48.5332H40.2285L39.4746 47.6982L34.8896 42.6172L35.4717 42.0938L41.1348 48.375L41.2842 48.54H48.7412C48.7963 48.5398 48.8512 48.5513 48.9014 48.5742C48.9515 48.5972 48.9963 48.6309 49.0322 48.6729L49.0889 48.7393L49.165 48.7832L54.8008 51.9873L54.916 52.0518H59.5V53.5H16.6455V52.0488H27.6553V32.9639H16.6963C16.6453 32.9638 16.596 32.9442 16.5596 32.9082C16.5231 32.8721 16.5025 32.8221 16.502 32.7705V32.7549L16.501 32.7451L16.5029 32.7207L16.502 32.6963C16.4729 31.4329 16.7695 30.1834 17.3633 29.0684ZM35.083 49.4092L32.4258 51.1328L31.0088 52.0518H52.5234L52.7158 51.0908L48.5654 49.3662L48.4736 49.3281H35.207L35.083 49.4092ZM45.7598 37.0781C45.8394 37.0802 45.9165 37.1072 45.9795 37.1562C46.0426 37.2055 46.0879 37.2743 46.1094 37.3516C46.1274 37.4165 46.1257 37.4842 46.1084 37.5488L44.9609 39.3281L44.96 39.3291C44.6233 39.8528 44.5523 39.9506 44.4619 40.0195C44.4191 40.0522 44.3588 40.0865 44.2168 40.1523C44.0867 40.2127 43.875 40.305 43.6104 40.4316L43.6084 40.4326C43.0187 40.719 42.3097 41.0214 41.6367 41.2705L40.8242 41.5713L41.4922 42.125L44.1846 44.3535L44.3535 44.4941L44.5713 44.4639C45.1244 44.3883 45.6941 44.297 46.2578 44.2051L47.9092 43.9434C48.5488 43.8496 48.7511 43.8699 48.8965 43.9268C48.9739 43.957 49.0614 44.0084 49.2012 44.1143C49.3524 44.2288 49.5046 44.3575 49.7578 44.5576L49.7598 44.5596L54.1152 47.9629C54.5763 48.3718 54.5051 48.6428 54.4512 48.7402C54.3762 48.8755 54.167 49.0119 53.8721 48.9912L49.8838 46.1699L49.8828 46.1689C49.6672 46.0169 49.4832 45.8848 49.3301 45.7949C49.167 45.6992 48.9842 45.6174 48.7617 45.6084C48.5531 45.6 48.3638 45.6585 48.2002 45.7178C48.0542 45.7706 47.8068 45.8726 47.5674 45.9629C46.9131 46.2099 46.287 46.4788 45.6299 46.6904C44.9821 46.8991 44.3653 47.0293 43.7861 47.0059H43.7852C43.093 46.9783 42.7023 46.7729 42.3486 46.4736C42.157 46.3115 41.9755 46.1217 41.7549 45.8906C41.5395 45.665 41.2939 45.4092 40.9961 45.1504L40.9854 45.1406L40.9736 45.1309L40.7422 44.9473C40.2138 44.5122 39.737 44.0175 39.3213 43.4727C39.1814 43.2581 39.0365 43.0581 38.9189 42.8906C38.7912 42.7087 38.6932 42.5598 38.623 42.4209L38.6094 42.3955L38.5635 42.3037C38.524 42.2087 38.5039 42.1065 38.5039 42.0029C38.5039 41.8994 38.5241 41.7971 38.5635 41.7021L38.6143 41.6006L38.6201 41.5908C38.8497 41.1507 38.9987 40.921 39.208 40.752C39.4164 40.5837 39.7334 40.4385 40.3701 40.2959L40.3691 40.292L42.6758 39.7197L42.7324 39.7061L42.7832 39.6797L43.707 39.2061L43.793 39.1621L43.8555 39.0898L45.5752 37.1211C45.6316 37.0912 45.6955 37.0765 45.7598 37.0781ZM37.7998 35.7852C38.2593 35.7425 38.7175 35.8852 39.0732 36.1797C39.3845 36.4374 39.5953 36.794 39.6729 37.1875L39.6982 37.3574C39.7307 37.7007 39.6605 38.0461 39.4971 38.3496C39.3336 38.6531 39.0835 38.9011 38.7793 39.0625C38.475 39.2238 38.1296 39.2919 37.7871 39.2568C37.4447 39.2217 37.1199 39.0849 36.8545 38.8652C36.5893 38.6455 36.3946 38.3518 36.2959 38.0215C36.1972 37.6911 36.1985 37.3384 36.2998 37.0088C36.4011 36.6793 36.5983 36.3875 36.8652 36.1699C37.1323 35.9523 37.458 35.8186 37.8008 35.7861L37.7998 35.7852ZM23.9053 23.6904C22.3487 24.3968 20.6745 25.5696 19.3555 27.0098C18.0407 28.4452 17.0373 30.1933 16.9141 32.0508L16.8789 32.584H22.2256L22.2305 32.0898C22.2583 29.5177 23.0277 26.5372 24.5098 24.4453L24.3496 24.332L23.9053 23.6904ZM28.3174 32.584H33.6201L33.6133 32.0781C33.6 30.9961 33.2646 29.0274 32.7246 27.2012C32.4534 26.2839 32.1252 25.3822 31.749 24.6328C31.3821 23.9019 30.9334 23.2419 30.3896 22.8936L30.1777 23.2236L30.2129 22.8223C29.7614 22.744 29.3059 22.6898 28.8486 22.6611L28.3174 22.6279V32.584ZM26.917 22.6943C26.6265 22.7218 26.3367 22.7585 26.0488 22.8066L25.9492 22.8232L25.8643 22.8779C25.3134 23.2268 24.8612 23.8873 24.4922 24.6191C24.1142 25.3688 23.7864 26.2702 23.5156 27.1875C22.9762 29.0151 22.6428 30.983 22.6201 32.0703L22.6094 32.5811H27.917V23.1572H27.4385L27.4238 22.6572H26.917V22.6943ZM31.7422 24.4766C33.2178 26.6116 33.9682 29.4881 34.0029 32.084L34.0098 32.5771H39.3125L39.2773 32.0439C39.1577 30.2522 38.1668 28.5161 36.8701 27.0791C35.5683 25.6364 33.9112 24.442 32.3613 23.7373L30.7139 22.9883L31.7422 24.4766Z" fill="#1E1E1E" stroke="#1E1E1E"/>
</svg>
