<svg width="24" height="24" viewBox="0 0 24 24" fill="none" xmlns="http://www.w3.org/2000/svg">
<path fill-rule="evenodd" clip-rule="evenodd" d="M23.9994 8.07276C24.0092 8.62354 23.8959 10.1997 23.6713 12.8107H23.3237V21H22.1518V12.8107H21.9585V4C22.353 4.05908 22.6928 4.23442 22.9643 4.5241C23.6459 5.20258 23.9897 6.388 23.9994 8.07276ZM20.9507 12.4848C20.9507 14.7794 20.1226 16.7405 18.4663 18.3566C16.8062 19.9766 14.8004 20.7846 12.4489 20.7846C10.1052 20.7846 8.10137 19.9766 6.43734 18.3566C4.77723 16.7405 3.94326 14.7794 3.94326 12.4848C3.94326 10.1978 4.77527 8.24619 6.43734 6.62242C8.10332 5.00247 10.1072 4.18868 12.4489 4.18868C14.8004 4.18868 16.8062 5.00056 18.4663 6.62242C20.1226 8.24619 20.9507 10.1978 20.9507 12.4848ZM4.04092 8.42534C4.04092 8.98946 3.80069 9.45448 3.32023 9.81659C2.84563 10.1787 2.60541 10.497 2.60541 10.7619V21H1.43356V10.7619C1.43356 10.4951 1.19333 10.1787 0.718733 9.81659C0.240229 9.45448 0 8.99137 0 8.42534C0 6.89305 0.347648 5.41413 1.0488 4V7.7926H1.66988V4H2.35736V7.7926H2.99211V4C3.68936 5.41413 4.04092 6.89305 4.04092 8.42534ZM18.6499 12.4848C18.6499 10.8191 18.0484 9.3954 16.8394 8.2157C15.6305 7.03599 14.1676 6.44899 12.4489 6.44899C10.7361 6.44899 9.27712 7.03599 8.07402 8.2157C6.86507 9.3954 6.25766 10.8191 6.25766 12.4848C6.25766 14.1543 6.86507 15.5779 8.07402 16.7633C9.27712 17.9469 10.7361 18.5396 12.4489 18.5396C14.1657 18.5396 15.6285 17.9469 16.8394 16.7633C18.0464 15.5779 18.6499 14.1543 18.6499 12.4848ZM18.0289 12.4848C18.0289 13.9904 17.4879 15.2749 16.3961 16.3402C15.3082 17.3999 13.9918 17.9335 12.4489 17.9335C10.9158 17.9335 9.60133 17.3999 8.51151 16.3402C7.42365 15.2749 6.87874 13.9904 6.87874 12.4848C6.87874 10.9887 7.42365 9.70605 8.51151 8.64641C9.60328 7.58677 10.9158 7.05314 12.4489 7.05314C13.9918 7.05314 15.3102 7.58677 16.3961 8.64641C17.4879 9.70605 18.0289 10.9887 18.0289 12.4848Z" fill="#1E1E1E"/>
</svg>
