<svg width="24" height="24" viewBox="0 0 24 24" fill="none" xmlns="http://www.w3.org/2000/svg">
<path d="M11.9996 15.89C11.8007 15.89 11.6099 15.811 11.4692 15.6703C11.3286 15.5297 11.2496 15.3389 11.2496 15.14V5.56001L7.99957 8.81001C7.8574 8.94249 7.66935 9.01461 7.47505 9.01118C7.28075 9.00776 7.09536 8.92904 6.95795 8.79163C6.82054 8.65422 6.74183 8.46883 6.7384 8.27453C6.73497 8.08023 6.80709 7.89218 6.93957 7.75001L11.4696 3.22001C11.5388 3.1499 11.6214 3.09432 11.7124 3.05654C11.8034 3.01876 11.901 2.99954 11.9996 3.00001C12.1996 3.00001 12.3996 3.09001 12.5296 3.22001L17.0596 7.75001C17.1333 7.81867 17.1924 7.90147 17.2334 7.99347C17.2743 8.08547 17.2964 8.18478 17.2982 8.28549C17.2999 8.38619 17.2814 8.48622 17.2437 8.57961C17.206 8.67299 17.1498 8.75783 17.0786 8.82905C17.0074 8.90027 16.9226 8.95641 16.8292 8.99413C16.7358 9.03185 16.6358 9.05038 16.5351 9.0486C16.4343 9.04682 16.335 9.02478 16.243 8.98379C16.151 8.9428 16.0682 8.8837 15.9996 8.81001L12.7496 5.56001V15.14C12.7496 15.54 12.4096 15.89 11.9996 15.89Z" fill="#1E1E1E"/>
<path d="M7.25 20.9793C6.38805 20.9793 5.5614 20.6369 4.9519 20.0274C4.34241 19.4179 4 18.5913 4 17.7293V11.5293C4 11.3304 4.07902 11.1396 4.21967 10.999C4.36032 10.8583 4.55109 10.7793 4.75 10.7793C4.94891 10.7793 5.13968 10.8583 5.28033 10.999C5.42098 11.1396 5.5 11.3304 5.5 11.5293V17.7293C5.5 18.6993 6.28 19.4793 7.25 19.4793H16.75C17.72 19.4793 18.5 18.6993 18.5 17.7293V11.5293C18.5 11.3304 18.579 11.1396 18.7197 10.999C18.8603 10.8583 19.0511 10.7793 19.25 10.7793C19.4489 10.7793 19.6397 10.8583 19.7803 10.999C19.921 11.1396 20 11.3304 20 11.5293V17.7293C20 19.5293 18.54 20.9793 16.75 20.9793H7.25Z" fill="#1E1E1E"/>
</svg>
