<svg width="25" height="24" viewBox="0 0 25 24" fill="none" xmlns="http://www.w3.org/2000/svg">
<path d="M12.4968 21C14.5767 21 14.9043 19.4359 16.1157 19.4359C17.35 19.4359 17.548 21 19.9251 21H19.9632C20.2603 21 20.5041 20.7534 20.5041 20.4529C20.5041 20.1524 20.2603 19.9136 19.9632 19.9136H19.9251C19.1099 19.9136 18.6451 19.5669 18.0737 19.1585C17.5785 18.7964 16.9614 18.3495 16.1157 18.3495C15.2396 18.3495 14.6148 18.8196 14.1196 19.1971C13.5939 19.5977 13.1825 19.9136 12.4968 19.9136C11.8111 19.9136 11.3997 19.5977 10.874 19.1971C10.3788 18.8196 9.75401 18.3495 8.87785 18.3495C8.03216 18.3495 7.41504 18.7964 6.91982 19.1585C6.34841 19.5669 5.89127 19.9136 5.06845 19.9136H5.03035C4.73322 19.9136 4.48942 20.1524 4.48942 20.4529C4.48942 20.7534 4.73322 21 5.03035 21H5.06845C7.44551 21 7.64361 19.4359 8.87785 19.4359C10.0892 19.4359 10.4168 21 12.4968 21ZM12.4968 19.0121C12.8473 19.0121 13.0225 18.912 13.5863 18.4728C14.0815 18.103 14.95 17.4481 16.1157 17.4481C16.8014 17.4481 17.3652 17.6407 18.0204 18.0414L20.1918 14.1504C20.8394 13.0024 20.5727 12.1626 19.4375 11.6387L13.8987 9.06526C13.5787 8.91891 13.1292 8.67236 12.4968 8.67236C11.8721 8.67236 11.4226 8.91891 11.095 9.06526L5.55605 11.6387C4.42847 12.1626 4.16181 13.0024 4.80179 14.1504L6.97315 18.0414C7.62837 17.6407 8.19216 17.4481 8.87785 17.4481C10.0435 17.4481 10.9121 18.103 11.4073 18.4728C11.9711 18.912 12.1463 19.0121 12.4968 19.0121ZM12.4968 7.62449C13.1825 7.62449 13.6244 7.77858 14.3329 8.10989L18.3252 9.96673L17.6699 5.05109C17.5557 4.21127 17.0376 3.618 16.2148 3.618H8.79405C7.97121 3.618 7.47599 4.21127 7.33885 5.20519L6.68363 9.95903L10.6607 8.10989C11.3692 7.77858 11.8111 7.62449 12.4968 7.62449ZM9.13689 6.80778C8.95404 6.80778 8.83214 6.6768 8.83214 6.49188V5.25912C8.83214 5.0742 8.95404 4.94322 9.13689 4.94322H11.4988C11.7273 4.94322 11.8797 5.0742 11.8797 5.25912V6.49188C11.8797 6.6768 11.7273 6.80778 11.4988 6.80778H9.13689ZM13.4187 6.80778C13.2434 6.80778 13.1215 6.6768 13.1215 6.49188V5.25912C13.1215 5.0742 13.2434 4.94322 13.4187 4.94322H15.7881C16.0167 4.94322 16.169 5.0742 16.169 5.25912V6.49188C16.169 6.6768 16.0167 6.80778 15.7881 6.80778H13.4187ZM9.33498 3.84915H15.6662V3.19424C15.6662 2.44688 15.2319 2 14.4929 2H10.5083C9.76925 2 9.33498 2.44688 9.33498 3.19424V3.84915Z" fill="#1E1E1E"/>
</svg>
