<svg width="76" height="76" viewBox="0 0 76 76" fill="none" xmlns="http://www.w3.org/2000/svg">
<path d="M33.1367 49.0029C34.3879 49.0032 35.4004 50.0126 35.4004 51.252C35.4001 52.4915 34.3902 53.4997 33.1367 53.5C31.883 53.5 30.8723 52.4916 30.8721 51.252C30.8721 50.0121 31.8828 49.0029 33.1367 49.0029ZM45.2559 49.0029C46.5095 49.0032 47.5195 50.0122 47.5195 51.252C47.5193 52.4915 46.5094 53.4997 45.2559 53.5C44.0046 53.5 42.9915 52.4913 42.9912 51.252C42.9912 50.0124 44.0044 49.0029 45.2559 49.0029ZM28.4736 22.5H34.4697C34.8244 22.5 35.1104 22.7881 35.1104 23.1338V27.0898L35.9619 26.2451C36.8198 25.3947 37.9793 24.877 39.2568 24.877C39.8111 24.877 40.3457 24.9763 40.8408 25.1553L41.1484 25.2666L41.374 25.0293C42.4123 23.9336 43.8849 23.248 45.5186 23.248C48.3075 23.2482 50.6236 25.2423 51.1113 27.8691L51.1865 28.2773H51.877C52.2289 28.2775 52.4999 28.563 52.5 28.8945C52.5 28.9363 52.4898 28.9803 52.457 29.1172L49.5215 40.8818H49.5205L49.5186 40.8926C49.4567 41.1665 49.21 41.3613 48.9131 41.3613H29.832L30.0029 41.9922C30.4047 43.4726 30.8409 44.4486 31.5566 44.9375L31.5664 44.9443C31.9995 45.2254 32.551 45.3487 33.1885 45.4082C33.6707 45.4532 34.2397 45.4641 34.8994 45.4609L35.5889 45.4541H48.623C48.975 45.4543 49.2461 45.7397 49.2461 46.0713C49.2458 46.4142 48.9633 46.6873 48.623 46.6875H35.6064C33.1822 46.7154 31.8795 46.644 30.8477 45.9688C29.8124 45.282 29.2141 44.0815 28.582 41.5977L28.5811 41.5928L24.7305 27.1055C24.7236 27.0635 24.7133 27.0138 24.6885 26.9619C24.6822 26.9487 24.6735 26.9371 24.667 26.9258C24.4731 26.272 24.1411 25.7448 23.6182 25.4395L23.6191 25.4385C23.6125 25.4342 23.6053 25.4309 23.5986 25.4268C23.5976 25.4262 23.5967 25.4254 23.5957 25.4248H23.5947C23.0822 25.1057 22.4386 24.9883 21.7666 24.9883H20.623V24.9863H20.123C19.7987 24.9861 19.5003 24.7006 19.5 24.3418C19.5 24.0182 19.7907 23.7248 20.123 23.7246H21.7812L22.1426 23.7422C22.8509 23.7932 23.4697 23.9404 24.0029 24.2148L24.2627 24.3633C25.0042 24.8316 25.5628 25.5428 25.8799 26.6484C25.8872 26.6975 25.9002 26.7594 25.9316 26.8242L26.2012 27.8994L26.2969 28.2773H27.834V23.1338C27.834 22.7882 28.1192 22.5002 28.4736 22.5ZM26.8369 30.1377L29.3994 39.7285L29.498 40.0996H48.4375L48.5322 39.7207L50.9199 30.1299L51.0752 29.5088H26.6689L26.8369 30.1377ZM33.7529 32.2314C33.8605 32.2314 33.9437 32.267 33.9912 32.3057C34.0346 32.341 34.0361 32.3658 34.0361 32.3691V36.6865C34.0361 36.6893 34.0351 36.7141 33.9912 36.75C33.9437 36.7887 33.8605 36.8242 33.7529 36.8242C33.6456 36.8241 33.563 36.7886 33.5156 36.75C33.4715 36.7141 33.4707 36.6893 33.4707 36.6865V32.3691C33.4708 32.3658 33.4722 32.3411 33.5156 32.3057C33.5631 32.267 33.6456 32.2315 33.7529 32.2314ZM38.4404 32.2314C38.5478 32.2314 38.6302 32.2671 38.6777 32.3057C38.7212 32.3411 38.7236 32.3658 38.7236 32.3691V36.6865C38.7236 36.6893 38.7219 36.714 38.6777 36.75C38.6302 36.7886 38.5478 36.8242 38.4404 36.8242C38.3331 36.8242 38.2506 36.7886 38.2031 36.75C38.159 36.714 38.1572 36.6893 38.1572 36.6865V32.3691C38.1573 32.3658 38.1596 32.3411 38.2031 32.3057C38.2506 32.2671 38.3331 32.2314 38.4404 32.2314ZM43.1309 32.2314C43.2381 32.2316 43.3208 32.267 43.3682 32.3057C43.4116 32.3411 43.413 32.3658 43.4131 32.3691V36.6865C43.4131 36.6893 43.4122 36.7141 43.3682 36.75C43.3208 36.7886 43.2381 36.8241 43.1309 36.8242C43.0233 36.8242 42.94 36.7887 42.8926 36.75C42.8486 36.7141 42.8477 36.6893 42.8477 36.6865V32.3691C42.8477 32.3658 42.8492 32.3411 42.8926 32.3057C42.94 32.267 43.0233 32.2314 43.1309 32.2314ZM29.4346 22.6582C28.7086 22.6582 28.1067 23.2468 28.1064 23.9805V28.2773H34.6484L34.7715 27.9561C34.7975 27.8879 34.8265 27.8206 34.8604 27.7422L34.9004 27.6465V23.9805C34.9001 23.2507 34.3003 22.6582 33.5732 22.6582H29.4346ZM45.5186 24.0918C44.2982 24.0918 43.1832 24.55 42.3418 25.3066L41.9248 25.6816L42.3457 26.0537C42.9253 26.5652 43.3858 27.2167 43.6748 27.959L43.7988 28.2773H50.2754L50.1172 27.6543C49.597 25.6074 47.7352 24.0919 45.5186 24.0918Z" fill="#1E1E1E" stroke="#1E1E1E"/>
</svg>
