<svg width="512" height="512" viewBox="0 0 512 512" fill="none" xmlns="http://www.w3.org/2000/svg">
<path d="M453.536 203.244C453.536 195.676 459.688 189.534 467.268 189.534C474.848 189.534 481 195.676 481 203.244V308.756C481 316.324 474.848 322.466 467.268 322.466C459.688 322.466 453.536 316.324 453.536 308.756V203.244ZM31 203.244C31 195.676 37.1518 189.534 44.7318 189.534C52.3117 189.534 58.4636 195.676 58.4636 203.244V308.756C58.4636 316.324 52.3117 322.466 44.7318 322.466C37.1518 322.43 31 316.324 31 308.756V203.244ZM79.5922 261.521C78.9331 260.022 78.5303 258.413 78.4571 256.804V256.475V256.146V255.817V255.488V255.159C78.5669 253.55 78.9331 251.942 79.5922 250.443V250.406L79.6289 250.37L79.7387 250.114L79.7753 250.077L79.8852 249.821L79.9218 249.748L79.9584 249.712C80.3978 248.834 80.9471 247.993 81.6062 247.226L131.077 186.097C135.801 180.211 144.443 179.297 150.302 184.013C156.197 188.729 157.113 197.358 152.389 203.207L120.641 242.436L380.63 242.363L348.992 203.207C344.268 197.321 345.183 188.729 351.079 184.013C356.974 179.297 365.58 180.211 370.303 186.097L419.811 247.226C420.47 247.993 421.02 248.834 421.459 249.712L421.496 249.748L421.532 249.821L421.642 250.077L421.679 250.114L421.789 250.37L421.825 250.406V250.443C422.484 251.942 422.887 253.55 422.96 255.159V255.488V255.817V256.146V256.475V256.804C422.85 258.413 422.484 260.022 421.825 261.521V261.557L421.789 261.594L421.679 261.85L421.642 261.886L421.532 262.142L421.496 262.215L421.459 262.252C421.02 263.129 420.47 263.97 419.811 264.738L370.303 325.903C365.58 331.789 356.938 332.703 351.079 327.987C345.183 323.271 344.268 314.642 348.992 308.793L380.666 269.673L120.788 269.747L152.389 308.793C157.113 314.679 156.197 323.271 150.302 327.987C144.406 332.703 135.801 331.789 131.077 325.903L81.6062 264.774C80.9471 264.007 80.3978 263.166 79.9584 262.288L79.9218 262.252L79.8852 262.179L79.7753 261.923L79.7387 261.886L79.6289 261.63L79.5922 261.594V261.521Z" fill="#DFDFDF"/>
</svg>
