<svg width="24" height="16" viewBox="0 0 24 16" fill="none" xmlns="http://www.w3.org/2000/svg">
<path d="M22.5353 5.18634C22.5353 4.78271 22.8634 4.45513 23.2676 4.45513C23.6719 4.45513 24 4.78271 24 5.18634V10.8137C24 11.2173 23.6719 11.5449 23.2676 11.5449C22.8634 11.5449 22.5353 11.2173 22.5353 10.8137V5.18634ZM0 5.18634C0 4.78271 0.328098 4.45513 0.732362 4.45513C1.13663 4.45513 1.46472 4.78271 1.46472 5.18634V10.8137C1.46472 11.2173 1.13663 11.5449 0.732362 11.5449C0.328098 11.5429 0 11.2173 0 10.8137V5.18634ZM2.59159 8.29443C2.55643 8.21449 2.53495 8.12869 2.53104 8.0429V8.02535V8.0078V7.99025V7.9727V7.95515C2.5369 7.86936 2.55643 7.78356 2.59159 7.70362V7.70167L2.59354 7.69972L2.5994 7.68607L2.60135 7.68412L2.60721 7.67047L2.60916 7.66657L2.61112 7.66462C2.63455 7.61782 2.66385 7.57298 2.699 7.53203L5.33746 4.27185C5.58939 3.95792 6.05029 3.90917 6.36276 4.1607C6.67719 4.41224 6.72602 4.87241 6.47408 5.18439L4.78086 7.2766L18.6469 7.2727L16.9596 5.18439C16.7076 4.87046 16.7564 4.41224 17.0709 4.1607C17.3853 3.90917 17.8443 3.95792 18.0962 4.27185L20.7366 7.53203C20.7717 7.57298 20.801 7.61782 20.8245 7.66462L20.8264 7.66657L20.8284 7.67047L20.8342 7.68412L20.8362 7.68607L20.8421 7.69972L20.844 7.70167V7.70362C20.8792 7.78356 20.9006 7.86936 20.9045 7.95515V7.9727V7.99025V8.0078V8.02535V8.0429C20.8987 8.12869 20.8792 8.21449 20.844 8.29443V8.29638L20.8421 8.29833L20.8362 8.31198L20.8342 8.31393L20.8284 8.32758L20.8264 8.33148L20.8245 8.33343C20.801 8.38022 20.7717 8.42507 20.7366 8.46602L18.0962 11.7282C17.8443 12.0421 17.3834 12.0908 17.0709 11.8393C16.7564 11.5878 16.7076 11.1276 16.9596 10.8156L18.6489 8.72925L4.78867 8.73315L6.47408 10.8156C6.72602 11.1295 6.67719 11.5878 6.36276 11.8393C6.04834 12.0908 5.58939 12.0421 5.33746 11.7282L2.699 8.46797C2.66385 8.42702 2.63455 8.38217 2.61112 8.33538L2.60916 8.33343L2.60721 8.32953L2.60135 8.31588L2.5994 8.31393L2.59354 8.30028L2.59159 8.29833V8.29443Z" fill="#2B2B2B"/>
</svg>
