<svg width="76" height="76" viewBox="0 0 76 76" fill="none" xmlns="http://www.w3.org/2000/svg">
<path d="M39.4561 47.8213C40.1029 47.8213 40.6412 48.2436 41.3535 48.8818L41.3574 48.8857C41.5861 49.088 41.855 49.3283 42.1191 49.5127C42.3622 49.6824 42.744 49.9111 43.1953 49.9111C43.6608 49.9111 44.0553 49.6925 44.3291 49.5068C44.6143 49.3135 44.8997 49.062 45.1406 48.8506L45.1436 48.8477C45.8397 48.23 46.3483 47.8311 46.9346 47.8311C47.5815 47.8311 48.1197 48.2533 48.832 48.8916L48.8359 48.8955C49.0645 49.0976 49.3337 49.3372 49.5977 49.5215C49.8407 49.6911 50.2225 49.9198 50.6738 49.9199C51.1395 49.9199 51.5348 49.7023 51.8086 49.5166C52.0938 49.3232 52.3782 49.0708 52.6191 48.8594L52.6211 48.8574C53.3111 48.2473 53.8141 47.8457 54.4053 47.8398H54.4219L54.4385 47.8389C54.9851 47.8111 55.7587 48.1461 56.5596 48.6738C57.3176 49.1734 57.9378 49.7358 58.1348 49.9219L58.1387 49.9248C58.1469 49.9325 58.1723 49.9661 58.1777 50.0312C58.1817 50.0792 58.1694 50.1154 58.1582 50.1396C57.697 49.7113 57.0638 49.2081 56.4375 48.8115C56.1208 48.611 55.7881 48.4267 55.4678 48.293C55.1808 48.1732 54.8235 48.0598 54.4639 48.0703H54.4219C53.9722 48.0703 53.5889 48.2975 53.3438 48.4678C53.0785 48.6521 52.8129 48.8896 52.585 49.0947C51.8613 49.733 51.3366 50.1601 50.6826 50.1602C50.0889 50.1602 49.5897 49.763 48.8926 49.1445H48.8936C48.6521 48.9291 48.3678 48.6773 48.0791 48.4824C47.838 48.3197 47.5045 48.134 47.1143 48.0898L46.9434 48.0801C46.4936 48.0801 46.1104 48.3072 45.8652 48.4775C45.5976 48.6635 45.329 48.903 45.0996 49.1094C44.3792 49.7446 43.8562 50.1688 43.2041 50.1689C42.6101 50.1689 42.1099 49.7715 41.4121 49.1523C41.1712 48.9374 40.8883 48.6864 40.6006 48.4922C40.3249 48.3061 39.928 48.0889 39.4639 48.0889C39.0074 48.089 38.621 48.3207 38.373 48.4961C38.1035 48.6868 37.8345 48.9328 37.6055 49.1436C36.9104 49.7701 36.4053 50.1786 35.8008 50.1787C35.1539 50.1787 34.6156 49.7563 33.9033 49.1182L33.8994 49.1143L33.5312 48.7939C33.4025 48.6858 33.2696 48.5794 33.1377 48.4873C32.9251 48.3389 32.6061 48.1458 32.2275 48.0996L32.0615 48.0889C31.5959 48.0889 31.2006 48.3075 30.9268 48.4932C30.6417 48.6865 30.3571 48.9381 30.1162 49.1494L30.1133 49.1523C29.4157 49.7713 28.9161 50.1688 28.3223 50.1689C27.6821 50.1689 27.1651 49.7477 26.4541 49.1025L26.4512 49.1006L26.0889 48.7793C25.9613 48.6701 25.8291 48.5624 25.6982 48.4697C25.4729 48.3101 25.0895 48.0725 24.6328 48.0811V48.0801H24.582C24.2219 48.0802 23.856 48.2002 23.5527 48.3301C23.2322 48.4674 22.8978 48.6525 22.5771 48.8525C21.9477 49.2454 21.3121 49.7352 20.8477 50.1514C20.8309 50.1243 20.8172 50.0822 20.8223 50.0293C20.8279 49.9706 20.8522 49.9355 20.8672 49.9219L20.8662 49.9209C21.0694 49.7391 21.6818 49.2078 22.4277 48.7207C23.2184 48.2044 24.0013 47.8464 24.5664 47.8398H24.5811L24.5957 47.8389C25.1178 47.8141 25.5637 48.1153 26.1436 48.6221L26.4014 48.8516C26.6359 49.0644 26.9126 49.3164 27.1914 49.5107C27.4561 49.6952 27.8485 49.9199 28.3135 49.9199C28.7632 49.9199 29.1464 49.6928 29.3916 49.5225C29.6593 49.3365 29.9269 49.096 30.1562 48.8896C30.8767 48.2544 31.4006 47.8311 32.0527 47.8311C32.4983 47.8311 32.8909 48.0538 33.3535 48.4268L33.8438 48.8477C34.0848 49.0627 34.3683 49.3135 34.6562 49.5078C34.9319 49.6938 35.3279 49.9111 35.792 49.9111C36.2485 49.9111 36.6347 49.6794 36.8828 49.5039C37.1523 49.3133 37.4214 49.0671 37.6504 48.8564L37.6494 48.8555C38.3448 48.2286 38.8513 47.8213 39.4561 47.8213Z" fill="#1E1E1E" stroke="#1E1E1E" stroke-width="1.64258"/>
<path d="M34.2012 25.8213H39.9531C39.954 25.8214 39.9569 25.8213 39.9609 25.8223C39.9658 25.8235 39.9706 25.8252 39.9746 25.8271L53.2959 32.8408L53.3184 32.8633L53.3867 32.8975L53.3975 32.9082L53.4053 32.918L58.1611 39.0049C58.1704 39.0181 58.1765 39.0362 58.1768 39.0557C58.1769 39.0752 58.1711 39.0857 58.168 39.0898L58.1631 39.0957L55.1543 43.1279L54.5195 43.9775L55.501 44.3799C56.3864 44.7427 57.2638 45.3694 57.7754 45.7695L58.1514 46.0762L58.1592 46.082C58.1666 46.0882 58.1763 46.101 58.1787 46.124C58.1796 46.1326 58.1776 46.1398 58.1768 46.1445C58.1758 46.1454 58.1754 46.147 58.1748 46.1475C58.1732 46.1487 58.1726 46.15 58.1719 46.1504C58.1709 46.1509 58.1661 46.1523 58.1572 46.1523C58.1513 46.1523 58.1475 46.1517 58.1455 46.1514L58.1377 46.1455C57.6627 45.7415 57.006 45.2649 56.3574 44.8906C56.0329 44.7034 55.6938 44.5327 55.3691 44.4092C55.0754 44.2974 54.7217 44.1972 54.3721 44.207H54.3291C53.8955 44.207 53.5189 44.4082 53.2656 44.5693C52.9958 44.741 52.7204 44.9649 52.4854 45.1543L52.4814 45.1582C51.7614 45.7462 51.1926 46.1611 50.4912 46.1611C49.844 46.1611 49.315 45.769 48.6104 45.1992L48.6064 45.1963C48.3588 44.9983 48.0674 44.7639 47.7764 44.584C47.5285 44.4308 47.1989 44.264 46.8193 44.2246L46.6533 44.2158C46.2199 44.2159 45.8441 44.417 45.5908 44.5781C45.3211 44.7497 45.0456 44.9737 44.8105 45.1631L44.8057 45.167C44.0858 45.7549 43.5168 46.1699 42.8154 46.1699C42.1764 46.1697 41.6375 45.7765 40.9346 45.208L40.9316 45.2051L40.5322 44.8916C40.3921 44.7857 40.2461 44.6827 40.1006 44.5928C39.8526 44.4395 39.5233 44.2726 39.1436 44.2334L38.9785 44.2246C38.538 44.2246 38.1588 44.4306 37.9023 44.5967C37.6323 44.7716 37.3577 44.9988 37.124 45.1914C36.4047 45.7751 35.8707 46.1785 35.2188 46.1787C34.6873 46.1787 34.2418 45.943 33.7441 45.5771L33.2236 45.1719C32.9891 44.9795 32.7166 44.7577 32.4453 44.5859C32.2219 44.4445 31.9051 44.2739 31.54 44.2334L31.3809 44.2246C30.9327 44.2246 30.541 44.4164 30.2559 44.5918C29.9619 44.7727 29.6717 45.0065 29.4238 45.208C28.7193 45.7778 28.1902 46.1699 27.543 46.1699C26.8481 46.1698 26.3012 45.7551 25.583 45.1611H25.582C25.351 44.9674 25.0778 44.7373 24.8086 44.5635C24.5727 44.4112 24.1958 44.2047 23.7568 44.2168V44.2158H23.7061L23.5732 44.2207C23.2648 44.243 22.9537 44.3385 22.6826 44.4443C22.3574 44.5713 22.0158 44.743 21.6875 44.9297C21.0336 45.3016 20.3719 45.7671 19.8936 46.1602C19.8832 46.1686 19.876 46.171 19.873 46.1719C19.8697 46.1728 19.8667 46.1731 19.8643 46.1729C19.8619 46.1726 19.8589 46.1718 19.8555 46.1699C19.8523 46.1682 19.8464 46.1635 19.8389 46.1543C19.8259 46.135 19.8226 46.1171 19.8242 46.1016C19.8261 46.0841 19.8341 46.0686 19.8496 46.0557L19.8613 46.0459C19.9519 45.9676 20.1809 45.781 20.4971 45.5576L21.2383 45.0342L20.6436 44.3486L17.8408 41.1182L17.8311 41.1074L17.8232 41.0996C17.8247 41.1015 17.8245 41.1005 17.8232 41.0967C17.8225 41.0944 17.8215 41.0913 17.8213 41.0889C17.8211 41.0868 17.8212 41.0855 17.8213 41.085L17.8232 41.0693L17.8242 41.0537C17.8246 41.0476 17.8263 41.0434 17.8281 41.04C17.8301 41.0364 17.8334 41.0303 17.8408 41.0244L17.8428 41.0234L25.5186 34.9307L25.5254 34.9248C25.5274 34.9245 25.5306 34.9238 25.5342 34.9238H37.0283L37.252 34.749L40.8486 31.9287C40.8529 31.9255 40.8588 31.9228 40.8652 31.9209C40.8717 31.919 40.8754 31.919 40.875 31.9189L40.8809 31.9199L49.1426 32.5625L49.5889 31.0166L40.1289 26.0342L39.9492 25.9395H34.2012C34.1981 25.9395 34.1899 25.939 34.1787 25.9277C34.1671 25.9159 34.1592 25.8991 34.1592 25.8799C34.1593 25.8609 34.1672 25.8448 34.1787 25.833C34.1899 25.8217 34.1981 25.8213 34.2012 25.8213ZM56.2881 39.1895L19.6455 41.0557L17.9658 41.1416L19.0654 42.4131L20.877 44.5088L21.3066 45.0059L21.8857 44.6953C22.553 44.3381 23.1802 44.1216 23.6641 44.1152H23.6768L23.6895 44.1143C24.3357 44.0861 24.866 44.4743 25.5879 45.0713C25.8293 45.271 26.114 45.5063 26.3994 45.6875C26.6739 45.8618 27.0609 46.0605 27.5088 46.0605C27.9422 46.0605 28.318 45.8593 28.5713 45.6982C28.8412 45.5265 29.1174 45.3028 29.3525 45.1133L29.3564 45.1094C30.0764 44.5214 30.6453 44.1064 31.3467 44.1064C31.9858 44.1066 32.5246 44.4999 33.2275 45.0684L33.2305 45.0713C33.4782 45.2694 33.7703 45.5036 34.0615 45.6836C34.3448 45.8586 34.7343 46.0517 35.1836 46.0518C35.6241 46.0518 36.0034 45.8458 36.2598 45.6797C36.5298 45.5048 36.8044 45.2775 37.0381 45.085C37.7575 44.5012 38.2914 44.0979 38.9434 44.0977C39.652 44.0977 40.2073 44.5167 40.9385 45.1045C41.173 45.2968 41.4456 45.5187 41.7168 45.6904C41.972 45.852 42.3494 46.0517 42.7812 46.0518C43.2295 46.0518 43.6211 45.86 43.9062 45.6846C44.2002 45.5037 44.4895 45.2689 44.7373 45.0674L44.7383 45.0684C45.4429 44.4985 45.9719 44.1064 46.6191 44.1064C47.3256 44.1065 47.8796 44.5225 48.6074 45.1074V45.1084C48.8432 45.3018 49.1181 45.526 49.3916 45.6992C49.6469 45.8608 50.025 46.0605 50.457 46.0605C50.905 46.0604 51.296 45.8687 51.5811 45.6934C51.8739 45.5132 52.1629 45.2801 52.4102 45.0791C53.0117 44.5973 53.4653 44.2457 53.9854 44.1562L54.3086 44.1006L54.5049 43.8369L56.9883 40.5L58.0303 39.1006L56.2881 39.1895ZM40.6279 32.2412L37.0576 35.041L37.0459 35.0498L37.0439 35.0508H25.541L25.3164 35.2295L20.0303 39.4287L18.0234 41.0225L20.583 40.8916L56.4316 39.0605L58.0098 38.9805L57.0371 37.7354L53.5791 33.3066L53.3564 33.0215L52.9961 32.9932L41.1982 32.0693L40.8789 32.0439L40.6279 32.2412Z" fill="#1E1E1E" stroke="#1E1E1E" stroke-width="1.64258"/>
</svg>
