<svg width="32" height="32" viewBox="0 0 32 32" fill="none" xmlns="http://www.w3.org/2000/svg">
<g clip-path="url(#clip0_926_23081)">
<path fill-rule="evenodd" clip-rule="evenodd" d="M15.1004 1.57953L10.9704 10.4595L1.11036 11.7295C0.919605 11.7534 0.739765 11.8317 0.592374 11.9551C0.444983 12.0785 0.33629 12.2418 0.279311 12.4254C0.222331 12.609 0.21948 12.8051 0.271099 12.9903C0.322718 13.1755 0.426619 13.3419 0.57036 13.4695L7.87036 20.0395L5.90036 29.8895C5.86325 30.0779 5.88113 30.2729 5.95186 30.4513C6.02258 30.6298 6.14317 30.7841 6.29922 30.8958C6.45527 31.0076 6.64019 31.0721 6.8319 31.0816C7.02361 31.0911 7.21401 31.0453 7.38036 30.9495L16.0004 25.9495L24.6304 30.9495C24.7967 31.0453 24.9871 31.0911 25.1788 31.0816C25.3705 31.0721 25.5555 31.0076 25.7115 30.8958C25.8676 30.7841 25.9881 30.6298 26.0589 30.4513C26.1296 30.2729 26.1475 30.0779 26.1104 29.8895L24.1404 20.0395L31.4404 13.4695C31.5812 13.3407 31.6822 13.1742 31.7315 12.9898C31.7808 12.8053 31.7762 12.6106 31.7184 12.4287C31.6605 12.2468 31.5518 12.0852 31.4051 11.9631C31.2584 11.841 31.0798 11.7634 30.8904 11.7395L21.0304 10.4595L16.9104 1.57953C16.8308 1.40494 16.7027 1.25692 16.5414 1.15313C16.38 1.04933 16.1922 0.994141 16.0004 0.994141C15.8085 0.994141 15.6207 1.04933 15.4593 1.15313C15.298 1.25692 15.1699 1.40494 15.0904 1.57953H15.1004Z" fill="#1E1E1E"/>
</g>
<defs>
<clipPath id="clip0_926_23081">
<rect width="32" height="32" fill="white"/>
</clipPath>
</defs>
</svg>
