<svg width="148" height="28" viewBox="0 0 148 28" fill="none" xmlns="http://www.w3.org/2000/svg">
<path d="M15.5141 4.9975C14.9047 3.6675 13.0953 3.6675 12.4859 4.9975L10.4167 9.51364C10.381 9.59154 10.3088 9.64748 10.2229 9.65927L5.46323 10.3127C4.0666 10.5044 3.49555 12.3115 4.52857 13.3327L8.00734 16.7718C8.0685 16.8323 8.09504 16.9195 8.08011 17.0035L7.20632 21.9178C6.94627 23.3803 8.42194 24.4826 9.65507 23.7856L13.8791 21.3981C13.9544 21.3555 14.0456 21.3555 14.1209 21.3981L18.3449 23.7856C19.5781 24.4826 21.0537 23.3803 20.7937 21.9178L19.9199 17.0035C19.905 16.9195 19.9315 16.8323 19.9927 16.7718L23.4714 13.3327C24.5045 12.3115 23.9334 10.5044 22.5368 10.3127L17.7771 9.65927C17.6912 9.64748 17.619 9.59154 17.5833 9.51364L15.5141 4.9975Z" fill="url(#paint0_linear_943_23107)"/>
<path d="M45.5141 4.9975C44.9047 3.6675 43.0953 3.6675 42.4859 4.9975L40.4167 9.51364C40.381 9.59154 40.3088 9.64748 40.2229 9.65927L35.4632 10.3127C34.0666 10.5044 33.4955 12.3115 34.5286 13.3327L38.0073 16.7718C38.0685 16.8323 38.095 16.9195 38.0801 17.0035L37.2063 21.9178C36.9463 23.3803 38.4219 24.4826 39.6551 23.7856L43.8791 21.3981C43.9544 21.3555 44.0456 21.3555 44.1209 21.3981L48.3449 23.7856C49.5781 24.4826 51.0537 23.3803 50.7937 21.9178L49.9199 17.0035C49.905 16.9195 49.9315 16.8323 49.9927 16.7718L53.4714 13.3327C54.5045 12.3115 53.9334 10.5044 52.5368 10.3127L47.7771 9.65927C47.6912 9.64748 47.619 9.59154 47.5833 9.51364L45.5141 4.9975Z" fill="url(#paint1_linear_943_23107)"/>
<path d="M75.5141 4.9975C74.9047 3.6675 73.0953 3.6675 72.4859 4.9975L70.4167 9.51364C70.381 9.59154 70.3088 9.64748 70.2229 9.65927L65.4632 10.3127C64.0666 10.5044 63.4955 12.3115 64.5286 13.3327L68.0073 16.7718C68.0685 16.8323 68.095 16.9195 68.0801 17.0035L67.2063 21.9178C66.9463 23.3803 68.4219 24.4826 69.6551 23.7856L73.8791 21.3981C73.9544 21.3555 74.0456 21.3555 74.1209 21.3981L78.3449 23.7856C79.5781 24.4826 81.0537 23.3803 80.7937 21.9178L79.9199 17.0035C79.905 16.9195 79.9315 16.8323 79.9927 16.7718L83.4714 13.3327C84.5045 12.3115 83.9334 10.5044 82.5368 10.3127L77.7771 9.65927C77.6912 9.64748 77.619 9.59154 77.5833 9.51364L75.5141 4.9975Z" fill="url(#paint2_linear_943_23107)"/>
<path d="M105.514 4.9975C104.905 3.6675 103.095 3.6675 102.486 4.9975L100.417 9.51364C100.381 9.59154 100.309 9.64748 100.223 9.65927L95.4632 10.3127C94.0666 10.5044 93.4955 12.3115 94.5286 13.3327L98.0073 16.7718C98.0685 16.8323 98.095 16.9195 98.0801 17.0035L97.2063 21.9178C96.9463 23.3803 98.4219 24.4826 99.6551 23.7856L103.879 21.3981C103.954 21.3555 104.046 21.3555 104.121 21.3981L108.345 23.7856C109.578 24.4826 111.054 23.3803 110.794 21.9178L109.92 17.0035C109.905 16.9195 109.932 16.8323 109.993 16.7718L113.471 13.3327C114.504 12.3115 113.933 10.5044 112.537 10.3127L107.777 9.65927C107.691 9.64748 107.619 9.59154 107.583 9.51364L105.514 4.9975Z" fill="url(#paint3_linear_943_23107)"/>
<path d="M135.514 4.9975C134.905 3.6675 133.095 3.6675 132.486 4.9975L130.417 9.51364C130.381 9.59154 130.309 9.64748 130.223 9.65927L125.463 10.3127C124.067 10.5044 123.496 12.3115 124.529 13.3327L128.007 16.7718C128.069 16.8323 128.095 16.9195 128.08 17.0035L127.206 21.9178C126.946 23.3803 128.422 24.4826 129.655 23.7856L133.879 21.3981C133.954 21.3555 134.046 21.3555 134.121 21.3981L138.345 23.7856C139.578 24.4826 141.054 23.3803 140.794 21.9178L139.92 17.0035C139.905 16.9195 139.932 16.8323 139.993 16.7718L143.471 13.3327C144.504 12.3115 143.933 10.5044 142.537 10.3127L137.777 9.65927C137.691 9.64748 137.619 9.59154 137.583 9.51364L135.514 4.9975Z" fill="url(#paint4_linear_943_23107)"/>
<defs>
<linearGradient id="paint0_linear_943_23107" x1="4" y1="14" x2="24" y2="14" gradientUnits="userSpaceOnUse">
<stop stop-color="#FFF700"/>
<stop offset="1" stop-color="#D5BC00"/>
</linearGradient>
<linearGradient id="paint1_linear_943_23107" x1="34" y1="14" x2="54" y2="14" gradientUnits="userSpaceOnUse">
<stop stop-color="#FFF700"/>
<stop offset="1" stop-color="#D5BC00"/>
</linearGradient>
<linearGradient id="paint2_linear_943_23107" x1="64" y1="14" x2="84" y2="14" gradientUnits="userSpaceOnUse">
<stop stop-color="#FFF700"/>
<stop offset="1" stop-color="#D5BC00"/>
</linearGradient>
<linearGradient id="paint3_linear_943_23107" x1="94" y1="14" x2="114" y2="14" gradientUnits="userSpaceOnUse">
<stop stop-color="#FFF700"/>
<stop offset="1" stop-color="#D5BC00"/>
</linearGradient>
<linearGradient id="paint4_linear_943_23107" x1="124" y1="14" x2="144" y2="14" gradientUnits="userSpaceOnUse">
<stop stop-color="#FFF700"/>
<stop offset="1" stop-color="#D5BC00"/>
</linearGradient>
</defs>
</svg>
