<svg width="32" height="32" viewBox="0 0 32 32" fill="none" xmlns="http://www.w3.org/2000/svg">
<path d="M12.2875 0.1375C12.2063 0.25 12.1875 0.46875 12.1875 1.225V2.18125L12.35 2.30625C12.4438 2.38125 12.5813 2.4375 12.6563 2.4375C12.7313 2.4375 12.8688 2.38125 12.9625 2.30625L13.125 2.18125V1.225C13.125 0.09375 13.0875 -3.63216e-08 12.6563 -3.63216e-08C12.4438 -3.63216e-08 12.3625 0.03125 12.2875 0.1375Z" fill="#1E1E1E"/>
<path d="M8.41257 1.72455C8.28757 1.8433 8.22507 2.0808 8.27507 2.2308C8.34382 2.4433 9.51882 3.5558 9.71882 3.59955C10.0001 3.6558 10.2501 3.43705 10.2501 3.13705C10.2501 2.92455 10.1938 2.8433 9.60632 2.26205C9.03132 1.68705 8.94382 1.62455 8.73757 1.62455C8.61257 1.62455 8.46257 1.6683 8.41257 1.72455Z" fill="#1E1E1E"/>
<path d="M15.7 2.2683C15.125 2.8433 15.0625 2.9308 15.0625 3.13705C15.0625 3.43705 15.3125 3.6558 15.5938 3.59955C15.8125 3.5558 16.9813 2.4308 17.0375 2.2058C17.1188 1.88705 16.9063 1.62455 16.575 1.62455C16.3625 1.62455 16.2813 1.6808 15.7 2.2683Z" fill="#1E1E1E"/>
<path d="M11.8192 3.91206C11.188 4.13706 10.7317 4.58081 10.488 5.18081L10.3442 5.53081L10.313 12.8683L10.2817 20.2121L9.15673 19.1183C7.95048 17.9496 7.71298 17.7871 7.05048 17.6808C6.60048 17.6058 6.03798 17.6933 5.62548 17.9058C5.22548 18.1058 4.73173 18.6683 4.55673 19.1121C4.36923 19.5933 4.36298 20.3308 4.54423 20.7871C4.69423 21.1746 9.57548 28.0371 10.163 28.6933C11.688 30.3933 13.7942 31.5433 16.038 31.8996C16.9505 32.0433 18.4192 32.0308 19.3442 31.8746C22.5255 31.3308 25.2567 29.2371 26.663 26.2808C27.1567 25.2433 27.4317 24.2183 27.563 22.9433C27.6505 22.0496 27.6442 15.9808 27.5567 15.5496C27.4067 14.8433 26.9442 14.2308 26.3442 13.9308C26.0817 13.8058 25.9442 13.7808 25.438 13.7808C24.913 13.7808 24.8005 13.7996 24.488 13.9558L24.1255 14.1308V16.4746C24.1255 18.7308 24.1192 18.8183 24.0005 18.9371C23.8567 19.0808 23.638 19.0996 23.463 18.9746C23.3505 18.8871 23.3442 18.7683 23.313 16.6121L23.2817 14.3433L23.088 13.9371C22.8505 13.4371 22.4567 13.0308 22.0005 12.8183C21.5005 12.5871 20.7442 12.5871 20.238 12.8246L19.8817 12.9933L19.863 15.3308C19.8442 17.5308 19.838 17.6808 19.7255 17.8058C19.588 17.9558 19.3255 17.9746 19.1505 17.8496C19.038 17.7621 19.0317 17.6433 19.0005 15.4871L18.9692 13.2183L18.8005 12.8621C18.5692 12.3621 18.1442 11.9246 17.6817 11.7183C17.3442 11.5683 17.2442 11.5496 16.763 11.5746C16.338 11.5871 16.1505 11.6246 15.9067 11.7496L15.5942 11.9058L15.563 14.2683L15.5317 16.6371L15.3817 16.7558C15.2005 16.9058 15.0505 16.9058 14.8692 16.7558L14.7192 16.6371L14.688 11.0496L14.6567 5.46831L14.488 5.11206C14.2692 4.64331 13.8755 4.22456 13.4505 4.01831C13.013 3.80581 12.2505 3.75581 11.8192 3.91206Z" fill="#1E1E1E"/>
<path d="M6.78257 5.6557C6.60757 5.82445 6.58882 5.97445 6.70132 6.2182C6.80757 6.44945 7.11382 6.5182 8.01382 6.4932C8.92632 6.46195 9.06382 6.39945 9.06382 6.0057C9.06382 5.5557 8.92007 5.49945 7.81382 5.49945C6.96382 5.49945 6.92632 5.5057 6.78257 5.6557Z" fill="#1E1E1E"/>
<path d="M16.4561 5.57481C16.1748 5.71231 16.1498 6.16231 16.4061 6.37481C16.5498 6.49356 17.9748 6.54356 18.3123 6.44356C18.6873 6.33106 18.8061 5.92481 18.5311 5.65606C18.3873 5.50606 18.3561 5.49981 17.4873 5.50606C16.9936 5.50606 16.5311 5.53731 16.4561 5.57481Z" fill="#1E1E1E"/>
</svg>
