<svg width="263" height="120" viewBox="0 0 263 120" fill="none" xmlns="http://www.w3.org/2000/svg">
<path d="M260.875 0.520766C260.259 0.178839 259.567 -0.000328774 258.864 9.48649e-07H111.537C110.674 0.00167082 109.834 0.273634 109.132 0.778108C108.431 1.28258 107.903 1.99451 107.621 2.81499C107.042 4.4906 105.959 5.94319 104.523 6.97113C103.086 7.99907 101.367 8.55136 99.6049 8.55136C97.8423 8.55136 96.1235 7.99907 94.687 6.97113C93.2505 5.94319 92.1675 4.4906 91.5884 2.81499C91.3072 1.99451 90.7791 1.28258 90.0774 0.778108C89.3758 0.273634 88.5355 0.00167082 87.6732 9.48649e-07H4.15294C3.6077 -0.00036888 3.06773 0.107397 2.56389 0.317168C2.06005 0.526938 1.60221 0.834589 1.21654 1.22254C0.830864 1.61048 0.524918 2.07113 0.316179 2.57814C0.107439 3.08516 -1.23791e-07 3.6286 0 4.17743V115.823C-1.23791e-07 116.371 0.107439 116.915 0.316179 117.422C0.524918 117.929 0.830864 118.389 1.21654 118.777C1.60221 119.165 2.06005 119.473 2.56389 119.683C3.06773 119.893 3.6077 120 4.15294 120H87.6592C88.5215 119.998 89.3618 119.726 90.0634 119.222C90.7651 118.717 91.2932 118.005 91.5744 117.185C92.1535 115.509 93.2365 114.057 94.673 113.029C96.1095 112.001 97.8284 111.449 99.5909 111.449C101.353 111.449 103.072 112.001 104.509 113.029C105.945 114.057 107.028 115.509 107.607 117.185C107.889 118.005 108.417 118.717 109.118 119.222C109.82 119.726 110.66 119.998 111.523 120H258.85C259.395 120 259.935 119.893 260.438 119.683C260.942 119.473 261.4 119.165 261.785 118.777C262.171 118.389 262.476 117.929 262.685 117.422C262.893 116.915 263 116.371 263 115.823V4.17743C263.001 3.4326 262.805 2.7009 262.432 2.05801C262.058 1.41513 261.52 0.884404 260.875 0.520766ZM100.303 106.049C100.304 106.19 100.263 106.329 100.186 106.447C100.108 106.565 99.9976 106.658 99.8677 106.712C99.7377 106.766 99.5947 106.78 99.4569 106.751C99.3191 106.723 99.1929 106.654 99.0945 106.553C98.9639 106.418 98.8906 106.237 98.8903 106.049V97.7841C98.8896 97.6429 98.9307 97.5048 99.0082 97.3871C99.0857 97.2694 99.1963 97.1776 99.3257 97.1233C99.4552 97.069 99.5978 97.0547 99.7354 97.0821C99.873 97.1095 99.9993 97.1775 100.098 97.2774C100.23 97.4129 100.303 97.5948 100.303 97.7841V106.049ZM100.303 91.8895C100.303 92.0307 100.262 92.1689 100.185 92.2866C100.107 92.4042 99.9967 92.4961 99.8672 92.5504C99.7377 92.6047 99.5951 92.619 99.4576 92.5916C99.32 92.5641 99.1936 92.4961 99.0945 92.3962C98.9637 92.2604 98.8905 92.0787 98.8903 91.8895V83.6247C98.8896 83.4836 98.9307 83.3454 99.0082 83.2277C99.0857 83.1101 99.1963 83.0182 99.3257 82.9639C99.4552 82.9096 99.5978 82.8953 99.7354 82.9227C99.873 82.9502 99.9993 83.0182 100.098 83.118C100.23 83.2536 100.303 83.4355 100.303 83.6247V91.8895ZM100.303 77.7302C100.309 77.8273 100.295 77.9246 100.262 78.0161C100.229 78.1077 100.178 78.1915 100.112 78.2625C100.046 78.3334 99.9662 78.3899 99.8775 78.4285C99.7888 78.4672 99.6931 78.4871 99.5965 78.4871C99.4998 78.4871 99.4042 78.4672 99.3155 78.4285C99.2268 78.3899 99.1468 78.3334 99.0807 78.2625C99.0145 78.1915 98.9635 78.1077 98.9307 78.0161C98.898 77.9246 98.8842 77.8273 98.8903 77.7302V69.4541C98.891 69.3135 98.9328 69.1763 99.0105 69.0595C99.0883 68.9427 99.1985 68.8515 99.3274 68.7975C99.4564 68.7434 99.5983 68.7288 99.7354 68.7554C99.8725 68.7821 99.9988 68.8489 100.098 68.9474C100.23 69.0829 100.303 69.2648 100.303 69.4541V77.7302ZM100.303 63.5736C100.309 63.6707 100.295 63.768 100.262 63.8596C100.229 63.9511 100.178 64.035 100.112 64.1059C100.046 64.1768 99.9662 64.2333 99.8775 64.272C99.7888 64.3106 99.6931 64.3306 99.5965 64.3306C99.4998 64.3306 99.4042 64.3106 99.3155 64.272C99.2268 64.2333 99.1468 64.1768 99.0807 64.1059C99.0145 64.035 98.9635 63.9511 98.9307 63.8596C98.898 63.768 98.8842 63.6707 98.8903 63.5736V55.3032C98.8915 55.1628 98.9337 55.026 99.0117 54.9096C99.0896 54.7932 99.1999 54.7025 99.3287 54.6488C99.4575 54.5951 99.5992 54.5807 99.7361 54.6075C99.873 54.6342 99.999 54.7009 100.098 54.7993C100.229 54.9341 100.302 55.1149 100.303 55.3032V63.5736ZM100.303 49.4142C100.303 49.5076 100.285 49.6002 100.25 49.6866C100.215 49.7729 100.163 49.8515 100.097 49.9177C100.032 49.9838 99.9539 50.0363 99.8682 50.0722C99.7825 50.108 99.6906 50.1264 99.5979 50.1264C99.4098 50.1269 99.2291 50.0531 99.0945 49.9209C98.9642 49.7848 98.8911 49.6033 98.8903 49.4142V41.1494C98.8896 41.0083 98.9307 40.8701 99.0082 40.7524C99.0857 40.6347 99.1963 40.5429 99.3257 40.4886C99.4552 40.4343 99.5978 40.42 99.7354 40.4474C99.873 40.4749 99.9993 40.5429 100.098 40.6427C100.23 40.7781 100.303 40.9601 100.303 41.1494V49.4142ZM100.303 35.2549C100.304 35.3964 100.263 35.5352 100.186 35.6533C100.108 35.7714 99.9976 35.8635 99.8677 35.9177C99.7377 35.9719 99.5947 35.9857 99.4569 35.9574C99.3191 35.929 99.1929 35.8599 99.0945 35.7587C98.9639 35.6239 98.8906 35.4432 98.8903 35.2549V26.9901C98.8896 26.8489 98.9307 26.7107 99.0082 26.593C99.0857 26.4754 99.1963 26.3836 99.3257 26.3293C99.4552 26.275 99.5978 26.2606 99.7354 26.2881C99.873 26.3155 99.9993 26.3835 100.098 26.4834C100.23 26.6189 100.303 26.8008 100.303 26.9901V35.2549ZM100.303 21.0955C100.303 21.189 100.285 21.2817 100.25 21.3682C100.215 21.4548 100.163 21.5335 100.097 21.5999C100.032 21.6663 99.9541 21.7191 99.8684 21.7552C99.7827 21.7913 99.6908 21.8101 99.5979 21.8105C99.5045 21.8113 99.4119 21.7933 99.3256 21.7576C99.2392 21.7219 99.1608 21.6692 99.0949 21.6026C99.029 21.536 98.977 21.4569 98.9418 21.3698C98.9067 21.2827 98.8892 21.1895 98.8903 21.0955V12.8307C98.8842 12.7336 98.898 12.6363 98.9307 12.5447C98.9635 12.4532 99.0145 12.3694 99.0807 12.2984C99.1468 12.2275 99.2268 12.171 99.3155 12.1323C99.4042 12.0937 99.4998 12.0737 99.5965 12.0737C99.6931 12.0737 99.7888 12.0937 99.8775 12.1323C99.9662 12.171 100.046 12.2275 100.112 12.2984C100.178 12.3694 100.229 12.4532 100.262 12.5447C100.295 12.6363 100.309 12.7336 100.303 12.8307V21.0955Z" fill="url(#paint0_linear_1489_21808)"/>
<path d="M67.6311 10.8125H20.3984V11.8936H67.6311V10.8125Z" fill="white"/>
<path d="M67.6311 12.9727H20.3984V14.0537H67.6311V12.9727Z" fill="white"/>
<path d="M67.6311 15.1367H20.3984V18.38H67.6311V15.1367Z" fill="white"/>
<path d="M67.6311 18.3828H20.3984V19.4639H67.6311V18.3828Z" fill="white"/>
<path d="M67.6311 21.625H20.3984V22.7061H67.6311V21.625Z" fill="white"/>
<path d="M67.6311 23.7852H20.3984V25.9473H67.6311V23.7852Z" fill="white"/>
<path d="M67.6311 29.1914H20.3984V31.3536H67.6311V29.1914Z" fill="white"/>
<path d="M67.6311 32.4336H20.3984V33.5147H67.6311V32.4336Z" fill="white"/>
<path d="M67.6311 38.9219H20.3984V40.003H67.6311V38.9219Z" fill="white"/>
<path d="M67.6311 41.082H20.3984V43.2442H67.6311V41.082Z" fill="white"/>
<path d="M67.6311 44.3242H20.3984V45.4053H67.6311V44.3242Z" fill="white"/>
<path d="M67.6311 46.4844H20.3984V47.5655H67.6311V46.4844Z" fill="white"/>
<path d="M67.6311 47.5625H20.3984V48.6436H67.6311V47.5625Z" fill="white"/>
<path d="M67.6311 49.7305H20.3984V50.8115H67.6311V49.7305Z" fill="white"/>
<path d="M67.6311 51.8945H20.3984V54.0567H67.6311V51.8945Z" fill="white"/>
<path d="M67.6311 58.3789H20.3984V59.46H67.6311V58.3789Z" fill="white"/>
<path d="M67.6311 63.7812H20.3984V64.8623H67.6311V63.7812Z" fill="white"/>
<path d="M67.6311 67.0273H20.3984V68.1084H67.6311V67.0273Z" fill="white"/>
<path d="M67.6311 69.1875H20.3984V70.2686H67.6311V69.1875Z" fill="white"/>
<path d="M67.6311 72.4375H20.3984V73.5186H67.6311V72.4375Z" fill="white"/>
<path d="M67.6311 75.6758H20.3984V76.7569H67.6311V75.6758Z" fill="white"/>
<path d="M67.6311 77.8398H20.3984V78.9209H67.6311V77.8398Z" fill="white"/>
<path d="M67.6311 78.918H20.3984V79.999H67.6311V78.918Z" fill="white"/>
<path d="M67.6311 83.2422H20.3984V85.4043H67.6311V83.2422Z" fill="white"/>
<path d="M67.6311 88.6445H20.3984V90.8067H67.6311V88.6445Z" fill="white"/>
<path d="M67.6311 91.8945H20.3984V94.0567H67.6311V91.8945Z" fill="white"/>
<path d="M67.6311 95.1367H20.3984V96.2178H67.6311V95.1367Z" fill="white"/>
<path d="M67.6311 98.375H20.3984V99.4561H67.6311V98.375Z" fill="white"/>
<path d="M67.6311 100.543H20.3984V102.705H67.6311V100.543Z" fill="white"/>
<path d="M67.6311 105.945H20.3984V107.026H67.6311V105.945Z" fill="white"/>
<path d="M67.6311 108.109H20.3984V110.272H67.6311V108.109Z" fill="white"/>
<path d="M133.15 46.195C130.948 44.5313 126.994 43.1823 126.478 46.195C126.185 47.8811 125.961 51.3209 126.006 54.8281C126.096 63.4164 126.23 64.4281 127.017 65.0351C127.219 65.1925 127.444 65.3049 127.691 65.3948C131.689 66.7213 135.554 60.4487 136.744 57.8183C138.496 53.9738 136.901 49.0277 133.15 46.195Z" fill="white"/>
<path d="M150.829 43.8318C147.684 40.6843 144 40.8192 138.765 40.7517C135.328 40.7517 130.655 40.7292 128.296 40.7742C126.162 40.7517 126.297 41.1339 127.959 41.7859C128.207 41.8758 128.454 41.9882 128.678 42.1006C130.431 42.955 132.363 44.1016 133.98 45.3831C136.496 47.2941 138.788 50.0819 141.281 51.4758C143.64 52.8247 146.965 53.4992 149.436 52.5774C153.188 51.3633 153.435 46.3273 150.829 43.8318Z" fill="white"/>
<path d="M144.803 54.8036C141.186 55.9951 137.636 58.4457 135.861 61.7056C133.233 66.944 142.511 66.1346 145.746 65.6175C149.7 64.988 152.98 63.1445 153.946 59.5473C155.137 54.1516 149.61 53.0275 144.803 54.8036Z" fill="white"/>
<path d="M178.381 52.4214C181.572 49.8809 180.246 43.6758 174.517 43.6758H160.477V61.0995C160.477 61.9763 161.173 62.6958 162.027 62.6958H175.304C182.335 62.7183 183.796 54.4897 178.381 52.4214ZM163.757 46.9132H174.495C177.326 46.9132 177.101 51.4771 174.517 51.4771H163.757V46.9132ZM175.304 59.4808H163.757V54.3324H175.169C179.235 54.3549 178.988 59.4808 175.304 59.4808Z" fill="white"/>
<path d="M183.172 45.2945V62.7857H184.902C185.755 62.7857 186.452 62.0663 186.452 61.1895V43.6758H184.722C183.868 43.6983 183.172 44.3952 183.172 45.2945Z" fill="white"/>
<path d="M205.572 58.7108V47.5147L203.73 47.5372C202.921 47.5372 202.269 48.1891 202.269 48.9985V57.5642C202.269 57.7666 202.202 57.9464 202.09 58.1038C201.348 59.138 200 59.9249 197.844 59.9249C194.766 59.9249 191.913 58.8907 191.913 55.8781V47.4922H190.093C189.284 47.4922 188.633 48.1442 188.633 48.9535V55.8781C188.633 61.2288 192.924 63.0499 197.664 63.0499C201.438 63.0499 203.73 61.1164 204.291 60.5993C204.92 60.0373 205.594 59.4977 205.572 58.7108Z" fill="white"/>
<path d="M239.737 47.5147V55.9006C239.737 58.9132 236.861 59.9474 233.806 59.9474C231.65 59.9474 230.324 59.1605 229.56 58.1263C229.448 57.9689 229.381 57.7891 229.381 57.5867V49.021C229.381 48.2116 228.729 47.5596 227.92 47.5596L226.078 47.4922V58.6883C226.078 59.4752 226.73 60.0373 227.336 60.5993C227.898 61.1164 230.189 63.0499 233.963 63.0499C238.704 63.0499 242.995 61.2288 242.995 55.8781V48.9535C242.995 48.1442 242.343 47.4922 241.534 47.4922L239.737 47.5147Z" fill="white"/>
<path d="M224.355 58.7108V47.4922L222.513 47.5147C221.704 47.5147 221.053 48.1667 221.053 48.976V57.4968C221.053 57.7216 220.985 57.924 220.828 58.1038C220.176 58.8682 218.851 59.9249 215.796 59.9249C213.212 59.9249 211.527 58.9132 210.808 58.1263C210.651 57.9689 210.584 57.7441 210.584 57.5193V48.976C210.584 48.1667 209.932 47.5147 209.123 47.5147L207.281 47.4922V58.6883C207.281 59.2729 207.843 60.1272 208.494 60.5769C210.359 61.8808 212.044 62.7801 214.493 62.96C215.369 63.0499 215.751 63.0274 216.717 62.9825C216.717 62.9825 220.76 62.8251 223.074 60.5769C223.726 60.0373 224.355 59.2729 224.355 58.7108Z" fill="white"/>
<path d="M144.102 83.4922V76.3822H148.792V77.4822H145.242V79.5322H148.442V80.6122H145.242V83.4922H144.102Z" fill="white"/>
<path d="M149.856 83.4922V76.3822H150.996V82.3822H154.646V83.4922H149.856Z" fill="white"/>
<path d="M155.63 83.4922V76.3822H160.54V77.4722H156.77V79.3722H160.22V80.4422H156.77V82.3822H160.58V83.4922H155.63Z" fill="white"/>
<path d="M161.105 83.4922L163.645 79.8522L161.235 76.3822H162.625L164.415 79.0322L166.175 76.3822H167.575L165.175 79.8522L167.735 83.4922H166.335L164.415 80.7122L162.505 83.4922H161.105Z" fill="white"/>
<path d="M168.457 83.4922V76.3822H169.597V83.4922H168.457Z" fill="white"/>
<path d="M171.018 83.4922V76.3822H174.608C175.668 76.3822 176.368 77.0922 176.368 78.1022V78.3322C176.368 79.0022 176.108 79.5022 175.648 79.7822C176.218 80.0722 176.548 80.6322 176.548 81.4122V81.6922C176.548 82.7622 175.798 83.4922 174.658 83.4922H171.018ZM174.558 82.3922C175.028 82.3922 175.418 82.0822 175.418 81.5422V81.2922C175.418 80.7522 175.028 80.4322 174.558 80.4322H172.148V82.3922H174.558ZM174.388 79.3622C174.848 79.3622 175.238 79.0522 175.238 78.5222V78.3022C175.238 77.7722 174.848 77.4722 174.388 77.4722H172.148V79.3622H174.388Z" fill="white"/>
<path d="M177.69 83.4922V76.3822H178.83V82.3822H182.48V83.4922H177.69Z" fill="white"/>
<path d="M183.464 83.4922V76.3822H188.374V77.4722H184.604V79.3722H188.054V80.4422H184.604V82.3822H188.414V83.4922H183.464Z" fill="white"/>
<path d="M193.685 83.4922V77.4822H191.395V76.3822H197.125V77.4822H194.825V83.4922H193.685Z" fill="white"/>
<path d="M197.992 83.4922V76.3822H199.132V83.4922H197.992Z" fill="white"/>
<path d="M202.993 83.6322C201.493 83.6322 200.373 82.5122 200.373 81.0122V78.8622C200.373 77.3622 201.493 76.2422 202.993 76.2422H203.663C205.293 76.2422 206.283 77.4522 206.283 78.8622H205.143C205.133 77.9422 204.533 77.3622 203.613 77.3622H203.063C202.123 77.3622 201.533 77.9522 201.533 78.9022V80.9522C201.533 81.9022 202.123 82.5022 203.063 82.5022H203.613C204.553 82.5022 205.143 81.9122 205.143 80.9822H206.293C206.293 82.4622 205.263 83.6322 203.663 83.6322H202.993Z" fill="white"/>
<path d="M207.43 83.4922V76.3822H208.57V79.8622L209.97 78.3022L211.71 76.3822H213.18L210.39 79.4522L213.44 83.4922H212.02L209.6 80.2522L208.57 81.3722V83.4922H207.43Z" fill="white"/>
<path d="M214.103 83.4922V76.3822H219.013V77.4722H215.243V79.3722H218.693V80.4422H215.243V82.3822H219.053V83.4922H214.103Z" fill="white"/>
<path d="M222.105 83.4922V77.4822H219.815V76.3822H225.545V77.4822H223.245V83.4922H222.105Z" fill="white"/>
<defs>
<linearGradient id="paint0_linear_1489_21808" x1="131.5" y1="0" x2="131.5" y2="120" gradientUnits="userSpaceOnUse">
<stop stop-color="#045CFF"/>
<stop offset="1" stop-color="#0335DA"/>
</linearGradient>
</defs>
</svg>
