<svg width="512" height="512" viewBox="0 0 512 512" fill="none" xmlns="http://www.w3.org/2000/svg">
<path d="M98.1754 39.5717C72.6327 42.2868 48.6989 59.2818 37.9388 82.3105C32.0056 95.1825 31 99.9089 31 115.999C31 128.468 31.3017 131.686 33.3129 138.122C40.2517 159.944 49.0006 168.291 65.2916 168.291C79.1692 168.291 79.3703 168.09 119.193 128.267C149.563 97.8976 154.49 92.5678 156.904 87.3386C162.434 75.2712 159.719 60.6897 150.468 52.5442C139.909 43.2925 117.081 37.661 98.1754 39.5717Z" fill="#DFDFDF"/>
<path d="M394.932 39.6717C385.681 40.7779 373.211 44.6998 366.373 48.8229C356.216 54.9571 350.283 66.4212 351.791 77.0808C353.199 88.1426 354.004 89.1482 393.323 128.267C428.42 163.262 430.531 165.173 435.66 166.681C444.711 169.296 452.454 168.793 459.795 165.173C469.449 160.346 475.08 151.396 479.203 134.2C482.12 121.831 481.416 103.83 477.594 92.3662C473.974 81.7066 469.851 74.265 463.415 66.5218C447.426 47.1133 420.877 36.6549 394.932 39.6717Z" fill="#DFDFDF"/>
<path d="M230.816 41.5835C225.989 44.6004 223.575 49.1257 223.575 55.6622C223.575 64.4111 229.609 71.7521 236.95 71.7521H239.665V79.6965C239.665 88.2443 239.263 88.8477 233.933 88.8477C228.905 88.8477 210.804 93.0713 199.239 96.8926C95.9623 131.285 48.2959 251.255 99.482 348.096C108.935 366.198 121.404 382.388 135.483 395.059C139.707 398.88 143.126 402.4 143.126 402.802C143.126 403.204 135.885 414.467 127.036 427.741C111.449 451.273 110.946 452.077 110.946 457.206C110.946 467.665 116.98 474 126.935 474C130.757 474 133.572 473.397 135.785 471.989C137.997 470.681 144.232 462.234 155.193 445.843C164.043 432.568 171.484 421.708 171.685 421.708C171.887 421.708 175.909 423.518 180.635 425.73C192.502 431.161 207.988 436.189 221.061 438.904C236.548 441.921 264.906 442.725 280.896 440.412C299.299 437.697 319.411 431.563 334.395 424.121C337.009 422.814 339.423 421.708 339.724 421.708C339.926 421.708 347.468 432.568 356.317 445.843C367.278 462.234 373.513 470.681 375.726 471.989C377.938 473.397 380.754 474 384.575 474C394.531 474 400.564 467.665 400.564 457.206C400.564 452.077 400.062 451.273 384.072 427.239L367.681 402.5L380.352 389.729C394.531 375.449 403.883 362.98 412.029 347.191C427.213 318.129 433.549 290.676 432.443 258.295C431.839 240.797 430.23 229.936 425.806 214.852C409.514 158.336 366.474 113.686 310.964 95.4847C299.701 91.8645 281.197 87.842 275.264 87.842H271.845V79.7971V71.7521H274.661C281.901 71.7521 287.935 64.4111 287.935 55.6622C287.935 49.1257 285.522 44.6004 280.695 41.5835C277.678 39.7734 275.566 39.5723 255.755 39.5723C235.945 39.5723 233.833 39.7734 230.816 41.5835ZM263.8 171.61C265.711 172.817 268.124 175.432 269.231 177.342C271.242 180.661 271.342 182.873 271.845 217.466L272.348 254.071L292.36 260.809C314.182 268.15 316.897 269.859 319.009 277.401C321.422 286.351 313.981 296.005 304.528 296.005C299.5 296.005 249.822 279.614 246.202 276.697C240.068 271.87 240.168 272.474 240.168 224.606C240.168 182.27 240.269 180.761 242.28 177.342C245.297 172.214 250.124 169.297 255.755 169.297C258.973 169.297 261.588 170.001 263.8 171.61Z" fill="#DFDFDF"/>
</svg>
