<svg width="16" height="9" viewBox="0 0 16 9" fill="none" xmlns="http://www.w3.org/2000/svg">
<path d="M1.75 9C0.783502 9 -3.42479e-08 8.2165 -7.64949e-08 7.25C-1.18742e-07 6.2835 0.783502 5.5 1.75 5.5C2.7165 5.5 3.5 6.2835 3.5 7.25C3.5 8.2165 2.7165 9 1.75 9Z" fill="#F9F9F9"/>
<path d="M1.75 3.5C0.783502 3.5 -2.74661e-07 2.7165 -3.16908e-07 1.75C-3.59155e-07 0.783503 0.783501 9.19426e-07 1.75 8.77179e-07C2.7165 8.34932e-07 3.5 0.783502 3.5 1.75C3.5 2.7165 2.7165 3.5 1.75 3.5Z" fill="#F9F9F9"/>
<path d="M14.25 9C13.2835 9 12.5 8.2165 12.5 7.25C12.5 6.2835 13.2835 5.5 14.25 5.5C15.2165 5.5 16 6.2835 16 7.25C16 8.2165 15.2165 9 14.25 9Z" fill="#F9F9F9"/>
<path d="M14.25 3.5C13.2835 3.5 12.5 2.7165 12.5 1.75C12.5 0.783502 13.2835 3.73034e-07 14.25 3.30787e-07C15.2165 2.8854e-07 16 0.783502 16 1.75C16 2.7165 15.2165 3.5 14.25 3.5Z" fill="#F9F9F9"/>
<path d="M7.9 9C6.9335 9 6.15 8.2165 6.15 7.25C6.15 6.2835 6.9335 5.5 7.9 5.5L8 5.5C8.9665 5.5 9.75 6.2835 9.75 7.25C9.75 8.2165 8.9665 9 8 9L7.9 9Z" fill="#F9F9F9"/>
<path d="M7.9 3.5C6.9335 3.5 6.15 2.7165 6.15 1.75C6.15 0.783502 6.9335 6.50601e-07 7.9 6.08354e-07L8 6.03983e-07C8.9665 5.61736e-07 9.75 0.783502 9.75 1.75C9.75 2.7165 8.9665 3.5 8 3.5L7.9 3.5Z" fill="#F9F9F9"/>
</svg>
