<svg width="174" height="36" viewBox="0 0 174 36" fill="none" xmlns="http://www.w3.org/2000/svg">
<path fill-rule="evenodd" clip-rule="evenodd" d="M29.3149 19.9717C29.186 16.9718 28.4361 16.0094 27.525 15.9975C28.0793 18.5562 28.0693 21.2074 27.4957 23.7617C28.521 23.8329 29.1889 22.5914 29.3149 19.9687V19.9717ZM34.6671 5.86913C34.9304 5.86855 35.1879 5.94721 35.4071 6.09515C35.6262 6.2431 35.7972 6.45367 35.8982 6.70019C35.9992 6.94672 36.0258 7.2181 35.9746 7.47995C35.9234 7.74181 35.7966 7.98235 35.6105 8.17112C35.4243 8.35989 35.187 8.48838 34.9288 8.54031C34.6705 8.59225 34.4028 8.56529 34.1597 8.46286C33.9165 8.36043 33.7089 8.18713 33.5629 7.96492C33.417 7.74271 33.3394 7.48159 33.34 7.21464C33.34 6.85779 33.4798 6.51555 33.7287 6.26322C33.9776 6.01089 34.3151 5.86913 34.6671 5.86913ZM31.9309 2.05219e-06C32.3501 -0.000585343 32.76 0.124936 33.1087 0.360676C33.4575 0.596416 33.7294 0.931774 33.8901 1.32429C34.0508 1.71681 34.093 2.14884 34.0113 2.56568C33.9297 2.98252 33.7279 3.36544 33.4315 3.66594C33.1351 3.96645 32.7575 4.17104 32.3464 4.2538C31.9352 4.33657 31.5091 4.29379 31.122 4.13089C30.7348 3.96798 30.4041 3.69228 30.1716 3.33867C29.9391 2.98507 29.8153 2.56947 29.8158 2.14449C29.8158 1.57574 30.0387 1.03028 30.4353 0.628109C30.832 0.225939 31.37 2.05219e-06 31.9309 2.05219e-06ZM18.4904 26.8269C19.0868 26.8269 19.6697 27.0062 20.1655 27.3422C20.6613 27.6782 21.0476 28.1557 21.2757 28.7143C21.5038 29.273 21.5633 29.8877 21.4468 30.4806C21.3302 31.0736 21.0428 31.6182 20.6209 32.0455C20.1991 32.4728 19.6617 32.7636 19.0767 32.8812C18.4918 32.9988 17.8856 32.9379 17.3348 32.7061C16.7841 32.4743 16.3135 32.0821 15.9826 31.5791C15.6517 31.0761 15.4754 30.4849 15.476 29.8803C15.4768 29.0707 15.7943 28.2945 16.3589 27.7221C16.9235 27.1497 17.6891 26.8277 18.4875 26.8269H18.4904ZM2.8294 20.7588C3.06412 20.4716 3.38006 20.2642 3.73461 20.1647V20.0638C3.747 19.0158 3.84499 17.9707 4.02756 16.9391C4.12275 15.9254 4.53308 14.9685 5.19935 14.2065L5.33997 14.058L4.92105 13.9214C4.33515 -4.70184 33.1174 -2.2633 32.6897 14.0402C32.6897 14.2332 32.6897 14.4204 32.6575 14.5986C33.1107 15.3059 33.3519 16.1313 33.3517 16.9747C33.5505 17.9923 33.6545 19.0265 33.6623 20.0638C33.6669 21.0622 33.5638 22.0582 33.3547 23.034C33.3254 24.5191 32.8537 25.5646 32.01 26.2745C31.6019 26.6162 31.1234 26.8609 30.6097 26.9903C30.0765 28.7 29.1941 30.2768 28.0201 31.6179C26.8264 32.9796 25.3644 34.0724 23.7284 34.8257C22.154 35.56 20.4431 35.9448 18.7102 35.9544C17.0331 35.9641 15.3782 35.5648 13.8853 34.79C12.6316 35.4636 11.2538 35.866 9.83883 35.9718C8.4239 36.0777 7.0027 35.8846 5.66514 35.4049C4.26704 34.9094 3.01052 34.073 2.00621 32.9693C0.975563 31.8252 0.306258 30.3946 0.084466 28.8615C-0.270002 26.4348 0.46237 23.6369 2.8294 20.7588ZM5.43371 20.5925C5.4527 20.6291 5.46262 20.6699 5.46262 20.7113C5.46262 20.7527 5.4527 20.7934 5.43371 20.8301C5.46145 21.4739 5.52601 22.1155 5.62706 22.7518C5.64861 22.7858 5.6631 22.8238 5.66965 22.8637C5.67619 22.9035 5.67466 22.9443 5.66514 22.9835L5.69444 23.1379C5.90536 24.6854 6.74905 25.3656 8.00581 25.4814H12.7223C15.7543 25.3091 16.1322 23.6191 17.4446 22.9062C17.8785 22.6833 18.3607 22.5743 18.847 22.5894C19.3332 22.6044 19.8079 22.743 20.2276 22.9924C21.417 23.7646 21.8096 25.3982 24.5691 25.3982H28.8228C30.6127 25.5913 31.6702 24.8814 31.6497 22.8439C32.0586 20.9686 32.0586 19.0253 31.6497 17.15C31.6497 15.3263 30.5746 14.6105 28.9458 14.4768H7.97358C6.73441 14.8273 5.89071 15.6233 5.70323 17.15C5.49631 18.2849 5.40599 19.4386 5.43371 20.5925ZM4.4289 24.8428C3.73168 26.1378 3.5149 27.3259 3.66723 28.3298C3.78669 29.1402 4.14162 29.8961 4.68669 30.5011C5.28873 31.1613 6.04106 31.662 6.87795 31.9594C8.05532 32.3805 9.32684 32.4516 10.5427 32.1644C9.24205 30.8902 8.26946 29.7437 7.58689 28.4546C7.34322 27.9975 7.13744 27.5206 6.97169 27.0289C6.4121 26.8839 5.89237 26.6117 5.45183 26.233C5.01129 25.8542 4.66149 25.3789 4.4289 24.8428ZM18.4904 25.1577C19.4125 25.1571 20.314 25.4338 21.081 25.9528C21.8479 26.4719 22.4457 27.2099 22.7988 28.0735C23.152 28.9371 23.2445 29.8875 23.0648 30.8045C22.885 31.7214 22.4411 32.5637 21.7891 33.2248C21.1371 33.8858 20.3063 34.336 19.4019 34.5182C18.4976 34.7004 17.5602 34.6066 16.7084 34.2486C15.8566 33.8905 15.1287 33.2844 14.6168 32.5068C14.1049 31.7292 13.832 30.8152 13.8326 29.8803C13.8326 28.6278 14.3233 27.4266 15.1968 26.5409C16.0703 25.6552 17.2551 25.1577 18.4904 25.1577Z" fill="#F9F9F9"/>
<path d="M157.995 36C162.135 36 162.787 33.0365 165.198 33.0365C167.655 33.0365 168.049 36 172.78 36H172.856C173.448 36 173.933 35.5328 173.933 34.9634C173.933 34.3941 173.448 33.9415 172.856 33.9415H172.78C171.158 33.9415 170.233 33.2847 169.095 32.5109C168.11 31.8248 166.881 30.978 165.198 30.978C163.454 30.978 162.211 31.8686 161.225 32.5839C160.179 33.3431 159.36 33.9415 157.995 33.9415C156.63 33.9415 155.811 33.3431 154.765 32.5839C153.779 31.8686 152.535 30.978 150.792 30.978C149.108 30.978 147.88 31.8248 146.894 32.5109C145.757 33.2847 144.847 33.9415 143.209 33.9415H143.133C142.542 33.9415 142.057 34.3941 142.057 34.9634C142.057 35.5328 142.542 36 143.133 36H143.209C147.941 36 148.335 33.0365 150.792 33.0365C153.203 33.0365 153.855 36 157.995 36ZM157.995 32.2335C158.692 32.2335 159.041 32.0438 160.163 31.2116C161.149 30.5109 162.878 29.27 165.198 29.27C166.563 29.27 167.685 29.635 168.989 30.3942L173.311 23.0219C174.6 20.8467 174.069 19.2555 171.81 18.2628L160.785 13.3868C160.148 13.1095 159.254 12.6424 157.995 12.6424C156.751 12.6424 155.857 13.1095 155.205 13.3868L144.18 18.2628C141.935 19.2555 141.405 20.8467 142.678 23.0219L147 30.3942C148.305 29.635 149.427 29.27 150.792 29.27C153.112 29.27 154.841 30.5109 155.826 31.2116C156.948 32.0438 157.297 32.2335 157.995 32.2335ZM157.995 10.6569C159.36 10.6569 160.239 10.9489 161.649 11.5766L169.596 15.0949L168.292 5.78102C168.064 4.18977 167.033 3.06569 165.395 3.06569H150.625C148.987 3.06569 148.001 4.18977 147.728 6.07299L146.424 15.0803L154.34 11.5766C155.75 10.9489 156.63 10.6569 157.995 10.6569ZM151.307 9.10948C150.943 9.10948 150.701 8.8613 150.701 8.51094V6.17517C150.701 5.82481 150.943 5.57663 151.307 5.57663H156.008C156.463 5.57663 156.766 5.82481 156.766 6.17517V8.51094C156.766 8.8613 156.463 9.10948 156.008 9.10948H151.307ZM159.83 9.10948C159.481 9.10948 159.238 8.8613 159.238 8.51094V6.17517C159.238 5.82481 159.481 5.57663 159.83 5.57663H164.546C165.001 5.57663 165.304 5.82481 165.304 6.17517V8.51094C165.304 8.8613 165.001 9.10948 164.546 9.10948H159.83ZM151.701 3.50364H164.303V2.26277C164.303 0.846715 163.439 0 161.968 0H154.037C152.566 0 151.701 0.846715 151.701 2.26277V3.50364Z" fill="#F9F9F9"/>
<path fill-rule="evenodd" clip-rule="evenodd" d="M107.691 5.58977L111.068 1.98729C106.37 -1.69265 95.9478 0.248035 91.4554 3.67232C89.2505 2.99444 87.0792 2.93633 84.848 3.03705C79.4872 3.27721 83.9795 7.85584 85.6941 9.66482C84.2603 12.0665 82.95 14.5495 81.7034 17.0789C80.7525 19.7634 78.7534 20.7899 75.8858 20.4451L72.7188 19.7944C71.0416 19.4496 65.0893 17.6755 66.1188 21.2663C67.1483 23.5905 69.679 25.6242 72.3556 27.6268C72.5877 29.2111 72.9621 30.8381 73.4001 32.4805C74.6542 37.1714 76.5934 37.0862 77.9111 32.7439L79.7268 26.7669C80.2883 24.6325 81.4563 23.6719 82.9725 23.5363C87.6033 23.1257 91.4367 24.8262 97.6548 22.8197C97.9356 24.4969 98.3923 26.1394 98.9838 27.7508C99.6352 28.9322 100.564 29.0484 101.9 27.592C103.237 25.26 104.09 22.6337 104.532 19.7479C109.163 14.7819 112.423 7.82097 111.955 3.72268L107.691 5.58977ZM103.914 2.16548C102.963 1.90207 101.982 2.48699 101.728 3.47089C101.473 4.45479 102.039 5.46968 102.989 5.73309C103.94 5.9965 104.917 5.41158 105.176 4.42768C105.43 3.4399 104.865 2.42889 103.914 2.16548Z" fill="#F9F9F9"/>
</svg>
