<svg width="24" height="24" viewBox="0 0 24 24" fill="none" xmlns="http://www.w3.org/2000/svg">
<path fill-rule="evenodd" clip-rule="evenodd" d="M23.4592 7.96917C23.3107 7.31241 22.8928 7.01587 22.2638 7.00132H10.0209C9.17909 7.00132 7.763 6.95038 7.08522 7.48161C5.93281 8.24752 5.03628 9.60469 4.06357 10.4889C3.27251 10.5835 1.44233 10.8363 1.02043 11.1856C0.534073 11.5895 0.539932 12.8903 0.545792 13.4415C-0.358556 13.4251 0.00669896 15.4645 0.592669 15.581H1.85251C1.04387 11.0965 7.90753 11.6532 6.87232 15.581H15.9861C14.9255 11.8206 21.6876 10.9437 21.0372 15.6283C21.5411 15.581 21.7989 15.5337 22.3029 15.4864C23.2697 15.3954 23.967 15.4263 23.967 14.2475C24.0569 11.9115 23.9866 9.72658 23.4592 7.96917ZM18.5566 14.1619C19.1113 14.1619 19.5605 14.5804 19.5605 15.097C19.5605 15.6137 19.1113 16.0322 18.5566 16.0322C18.0019 16.0322 17.5526 15.6137 17.5526 15.097C17.5526 14.5822 18.0019 14.1619 18.5566 14.1619ZM9.31191 7.81271H8.05403C7.22 7.81271 6.10665 8.9352 5.47576 10.0413C5.4113 10.1541 4.90932 10.9273 5.24528 10.9273H9.30996V10.809V7.93096V7.81271H9.31191ZM4.31944 14.1619C4.87416 14.1619 5.32341 14.5804 5.32341 15.097C5.32341 15.6137 4.87416 16.0322 4.31944 16.0322C3.76472 16.0322 3.31548 15.6137 3.31548 15.097C3.31548 14.5822 3.76472 14.1619 4.31944 14.1619ZM4.31944 13.1941C5.44841 13.1941 6.36253 14.0455 6.36253 15.097C6.36253 16.1486 5.44841 17 4.31944 17C3.19047 17 2.27636 16.1486 2.27636 15.097C2.27636 14.0473 3.19243 13.1941 4.31944 13.1941ZM18.5566 13.1941C19.6855 13.1941 20.5997 14.0455 20.5997 15.097C20.5997 16.1486 19.6855 17 18.5566 17C17.4276 17 16.5135 16.1486 16.5135 15.097C16.5135 14.0473 17.4276 13.1941 18.5566 13.1941Z" fill="#1E1E1E"/>
</svg>
