<svg width="40" height="40" viewBox="0 0 40 40" fill="none" xmlns="http://www.w3.org/2000/svg">
<rect width="40" height="40" rx="8" fill="#FF7F24"/>
<path d="M28.75 20.6245V25.6245C28.75 25.956 28.6183 26.274 28.3839 26.5084C28.1495 26.7428 27.8315 26.8745 27.5 26.8745H12.5C12.1685 26.8745 11.8505 26.7428 11.6161 26.5084C11.3817 26.274 11.25 25.956 11.25 25.6245V20.6245C11.25 20.293 11.3817 19.9751 11.6161 19.7406C11.8505 19.5062 12.1685 19.3745 12.5 19.3745H16.25C16.4158 19.3745 16.5747 19.4404 16.6919 19.5576C16.8092 19.6748 16.875 19.8338 16.875 19.9995C16.875 20.1653 16.8092 20.3242 16.6919 20.4415C16.5747 20.5587 16.4158 20.6245 16.25 20.6245H12.5V25.6245H27.5V20.6245H23.75C23.5842 20.6245 23.4253 20.5587 23.3081 20.4415C23.1908 20.3242 23.125 20.1653 23.125 19.9995C23.125 19.8338 23.1908 19.6748 23.3081 19.5576C23.4253 19.4404 23.5842 19.3745 23.75 19.3745H27.5C27.8315 19.3745 28.1495 19.5062 28.3839 19.7406C28.6183 19.9751 28.75 20.293 28.75 20.6245ZM16.6922 16.0667L19.375 13.3831V19.9995C19.375 20.1653 19.4408 20.3242 19.5581 20.4415C19.6753 20.5587 19.8342 20.6245 20 20.6245C20.1658 20.6245 20.3247 20.5587 20.4419 20.4415C20.5592 20.3242 20.625 20.1653 20.625 19.9995V13.3831L23.3078 16.0667C23.4251 16.184 23.5841 16.2499 23.75 16.2499C23.9159 16.2499 24.0749 16.184 24.1922 16.0667C24.3095 15.9494 24.3753 15.7904 24.3753 15.6245C24.3753 15.4587 24.3095 15.2996 24.1922 15.1823L20.4422 11.4323C20.3841 11.3742 20.3152 11.3281 20.2393 11.2967C20.1635 11.2652 20.0821 11.249 20 11.249C19.9179 11.249 19.8365 11.2652 19.7607 11.2967C19.6848 11.3281 19.6159 11.3742 19.5578 11.4323L15.8078 15.1823C15.6905 15.2996 15.6247 15.4587 15.6247 15.6245C15.6247 15.7904 15.6905 15.9494 15.8078 16.0667C15.9251 16.184 16.0841 16.2499 16.25 16.2499C16.4159 16.2499 16.5749 16.184 16.6922 16.0667ZM25.625 23.1245C25.625 22.9391 25.57 22.7578 25.467 22.6037C25.364 22.4495 25.2176 22.3293 25.0463 22.2584C24.875 22.1874 24.6865 22.1689 24.5046 22.205C24.3227 22.2412 24.1557 22.3305 24.0246 22.4616C23.8935 22.5927 23.8042 22.7598 23.768 22.9416C23.7318 23.1235 23.7504 23.312 23.8214 23.4833C23.8923 23.6546 24.0125 23.801 24.1667 23.904C24.3208 24.007 24.5021 24.062 24.6875 24.062C24.9361 24.062 25.1746 23.9632 25.3504 23.7874C25.5262 23.6116 25.625 23.3732 25.625 23.1245Z" fill="white"/>
</svg>
