<svg width="51" height="16" viewBox="0 0 51 16" fill="none" xmlns="http://www.w3.org/2000/svg">
<path d="M7.45782 0.00549764C6.86227 0.0617698 6.5559 0.108663 6.11354 0.214955C5.07719 0.461927 4.04866 0.946492 3.19051 1.5905C2.49649 2.11258 1.82904 2.81441 1.35386 3.52094C1.08344 3.92266 0.74893 4.55103 0.575424 4.98245C0.29719 5.67335 0.122121 6.37675 0.0298974 7.15518C-0.00918042 7.49594 -0.0107435 8.5104 0.0298974 8.84334C0.150257 9.85312 0.39254 10.6831 0.814581 11.5397C1.60864 13.1497 2.89509 14.4268 4.51447 15.2115C5.16785 15.5288 5.90096 15.7648 6.5981 15.8852C7.07329 15.9665 7.29838 15.9883 7.83296 15.9977C8.49729 16.0087 8.85055 15.9821 9.43828 15.8774C11.5751 15.4913 13.4758 14.2361 14.6794 12.4151C15.4219 11.2912 15.8596 10.0282 15.9784 8.66359C16.0096 8.29313 16.0018 7.46937 15.9627 7.13955C15.8455 6.15166 15.6001 5.31227 15.1796 4.45881C15.0327 4.16182 14.8123 3.7726 14.6716 3.56783C14.3637 3.11453 14.0917 2.78003 13.7337 2.41269C13.0788 1.74055 12.3941 1.24192 11.5532 0.82457C10.7153 0.407218 9.83531 0.149304 8.8568 0.0336337C8.65829 0.010187 7.6282 -0.0101335 7.45782 0.00549764ZM11.6704 5.71712H8.96622V6.88633L9.13504 6.89727C10.1354 6.95823 10.8998 7.0614 11.5454 7.21927C12.4066 7.43029 12.8412 7.69602 12.8084 7.99145C12.7536 8.46976 11.2249 8.89649 9.1663 9.00904L8.96622 9.01998V12.8137H6.9967V9.01998L6.79037 9.00904C6.1323 8.97465 5.31635 8.87773 4.77708 8.77144C4.04866 8.62607 3.51252 8.42756 3.29055 8.22279C3.10611 8.05241 3.08891 7.90548 3.23116 7.74291C3.59692 7.32712 4.95527 7.00669 6.82163 6.8957L6.9967 6.88633V5.71712H4.29251V3.9039H11.6704V5.71712Z" fill="#26A17B"/>
<path d="M6.45742 7.07077C5.1616 7.16769 4.17059 7.37714 3.78293 7.63349C3.67195 7.70696 3.62037 7.78199 3.62037 7.87109C3.62037 7.93205 3.62819 7.94768 3.70322 8.02115C4.01428 8.33064 5.11783 8.56667 6.73878 8.6714C7.15926 8.69954 8.40037 8.70892 8.84117 8.6886C10.8263 8.59794 12.169 8.30094 12.3269 7.92111C12.4488 7.62724 11.6517 7.31775 10.3496 7.15674C9.93535 7.10516 9.24446 7.04576 9.04125 7.04576H8.96622V8.35722L8.89276 8.36972C8.79428 8.38535 7.20303 8.38535 7.08736 8.36972L6.9967 8.35722V7.04576L6.86852 7.04733C6.79662 7.04889 6.61217 7.05983 6.45742 7.07077Z" fill="#26A17B"/>
<path d="M24.3906 4.11932H26.2358V9.78693C26.2358 10.4233 26.0838 10.9801 25.7798 11.4574C25.4787 11.9347 25.0568 12.3068 24.5142 12.5739C23.9716 12.8381 23.3395 12.9702 22.6179 12.9702C21.8935 12.9702 21.2599 12.8381 20.7173 12.5739C20.1747 12.3068 19.7528 11.9347 19.4517 11.4574C19.1506 10.9801 19 10.4233 19 9.78693V4.11932H20.8452V9.62926C20.8452 9.96165 20.9176 10.2571 21.0625 10.5156C21.2102 10.7741 21.4176 10.9773 21.6847 11.125C21.9517 11.2727 22.2628 11.3466 22.6179 11.3466C22.9759 11.3466 23.2869 11.2727 23.5511 11.125C23.8182 10.9773 24.0241 10.7741 24.169 10.5156C24.3168 10.2571 24.3906 9.96165 24.3906 9.62926V4.11932Z" fill="black"/>
<path d="M32.4883 6.62926C32.4542 6.28551 32.3079 6.01847 32.0494 5.82812C31.7908 5.63778 31.44 5.54261 30.9968 5.54261C30.6957 5.54261 30.4414 5.58523 30.234 5.67045C30.0266 5.75284 29.8675 5.8679 29.7567 6.01562C29.6488 6.16335 29.5948 6.33097 29.5948 6.51847C29.5891 6.67472 29.6218 6.81108 29.6928 6.92756C29.7667 7.04403 29.8675 7.14489 29.9954 7.23011C30.1232 7.3125 30.271 7.38494 30.4386 7.44744C30.6062 7.5071 30.7852 7.55824 30.9755 7.60085L31.7596 7.78835C32.1403 7.87358 32.4897 7.98722 32.8079 8.12926C33.1261 8.27131 33.4016 8.44602 33.6346 8.65341C33.8675 8.8608 34.0479 9.10511 34.1758 9.38636C34.3065 9.66761 34.3732 9.99006 34.3761 10.3537C34.3732 10.8878 34.2369 11.3509 33.967 11.7429C33.6999 12.1321 33.3136 12.4347 32.8079 12.6506C32.305 12.8636 31.6985 12.9702 30.9883 12.9702C30.2837 12.9702 29.6701 12.8622 29.1474 12.6463C28.6275 12.4304 28.2212 12.1108 27.9286 11.6875C27.6388 11.2614 27.4869 10.7344 27.4727 10.1065H29.2582C29.2781 10.3991 29.3619 10.6435 29.5096 10.8395C29.6602 11.0327 29.8604 11.179 30.1104 11.2784C30.3633 11.375 30.6488 11.4233 30.967 11.4233C31.2795 11.4233 31.5508 11.3778 31.7809 11.2869C32.0138 11.196 32.1942 11.0696 32.3221 10.9077C32.4499 10.7457 32.5139 10.5597 32.5139 10.3494C32.5139 10.1534 32.4556 9.98864 32.3391 9.85511C32.2255 9.72159 32.0579 9.60795 31.8363 9.5142C31.6175 9.42045 31.3491 9.33523 31.0309 9.25852L30.0806 9.01989C29.3448 8.84091 28.7638 8.56108 28.3377 8.1804C27.9116 7.79972 27.6999 7.28693 27.7028 6.64205C27.6999 6.11364 27.8406 5.65199 28.1246 5.2571C28.4116 4.86222 28.805 4.55398 29.305 4.33239C29.805 4.1108 30.3732 4 31.0096 4C31.6573 4 32.2227 4.1108 32.7056 4.33239C33.1914 4.55398 33.5692 4.86222 33.8391 5.2571C34.109 5.65199 34.2482 6.10938 34.2567 6.62926H32.4883Z" fill="black"/>
<path d="M38.7109 12.8466H35.6172V4.11932H38.7365C39.6143 4.11932 40.37 4.29403 41.0036 4.64347C41.6371 4.99006 42.1243 5.48864 42.4652 6.1392C42.8089 6.78977 42.9808 7.56818 42.9808 8.47443C42.9808 9.38352 42.8089 10.1648 42.4652 10.8182C42.1243 11.4716 41.6342 11.973 40.995 12.3224C40.3587 12.6719 39.5973 12.8466 38.7109 12.8466ZM37.4624 11.2656H38.6342C39.1797 11.2656 39.6385 11.169 40.0107 10.9759C40.3857 10.7798 40.6669 10.4773 40.8544 10.0682C41.0447 9.65625 41.1399 9.125 41.1399 8.47443C41.1399 7.82955 41.0447 7.30256 40.8544 6.89347C40.6669 6.48438 40.3871 6.18324 40.0149 5.99006C39.6428 5.79688 39.1839 5.70028 38.6385 5.70028H37.4624V11.2656Z" fill="black"/>
<path d="M43.6168 5.64062V4.11932H50.7844V5.64062H48.1126V12.8466H46.2887V5.64062H43.6168Z" fill="black"/>
</svg>
