<svg width="76" height="76" viewBox="0 0 76 76" fill="none" xmlns="http://www.w3.org/2000/svg">
<path d="M53.8263 45.4614C54.1196 45.193 54.5678 45.2247 54.8251 45.5307C55.0825 45.8367 55.052 46.3044 54.7587 46.5729C50.4508 50.505 48.265 49.0124 46.0349 47.491C38.4621 42.3233 37.9142 55.3609 29.1904 49.408C27.4141 48.1954 25.671 47.006 22.1737 50.199C21.8804 50.4675 21.4322 50.4357 21.1749 50.1297C20.9176 49.8237 20.948 49.356 21.2413 49.0875C25.5492 45.1554 27.735 46.648 29.9651 48.1694C37.5379 53.3372 38.0858 40.2995 46.8068 46.2525C48.5859 47.465 50.329 48.6545 53.8263 45.4614ZM22.1737 30.5386C21.8804 30.8071 21.4322 30.7753 21.1749 30.4693C20.9176 30.1633 20.948 29.6956 21.2413 29.4271C25.5492 25.495 27.735 26.9876 29.9651 28.509C37.5379 33.6767 38.0858 20.6391 46.8068 26.592C48.5832 27.8046 50.3263 28.994 53.8235 25.801C54.1168 25.5325 54.5651 25.5643 54.8224 25.8703C55.0797 26.1763 55.0492 26.644 54.756 26.9125C50.448 30.8446 48.2622 29.352 46.0321 27.8306C38.4621 22.6628 37.9142 35.7034 29.1904 29.7475C27.4141 28.535 25.671 27.3455 22.1737 30.5386ZM22.1737 37.092C21.8804 37.3605 21.4322 37.3288 21.1749 37.0228C20.9176 36.7167 20.948 36.249 21.2413 35.9805C25.5492 32.0485 27.735 33.541 29.9651 35.0625C37.5379 40.2302 38.0858 27.1925 46.8068 33.1455C48.5832 34.3581 50.3263 35.5475 53.8235 32.3545C54.1168 32.086 54.5651 32.1177 54.8224 32.4238C55.0797 32.7298 55.0492 33.1975 54.756 33.466C50.448 37.3981 48.2622 35.9055 46.0321 34.384C38.4621 29.2163 37.9142 42.2569 29.1904 36.301C27.4141 35.0885 25.671 33.899 22.1737 37.092ZM22.1737 43.6455C21.8804 43.914 21.4322 43.8823 21.1749 43.5762C20.9176 43.2702 20.948 42.8025 21.2413 42.534C25.5492 38.6019 27.735 40.0945 29.9651 41.616C37.5379 46.7837 38.0858 33.746 46.8068 39.699C48.5832 40.9115 50.3263 42.101 53.8235 38.908C54.1168 38.6395 54.5651 38.6712 54.8224 38.9772C55.0797 39.2833 55.0492 39.751 54.756 40.0195C50.448 43.9515 48.2622 42.459 46.0321 40.9375C38.4621 35.7698 37.9142 48.8104 29.1904 42.8545C27.4141 41.6419 25.671 40.4525 22.1737 43.6455Z" fill="#1E1E1E" stroke="#1E1E1E" stroke-width="0.4"/>
</svg>
