<svg width="83" height="20" viewBox="0 0 83 20" fill="none" xmlns="http://www.w3.org/2000/svg">
<path d="M31.152 4.672H36.656C37.456 4.672 38.1013 4.91733 38.592 5.408C39.0933 5.89867 39.344 6.53333 39.344 7.312V7.888C39.344 8.38933 39.2587 8.832 39.088 9.216C38.9173 9.58933 38.6667 9.88267 38.336 10.096C38.752 10.32 39.072 10.6453 39.296 11.072C39.5307 11.4987 39.648 12.0107 39.648 12.608V13.264C39.648 14.0747 39.3867 14.736 38.864 15.248C38.352 15.7493 37.6747 16 36.832 16H31.152V4.672ZM36.72 14.672C37.168 14.672 37.5413 14.528 37.84 14.24C38.1387 13.9413 38.288 13.5573 38.288 13.088V12.496C38.288 12.0267 38.1387 11.648 37.84 11.36C37.5413 11.072 37.168 10.928 36.72 10.928H32.512V14.672H36.72ZM36.416 9.6C36.864 9.6 37.2373 9.46133 37.536 9.184C37.8347 8.896 37.984 8.51733 37.984 8.048V7.552C37.984 7.08267 37.8347 6.70933 37.536 6.432C37.2373 6.144 36.864 6 36.416 6H32.512V9.6H36.416ZM41.687 4.672H43.063V14.656H49.175V16H41.687V4.672ZM54.4355 16.208C53.6782 16.208 53.0008 16.048 52.4035 15.728C51.8168 15.3973 51.3528 14.9333 51.0115 14.336C50.6808 13.7387 50.5155 13.0507 50.5155 12.272V4.672H51.8915V12.224C51.8915 13.056 52.1262 13.7067 52.5955 14.176C53.0648 14.6347 53.6995 14.864 54.4995 14.864H55.5235C56.3235 14.864 56.9528 14.6347 57.4115 14.176C57.8808 13.7067 58.1155 13.056 58.1155 12.224V4.672H59.4915V12.272C59.4915 13.0507 59.3208 13.7387 58.9795 14.336C58.6488 14.9333 58.1848 15.3973 57.5875 15.728C57.0008 16.048 56.3288 16.208 55.5715 16.208H54.4355ZM65.5799 16.208C64.8225 16.208 64.1452 16.048 63.5479 15.728C62.9612 15.3973 62.4972 14.9333 62.1559 14.336C61.8252 13.7387 61.6599 13.0507 61.6599 12.272V4.672H63.0359V12.224C63.0359 13.056 63.2705 13.7067 63.7399 14.176C64.2092 14.6347 64.8439 14.864 65.6439 14.864H66.6679C67.4679 14.864 68.0972 14.6347 68.5559 14.176C69.0252 13.7067 69.2599 13.056 69.2599 12.224V4.672H70.6359V12.272C70.6359 13.0507 70.4652 13.7387 70.1239 14.336C69.7932 14.9333 69.3292 15.3973 68.7319 15.728C68.1452 16.048 67.4732 16.208 66.7159 16.208H65.5799ZM76.7242 16.208C75.9669 16.208 75.2896 16.048 74.6922 15.728C74.1056 15.3973 73.6416 14.9333 73.3002 14.336C72.9696 13.7387 72.8042 13.0507 72.8042 12.272V4.672H74.1802V12.224C74.1802 13.056 74.4149 13.7067 74.8842 14.176C75.3536 14.6347 75.9882 14.864 76.7882 14.864H77.8122C78.6122 14.864 79.2416 14.6347 79.7002 14.176C80.1696 13.7067 80.4043 13.056 80.4043 12.224V4.672H81.7802V12.272C81.7802 13.0507 81.6096 13.7387 81.2682 14.336C80.9376 14.9333 80.4736 15.3973 79.8762 15.728C79.2896 16.048 78.6176 16.208 77.8602 16.208H76.7242Z" fill="#7E7E7E"/>
<path fill-rule="evenodd" clip-rule="evenodd" d="M17.0859 2.9063C15.2061 1.0331 12.7059 0.001 10.042 0C4.5529 0 0.0855 4.4455 0.0836 9.9097C0.0826 11.6565 0.5415 13.3615 1.4129 14.8641L0 20L5.2791 18.6219C6.7335 19.4117 8.3713 19.8275 10.0377 19.828H10.042C15.5302 19.828 19.9981 15.3821 20 9.9178C20.0009 7.2696 18.9662 4.7795 17.0859 2.9063ZM10.042 18.1544H10.0387C8.5537 18.1539 7.0969 17.7566 5.8258 17.0063L5.5236 16.8276L2.3908 17.6454L3.2269 14.6056L3.0301 14.2939C2.2017 12.9823 1.7638 11.4664 1.7648 9.9102C1.7667 5.3687 5.4797 1.6736 10.0454 1.6736C12.2561 1.6746 14.3342 2.5323 15.8969 4.0895C17.4598 5.6463 18.3197 7.7162 18.3188 9.9169C18.3168 14.4588 14.604 18.1544 10.042 18.1544ZM14.5819 11.9854C14.3332 11.8614 13.1099 11.2626 12.8816 11.1799C12.6534 11.0972 12.4878 11.0559 12.322 11.3039C12.1563 11.552 11.6794 12.1099 11.5342 12.2747C11.389 12.4401 11.2439 12.4606 10.9951 12.3365C10.7463 12.2125 9.9446 11.9512 8.9939 11.1077C8.2543 10.4509 7.7548 9.6403 7.6097 9.3922C7.4646 9.1442 7.5944 9.0102 7.7186 8.8871C7.8303 8.7759 7.9673 8.5977 8.092 8.4532C8.2166 8.3088 8.2577 8.2052 8.3407 8.0403C8.4239 7.8749 8.3823 7.7305 8.3203 7.6064C8.2581 7.4824 7.7606 6.2635 7.5529 5.7679C7.3509 5.2851 7.1456 5.3507 6.9933 5.3426C6.8481 5.3355 6.6824 5.3341 6.5163 5.3341C6.3501 5.3341 6.0808 5.3958 5.8526 5.6439C5.6243 5.8919 4.9816 6.4912 4.9816 7.7095C4.9816 8.928 5.8731 10.106 5.9977 10.2714C6.1223 10.4367 7.7524 12.9377 10.2483 14.0107C10.8418 14.2658 11.3054 14.4184 11.6669 14.5324C12.2628 14.7211 12.8052 14.6945 13.234 14.6308C13.712 14.5595 14.7061 14.0316 14.9134 13.4532C15.1205 12.8749 15.1205 12.3788 15.0585 12.2757C14.9965 12.1726 14.8307 12.1094 14.5819 11.9854Z" fill="#2B2B2B"/>
</svg>
