<svg width="46" height="46" viewBox="0 0 46 46" fill="none" xmlns="http://www.w3.org/2000/svg">
<path fill-rule="evenodd" clip-rule="evenodd" d="M30.0859 15.9063C28.2061 14.0331 25.7059 13.001 23.042 13C17.5529 13 13.0855 17.4455 13.0836 22.9097C13.0826 24.6565 13.5415 26.3615 14.4129 27.8641L13 33L18.2791 31.6219C19.7335 32.4117 21.3713 32.8275 23.0377 32.828H23.042C28.5302 32.828 32.9981 28.3821 33 22.9178C33.0009 20.2696 31.9662 17.78 30.0859 15.9068V15.9063ZM23.042 31.1544H23.0387C21.5537 31.1539 20.0969 30.7566 18.8258 30.0063L18.5236 29.8276L15.3908 30.6454L16.2269 27.6056L16.0301 27.2939C15.2017 25.9823 14.7638 24.4664 14.7648 22.9102C14.7667 18.3687 18.4797 14.6736 23.0454 14.6736C25.2561 14.6746 27.3342 15.5323 28.8969 17.0895C30.4598 18.6463 31.3197 20.7162 31.3188 22.9169C31.3168 27.4588 27.604 31.1539 23.042 31.1539V31.1544ZM27.5819 24.9854C27.3332 24.8614 26.1099 24.2626 25.8816 24.1799C25.6534 24.0972 25.4878 24.0559 25.322 24.3039C25.1563 24.552 24.6794 25.1099 24.5342 25.2747C24.389 25.4401 24.2439 25.4606 23.9951 25.3365C23.7463 25.2125 22.9446 24.9512 21.9939 24.1077C21.2543 23.4509 20.7548 22.6403 20.6097 22.3922C20.4646 22.1442 20.5944 22.0102 20.7186 21.8871C20.8303 21.7759 20.9673 21.5977 21.092 21.4532C21.2166 21.3088 21.2577 21.2052 21.3407 21.0403C21.4239 20.8749 21.3823 20.7305 21.3203 20.6064C21.2581 20.4824 20.7606 19.2635 20.5529 18.7679C20.3509 18.2851 20.1456 18.3507 19.9933 18.3426C19.8481 18.3355 19.6824 18.3341 19.5163 18.3341C19.3501 18.3341 19.0808 18.3958 18.8526 18.6439C18.6243 18.8919 17.9816 19.4912 17.9816 20.7095C17.9816 21.928 18.8731 23.106 18.9977 23.2714C19.1223 23.4367 20.7524 25.9377 23.2483 27.0107C23.8418 27.2658 24.3054 27.4184 24.6669 27.5324C25.2628 27.7211 25.8052 27.6945 26.234 27.6308C26.712 27.5595 27.7061 27.0316 27.9134 26.4532C28.1205 25.8749 28.1205 25.3788 28.0585 25.2757C27.9965 25.1726 27.8303 25.1103 27.5815 24.9863L27.5819 24.9854Z" fill="#F9F9F9"/>
</svg>
