<svg width="24" height="24" viewBox="0 0 24 24" fill="none" xmlns="http://www.w3.org/2000/svg">
<g clip-path="url(#clip0_855_23217)">
<path fill-rule="evenodd" clip-rule="evenodd" d="M0.378823 2.86937H4.96927L4.96318 2.79319V0.806707C4.96318 0.36331 5.44128 0 6.02875 0C6.61421 0 7.09431 0.365265 7.09431 0.806707V2.79319L7.08825 2.86937H16.6201L16.614 2.79319V0.806707C16.614 0.36331 17.0921 0 17.6775 0C18.263 0 18.7431 0.365265 18.7431 0.806707V2.79319L18.737 2.86937H23.6211C23.8298 2.86937 24 3.03345 24 3.23463V7.03574C24 7.23691 23.8298 7.401 23.6211 7.401H0.378823C0.170166 7.39905 0 7.23497 0 7.03378V3.23268C0 3.03149 0.170166 2.86937 0.378823 2.86937ZM0.0952119 8.2409H23.9067C23.9595 8.2409 24 8.28192 24 8.33076V23.9102C24 23.959 23.9575 24 23.9067 24H0.0952119C0.0445673 24 0.00202581 23.959 0.00202581 23.9102V8.33271C1.87595e-08 8.28192 0.0425414 8.2409 0.0952119 8.2409ZM1.79079 9.8797H22.5151C22.6205 9.8797 22.7055 9.96761 22.7055 10.0633V22.3397C22.7055 22.4354 22.6143 22.5233 22.5151 22.5233H1.69964C1.60037 22.5233 1.50921 22.4412 1.50921 22.3397V10.1512C1.50921 9.95002 1.67938 9.7879 1.88601 9.7879L1.79079 9.8797ZM17.5843 5.83445C18.1697 5.83445 18.6499 5.46919 18.6499 5.02776V2.95142L18.6439 2.87133H16.5248L16.5188 2.95142V4.93594C16.5188 5.37934 16.9969 5.74265 17.5822 5.74265V5.83445H17.5843ZM5.93354 5.83445C6.519 5.83445 6.9991 5.46919 6.9991 5.02776V2.95142L6.99303 2.87133H4.87608L4.86999 2.95142V4.93594C4.86999 5.37934 5.34809 5.74265 5.93354 5.74265V5.83445Z" fill="#244BD1"/>
<path d="M15.7429 12.0596C15.3114 11.6416 14.6145 11.6455 14.1871 12.0635L12.3152 13.8937L10.4495 12.0674C10.0261 11.6514 9.33125 11.6494 8.89976 12.0655C8.46826 12.4815 8.46421 13.1554 8.88761 13.5714L10.7696 15.4114L8.88963 17.2495C8.46219 17.6675 8.46421 18.3472 8.89368 18.7632C9.32518 19.1813 10.0221 19.1793 10.4495 18.7594L12.3213 16.9291L14.1891 18.7555C14.6125 19.1716 15.3073 19.1735 15.7388 18.7574C16.1703 18.3413 16.1744 17.6674 15.751 17.2514L13.869 15.4114L15.7469 13.5734C16.1744 13.1554 16.1723 12.4776 15.7429 12.0596Z" fill="#244BD1"/>
</g>
<defs>
<clipPath id="clip0_855_23217">
<rect width="24" height="24" fill="white"/>
</clipPath>
</defs>
</svg>
