<svg width="24" height="24" viewBox="0 0 24 24" fill="none" xmlns="http://www.w3.org/2000/svg">
<g clip-path="url(#clip0_855_23211)">
<path fill-rule="evenodd" clip-rule="evenodd" d="M20.503 3.48756C18.2472 1.23972 15.2471 0.00117083 12.0504 0C5.46345 0 0.102589 5.33457 0.100283 11.8917C0.0991531 13.9878 0.64979 16.0338 1.69549 17.837L0 24L6.33494 22.3462C8.0802 23.2941 10.0455 23.7929 12.0453 23.7936H12.0504C18.6363 23.7936 23.9978 18.4584 24 11.9013C24.0012 8.72349 22.7595 5.73545 20.503 3.48756ZM12.0504 21.7851H12.0464C10.2644 21.7846 8.51625 21.3079 6.99098 20.4075L6.6283 20.1933L2.86894 21.1745L3.87225 17.5267L3.63615 17.1526C2.64202 15.5788 2.11661 13.7597 2.11774 11.8923C2.12006 6.44249 6.57559 2.00834 12.0545 2.00834C14.7073 2.0095 17.201 3.03881 19.0764 4.90745C20.9518 6.77553 21.9837 9.25949 21.9825 11.9002C21.9802 17.3505 17.5248 21.7851 12.0504 21.7851ZM17.4984 14.3825C17.1998 14.2336 15.7319 13.5151 15.458 13.4159C15.1841 13.3166 14.9853 13.2671 14.7864 13.5647C14.5876 13.8624 14.0152 14.5319 13.841 14.7297C13.6668 14.9282 13.4926 14.9527 13.1941 14.8038C12.8956 14.655 11.9335 14.3414 10.7927 13.3292C9.90519 12.5411 9.30581 11.5684 9.13169 11.2706C8.95747 10.973 9.11333 10.8122 9.26227 10.6645C9.39634 10.5311 9.56081 10.3173 9.71037 10.1439C9.85992 9.97051 9.90919 9.84627 10.0089 9.64834C10.1086 9.44988 10.0587 9.27663 9.98431 9.12771C9.90975 8.97891 9.31272 7.51623 9.06345 6.9215C8.82105 6.34217 8.57474 6.42086 8.39198 6.41115C8.2177 6.40258 8.01893 6.4009 7.81954 6.4009C7.62015 6.4009 7.29696 6.47499 7.02307 6.77271C6.74919 7.07028 5.97794 7.78941 5.97794 9.25143C5.97794 10.7136 7.04774 12.1272 7.19729 12.3257C7.34679 12.5241 9.30293 15.5252 12.298 16.8128C13.0102 17.119 13.5665 17.3021 14.0003 17.4389C14.7154 17.6652 15.3663 17.6333 15.8808 17.5569C16.4544 17.4715 17.6474 16.8379 17.8961 16.1439C18.1447 15.4499 18.1447 14.8546 18.0701 14.7308C17.9957 14.6071 17.7969 14.5312 17.4984 14.3825Z" fill="#244BD1"/>
</g>
<defs>
<clipPath id="clip0_855_23211">
<rect width="24" height="24" fill="white"/>
</clipPath>
</defs>
</svg>
