<svg width="24" height="24" viewBox="0 0 24 24" fill="none" xmlns="http://www.w3.org/2000/svg">
<g clip-path="url(#clip0_855_23220)">
<path fill-rule="evenodd" clip-rule="evenodd" d="M22.4467 7.23639C22.081 7.65435 21.6554 8.0274 21.1771 8.33014C21.119 8.37506 21.0384 8.38092 20.9727 8.33601C20.2675 7.86921 19.673 7.30671 19.2079 6.69538C18.5647 5.85554 18.1596 4.92391 18.0207 4.02742C17.8802 3.11727 18.0115 2.24227 18.4466 1.52938C18.619 1.25009 18.8385 0.992277 19.1047 0.771574C19.7181 0.263765 20.4175 -0.00576581 21.1171 9.35449e-05C21.7884 0.00595289 22.4523 0.265718 23.0263 0.810638C23.2287 1.00204 23.3976 1.21884 23.5363 1.45712C24.0033 2.25986 24.1046 3.28133 23.8983 4.31844C23.6957 5.34382 23.1931 6.38484 22.4467 7.23639ZM4.47813 17.9805C4.11242 18.3984 3.68669 18.7714 3.20847 19.0742C3.15033 19.1191 3.06969 19.1251 3.00405 19.0802C2.29889 18.6113 1.70439 18.0507 1.23928 17.4394C0.597895 16.6016 0.192806 15.67 0.0540254 14.7715C-0.0866303 13.8614 0.0446485 12.9864 0.479743 12.2754C0.650407 11.9942 0.869829 11.7383 1.13801 11.5176C1.75128 11.0098 2.45079 10.7403 3.14846 10.7462C3.81986 10.752 4.48375 11.0118 5.05762 11.5567C5.26017 11.7481 5.42895 11.9649 5.56773 12.2032C6.03471 13.0059 6.13598 14.0274 5.92968 15.0645C5.72714 16.0879 5.22453 17.1289 4.47813 17.9805ZM3.20097 20.125C4.04678 20.125 4.76131 20.7149 4.98636 21.5196H17.9475C18.5026 21.5196 19.009 21.2832 19.3766 20.9004C19.7441 20.5176 19.9711 19.9922 19.9711 19.4121C19.9711 18.834 19.7441 18.3067 19.3766 17.9239C19.009 17.5411 18.5045 17.3047 17.9475 17.3047H14.0129C13.1295 17.3047 12.3269 16.9297 11.7455 16.3243C11.1641 15.7188 10.804 14.8828 10.804 13.9629C10.804 13.043 11.1641 12.2071 11.7455 11.6016C12.3269 10.9961 13.1295 10.6211 14.0129 10.6211H19.2849C19.5286 9.84771 20.2281 9.28911 21.0514 9.28911C22.0791 9.28911 22.9118 10.1563 22.9118 11.2266C22.9118 12.2969 22.0791 13.1641 21.0514 13.1641C20.2356 13.1641 19.5435 12.6172 19.2922 11.8575H14.0129C13.4577 11.8575 12.9514 12.0938 12.5838 12.4766C12.2162 12.8594 11.9893 13.3848 11.9893 13.9649C11.9893 14.543 12.2162 15.0704 12.5838 15.4532C12.9476 15.8321 13.4484 16.0684 13.9997 16.0723H17.9494C18.8326 16.0723 19.6354 16.4473 20.2167 17.0528C20.7981 17.6582 21.1582 18.4942 21.1582 19.4141C21.1582 20.334 20.7981 21.1699 20.2167 21.7754C19.6354 22.3809 18.8326 22.7559 17.9494 22.7559H4.93947C4.67129 23.4843 3.99427 24 3.20097 24C2.17323 24 1.34056 23.1327 1.34056 22.0625C1.34056 20.9923 2.17323 20.125 3.20097 20.125ZM3.01529 12.3633C3.84423 12.3633 4.51563 13.0625 4.51563 13.9258C4.51563 14.7891 3.84423 15.4883 3.01529 15.4883C2.18637 15.4883 1.51497 14.7891 1.51497 13.9258C1.51497 13.0625 2.18637 12.3633 3.01529 12.3633ZM20.9839 1.61727C21.8129 1.61727 22.4842 2.3165 22.4842 3.17978C22.4842 4.04304 21.8129 4.74226 20.9839 4.74226C20.155 4.74226 19.4835 4.04304 19.4835 3.17978C19.4835 2.3165 20.155 1.61727 20.9839 1.61727Z" fill="#244BD1"/>
</g>
<defs>
<clipPath id="clip0_855_23220">
<rect width="24" height="24" fill="white"/>
</clipPath>
</defs>
</svg>
