<svg width="24" height="24" viewBox="0 0 24 24" fill="none" xmlns="http://www.w3.org/2000/svg">
<g clip-path="url(#clip0_855_23206)">
<path fill-rule="evenodd" clip-rule="evenodd" d="M12.1297 0C15.8519 0 19.1825 1.65879 21.407 4.27011L22.939 2.7545V7.72793H17.9119L19.3495 6.30586C17.6405 4.1502 14.9841 2.76523 12 2.76523C6.84468 2.76523 2.66522 6.89981 2.66522 12C2.66522 17.1002 6.84447 21.235 12 21.235C16.2877 21.235 19.8998 18.3747 20.9943 14.4787H24C22.8456 19.9167 17.9702 24 12.1299 24C5.43074 24 0 18.6274 0 11.9998C0 5.37266 5.43074 0 12.1297 0ZM11.9609 15.5943H6.96156V14.5231L9.26352 12.1289C9.83131 11.4891 10.115 10.9822 10.115 10.6053C10.115 10.301 10.0479 10.0685 9.91342 9.91075C9.77918 9.75137 9.58255 9.67149 9.32727 9.67149C9.07536 9.67149 8.87064 9.77774 8.7127 9.99043C8.55456 10.2029 8.47579 10.4674 8.47579 10.7863H6.81309C6.81309 10.351 6.92227 9.94882 7.14259 9.57969C7.36251 9.2125 7.66833 8.92383 8.05764 8.71601C8.44894 8.50839 8.88406 8.40507 9.36756 8.40507C10.1399 8.40507 10.7363 8.58125 11.1544 8.93515C11.5744 9.28906 11.7826 9.79766 11.7826 10.4588C11.7826 10.7379 11.7307 11.0102 11.6247 11.2746C11.5209 11.5387 11.3578 11.8158 11.1363 12.107C10.9146 12.3975 10.5582 12.7846 10.0662 13.2713L9.14071 14.3281H11.9607L11.9609 15.5943ZM16.7482 12.8246H17.4771V14.0908H16.7482V15.5941H15.0905V14.0908H12.3214L12.2219 13.0871L15.0903 8.52168V8.50665H16.748L16.7482 12.8246ZM13.8005 12.8246H15.0903V10.6434L14.9878 10.8096L13.8005 12.8246Z" fill="#244BD1"/>
</g>
<defs>
<clipPath id="clip0_855_23206">
<rect width="24" height="24" fill="white"/>
</clipPath>
</defs>
</svg>
