<svg width="24" height="24" viewBox="0 0 24 24" fill="none" xmlns="http://www.w3.org/2000/svg">
<g clip-path="url(#clip0_855_23208)">
<path fill-rule="evenodd" clip-rule="evenodd" d="M0.378823 2.86915H4.96927L4.96318 2.79297V0.80664C4.96318 0.363281 5.44126 0 6.02875 0C6.61421 0 7.09431 0.365234 7.09431 0.80664V2.79297L7.08825 2.86915H16.6201L16.614 2.79297V0.80664C16.614 0.363281 17.0921 0 17.6775 0C18.263 0 18.7431 0.365234 18.7431 0.80664V2.79297L18.737 2.86915H23.6211C23.8298 2.86915 24 3.03321 24 3.23438V7.03515C24 7.23633 23.8298 7.40038 23.6211 7.40038H0.378823C0.170166 7.39845 0 7.23437 0 7.0332V3.23242C0 3.03125 0.170166 2.86915 0.378823 2.86915ZM0.0952121 8.24023H23.9067C23.9595 8.24023 24 8.28125 24 8.33203V23.9102C24 23.959 23.9575 24 23.9067 24H0.0952121C0.0445673 24 0.00202581 23.959 0.00202581 23.9102V8.33203C1.87595e-08 8.28125 0.0425415 8.24023 0.0952121 8.24023ZM1.79079 9.87891H22.5151C22.6205 9.87891 22.7055 9.96681 22.7055 10.0625V22.3378C22.7055 22.4337 22.6143 22.5214 22.5151 22.5214H1.69964C1.60037 22.5214 1.50921 22.4395 1.50921 22.3378V10.1504C1.50921 9.94922 1.67938 9.78711 1.88601 9.78711L1.79079 9.87891ZM17.5843 5.83399C18.1697 5.83399 18.6499 5.46874 18.6499 5.02735V2.95118L18.6439 2.87109H16.5269L16.5208 2.95118V4.93555C16.5208 5.37891 16.9989 5.74219 17.5843 5.74219V5.83399ZM5.93354 5.83399C6.519 5.83399 6.9991 5.46874 6.9991 5.02735V2.95118L6.99303 2.87109H4.87406L4.86797 2.95118V4.93555C4.86797 5.37891 5.34605 5.74219 5.93151 5.74219V5.83399H5.93354Z" fill="#244BD1"/>
<path d="M7.95285 14.8132C7.55377 15.2585 7.60441 15.9304 8.06427 16.3152L11.3582 19.0691C11.7978 19.4363 12.4542 19.407 12.8593 19.0183L17.7049 14.4089C18.1364 13.9949 18.1385 13.3191 17.709 12.9031C17.2796 12.4871 16.5787 12.4851 16.1472 12.8992L12.0328 16.8132L9.51068 14.7039C9.0488 14.3191 8.35192 14.3679 7.95285 14.8132Z" fill="#244BD1"/>
</g>
<defs>
<clipPath id="clip0_855_23208">
<rect width="24" height="24" fill="white"/>
</clipPath>
</defs>
</svg>
