<svg width="24" height="24" viewBox="0 0 24 24" fill="none" xmlns="http://www.w3.org/2000/svg">
<g clip-path="url(#clip0_855_23215)">
<path d="M10.163 7.30342C10.163 6.79011 10.5792 6.37421 11.093 6.37421C11.6063 6.37421 12.0225 6.79011 12.0225 7.30342V12.9587L15.8967 14.6602C16.366 14.8667 16.5792 15.4142 16.3725 15.8831C16.1658 16.3523 15.6178 16.565 15.1486 16.3584L10.7658 14.4335C10.4138 14.3014 10.163 13.9619 10.163 13.5638V7.30342ZM0.435002 7.19054C0.409689 7.10249 0.396096 7.0093 0.396096 6.91329L0.403596 3.47515C0.403596 2.92063 0.853128 2.47149 1.40813 2.47149C1.96265 2.47149 2.41267 2.92063 2.41267 3.47515L2.40984 4.77996C3.0072 3.98611 3.7013 3.26979 4.4761 2.64758C5.26267 2.01672 6.14345 1.47484 7.10954 1.04397C10.1377 -0.305342 13.4236 -0.301595 16.2891 0.795272C19.133 1.88371 21.5654 4.04887 22.9224 7.03599C22.9486 7.08329 22.9706 7.13294 22.9884 7.18445C24.3051 10.1889 24.293 13.4416 23.2041 16.2802C22.1573 19.0102 20.1165 21.3598 17.3073 22.7424C17.2894 22.7527 17.2716 22.7621 17.2529 22.7715C16.6697 23.059 16.0594 23.2989 15.4369 23.4881C15.2044 23.5565 14.9625 23.5344 14.7488 23.4197C14.041 23.039 14.146 21.9931 14.9142 21.7594C15.3258 21.6329 15.7261 21.4845 16.1175 21.3098C16.1367 21.3 16.1569 21.2911 16.177 21.2827C16.2708 21.24 16.3641 21.1959 16.4564 21.1505C16.4813 21.1383 16.5066 21.1272 16.5324 21.1173C18.9051 19.9418 20.6302 17.9508 21.517 15.6386C22.4513 13.2013 22.4565 10.41 21.3103 7.84248C20.1636 5.27499 18.083 3.41379 15.6464 2.48133C13.207 1.54744 10.4138 1.54275 7.84407 2.68786C7.04244 3.04431 6.29014 3.50254 5.60578 4.05122C4.94201 4.58405 4.34811 5.19837 3.83813 5.87964L4.6397 5.83421C5.19422 5.80377 5.66907 6.22857 5.69954 6.78309C5.73 7.33714 5.30486 7.81157 4.74986 7.84202L1.48219 8.02654C0.965628 8.05464 0.518439 7.68886 0.435002 7.19054ZM11.5753 23.9995C12.398 24.0252 12.8264 23.0371 12.2438 22.4549C12.0764 22.2933 11.8735 22.2043 11.6409 22.1945C11.0822 22.1762 10.5403 22.1139 9.99142 22.0066C9.63891 21.9393 9.2958 22.0742 9.08251 22.3622C8.70048 22.8989 8.99016 23.6469 9.63799 23.7775C10.2767 23.9038 10.9246 23.9781 11.5753 23.9995ZM5.99157 22.3968C6.54235 22.7148 7.23564 22.393 7.34205 21.7646C7.3997 21.3912 7.23235 21.0339 6.90797 20.8401C6.42657 20.5594 5.97845 20.2447 5.54907 19.8902C4.90407 19.3591 3.94781 19.9053 4.07907 20.7309C4.11703 20.951 4.22203 21.1332 4.39267 21.2779C4.89423 21.6938 5.42897 22.068 5.99157 22.3968ZM1.83516 18.354C2.25141 19.0149 3.24938 18.8772 3.47016 18.1274C3.54094 17.8764 3.50578 17.6201 3.36843 17.3981C3.07359 16.9284 2.82 16.4371 2.60391 15.9261C2.31329 15.2358 1.35235 15.1782 0.983909 15.8306C0.846096 16.0718 0.829221 16.3683 0.937034 16.624C1.18828 17.2221 1.49016 17.8047 1.83516 18.354ZM0.0309391 12.8421C0.0600015 13.2463 0.350158 13.5779 0.746721 13.6622C1.33922 13.7806 1.87125 13.3175 1.83375 12.7147C1.79391 12.1588 1.79954 11.6122 1.84875 11.0567C1.87641 10.727 1.73203 10.417 1.45922 10.2292C0.886409 9.84279 0.114377 10.2058 0.0492202 10.8928C-0.00959768 11.541 -0.0157115 12.1929 0.0309391 12.8421Z" fill="#244BD1"/>
</g>
<defs>
<clipPath id="clip0_855_23215">
<rect width="24" height="24" fill="white"/>
</clipPath>
</defs>
</svg>
