<svg width="24" height="24" viewBox="0 0 24 24" fill="none" xmlns="http://www.w3.org/2000/svg">
<g clip-path="url(#clip0_855_23213)">
<path d="M4.65627 14.5097C5.04885 14.5602 5.32618 14.932 5.27736 15.3382C5.22852 15.7444 4.86915 16.0313 4.47658 15.9808C3.95511 15.9121 3.48247 15.7848 3.0528 15.6009C2.60945 15.4109 2.21688 15.1664 1.87118 14.8673C1.54306 14.5844 1.25596 14.2631 1.01183 13.9135C0.359496 12.984 0.00794246 11.8483 0.000130141 10.7166C-0.00768218 9.57286 0.33606 8.43514 1.07823 7.51366C1.31846 7.21459 1.60166 6.93975 1.92586 6.69727C2.30282 6.41434 2.73444 6.1759 3.22272 5.97987C3.55863 5.84448 3.91802 5.73132 4.29691 5.64038C4.72658 3.8742 5.64257 2.51421 6.82029 1.57049C7.92182 0.687401 9.24797 0.172097 10.6132 0.0367042C11.9725 -0.0986896 13.3709 0.139765 14.6267 0.764193C15.9978 1.4452 17.1931 2.57887 17.9685 4.17327C18.281 4.12275 18.5935 4.09649 18.9039 4.10054C20.2164 4.10861 21.4821 4.59562 22.4781 5.70706C22.687 5.93947 22.8843 6.20217 23.0679 6.49519C23.693 7.48942 24.0132 8.81709 23.9997 10.1165C23.9859 11.3916 23.6539 12.6607 22.9742 13.5963C22.5309 14.2045 21.9626 14.7016 21.281 15.0957C20.6246 15.4756 19.859 15.7646 18.9998 15.9707C18.613 16.0617 18.2282 15.8131 18.1404 15.413C18.0525 15.0129 18.2926 14.6148 18.6794 14.5238C19.404 14.35 20.0407 14.1116 20.5778 13.8004C21.0914 13.5033 21.5114 13.1416 21.8258 12.7071C22.314 12.0342 22.5543 11.0824 22.5641 10.1063C22.5758 9.08181 22.3335 8.05322 21.863 7.30553C21.7282 7.09131 21.5798 6.8953 21.4234 6.72151C20.7183 5.93542 19.8238 5.59188 18.8942 5.58583C18.2184 5.58178 17.5231 5.74951 16.8611 6.05263C16.7146 6.12739 16.5681 6.20823 16.4216 6.29714C15.9822 6.5639 15.5486 6.88923 15.1053 7.26309L14.16 6.14355C14.4861 5.83034 14.8396 5.54541 15.2146 5.29281C15.5134 5.09073 15.8259 4.9129 16.1462 4.7573C16.2752 4.69061 16.406 4.62795 16.5369 4.56936C15.9138 3.42761 15.0174 2.60918 14.0018 2.10398C12.9862 1.6008 11.8495 1.40681 10.7421 1.51795C9.64248 1.62707 8.57415 2.04134 7.69137 2.75064C6.66989 3.57108 5.89452 4.79367 5.5957 6.41637L5.50197 6.92359L5.01369 7.01251C4.53518 7.09941 4.10746 7.21863 3.73246 7.37019C3.36919 7.51569 3.04498 7.69553 2.76178 7.90773C2.53522 8.07747 2.33991 8.26742 2.1739 8.47354C1.66025 9.11009 1.42197 9.90831 1.42783 10.7166C1.43369 11.5371 1.6915 12.3656 2.16806 13.0466C2.34578 13.2992 2.55086 13.5316 2.78522 13.7337C3.0235 13.9378 3.29107 14.1075 3.59184 14.2348C3.91215 14.3642 4.26566 14.4592 4.65627 14.5097ZM10.8651 17.8346C11.2928 19.8897 12.578 20.9163 12.578 21.9449C12.578 22.9735 12.1502 24 10.8651 24C9.57999 24 9.15226 22.9735 9.15226 21.9449C9.15226 20.9182 10.4354 19.8897 10.8651 17.8346ZM14.6658 12.4067C15.0935 14.6376 16.3787 15.7531 16.3787 16.8686C16.3787 17.9841 15.9509 19.0995 14.6658 19.0995C13.3807 19.0995 12.953 17.9841 12.953 16.8686C12.953 15.7531 14.2381 14.6376 14.6658 12.4067ZM8.93352 12.1904C9.24211 13.6676 10.1659 14.4073 10.1659 15.1469C10.1659 15.8865 9.85733 16.6241 8.93352 16.6241C8.00971 16.6241 7.70112 15.8845 7.70112 15.1469C7.70112 14.4073 8.62493 13.6676 8.93352 12.1904Z" fill="#244BD1"/>
</g>
<defs>
<clipPath id="clip0_855_23213">
<rect width="24" height="24" fill="white"/>
</clipPath>
</defs>
</svg>
