<svg width="46" height="46" viewBox="0 0 46 46" fill="none" xmlns="http://www.w3.org/2000/svg">
<path d="M16.2698 15.0905C15.1073 15.1421 14.3011 15.2593 13.5511 15.4937C12.3698 15.864 11.6151 16.5905 11.2823 17.6827C11.0292 18.5077 11.0245 18.5687 11.0058 22.7265C10.987 26.7624 11.0058 27.3296 11.1886 28.2249C11.3948 29.2421 11.7276 29.9218 12.3089 30.5124C13.2464 31.464 14.4464 31.853 16.762 31.9655C17.4558 31.9984 19.9026 32.0077 23.887 31.9937C30.2948 31.9702 30.3933 31.9702 31.4339 31.7499C33.2854 31.3609 34.2745 30.428 34.7104 28.6562C34.9683 27.6202 34.9729 27.4984 34.9729 23.1484C34.9729 20.1109 34.9589 19.0421 34.912 18.728C34.6401 16.8718 33.9604 15.9812 32.4417 15.4937C31.7011 15.2546 30.937 15.1468 29.5729 15.0859C28.4339 15.0343 17.4417 15.039 16.2698 15.0905ZM21.7214 20.3312C23.3011 21.1234 26.4511 22.7874 26.5495 22.8812C26.8776 23.1812 26.8683 23.6359 26.5261 23.9499C26.3714 24.0952 21.4167 26.6921 21.1683 26.7577C20.8542 26.8421 20.4979 26.6734 20.3526 26.364C20.287 26.2234 20.2776 25.8905 20.2776 23.3921V20.5843L20.3854 20.4249C20.4417 20.3405 20.5636 20.2187 20.6479 20.1624C20.9058 19.989 21.0979 20.0171 21.7214 20.3312Z" fill="white"/>
</svg>
